%TF.GenerationSoftware,KiCad,Pcbnew,5.1.10*%
%TF.CreationDate,2021-11-06T16:29:50+01:00*%
%TF.ProjectId,PCB_BLDC,5043425f-424c-4444-932e-6b696361645f,V1*%
%TF.SameCoordinates,Original*%
%TF.FileFunction,Soldermask,Top*%
%TF.FilePolarity,Negative*%
%FSLAX46Y46*%
G04 Gerber Fmt 4.6, Leading zero omitted, Abs format (unit mm)*
G04 Created by KiCad (PCBNEW 5.1.10) date 2021-11-06 16:29:50*
%MOMM*%
%LPD*%
G01*
G04 APERTURE LIST*
%ADD10C,10.160000*%
%ADD11O,1.600000X1.600000*%
%ADD12R,1.600000X1.600000*%
%ADD13C,2.600000*%
%ADD14R,2.600000X2.600000*%
%ADD15O,1.700000X1.700000*%
%ADD16R,1.700000X1.700000*%
%ADD17R,8.600000X0.800000*%
%ADD18R,11.400000X12.800000*%
%ADD19R,6.550000X6.250000*%
%ADD20R,4.550000X6.250000*%
%ADD21R,8.600000X1.100000*%
%ADD22R,3.500000X2.300000*%
%ADD23R,1.200000X0.900000*%
%ADD24R,2.000000X2.000000*%
%ADD25C,2.000000*%
%ADD26R,3.000000X2.500000*%
%ADD27C,1.300000*%
%ADD28R,1.300000X1.300000*%
%ADD29R,4.900000X5.400000*%
G04 APERTURE END LIST*
D10*
%TO.C,J8*%
X36576000Y-148336000D03*
%TD*%
D11*
%TO.C,A1*%
X107569000Y-64554100D03*
X110109000Y-64554100D03*
X70489000Y-64554100D03*
X110109000Y-112814100D03*
X73029000Y-64554100D03*
X107569000Y-112814100D03*
X75569000Y-64554100D03*
X105029000Y-112814100D03*
X78109000Y-64554100D03*
X102489000Y-112814100D03*
X80649000Y-64554100D03*
X99949000Y-112814100D03*
X83189000Y-64554100D03*
X97409000Y-112814100D03*
X85729000Y-64554100D03*
X92329000Y-112814100D03*
X88269000Y-64554100D03*
X89789000Y-112814100D03*
X92329000Y-64554100D03*
X87249000Y-112814100D03*
X94869000Y-64554100D03*
X84709000Y-112814100D03*
X97409000Y-64554100D03*
X82169000Y-112814100D03*
X99949000Y-64554100D03*
X79629000Y-112814100D03*
X102489000Y-64554100D03*
X77089000Y-112814100D03*
X105029000Y-64554100D03*
D12*
X74549000Y-112814100D03*
D11*
X67949000Y-64554100D03*
X65409000Y-64554100D03*
%TD*%
D13*
%TO.C,J11*%
X201930000Y-65678000D03*
X201930000Y-70678000D03*
X201930000Y-75678000D03*
X201930000Y-80678000D03*
X201930000Y-85678000D03*
X201930000Y-90678000D03*
D14*
X201930000Y-95678000D03*
%TD*%
D15*
%TO.C,J10*%
X110109000Y-107814100D03*
X107569000Y-107814100D03*
X105029000Y-107814100D03*
X102489000Y-107814100D03*
X99949000Y-107814100D03*
D16*
X97409000Y-107814100D03*
%TD*%
D17*
%TO.C,U4*%
X159473800Y-113614200D03*
X159473800Y-114884200D03*
X159473800Y-116154200D03*
X159473800Y-117424200D03*
X159473800Y-118694200D03*
X159473800Y-119964200D03*
X159473800Y-121234200D03*
D18*
X171623800Y-117424200D03*
%TD*%
%TO.C,C21*%
G36*
G01*
X146269800Y-83221200D02*
X145169800Y-83221200D01*
G75*
G02*
X144919800Y-82971200I0J250000D01*
G01*
X144919800Y-80696200D01*
G75*
G02*
X145169800Y-80446200I250000J0D01*
G01*
X146269800Y-80446200D01*
G75*
G02*
X146519800Y-80696200I0J-250000D01*
G01*
X146519800Y-82971200D01*
G75*
G02*
X146269800Y-83221200I-250000J0D01*
G01*
G37*
G36*
G01*
X146269800Y-87346200D02*
X145169800Y-87346200D01*
G75*
G02*
X144919800Y-87096200I0J250000D01*
G01*
X144919800Y-84821200D01*
G75*
G02*
X145169800Y-84571200I250000J0D01*
G01*
X146269800Y-84571200D01*
G75*
G02*
X146519800Y-84821200I0J-250000D01*
G01*
X146519800Y-87096200D01*
G75*
G02*
X146269800Y-87346200I-250000J0D01*
G01*
G37*
%TD*%
%TO.C,C16*%
G36*
G01*
X167730800Y-96130200D02*
X167730800Y-95030200D01*
G75*
G02*
X167980800Y-94780200I250000J0D01*
G01*
X170255800Y-94780200D01*
G75*
G02*
X170505800Y-95030200I0J-250000D01*
G01*
X170505800Y-96130200D01*
G75*
G02*
X170255800Y-96380200I-250000J0D01*
G01*
X167980800Y-96380200D01*
G75*
G02*
X167730800Y-96130200I0J250000D01*
G01*
G37*
G36*
G01*
X163605800Y-96130200D02*
X163605800Y-95030200D01*
G75*
G02*
X163855800Y-94780200I250000J0D01*
G01*
X166130800Y-94780200D01*
G75*
G02*
X166380800Y-95030200I0J-250000D01*
G01*
X166380800Y-96130200D01*
G75*
G02*
X166130800Y-96380200I-250000J0D01*
G01*
X163855800Y-96380200D01*
G75*
G02*
X163605800Y-96130200I0J250000D01*
G01*
G37*
%TD*%
%TO.C,C17*%
G36*
G01*
X167730800Y-72254200D02*
X167730800Y-71154200D01*
G75*
G02*
X167980800Y-70904200I250000J0D01*
G01*
X170255800Y-70904200D01*
G75*
G02*
X170505800Y-71154200I0J-250000D01*
G01*
X170505800Y-72254200D01*
G75*
G02*
X170255800Y-72504200I-250000J0D01*
G01*
X167980800Y-72504200D01*
G75*
G02*
X167730800Y-72254200I0J250000D01*
G01*
G37*
G36*
G01*
X163605800Y-72254200D02*
X163605800Y-71154200D01*
G75*
G02*
X163855800Y-70904200I250000J0D01*
G01*
X166130800Y-70904200D01*
G75*
G02*
X166380800Y-71154200I0J-250000D01*
G01*
X166380800Y-72254200D01*
G75*
G02*
X166130800Y-72504200I-250000J0D01*
G01*
X163855800Y-72504200D01*
G75*
G02*
X163605800Y-72254200I0J250000D01*
G01*
G37*
%TD*%
D17*
%TO.C,U2*%
X161366800Y-47701200D03*
X161366800Y-48971200D03*
X161366800Y-50241200D03*
X161366800Y-51511200D03*
X161366800Y-52781200D03*
X161366800Y-54051200D03*
X161366800Y-55321200D03*
D18*
X173516800Y-51511200D03*
%TD*%
D17*
%TO.C,U3*%
X159788800Y-80086200D03*
X159788800Y-81356200D03*
X159788800Y-82626200D03*
X159788800Y-83896200D03*
X159788800Y-85166200D03*
X159788800Y-86436200D03*
X159788800Y-87706200D03*
D18*
X171938800Y-83896200D03*
%TD*%
D19*
%TO.C,Q1*%
X52915400Y-151407800D03*
D20*
X58765400Y-151407800D03*
D19*
X52915400Y-144857800D03*
D18*
X55340400Y-148132800D03*
D21*
X67490400Y-145592800D03*
X67490400Y-150672800D03*
%TD*%
%TO.C,R17*%
G36*
G01*
X57350499Y-91717100D02*
X58600501Y-91717100D01*
G75*
G02*
X58850500Y-91967099I0J-249999D01*
G01*
X58850500Y-92767101D01*
G75*
G02*
X58600501Y-93017100I-249999J0D01*
G01*
X57350499Y-93017100D01*
G75*
G02*
X57100500Y-92767101I0J249999D01*
G01*
X57100500Y-91967099D01*
G75*
G02*
X57350499Y-91717100I249999J0D01*
G01*
G37*
G36*
G01*
X57350499Y-88617100D02*
X58600501Y-88617100D01*
G75*
G02*
X58850500Y-88867099I0J-249999D01*
G01*
X58850500Y-89667101D01*
G75*
G02*
X58600501Y-89917100I-249999J0D01*
G01*
X57350499Y-89917100D01*
G75*
G02*
X57100500Y-89667101I0J249999D01*
G01*
X57100500Y-88867099D01*
G75*
G02*
X57350499Y-88617100I249999J0D01*
G01*
G37*
%TD*%
%TO.C,R16*%
G36*
G01*
X49730499Y-91717100D02*
X50980501Y-91717100D01*
G75*
G02*
X51230500Y-91967099I0J-249999D01*
G01*
X51230500Y-92767101D01*
G75*
G02*
X50980501Y-93017100I-249999J0D01*
G01*
X49730499Y-93017100D01*
G75*
G02*
X49480500Y-92767101I0J249999D01*
G01*
X49480500Y-91967099D01*
G75*
G02*
X49730499Y-91717100I249999J0D01*
G01*
G37*
G36*
G01*
X49730499Y-88617100D02*
X50980501Y-88617100D01*
G75*
G02*
X51230500Y-88867099I0J-249999D01*
G01*
X51230500Y-89667101D01*
G75*
G02*
X50980501Y-89917100I-249999J0D01*
G01*
X49730499Y-89917100D01*
G75*
G02*
X49480500Y-89667101I0J249999D01*
G01*
X49480500Y-88867099D01*
G75*
G02*
X49730499Y-88617100I249999J0D01*
G01*
G37*
%TD*%
D10*
%TO.C,J9*%
X36576000Y-121920000D03*
%TD*%
%TO.C,D3*%
G36*
G01*
X79665800Y-126126400D02*
X79665800Y-124876400D01*
G75*
G02*
X79915800Y-124626400I250000J0D01*
G01*
X80840800Y-124626400D01*
G75*
G02*
X81090800Y-124876400I0J-250000D01*
G01*
X81090800Y-126126400D01*
G75*
G02*
X80840800Y-126376400I-250000J0D01*
G01*
X79915800Y-126376400D01*
G75*
G02*
X79665800Y-126126400I0J250000D01*
G01*
G37*
G36*
G01*
X76690800Y-126126400D02*
X76690800Y-124876400D01*
G75*
G02*
X76940800Y-124626400I250000J0D01*
G01*
X77865800Y-124626400D01*
G75*
G02*
X78115800Y-124876400I0J-250000D01*
G01*
X78115800Y-126126400D01*
G75*
G02*
X77865800Y-126376400I-250000J0D01*
G01*
X76940800Y-126376400D01*
G75*
G02*
X76690800Y-126126400I0J250000D01*
G01*
G37*
%TD*%
D22*
%TO.C,D2*%
X111158000Y-125730000D03*
X105758000Y-125730000D03*
%TD*%
D23*
%TO.C,D1*%
X74676000Y-152652000D03*
X74676000Y-149352000D03*
%TD*%
%TO.C,C25*%
G36*
G01*
X135728800Y-117480700D02*
X134628800Y-117480700D01*
G75*
G02*
X134378800Y-117230700I0J250000D01*
G01*
X134378800Y-114955700D01*
G75*
G02*
X134628800Y-114705700I250000J0D01*
G01*
X135728800Y-114705700D01*
G75*
G02*
X135978800Y-114955700I0J-250000D01*
G01*
X135978800Y-117230700D01*
G75*
G02*
X135728800Y-117480700I-250000J0D01*
G01*
G37*
G36*
G01*
X135728800Y-121605700D02*
X134628800Y-121605700D01*
G75*
G02*
X134378800Y-121355700I0J250000D01*
G01*
X134378800Y-119080700D01*
G75*
G02*
X134628800Y-118830700I250000J0D01*
G01*
X135728800Y-118830700D01*
G75*
G02*
X135978800Y-119080700I0J-250000D01*
G01*
X135978800Y-121355700D01*
G75*
G02*
X135728800Y-121605700I-250000J0D01*
G01*
G37*
%TD*%
%TO.C,C24*%
G36*
G01*
X137633800Y-83221200D02*
X136533800Y-83221200D01*
G75*
G02*
X136283800Y-82971200I0J250000D01*
G01*
X136283800Y-80696200D01*
G75*
G02*
X136533800Y-80446200I250000J0D01*
G01*
X137633800Y-80446200D01*
G75*
G02*
X137883800Y-80696200I0J-250000D01*
G01*
X137883800Y-82971200D01*
G75*
G02*
X137633800Y-83221200I-250000J0D01*
G01*
G37*
G36*
G01*
X137633800Y-87346200D02*
X136533800Y-87346200D01*
G75*
G02*
X136283800Y-87096200I0J250000D01*
G01*
X136283800Y-84821200D01*
G75*
G02*
X136533800Y-84571200I250000J0D01*
G01*
X137633800Y-84571200D01*
G75*
G02*
X137883800Y-84821200I0J-250000D01*
G01*
X137883800Y-87096200D01*
G75*
G02*
X137633800Y-87346200I-250000J0D01*
G01*
G37*
%TD*%
%TO.C,C23*%
G36*
G01*
X140300800Y-50836200D02*
X139200800Y-50836200D01*
G75*
G02*
X138950800Y-50586200I0J250000D01*
G01*
X138950800Y-48311200D01*
G75*
G02*
X139200800Y-48061200I250000J0D01*
G01*
X140300800Y-48061200D01*
G75*
G02*
X140550800Y-48311200I0J-250000D01*
G01*
X140550800Y-50586200D01*
G75*
G02*
X140300800Y-50836200I-250000J0D01*
G01*
G37*
G36*
G01*
X140300800Y-54961200D02*
X139200800Y-54961200D01*
G75*
G02*
X138950800Y-54711200I0J250000D01*
G01*
X138950800Y-52436200D01*
G75*
G02*
X139200800Y-52186200I250000J0D01*
G01*
X140300800Y-52186200D01*
G75*
G02*
X140550800Y-52436200I0J-250000D01*
G01*
X140550800Y-54711200D01*
G75*
G02*
X140300800Y-54961200I-250000J0D01*
G01*
G37*
%TD*%
%TO.C,C22*%
G36*
G01*
X145888800Y-117480700D02*
X144788800Y-117480700D01*
G75*
G02*
X144538800Y-117230700I0J250000D01*
G01*
X144538800Y-114955700D01*
G75*
G02*
X144788800Y-114705700I250000J0D01*
G01*
X145888800Y-114705700D01*
G75*
G02*
X146138800Y-114955700I0J-250000D01*
G01*
X146138800Y-117230700D01*
G75*
G02*
X145888800Y-117480700I-250000J0D01*
G01*
G37*
G36*
G01*
X145888800Y-121605700D02*
X144788800Y-121605700D01*
G75*
G02*
X144538800Y-121355700I0J250000D01*
G01*
X144538800Y-119080700D01*
G75*
G02*
X144788800Y-118830700I250000J0D01*
G01*
X145888800Y-118830700D01*
G75*
G02*
X146138800Y-119080700I0J-250000D01*
G01*
X146138800Y-121355700D01*
G75*
G02*
X145888800Y-121605700I-250000J0D01*
G01*
G37*
%TD*%
%TO.C,C20*%
G36*
G01*
X149190800Y-50836200D02*
X148090800Y-50836200D01*
G75*
G02*
X147840800Y-50586200I0J250000D01*
G01*
X147840800Y-48311200D01*
G75*
G02*
X148090800Y-48061200I250000J0D01*
G01*
X149190800Y-48061200D01*
G75*
G02*
X149440800Y-48311200I0J-250000D01*
G01*
X149440800Y-50586200D01*
G75*
G02*
X149190800Y-50836200I-250000J0D01*
G01*
G37*
G36*
G01*
X149190800Y-54961200D02*
X148090800Y-54961200D01*
G75*
G02*
X147840800Y-54711200I0J250000D01*
G01*
X147840800Y-52436200D01*
G75*
G02*
X148090800Y-52186200I250000J0D01*
G01*
X149190800Y-52186200D01*
G75*
G02*
X149440800Y-52436200I0J-250000D01*
G01*
X149440800Y-54711200D01*
G75*
G02*
X149190800Y-54961200I-250000J0D01*
G01*
G37*
%TD*%
%TO.C,C19*%
G36*
G01*
X167603800Y-105274200D02*
X167603800Y-104174200D01*
G75*
G02*
X167853800Y-103924200I250000J0D01*
G01*
X170128800Y-103924200D01*
G75*
G02*
X170378800Y-104174200I0J-250000D01*
G01*
X170378800Y-105274200D01*
G75*
G02*
X170128800Y-105524200I-250000J0D01*
G01*
X167853800Y-105524200D01*
G75*
G02*
X167603800Y-105274200I0J250000D01*
G01*
G37*
G36*
G01*
X163478800Y-105274200D02*
X163478800Y-104174200D01*
G75*
G02*
X163728800Y-103924200I250000J0D01*
G01*
X166003800Y-103924200D01*
G75*
G02*
X166253800Y-104174200I0J-250000D01*
G01*
X166253800Y-105274200D01*
G75*
G02*
X166003800Y-105524200I-250000J0D01*
G01*
X163728800Y-105524200D01*
G75*
G02*
X163478800Y-105274200I0J250000D01*
G01*
G37*
%TD*%
%TO.C,C18*%
G36*
G01*
X168061000Y-129582000D02*
X168061000Y-128482000D01*
G75*
G02*
X168311000Y-128232000I250000J0D01*
G01*
X170586000Y-128232000D01*
G75*
G02*
X170836000Y-128482000I0J-250000D01*
G01*
X170836000Y-129582000D01*
G75*
G02*
X170586000Y-129832000I-250000J0D01*
G01*
X168311000Y-129832000D01*
G75*
G02*
X168061000Y-129582000I0J250000D01*
G01*
G37*
G36*
G01*
X163936000Y-129582000D02*
X163936000Y-128482000D01*
G75*
G02*
X164186000Y-128232000I250000J0D01*
G01*
X166461000Y-128232000D01*
G75*
G02*
X166711000Y-128482000I0J-250000D01*
G01*
X166711000Y-129582000D01*
G75*
G02*
X166461000Y-129832000I-250000J0D01*
G01*
X164186000Y-129832000D01*
G75*
G02*
X163936000Y-129582000I0J250000D01*
G01*
G37*
%TD*%
%TO.C,C15*%
G36*
G01*
X168111800Y-40123200D02*
X168111800Y-39023200D01*
G75*
G02*
X168361800Y-38773200I250000J0D01*
G01*
X170636800Y-38773200D01*
G75*
G02*
X170886800Y-39023200I0J-250000D01*
G01*
X170886800Y-40123200D01*
G75*
G02*
X170636800Y-40373200I-250000J0D01*
G01*
X168361800Y-40373200D01*
G75*
G02*
X168111800Y-40123200I0J250000D01*
G01*
G37*
G36*
G01*
X163986800Y-40123200D02*
X163986800Y-39023200D01*
G75*
G02*
X164236800Y-38773200I250000J0D01*
G01*
X166511800Y-38773200D01*
G75*
G02*
X166761800Y-39023200I0J-250000D01*
G01*
X166761800Y-40123200D01*
G75*
G02*
X166511800Y-40373200I-250000J0D01*
G01*
X164236800Y-40373200D01*
G75*
G02*
X163986800Y-40123200I0J250000D01*
G01*
G37*
%TD*%
%TO.C,C14*%
G36*
G01*
X168111800Y-62983200D02*
X168111800Y-61883200D01*
G75*
G02*
X168361800Y-61633200I250000J0D01*
G01*
X170636800Y-61633200D01*
G75*
G02*
X170886800Y-61883200I0J-250000D01*
G01*
X170886800Y-62983200D01*
G75*
G02*
X170636800Y-63233200I-250000J0D01*
G01*
X168361800Y-63233200D01*
G75*
G02*
X168111800Y-62983200I0J250000D01*
G01*
G37*
G36*
G01*
X163986800Y-62983200D02*
X163986800Y-61883200D01*
G75*
G02*
X164236800Y-61633200I250000J0D01*
G01*
X166511800Y-61633200D01*
G75*
G02*
X166761800Y-61883200I0J-250000D01*
G01*
X166761800Y-62983200D01*
G75*
G02*
X166511800Y-63233200I-250000J0D01*
G01*
X164236800Y-63233200D01*
G75*
G02*
X163986800Y-62983200I0J250000D01*
G01*
G37*
%TD*%
%TO.C,C13*%
G36*
G01*
X148528802Y-105309700D02*
X147228798Y-105309700D01*
G75*
G02*
X146978800Y-105059702I0J249998D01*
G01*
X146978800Y-104234698D01*
G75*
G02*
X147228798Y-103984700I249998J0D01*
G01*
X148528802Y-103984700D01*
G75*
G02*
X148778800Y-104234698I0J-249998D01*
G01*
X148778800Y-105059702D01*
G75*
G02*
X148528802Y-105309700I-249998J0D01*
G01*
G37*
G36*
G01*
X148528802Y-108434700D02*
X147228798Y-108434700D01*
G75*
G02*
X146978800Y-108184702I0J249998D01*
G01*
X146978800Y-107359698D01*
G75*
G02*
X147228798Y-107109700I249998J0D01*
G01*
X148528802Y-107109700D01*
G75*
G02*
X148778800Y-107359698I0J-249998D01*
G01*
X148778800Y-108184702D01*
G75*
G02*
X148528802Y-108434700I-249998J0D01*
G01*
G37*
%TD*%
%TO.C,C12*%
G36*
G01*
X143321802Y-73382700D02*
X142021798Y-73382700D01*
G75*
G02*
X141771800Y-73132702I0J249998D01*
G01*
X141771800Y-72307698D01*
G75*
G02*
X142021798Y-72057700I249998J0D01*
G01*
X143321802Y-72057700D01*
G75*
G02*
X143571800Y-72307698I0J-249998D01*
G01*
X143571800Y-73132702D01*
G75*
G02*
X143321802Y-73382700I-249998J0D01*
G01*
G37*
G36*
G01*
X143321802Y-76507700D02*
X142021798Y-76507700D01*
G75*
G02*
X141771800Y-76257702I0J249998D01*
G01*
X141771800Y-75432698D01*
G75*
G02*
X142021798Y-75182700I249998J0D01*
G01*
X143321802Y-75182700D01*
G75*
G02*
X143571800Y-75432698I0J-249998D01*
G01*
X143571800Y-76257702D01*
G75*
G02*
X143321802Y-76507700I-249998J0D01*
G01*
G37*
%TD*%
%TO.C,C11*%
G36*
G01*
X144845802Y-40578200D02*
X143545798Y-40578200D01*
G75*
G02*
X143295800Y-40328202I0J249998D01*
G01*
X143295800Y-39503198D01*
G75*
G02*
X143545798Y-39253200I249998J0D01*
G01*
X144845802Y-39253200D01*
G75*
G02*
X145095800Y-39503198I0J-249998D01*
G01*
X145095800Y-40328202D01*
G75*
G02*
X144845802Y-40578200I-249998J0D01*
G01*
G37*
G36*
G01*
X144845802Y-43703200D02*
X143545798Y-43703200D01*
G75*
G02*
X143295800Y-43453202I0J249998D01*
G01*
X143295800Y-42628198D01*
G75*
G02*
X143545798Y-42378200I249998J0D01*
G01*
X144845802Y-42378200D01*
G75*
G02*
X145095800Y-42628198I0J-249998D01*
G01*
X145095800Y-43453202D01*
G75*
G02*
X144845802Y-43703200I-249998J0D01*
G01*
G37*
%TD*%
%TO.C,C10*%
G36*
G01*
X136803100Y-103875602D02*
X136803100Y-102575598D01*
G75*
G02*
X137053098Y-102325600I249998J0D01*
G01*
X137878102Y-102325600D01*
G75*
G02*
X138128100Y-102575598I0J-249998D01*
G01*
X138128100Y-103875602D01*
G75*
G02*
X137878102Y-104125600I-249998J0D01*
G01*
X137053098Y-104125600D01*
G75*
G02*
X136803100Y-103875602I0J249998D01*
G01*
G37*
G36*
G01*
X133678100Y-103875602D02*
X133678100Y-102575598D01*
G75*
G02*
X133928098Y-102325600I249998J0D01*
G01*
X134753102Y-102325600D01*
G75*
G02*
X135003100Y-102575598I0J-249998D01*
G01*
X135003100Y-103875602D01*
G75*
G02*
X134753102Y-104125600I-249998J0D01*
G01*
X133928098Y-104125600D01*
G75*
G02*
X133678100Y-103875602I0J249998D01*
G01*
G37*
%TD*%
%TO.C,C9*%
G36*
G01*
X138135800Y-76583302D02*
X138135800Y-75283298D01*
G75*
G02*
X138385798Y-75033300I249998J0D01*
G01*
X139210802Y-75033300D01*
G75*
G02*
X139460800Y-75283298I0J-249998D01*
G01*
X139460800Y-76583302D01*
G75*
G02*
X139210802Y-76833300I-249998J0D01*
G01*
X138385798Y-76833300D01*
G75*
G02*
X138135800Y-76583302I0J249998D01*
G01*
G37*
G36*
G01*
X135010800Y-76583302D02*
X135010800Y-75283298D01*
G75*
G02*
X135260798Y-75033300I249998J0D01*
G01*
X136085802Y-75033300D01*
G75*
G02*
X136335800Y-75283298I0J-249998D01*
G01*
X136335800Y-76583302D01*
G75*
G02*
X136085802Y-76833300I-249998J0D01*
G01*
X135260798Y-76833300D01*
G75*
G02*
X135010800Y-76583302I0J249998D01*
G01*
G37*
%TD*%
%TO.C,C8*%
G36*
G01*
X140054300Y-39816802D02*
X140054300Y-38516798D01*
G75*
G02*
X140304298Y-38266800I249998J0D01*
G01*
X141129302Y-38266800D01*
G75*
G02*
X141379300Y-38516798I0J-249998D01*
G01*
X141379300Y-39816802D01*
G75*
G02*
X141129302Y-40066800I-249998J0D01*
G01*
X140304298Y-40066800D01*
G75*
G02*
X140054300Y-39816802I0J249998D01*
G01*
G37*
G36*
G01*
X136929300Y-39816802D02*
X136929300Y-38516798D01*
G75*
G02*
X137179298Y-38266800I249998J0D01*
G01*
X138004302Y-38266800D01*
G75*
G02*
X138254300Y-38516798I0J-249998D01*
G01*
X138254300Y-39816802D01*
G75*
G02*
X138004302Y-40066800I-249998J0D01*
G01*
X137179298Y-40066800D01*
G75*
G02*
X136929300Y-39816802I0J249998D01*
G01*
G37*
%TD*%
%TO.C,C7*%
G36*
G01*
X49705498Y-99324600D02*
X51005502Y-99324600D01*
G75*
G02*
X51255500Y-99574598I0J-249998D01*
G01*
X51255500Y-100399602D01*
G75*
G02*
X51005502Y-100649600I-249998J0D01*
G01*
X49705498Y-100649600D01*
G75*
G02*
X49455500Y-100399602I0J249998D01*
G01*
X49455500Y-99574598D01*
G75*
G02*
X49705498Y-99324600I249998J0D01*
G01*
G37*
G36*
G01*
X49705498Y-96199600D02*
X51005502Y-96199600D01*
G75*
G02*
X51255500Y-96449598I0J-249998D01*
G01*
X51255500Y-97274602D01*
G75*
G02*
X51005502Y-97524600I-249998J0D01*
G01*
X49705498Y-97524600D01*
G75*
G02*
X49455500Y-97274602I0J249998D01*
G01*
X49455500Y-96449598D01*
G75*
G02*
X49705498Y-96199600I249998J0D01*
G01*
G37*
%TD*%
%TO.C,C6*%
G36*
G01*
X57325498Y-99324600D02*
X58625502Y-99324600D01*
G75*
G02*
X58875500Y-99574598I0J-249998D01*
G01*
X58875500Y-100399602D01*
G75*
G02*
X58625502Y-100649600I-249998J0D01*
G01*
X57325498Y-100649600D01*
G75*
G02*
X57075500Y-100399602I0J249998D01*
G01*
X57075500Y-99574598D01*
G75*
G02*
X57325498Y-99324600I249998J0D01*
G01*
G37*
G36*
G01*
X57325498Y-96199600D02*
X58625502Y-96199600D01*
G75*
G02*
X58875500Y-96449598I0J-249998D01*
G01*
X58875500Y-97274602D01*
G75*
G02*
X58625502Y-97524600I-249998J0D01*
G01*
X57325498Y-97524600D01*
G75*
G02*
X57075500Y-97274602I0J249998D01*
G01*
X57075500Y-96449598D01*
G75*
G02*
X57325498Y-96199600I249998J0D01*
G01*
G37*
%TD*%
%TO.C,C5*%
G36*
G01*
X153971397Y-154192800D02*
X163071403Y-154192800D01*
G75*
G02*
X163321400Y-154442797I0J-249997D01*
G01*
X163321400Y-161742803D01*
G75*
G02*
X163071403Y-161992800I-249997J0D01*
G01*
X153971397Y-161992800D01*
G75*
G02*
X153721400Y-161742803I0J249997D01*
G01*
X153721400Y-154442797D01*
G75*
G02*
X153971397Y-154192800I249997J0D01*
G01*
G37*
G36*
G01*
X153971397Y-141692800D02*
X163071403Y-141692800D01*
G75*
G02*
X163321400Y-141942797I0J-249997D01*
G01*
X163321400Y-149242803D01*
G75*
G02*
X163071403Y-149492800I-249997J0D01*
G01*
X153971397Y-149492800D01*
G75*
G02*
X153721400Y-149242803I0J249997D01*
G01*
X153721400Y-141942797D01*
G75*
G02*
X153971397Y-141692800I249997J0D01*
G01*
G37*
%TD*%
%TO.C,C4*%
G36*
G01*
X93228398Y-153185300D02*
X94528402Y-153185300D01*
G75*
G02*
X94778400Y-153435298I0J-249998D01*
G01*
X94778400Y-154260302D01*
G75*
G02*
X94528402Y-154510300I-249998J0D01*
G01*
X93228398Y-154510300D01*
G75*
G02*
X92978400Y-154260302I0J249998D01*
G01*
X92978400Y-153435298D01*
G75*
G02*
X93228398Y-153185300I249998J0D01*
G01*
G37*
G36*
G01*
X93228398Y-150060300D02*
X94528402Y-150060300D01*
G75*
G02*
X94778400Y-150310298I0J-249998D01*
G01*
X94778400Y-151135302D01*
G75*
G02*
X94528402Y-151385300I-249998J0D01*
G01*
X93228398Y-151385300D01*
G75*
G02*
X92978400Y-151135302I0J249998D01*
G01*
X92978400Y-150310298D01*
G75*
G02*
X93228398Y-150060300I249998J0D01*
G01*
G37*
%TD*%
%TO.C,C3*%
G36*
G01*
X131746397Y-154192800D02*
X140846403Y-154192800D01*
G75*
G02*
X141096400Y-154442797I0J-249997D01*
G01*
X141096400Y-161742803D01*
G75*
G02*
X140846403Y-161992800I-249997J0D01*
G01*
X131746397Y-161992800D01*
G75*
G02*
X131496400Y-161742803I0J249997D01*
G01*
X131496400Y-154442797D01*
G75*
G02*
X131746397Y-154192800I249997J0D01*
G01*
G37*
G36*
G01*
X131746397Y-141692800D02*
X140846403Y-141692800D01*
G75*
G02*
X141096400Y-141942797I0J-249997D01*
G01*
X141096400Y-149242803D01*
G75*
G02*
X140846403Y-149492800I-249997J0D01*
G01*
X131746397Y-149492800D01*
G75*
G02*
X131496400Y-149242803I0J249997D01*
G01*
X131496400Y-141942797D01*
G75*
G02*
X131746397Y-141692800I249997J0D01*
G01*
G37*
%TD*%
%TO.C,C2*%
G36*
G01*
X121269998Y-153300000D02*
X122570002Y-153300000D01*
G75*
G02*
X122820000Y-153549998I0J-249998D01*
G01*
X122820000Y-154375002D01*
G75*
G02*
X122570002Y-154625000I-249998J0D01*
G01*
X121269998Y-154625000D01*
G75*
G02*
X121020000Y-154375002I0J249998D01*
G01*
X121020000Y-153549998D01*
G75*
G02*
X121269998Y-153300000I249998J0D01*
G01*
G37*
G36*
G01*
X121269998Y-150175000D02*
X122570002Y-150175000D01*
G75*
G02*
X122820000Y-150424998I0J-249998D01*
G01*
X122820000Y-151250002D01*
G75*
G02*
X122570002Y-151500000I-249998J0D01*
G01*
X121269998Y-151500000D01*
G75*
G02*
X121020000Y-151250002I0J249998D01*
G01*
X121020000Y-150424998D01*
G75*
G02*
X121269998Y-150175000I249998J0D01*
G01*
G37*
%TD*%
%TO.C,C1*%
G36*
G01*
X88148398Y-153185300D02*
X89448402Y-153185300D01*
G75*
G02*
X89698400Y-153435298I0J-249998D01*
G01*
X89698400Y-154260302D01*
G75*
G02*
X89448402Y-154510300I-249998J0D01*
G01*
X88148398Y-154510300D01*
G75*
G02*
X87898400Y-154260302I0J249998D01*
G01*
X87898400Y-153435298D01*
G75*
G02*
X88148398Y-153185300I249998J0D01*
G01*
G37*
G36*
G01*
X88148398Y-150060300D02*
X89448402Y-150060300D01*
G75*
G02*
X89698400Y-150310298I0J-249998D01*
G01*
X89698400Y-151135302D01*
G75*
G02*
X89448402Y-151385300I-249998J0D01*
G01*
X88148398Y-151385300D01*
G75*
G02*
X87898400Y-151135302I0J249998D01*
G01*
X87898400Y-150310298D01*
G75*
G02*
X88148398Y-150060300I249998J0D01*
G01*
G37*
%TD*%
%TO.C,R1*%
G36*
G01*
X77606999Y-151952000D02*
X78857001Y-151952000D01*
G75*
G02*
X79107000Y-152201999I0J-249999D01*
G01*
X79107000Y-153002001D01*
G75*
G02*
X78857001Y-153252000I-249999J0D01*
G01*
X77606999Y-153252000D01*
G75*
G02*
X77357000Y-153002001I0J249999D01*
G01*
X77357000Y-152201999D01*
G75*
G02*
X77606999Y-151952000I249999J0D01*
G01*
G37*
G36*
G01*
X77606999Y-155052000D02*
X78857001Y-155052000D01*
G75*
G02*
X79107000Y-155301999I0J-249999D01*
G01*
X79107000Y-156102001D01*
G75*
G02*
X78857001Y-156352000I-249999J0D01*
G01*
X77606999Y-156352000D01*
G75*
G02*
X77357000Y-156102001I0J249999D01*
G01*
X77357000Y-155301999D01*
G75*
G02*
X77606999Y-155052000I249999J0D01*
G01*
G37*
%TD*%
%TO.C,R2*%
G36*
G01*
X81162999Y-152004000D02*
X82413001Y-152004000D01*
G75*
G02*
X82663000Y-152253999I0J-249999D01*
G01*
X82663000Y-153054001D01*
G75*
G02*
X82413001Y-153304000I-249999J0D01*
G01*
X81162999Y-153304000D01*
G75*
G02*
X80913000Y-153054001I0J249999D01*
G01*
X80913000Y-152253999D01*
G75*
G02*
X81162999Y-152004000I249999J0D01*
G01*
G37*
G36*
G01*
X81162999Y-148904000D02*
X82413001Y-148904000D01*
G75*
G02*
X82663000Y-149153999I0J-249999D01*
G01*
X82663000Y-149954001D01*
G75*
G02*
X82413001Y-150204000I-249999J0D01*
G01*
X81162999Y-150204000D01*
G75*
G02*
X80913000Y-149954001I0J249999D01*
G01*
X80913000Y-149153999D01*
G75*
G02*
X81162999Y-148904000I249999J0D01*
G01*
G37*
%TD*%
%TO.C,R3*%
G36*
G01*
X84278300Y-124876399D02*
X84278300Y-126126401D01*
G75*
G02*
X84028301Y-126376400I-249999J0D01*
G01*
X83228299Y-126376400D01*
G75*
G02*
X82978300Y-126126401I0J249999D01*
G01*
X82978300Y-124876399D01*
G75*
G02*
X83228299Y-124626400I249999J0D01*
G01*
X84028301Y-124626400D01*
G75*
G02*
X84278300Y-124876399I0J-249999D01*
G01*
G37*
G36*
G01*
X87378300Y-124876399D02*
X87378300Y-126126401D01*
G75*
G02*
X87128301Y-126376400I-249999J0D01*
G01*
X86328299Y-126376400D01*
G75*
G02*
X86078300Y-126126401I0J249999D01*
G01*
X86078300Y-124876399D01*
G75*
G02*
X86328299Y-124626400I249999J0D01*
G01*
X87128301Y-124626400D01*
G75*
G02*
X87378300Y-124876399I0J-249999D01*
G01*
G37*
%TD*%
%TO.C,R4*%
G36*
G01*
X138241800Y-43621799D02*
X138241800Y-44871801D01*
G75*
G02*
X137991801Y-45121800I-249999J0D01*
G01*
X137191799Y-45121800D01*
G75*
G02*
X136941800Y-44871801I0J249999D01*
G01*
X136941800Y-43621799D01*
G75*
G02*
X137191799Y-43371800I249999J0D01*
G01*
X137991801Y-43371800D01*
G75*
G02*
X138241800Y-43621799I0J-249999D01*
G01*
G37*
G36*
G01*
X141341800Y-43621799D02*
X141341800Y-44871801D01*
G75*
G02*
X141091801Y-45121800I-249999J0D01*
G01*
X140291799Y-45121800D01*
G75*
G02*
X140041800Y-44871801I0J249999D01*
G01*
X140041800Y-43621799D01*
G75*
G02*
X140291799Y-43371800I249999J0D01*
G01*
X141091801Y-43371800D01*
G75*
G02*
X141341800Y-43621799I0J-249999D01*
G01*
G37*
%TD*%
%TO.C,R5*%
G36*
G01*
X139386000Y-70431499D02*
X139386000Y-71681501D01*
G75*
G02*
X139136001Y-71931500I-249999J0D01*
G01*
X138335999Y-71931500D01*
G75*
G02*
X138086000Y-71681501I0J249999D01*
G01*
X138086000Y-70431499D01*
G75*
G02*
X138335999Y-70181500I249999J0D01*
G01*
X139136001Y-70181500D01*
G75*
G02*
X139386000Y-70431499I0J-249999D01*
G01*
G37*
G36*
G01*
X136286000Y-70431499D02*
X136286000Y-71681501D01*
G75*
G02*
X136036001Y-71931500I-249999J0D01*
G01*
X135235999Y-71931500D01*
G75*
G02*
X134986000Y-71681501I0J249999D01*
G01*
X134986000Y-70431499D01*
G75*
G02*
X135235999Y-70181500I249999J0D01*
G01*
X136036001Y-70181500D01*
G75*
G02*
X136286000Y-70431499I0J-249999D01*
G01*
G37*
%TD*%
%TO.C,R6*%
G36*
G01*
X138090600Y-107934599D02*
X138090600Y-109184601D01*
G75*
G02*
X137840601Y-109434600I-249999J0D01*
G01*
X137040599Y-109434600D01*
G75*
G02*
X136790600Y-109184601I0J249999D01*
G01*
X136790600Y-107934599D01*
G75*
G02*
X137040599Y-107684600I249999J0D01*
G01*
X137840601Y-107684600D01*
G75*
G02*
X138090600Y-107934599I0J-249999D01*
G01*
G37*
G36*
G01*
X134990600Y-107934599D02*
X134990600Y-109184601D01*
G75*
G02*
X134740601Y-109434600I-249999J0D01*
G01*
X133940599Y-109434600D01*
G75*
G02*
X133690600Y-109184601I0J249999D01*
G01*
X133690600Y-107934599D01*
G75*
G02*
X133940599Y-107684600I249999J0D01*
G01*
X134740601Y-107684600D01*
G75*
G02*
X134990600Y-107934599I0J-249999D01*
G01*
G37*
%TD*%
%TO.C,R7*%
G36*
G01*
X149158799Y-39252200D02*
X150408801Y-39252200D01*
G75*
G02*
X150658800Y-39502199I0J-249999D01*
G01*
X150658800Y-40302201D01*
G75*
G02*
X150408801Y-40552200I-249999J0D01*
G01*
X149158799Y-40552200D01*
G75*
G02*
X148908800Y-40302201I0J249999D01*
G01*
X148908800Y-39502199D01*
G75*
G02*
X149158799Y-39252200I249999J0D01*
G01*
G37*
G36*
G01*
X149158799Y-42352200D02*
X150408801Y-42352200D01*
G75*
G02*
X150658800Y-42602199I0J-249999D01*
G01*
X150658800Y-43402201D01*
G75*
G02*
X150408801Y-43652200I-249999J0D01*
G01*
X149158799Y-43652200D01*
G75*
G02*
X148908800Y-43402201I0J249999D01*
G01*
X148908800Y-42602199D01*
G75*
G02*
X149158799Y-42352200I249999J0D01*
G01*
G37*
%TD*%
%TO.C,R8*%
G36*
G01*
X155488801Y-40552200D02*
X154238799Y-40552200D01*
G75*
G02*
X153988800Y-40302201I0J249999D01*
G01*
X153988800Y-39502199D01*
G75*
G02*
X154238799Y-39252200I249999J0D01*
G01*
X155488801Y-39252200D01*
G75*
G02*
X155738800Y-39502199I0J-249999D01*
G01*
X155738800Y-40302201D01*
G75*
G02*
X155488801Y-40552200I-249999J0D01*
G01*
G37*
G36*
G01*
X155488801Y-43652200D02*
X154238799Y-43652200D01*
G75*
G02*
X153988800Y-43402201I0J249999D01*
G01*
X153988800Y-42602199D01*
G75*
G02*
X154238799Y-42352200I249999J0D01*
G01*
X155488801Y-42352200D01*
G75*
G02*
X155738800Y-42602199I0J-249999D01*
G01*
X155738800Y-43402201D01*
G75*
G02*
X155488801Y-43652200I-249999J0D01*
G01*
G37*
%TD*%
%TO.C,R9*%
G36*
G01*
X160568801Y-43652200D02*
X159318799Y-43652200D01*
G75*
G02*
X159068800Y-43402201I0J249999D01*
G01*
X159068800Y-42602199D01*
G75*
G02*
X159318799Y-42352200I249999J0D01*
G01*
X160568801Y-42352200D01*
G75*
G02*
X160818800Y-42602199I0J-249999D01*
G01*
X160818800Y-43402201D01*
G75*
G02*
X160568801Y-43652200I-249999J0D01*
G01*
G37*
G36*
G01*
X160568801Y-40552200D02*
X159318799Y-40552200D01*
G75*
G02*
X159068800Y-40302201I0J249999D01*
G01*
X159068800Y-39502199D01*
G75*
G02*
X159318799Y-39252200I249999J0D01*
G01*
X160568801Y-39252200D01*
G75*
G02*
X160818800Y-39502199I0J-249999D01*
G01*
X160818800Y-40302201D01*
G75*
G02*
X160568801Y-40552200I-249999J0D01*
G01*
G37*
%TD*%
%TO.C,R10*%
G36*
G01*
X147634799Y-75118200D02*
X148884801Y-75118200D01*
G75*
G02*
X149134800Y-75368199I0J-249999D01*
G01*
X149134800Y-76168201D01*
G75*
G02*
X148884801Y-76418200I-249999J0D01*
G01*
X147634799Y-76418200D01*
G75*
G02*
X147384800Y-76168201I0J249999D01*
G01*
X147384800Y-75368199D01*
G75*
G02*
X147634799Y-75118200I249999J0D01*
G01*
G37*
G36*
G01*
X147634799Y-72018200D02*
X148884801Y-72018200D01*
G75*
G02*
X149134800Y-72268199I0J-249999D01*
G01*
X149134800Y-73068201D01*
G75*
G02*
X148884801Y-73318200I-249999J0D01*
G01*
X147634799Y-73318200D01*
G75*
G02*
X147384800Y-73068201I0J249999D01*
G01*
X147384800Y-72268199D01*
G75*
G02*
X147634799Y-72018200I249999J0D01*
G01*
G37*
%TD*%
%TO.C,R11*%
G36*
G01*
X153710801Y-76418200D02*
X152460799Y-76418200D01*
G75*
G02*
X152210800Y-76168201I0J249999D01*
G01*
X152210800Y-75368199D01*
G75*
G02*
X152460799Y-75118200I249999J0D01*
G01*
X153710801Y-75118200D01*
G75*
G02*
X153960800Y-75368199I0J-249999D01*
G01*
X153960800Y-76168201D01*
G75*
G02*
X153710801Y-76418200I-249999J0D01*
G01*
G37*
G36*
G01*
X153710801Y-73318200D02*
X152460799Y-73318200D01*
G75*
G02*
X152210800Y-73068201I0J249999D01*
G01*
X152210800Y-72268199D01*
G75*
G02*
X152460799Y-72018200I249999J0D01*
G01*
X153710801Y-72018200D01*
G75*
G02*
X153960800Y-72268199I0J-249999D01*
G01*
X153960800Y-73068201D01*
G75*
G02*
X153710801Y-73318200I-249999J0D01*
G01*
G37*
%TD*%
%TO.C,R12*%
G36*
G01*
X158790801Y-76470200D02*
X157540799Y-76470200D01*
G75*
G02*
X157290800Y-76220201I0J249999D01*
G01*
X157290800Y-75420199D01*
G75*
G02*
X157540799Y-75170200I249999J0D01*
G01*
X158790801Y-75170200D01*
G75*
G02*
X159040800Y-75420199I0J-249999D01*
G01*
X159040800Y-76220201D01*
G75*
G02*
X158790801Y-76470200I-249999J0D01*
G01*
G37*
G36*
G01*
X158790801Y-73370200D02*
X157540799Y-73370200D01*
G75*
G02*
X157290800Y-73120201I0J249999D01*
G01*
X157290800Y-72320199D01*
G75*
G02*
X157540799Y-72070200I249999J0D01*
G01*
X158790801Y-72070200D01*
G75*
G02*
X159040800Y-72320199I0J-249999D01*
G01*
X159040800Y-73120201D01*
G75*
G02*
X158790801Y-73370200I-249999J0D01*
G01*
G37*
%TD*%
%TO.C,R13*%
G36*
G01*
X141665799Y-107122200D02*
X142915801Y-107122200D01*
G75*
G02*
X143165800Y-107372199I0J-249999D01*
G01*
X143165800Y-108172201D01*
G75*
G02*
X142915801Y-108422200I-249999J0D01*
G01*
X141665799Y-108422200D01*
G75*
G02*
X141415800Y-108172201I0J249999D01*
G01*
X141415800Y-107372199D01*
G75*
G02*
X141665799Y-107122200I249999J0D01*
G01*
G37*
G36*
G01*
X141665799Y-104022200D02*
X142915801Y-104022200D01*
G75*
G02*
X143165800Y-104272199I0J-249999D01*
G01*
X143165800Y-105072201D01*
G75*
G02*
X142915801Y-105322200I-249999J0D01*
G01*
X141665799Y-105322200D01*
G75*
G02*
X141415800Y-105072201I0J249999D01*
G01*
X141415800Y-104272199D01*
G75*
G02*
X141665799Y-104022200I249999J0D01*
G01*
G37*
%TD*%
%TO.C,R14*%
G36*
G01*
X154091801Y-108422200D02*
X152841799Y-108422200D01*
G75*
G02*
X152591800Y-108172201I0J249999D01*
G01*
X152591800Y-107372199D01*
G75*
G02*
X152841799Y-107122200I249999J0D01*
G01*
X154091801Y-107122200D01*
G75*
G02*
X154341800Y-107372199I0J-249999D01*
G01*
X154341800Y-108172201D01*
G75*
G02*
X154091801Y-108422200I-249999J0D01*
G01*
G37*
G36*
G01*
X154091801Y-105322200D02*
X152841799Y-105322200D01*
G75*
G02*
X152591800Y-105072201I0J249999D01*
G01*
X152591800Y-104272199D01*
G75*
G02*
X152841799Y-104022200I249999J0D01*
G01*
X154091801Y-104022200D01*
G75*
G02*
X154341800Y-104272199I0J-249999D01*
G01*
X154341800Y-105072201D01*
G75*
G02*
X154091801Y-105322200I-249999J0D01*
G01*
G37*
%TD*%
%TO.C,R15*%
G36*
G01*
X159171801Y-105322200D02*
X157921799Y-105322200D01*
G75*
G02*
X157671800Y-105072201I0J249999D01*
G01*
X157671800Y-104272199D01*
G75*
G02*
X157921799Y-104022200I249999J0D01*
G01*
X159171801Y-104022200D01*
G75*
G02*
X159421800Y-104272199I0J-249999D01*
G01*
X159421800Y-105072201D01*
G75*
G02*
X159171801Y-105322200I-249999J0D01*
G01*
G37*
G36*
G01*
X159171801Y-108422200D02*
X157921799Y-108422200D01*
G75*
G02*
X157671800Y-108172201I0J249999D01*
G01*
X157671800Y-107372199D01*
G75*
G02*
X157921799Y-107122200I249999J0D01*
G01*
X159171801Y-107122200D01*
G75*
G02*
X159421800Y-107372199I0J-249999D01*
G01*
X159421800Y-108172201D01*
G75*
G02*
X159171801Y-108422200I-249999J0D01*
G01*
G37*
%TD*%
D24*
%TO.C,SW1*%
X63690500Y-82842100D03*
D25*
X63690500Y-85342100D03*
X63690500Y-87842100D03*
D26*
X71190500Y-79742100D03*
X71190500Y-90942100D03*
D25*
X78190500Y-82842100D03*
X78190500Y-87842100D03*
%TD*%
D27*
%TO.C,U1*%
X92456000Y-125730000D03*
D28*
X97536000Y-125730000D03*
D27*
X94996000Y-125730000D03*
%TD*%
D29*
%TO.C,L1*%
X103218400Y-145592800D03*
X115018400Y-145592800D03*
%TD*%
D16*
%TO.C,J12*%
X97409000Y-117814100D03*
D15*
X99949000Y-117814100D03*
X102489000Y-117814100D03*
X105029000Y-117814100D03*
X107569000Y-117814100D03*
X110109000Y-117814100D03*
%TD*%
D16*
%TO.C,J13*%
X74549000Y-117814100D03*
D15*
X77089000Y-117814100D03*
X79629000Y-117814100D03*
X82169000Y-117814100D03*
X84709000Y-117814100D03*
X87249000Y-117814100D03*
X89789000Y-117814100D03*
X92329000Y-117814100D03*
%TD*%
%TO.C,J16*%
X110109000Y-69554100D03*
X107569000Y-69554100D03*
X105029000Y-69554100D03*
X102489000Y-69554100D03*
X99949000Y-69554100D03*
X97409000Y-69554100D03*
X94869000Y-69554100D03*
D16*
X92329000Y-69554100D03*
%TD*%
%TO.C,J17*%
X65405000Y-69554100D03*
D15*
X67945000Y-69554100D03*
X70485000Y-69554100D03*
X73025000Y-69554100D03*
X75565000Y-69554100D03*
X78105000Y-69554100D03*
X80645000Y-69554100D03*
X83185000Y-69554100D03*
X85725000Y-69554100D03*
X88265000Y-69554100D03*
%TD*%
M02*
