%TF.GenerationSoftware,KiCad,Pcbnew,5.1.10*%
%TF.CreationDate,2021-11-15T11:07:25+01:00*%
%TF.ProjectId,PCB_BLDC,5043425f-424c-4444-932e-6b696361645f,V1*%
%TF.SameCoordinates,Original*%
%TF.FileFunction,Soldermask,Bot*%
%TF.FilePolarity,Negative*%
%FSLAX46Y46*%
G04 Gerber Fmt 4.6, Leading zero omitted, Abs format (unit mm)*
G04 Created by KiCad (PCBNEW 5.1.10) date 2021-11-15 11:07:25*
%MOMM*%
%LPD*%
G01*
G04 APERTURE LIST*
%ADD10R,2.600000X2.600000*%
%ADD11C,2.600000*%
%ADD12O,1.700000X1.700000*%
%ADD13R,1.700000X1.700000*%
%ADD14O,2.500000X3.000000*%
%ADD15C,4.000000*%
%ADD16C,2.000000*%
%ADD17R,2.000000X2.000000*%
%ADD18R,3.000000X2.500000*%
%ADD19C,1.800000*%
%ADD20R,1.500000X1.500000*%
G04 APERTURE END LIST*
D10*
%TO.C,J3*%
X79720400Y-66700400D03*
D11*
X84720400Y-66700400D03*
X89720400Y-66700400D03*
X94720400Y-66700400D03*
X99720400Y-66700400D03*
%TD*%
D12*
%TO.C,J10*%
X116586000Y-71374000D03*
X116586000Y-68834000D03*
D13*
X116586000Y-66294000D03*
%TD*%
D12*
%TO.C,J7*%
X164592000Y-104648000D03*
X164592000Y-102108000D03*
D13*
X164592000Y-99568000D03*
%TD*%
D12*
%TO.C,J6*%
X132588000Y-104648000D03*
X132588000Y-102108000D03*
D13*
X132588000Y-99568000D03*
%TD*%
D12*
%TO.C,J5*%
X97536000Y-104902000D03*
X97536000Y-102362000D03*
D13*
X97536000Y-99822000D03*
%TD*%
D12*
%TO.C,J9*%
X74304400Y-112893200D03*
X74304400Y-110353200D03*
D13*
X74304400Y-107813200D03*
%TD*%
D14*
%TO.C,SW2*%
X51482000Y-107188000D03*
X46482000Y-107188000D03*
X51482000Y-94688000D03*
X46482000Y-94688000D03*
%TD*%
D15*
%TO.C,J1*%
X68834000Y-127254000D03*
D11*
X72644000Y-132334000D03*
X72644000Y-122174000D03*
X62484000Y-122174000D03*
X62484000Y-132334000D03*
%TD*%
D15*
%TO.C,J8*%
X68834000Y-145796000D03*
D11*
X72644000Y-150876000D03*
X72644000Y-140716000D03*
X62484000Y-140716000D03*
X62484000Y-150876000D03*
%TD*%
D12*
%TO.C,J4*%
X53908200Y-85258000D03*
D13*
X53908200Y-82718000D03*
%TD*%
D16*
%TO.C,SW1*%
X67878200Y-81448000D03*
D17*
X67878200Y-83948000D03*
D16*
X67878200Y-86448000D03*
D18*
X75378200Y-78348000D03*
X75378200Y-89548000D03*
D16*
X82378200Y-81448000D03*
X82378200Y-86448000D03*
%TD*%
D11*
%TO.C,J2*%
X143416000Y-67564000D03*
X148416000Y-67564000D03*
D10*
X153416000Y-67564000D03*
%TD*%
D19*
%TO.C,U1*%
X88519000Y-126365000D03*
D20*
X91059000Y-126365000D03*
D16*
X85979000Y-126365000D03*
%TD*%
M02*
