%TF.GenerationSoftware,KiCad,Pcbnew,5.1.10*%
%TF.CreationDate,2021-11-15T11:07:25+01:00*%
%TF.ProjectId,PCB_BLDC,5043425f-424c-4444-932e-6b696361645f,V1*%
%TF.SameCoordinates,Original*%
%TF.FileFunction,Copper,L2,Bot*%
%TF.FilePolarity,Positive*%
%FSLAX46Y46*%
G04 Gerber Fmt 4.6, Leading zero omitted, Abs format (unit mm)*
G04 Created by KiCad (PCBNEW 5.1.10) date 2021-11-15 11:07:25*
%MOMM*%
%LPD*%
G01*
G04 APERTURE LIST*
%TA.AperFunction,ComponentPad*%
%ADD10R,2.600000X2.600000*%
%TD*%
%TA.AperFunction,ComponentPad*%
%ADD11C,2.600000*%
%TD*%
%TA.AperFunction,ComponentPad*%
%ADD12O,1.700000X1.700000*%
%TD*%
%TA.AperFunction,ComponentPad*%
%ADD13R,1.700000X1.700000*%
%TD*%
%TA.AperFunction,ComponentPad*%
%ADD14O,2.500000X3.000000*%
%TD*%
%TA.AperFunction,ComponentPad*%
%ADD15C,4.000000*%
%TD*%
%TA.AperFunction,ComponentPad*%
%ADD16C,2.000000*%
%TD*%
%TA.AperFunction,ComponentPad*%
%ADD17R,2.000000X2.000000*%
%TD*%
%TA.AperFunction,ComponentPad*%
%ADD18R,3.000000X2.500000*%
%TD*%
%TA.AperFunction,ComponentPad*%
%ADD19C,1.800000*%
%TD*%
%TA.AperFunction,ComponentPad*%
%ADD20R,1.500000X1.500000*%
%TD*%
%TA.AperFunction,ViaPad*%
%ADD21C,0.800000*%
%TD*%
%TA.AperFunction,Conductor*%
%ADD22C,1.500000*%
%TD*%
%TA.AperFunction,Conductor*%
%ADD23C,0.500000*%
%TD*%
%TA.AperFunction,Conductor*%
%ADD24C,0.254000*%
%TD*%
%TA.AperFunction,Conductor*%
%ADD25C,0.100000*%
%TD*%
G04 APERTURE END LIST*
D10*
%TO.P,J3,5*%
%TO.N,GND*%
X79720400Y-66700400D03*
D11*
%TO.P,J3,4*%
%TO.N,/VCC_5V*%
X84720400Y-66700400D03*
%TO.P,J3,3*%
%TO.N,/L1_Sense*%
X89720400Y-66700400D03*
%TO.P,J3,2*%
%TO.N,/L2_Sense*%
X94720400Y-66700400D03*
%TO.P,J3,1*%
%TO.N,/L3_Sense*%
X99720400Y-66700400D03*
%TD*%
D12*
%TO.P,J10,3*%
%TO.N,/L3_Sense_Filt*%
X116586000Y-71374000D03*
%TO.P,J10,2*%
%TO.N,/L2_Sense_Filt*%
X116586000Y-68834000D03*
D13*
%TO.P,J10,1*%
%TO.N,/L1_Sense_Filt*%
X116586000Y-66294000D03*
%TD*%
D12*
%TO.P,J7,3*%
%TO.N,/L3_IS*%
X164592000Y-104648000D03*
%TO.P,J7,2*%
%TO.N,/L3_INH*%
X164592000Y-102108000D03*
D13*
%TO.P,J7,1*%
%TO.N,/L3_IN*%
X164592000Y-99568000D03*
%TD*%
D12*
%TO.P,J6,3*%
%TO.N,/L2_IS*%
X132588000Y-104648000D03*
%TO.P,J6,2*%
%TO.N,/L2_INH*%
X132588000Y-102108000D03*
D13*
%TO.P,J6,1*%
%TO.N,/L2_IN*%
X132588000Y-99568000D03*
%TD*%
D12*
%TO.P,J5,3*%
%TO.N,/L1_IS*%
X97536000Y-104902000D03*
%TO.P,J5,2*%
%TO.N,/L1_INH*%
X97536000Y-102362000D03*
D13*
%TO.P,J5,1*%
%TO.N,/L1_IN*%
X97536000Y-99822000D03*
%TD*%
D12*
%TO.P,J9,3*%
%TO.N,GND*%
X74304400Y-112893200D03*
%TO.P,J9,2*%
%TO.N,/Reset_SW*%
X74304400Y-110353200D03*
D13*
%TO.P,J9,1*%
%TO.N,/VCC_5V*%
X74304400Y-107813200D03*
%TD*%
D14*
%TO.P,SW2,2*%
%TO.N,Net-(R26-Pad1)*%
X51482000Y-107188000D03*
%TO.P,SW2,1*%
%TO.N,GND*%
X46482000Y-107188000D03*
%TO.P,SW2,2*%
%TO.N,Net-(R26-Pad1)*%
X51482000Y-94688000D03*
%TO.P,SW2,1*%
%TO.N,GND*%
X46482000Y-94688000D03*
%TD*%
D15*
%TO.P,J1,1*%
%TO.N,GND*%
X68834000Y-127254000D03*
D11*
%TO.P,J1,2*%
%TO.N,N/C*%
X72644000Y-132334000D03*
X72644000Y-122174000D03*
X62484000Y-122174000D03*
X62484000Y-132334000D03*
%TD*%
D15*
%TO.P,J8,1*%
%TO.N,/VCC_Unregulated*%
X68834000Y-145796000D03*
D11*
%TO.P,J8,2*%
%TO.N,N/C*%
X72644000Y-150876000D03*
X72644000Y-140716000D03*
X62484000Y-140716000D03*
X62484000Y-150876000D03*
%TD*%
D12*
%TO.P,J4,2*%
%TO.N,/Rot_B_Pull_Up*%
X53908200Y-85258000D03*
D13*
%TO.P,J4,1*%
%TO.N,/Rot_A_Pull_Up*%
X53908200Y-82718000D03*
%TD*%
D16*
%TO.P,SW1,A*%
%TO.N,Net-(R16-Pad1)*%
X67878200Y-81448000D03*
D17*
%TO.P,SW1,C*%
%TO.N,GND*%
X67878200Y-83948000D03*
D16*
%TO.P,SW1,B*%
%TO.N,Net-(R17-Pad1)*%
X67878200Y-86448000D03*
D18*
%TO.P,SW1,MP*%
%TO.N,N/C*%
X75378200Y-78348000D03*
X75378200Y-89548000D03*
D16*
%TO.P,SW1,S1*%
X82378200Y-81448000D03*
%TO.P,SW1,S2*%
X82378200Y-86448000D03*
%TD*%
D11*
%TO.P,J2,3*%
%TO.N,/L1_Motor*%
X143416000Y-67564000D03*
%TO.P,J2,2*%
%TO.N,/L2_Motor*%
X148416000Y-67564000D03*
D10*
%TO.P,J2,1*%
%TO.N,/L3_Motor*%
X153416000Y-67564000D03*
%TD*%
D19*
%TO.P,U1,2*%
%TO.N,GND*%
X88519000Y-126365000D03*
D20*
%TO.P,U1,1*%
%TO.N,Net-(D2-Pad1)*%
X91059000Y-126365000D03*
D16*
%TO.P,U1,3*%
%TO.N,/VCC_5V*%
X85979000Y-126365000D03*
%TD*%
D21*
%TO.N,GND*%
X161544000Y-117856000D03*
X159004000Y-115316000D03*
X161544000Y-112776000D03*
X156464000Y-112776000D03*
X156464000Y-117856000D03*
X162052000Y-128016000D03*
X156972000Y-122936000D03*
X156972000Y-128016000D03*
X162052000Y-122936000D03*
X159512000Y-125476000D03*
X170688000Y-130556000D03*
X168148000Y-128016000D03*
X170688000Y-125476000D03*
X165608000Y-125476000D03*
X165608000Y-130556000D03*
X180848000Y-131064000D03*
X178308000Y-128524000D03*
X180848000Y-125984000D03*
X175768000Y-125984000D03*
X175768000Y-131064000D03*
X139700000Y-150368000D03*
X137160000Y-147828000D03*
X139700000Y-145288000D03*
X134620000Y-145288000D03*
X134620000Y-150368000D03*
X155448000Y-151892000D03*
X152908000Y-149352000D03*
X155448000Y-146812000D03*
X150368000Y-151892000D03*
X171399200Y-151688800D03*
X176479200Y-146608800D03*
X176479200Y-151688800D03*
X196799200Y-151688800D03*
X171399200Y-146608800D03*
X196799200Y-146608800D03*
X97739200Y-149148800D03*
X92659200Y-149148800D03*
X87579200Y-149148800D03*
X102819200Y-149148800D03*
X196291200Y-118059200D03*
X191211200Y-97739200D03*
X191211200Y-118059200D03*
X196291200Y-102819200D03*
X191211200Y-102819200D03*
X191211200Y-123139200D03*
X191211200Y-112979200D03*
X196291200Y-112979200D03*
X191211200Y-107899200D03*
X196291200Y-107899200D03*
X196291200Y-97739200D03*
X196291200Y-123139200D03*
X130810000Y-150495000D03*
X125730000Y-150495000D03*
X120650000Y-150495000D03*
X115570000Y-150495000D03*
X110490000Y-150495000D03*
X166751000Y-93853000D03*
X176911000Y-111633000D03*
X176911000Y-116713000D03*
X143891000Y-114173000D03*
X143891000Y-109093000D03*
X109347000Y-115697000D03*
X109347000Y-110617000D03*
X101727000Y-95377000D03*
X127000000Y-111760000D03*
X127000000Y-116840000D03*
X124460000Y-114300000D03*
X124460000Y-109220000D03*
X124460000Y-119380000D03*
X127000000Y-121920000D03*
X142122200Y-94624200D03*
X137160000Y-93980000D03*
X175260000Y-93980000D03*
X93980000Y-114300000D03*
X91440000Y-111760000D03*
X93980000Y-109220000D03*
X91440000Y-106680000D03*
X93980000Y-104140000D03*
X91440000Y-101600000D03*
X93980000Y-99060000D03*
X91440000Y-96520000D03*
X88900000Y-99060000D03*
X88900000Y-104140000D03*
X88900000Y-109220000D03*
X121920000Y-111760000D03*
X129540000Y-114300000D03*
X129540000Y-119380000D03*
X129540000Y-93980000D03*
X121920000Y-99060000D03*
X121920000Y-106680000D03*
X127000000Y-106680000D03*
X137160000Y-83820000D03*
X139700000Y-81280000D03*
X93980000Y-88900000D03*
X88900000Y-88900000D03*
X88900000Y-93980000D03*
X88900000Y-114300000D03*
X128270000Y-130810000D03*
X125730000Y-130810000D03*
X123190000Y-130810000D03*
X120650000Y-130810000D03*
X116840000Y-130810000D03*
X113030000Y-130810000D03*
X109220000Y-130810000D03*
X105410000Y-130810000D03*
X101600000Y-130810000D03*
X100330000Y-110490000D03*
X100330000Y-114300000D03*
X100330000Y-106680000D03*
X134620000Y-114300000D03*
X134620000Y-111760000D03*
X134620000Y-109220000D03*
X157480000Y-107950000D03*
X157480000Y-104140000D03*
X175260000Y-96520000D03*
X167640000Y-106680000D03*
X167640000Y-111760000D03*
X167640000Y-116840000D03*
X172720000Y-116840000D03*
X81518000Y-94656000D03*
X51038000Y-84496000D03*
X45958000Y-84496000D03*
X58928000Y-84836000D03*
X62738000Y-84836000D03*
X60833000Y-82931000D03*
X106743500Y-94551500D03*
X106680000Y-90170000D03*
X140970000Y-90170000D03*
X62738000Y-97536000D03*
X60198000Y-94996000D03*
X60198000Y-100076000D03*
X57658000Y-97536000D03*
X57658000Y-92456000D03*
X57658000Y-102616000D03*
X55118000Y-100076000D03*
X55118000Y-94996000D03*
X42418000Y-92456000D03*
X42418000Y-87376000D03*
X42418000Y-82296000D03*
X42418000Y-77216000D03*
X47498000Y-77216000D03*
X52578000Y-77216000D03*
X57658000Y-77216000D03*
X62738000Y-77216000D03*
X195580000Y-63500000D03*
X190500000Y-63500000D03*
X185420000Y-63500000D03*
X180340000Y-63500000D03*
X175260000Y-63500000D03*
X170180000Y-63500000D03*
X165100000Y-63500000D03*
X160020000Y-63500000D03*
X162560000Y-66040000D03*
X167640000Y-66040000D03*
X172720000Y-66040000D03*
X177800000Y-66040000D03*
X182880000Y-66040000D03*
X187960000Y-66040000D03*
X193040000Y-66040000D03*
X195580000Y-68580000D03*
X190500000Y-68580000D03*
X185420000Y-68580000D03*
X180340000Y-68580000D03*
X175260000Y-68580000D03*
X170180000Y-68580000D03*
X165100000Y-68580000D03*
X160020000Y-68580000D03*
X162560000Y-71120000D03*
X167640000Y-71120000D03*
X172720000Y-71120000D03*
X177800000Y-71120000D03*
X182880000Y-71120000D03*
X187960000Y-71120000D03*
X193040000Y-71120000D03*
X195580000Y-73660000D03*
X190500000Y-73660000D03*
X185420000Y-73660000D03*
X180340000Y-73660000D03*
X175260000Y-73660000D03*
X170180000Y-73660000D03*
X165100000Y-73660000D03*
X137160000Y-63500000D03*
X132080000Y-63500000D03*
X127000000Y-63500000D03*
X129540000Y-66040000D03*
X134620000Y-66040000D03*
X124460000Y-66040000D03*
X127000000Y-68580000D03*
X132080000Y-68580000D03*
X137160000Y-68580000D03*
X134620000Y-71120000D03*
X129540000Y-71120000D03*
X124460000Y-71120000D03*
X127000000Y-73660000D03*
X132080000Y-73660000D03*
X129540000Y-76200000D03*
X124460000Y-76200000D03*
X127000000Y-78740000D03*
X73660000Y-66040000D03*
X71120000Y-63500000D03*
X68580000Y-66040000D03*
X71120000Y-68580000D03*
X66040000Y-68580000D03*
X60960000Y-68580000D03*
X55880000Y-68580000D03*
X50800000Y-68580000D03*
X45720000Y-68580000D03*
X45720000Y-63500000D03*
X50800000Y-63500000D03*
X55880000Y-63500000D03*
X60960000Y-63500000D03*
X66040000Y-63500000D03*
X63500000Y-66040000D03*
X58420000Y-66040000D03*
X53340000Y-66040000D03*
X48260000Y-66040000D03*
%TO.N,Net-(C11-Pad1)*%
X115519200Y-102819200D03*
X108534200Y-107899200D03*
%TO.N,Net-(R8-Pad1)*%
X113868200Y-103835200D03*
X109169200Y-103454200D03*
%TO.N,Net-(R9-Pad1)*%
X109169200Y-98374200D03*
X112598200Y-102438200D03*
%TO.N,Net-(C12-Pad1)*%
X149682200Y-103454200D03*
X143586200Y-106502200D03*
%TO.N,Net-(R11-Pad1)*%
X147142200Y-104470200D03*
X143078200Y-104470200D03*
%TO.N,Net-(R12-Pad1)*%
X146507200Y-102819200D03*
X143078200Y-100914200D03*
%TO.N,Net-(C13-Pad1)*%
X183083200Y-103200200D03*
X176479200Y-108280200D03*
%TO.N,Net-(R14-Pad1)*%
X181305200Y-102946200D03*
X176479200Y-103708200D03*
%TO.N,Net-(R15-Pad1)*%
X180035200Y-102184200D03*
X176479200Y-100660200D03*
%TO.N,/L1_IS*%
X116789200Y-105359200D03*
X111074200Y-120726200D03*
%TO.N,/L2_IS*%
X151206200Y-105486200D03*
X144602200Y-122250200D03*
%TO.N,/L3_IS*%
X184607200Y-103708200D03*
X177495200Y-123012200D03*
%TD*%
D22*
%TO.N,GND*%
X67878200Y-83948000D02*
X66318000Y-83948000D01*
X66318000Y-83948000D02*
X66358000Y-83988000D01*
X66358000Y-83988000D02*
X69834000Y-83988000D01*
D23*
%TO.N,Net-(C11-Pad1)*%
X108534200Y-107899200D02*
X108534200Y-107899200D01*
X109804200Y-106629200D02*
X108534200Y-107899200D01*
X112979200Y-106629200D02*
X109804200Y-106629200D01*
X115519200Y-104089200D02*
X112979200Y-106629200D01*
X115519200Y-102819200D02*
X115519200Y-104089200D01*
%TO.N,Net-(R8-Pad1)*%
X109550200Y-103835200D02*
X109169200Y-103454200D01*
X109169200Y-103454200D02*
X109169200Y-103454200D01*
X113868200Y-103835200D02*
X113030000Y-104673400D01*
X110388400Y-104673400D02*
X109550200Y-103835200D01*
X113030000Y-104673400D02*
X110388400Y-104673400D01*
%TO.N,Net-(R9-Pad1)*%
X109169200Y-98374200D02*
X109169200Y-98374200D01*
X109169200Y-98374200D02*
X109169200Y-98374200D01*
X109804200Y-99009200D02*
X109169200Y-98374200D01*
X109804200Y-102184200D02*
X109804200Y-99009200D01*
X112598200Y-102438200D02*
X112598200Y-103047800D01*
X112598200Y-103047800D02*
X112014000Y-103632000D01*
X111252000Y-103632000D02*
X109804200Y-102184200D01*
X112014000Y-103632000D02*
X111252000Y-103632000D01*
%TO.N,Net-(C12-Pad1)*%
X149682200Y-103454200D02*
X149682200Y-104470200D01*
X149682200Y-104470200D02*
X148158200Y-105994200D01*
X148158200Y-105994200D02*
X144094200Y-105994200D01*
X144094200Y-105994200D02*
X143586200Y-106502200D01*
X143586200Y-106502200D02*
X143586200Y-106502200D01*
%TO.N,Net-(R11-Pad1)*%
X147142200Y-104470200D02*
X143078200Y-104470200D01*
X143078200Y-104470200D02*
X143078200Y-104470200D01*
%TO.N,Net-(R12-Pad1)*%
X143078200Y-100914200D02*
X143078200Y-100914200D01*
X143078200Y-101930200D02*
X143078200Y-100914200D01*
X144780000Y-103632000D02*
X143078200Y-101930200D01*
X145694400Y-103632000D02*
X144780000Y-103632000D01*
X146507200Y-102819200D02*
X145694400Y-103632000D01*
%TO.N,Net-(C13-Pad1)*%
X183083200Y-103200200D02*
X178003200Y-108280200D01*
X178003200Y-108280200D02*
X176479200Y-108280200D01*
X176479200Y-108280200D02*
X176479200Y-108280200D01*
%TO.N,Net-(R14-Pad1)*%
X181305200Y-102946200D02*
X180543200Y-103708200D01*
X180543200Y-103708200D02*
X176987200Y-103708200D01*
X176987200Y-103708200D02*
X176987200Y-103708200D01*
X176987200Y-103708200D02*
X176479200Y-103708200D01*
X176479200Y-103708200D02*
X176479200Y-103708200D01*
%TO.N,Net-(R15-Pad1)*%
X178003200Y-102184200D02*
X176479200Y-100660200D01*
X176479200Y-100660200D02*
X176479200Y-100660200D01*
X180035200Y-102184200D02*
X179349400Y-102870000D01*
X178689000Y-102870000D02*
X178003200Y-102184200D01*
X179349400Y-102870000D02*
X178689000Y-102870000D01*
%TO.N,/L1_IS*%
X116789200Y-105359200D02*
X115519200Y-106629200D01*
X115519200Y-106629200D02*
X115646200Y-106502200D01*
X115646200Y-106502200D02*
X115138200Y-107010200D01*
X115138200Y-107010200D02*
X115138200Y-119202200D01*
X115138200Y-119202200D02*
X113614200Y-120726200D01*
X113614200Y-120726200D02*
X111074200Y-120726200D01*
X111074200Y-120726200D02*
X111074200Y-120726200D01*
%TO.N,/L2_IS*%
X151206200Y-105486200D02*
X149682200Y-107010200D01*
X149682200Y-107010200D02*
X149174200Y-107518200D01*
X149174200Y-107518200D02*
X149174200Y-120726200D01*
X149174200Y-120726200D02*
X148666200Y-121234200D01*
X148666200Y-121234200D02*
X147650200Y-122250200D01*
X147650200Y-122250200D02*
X144602200Y-122250200D01*
X144602200Y-122250200D02*
X144602200Y-122250200D01*
%TO.N,/L3_IS*%
X184607200Y-103708200D02*
X183083200Y-105232200D01*
X183083200Y-105232200D02*
X183083200Y-122504200D01*
X183083200Y-122504200D02*
X182575200Y-123012200D01*
X182575200Y-123012200D02*
X177495200Y-123012200D01*
X177495200Y-123012200D02*
X177495200Y-123012200D01*
X177495200Y-123012200D02*
X177495200Y-123012200D01*
%TD*%
D24*
%TO.N,GND*%
X198680001Y-152960000D02*
X41350000Y-152960000D01*
X41350000Y-150685419D01*
X60549000Y-150685419D01*
X60549000Y-151066581D01*
X60623361Y-151440419D01*
X60769225Y-151792566D01*
X60980987Y-152109491D01*
X61250509Y-152379013D01*
X61567434Y-152590775D01*
X61919581Y-152736639D01*
X62293419Y-152811000D01*
X62674581Y-152811000D01*
X63048419Y-152736639D01*
X63400566Y-152590775D01*
X63717491Y-152379013D01*
X63987013Y-152109491D01*
X64198775Y-151792566D01*
X64344639Y-151440419D01*
X64419000Y-151066581D01*
X64419000Y-150685419D01*
X70709000Y-150685419D01*
X70709000Y-151066581D01*
X70783361Y-151440419D01*
X70929225Y-151792566D01*
X71140987Y-152109491D01*
X71410509Y-152379013D01*
X71727434Y-152590775D01*
X72079581Y-152736639D01*
X72453419Y-152811000D01*
X72834581Y-152811000D01*
X73208419Y-152736639D01*
X73560566Y-152590775D01*
X73877491Y-152379013D01*
X74147013Y-152109491D01*
X74358775Y-151792566D01*
X74504639Y-151440419D01*
X74579000Y-151066581D01*
X74579000Y-150685419D01*
X74504639Y-150311581D01*
X74358775Y-149959434D01*
X74147013Y-149642509D01*
X73877491Y-149372987D01*
X73560566Y-149161225D01*
X73208419Y-149015361D01*
X72834581Y-148941000D01*
X72453419Y-148941000D01*
X72079581Y-149015361D01*
X71727434Y-149161225D01*
X71410509Y-149372987D01*
X71140987Y-149642509D01*
X70929225Y-149959434D01*
X70783361Y-150311581D01*
X70709000Y-150685419D01*
X64419000Y-150685419D01*
X64344639Y-150311581D01*
X64198775Y-149959434D01*
X63987013Y-149642509D01*
X63717491Y-149372987D01*
X63400566Y-149161225D01*
X63048419Y-149015361D01*
X62674581Y-148941000D01*
X62293419Y-148941000D01*
X61919581Y-149015361D01*
X61567434Y-149161225D01*
X61250509Y-149372987D01*
X60980987Y-149642509D01*
X60769225Y-149959434D01*
X60623361Y-150311581D01*
X60549000Y-150685419D01*
X41350000Y-150685419D01*
X41350000Y-145536475D01*
X66199000Y-145536475D01*
X66199000Y-146055525D01*
X66300261Y-146564601D01*
X66498893Y-147044141D01*
X66787262Y-147475715D01*
X67154285Y-147842738D01*
X67585859Y-148131107D01*
X68065399Y-148329739D01*
X68574475Y-148431000D01*
X69093525Y-148431000D01*
X69602601Y-148329739D01*
X70082141Y-148131107D01*
X70513715Y-147842738D01*
X70880738Y-147475715D01*
X71169107Y-147044141D01*
X71367739Y-146564601D01*
X71469000Y-146055525D01*
X71469000Y-145536475D01*
X71367739Y-145027399D01*
X71169107Y-144547859D01*
X70880738Y-144116285D01*
X70513715Y-143749262D01*
X70082141Y-143460893D01*
X69602601Y-143262261D01*
X69093525Y-143161000D01*
X68574475Y-143161000D01*
X68065399Y-143262261D01*
X67585859Y-143460893D01*
X67154285Y-143749262D01*
X66787262Y-144116285D01*
X66498893Y-144547859D01*
X66300261Y-145027399D01*
X66199000Y-145536475D01*
X41350000Y-145536475D01*
X41350000Y-140525419D01*
X60549000Y-140525419D01*
X60549000Y-140906581D01*
X60623361Y-141280419D01*
X60769225Y-141632566D01*
X60980987Y-141949491D01*
X61250509Y-142219013D01*
X61567434Y-142430775D01*
X61919581Y-142576639D01*
X62293419Y-142651000D01*
X62674581Y-142651000D01*
X63048419Y-142576639D01*
X63400566Y-142430775D01*
X63717491Y-142219013D01*
X63987013Y-141949491D01*
X64198775Y-141632566D01*
X64344639Y-141280419D01*
X64419000Y-140906581D01*
X64419000Y-140525419D01*
X70709000Y-140525419D01*
X70709000Y-140906581D01*
X70783361Y-141280419D01*
X70929225Y-141632566D01*
X71140987Y-141949491D01*
X71410509Y-142219013D01*
X71727434Y-142430775D01*
X72079581Y-142576639D01*
X72453419Y-142651000D01*
X72834581Y-142651000D01*
X73208419Y-142576639D01*
X73560566Y-142430775D01*
X73877491Y-142219013D01*
X74147013Y-141949491D01*
X74358775Y-141632566D01*
X74504639Y-141280419D01*
X74579000Y-140906581D01*
X74579000Y-140525419D01*
X74504639Y-140151581D01*
X74358775Y-139799434D01*
X74147013Y-139482509D01*
X73877491Y-139212987D01*
X73560566Y-139001225D01*
X73208419Y-138855361D01*
X72834581Y-138781000D01*
X72453419Y-138781000D01*
X72079581Y-138855361D01*
X71727434Y-139001225D01*
X71410509Y-139212987D01*
X71140987Y-139482509D01*
X70929225Y-139799434D01*
X70783361Y-140151581D01*
X70709000Y-140525419D01*
X64419000Y-140525419D01*
X64344639Y-140151581D01*
X64198775Y-139799434D01*
X63987013Y-139482509D01*
X63717491Y-139212987D01*
X63400566Y-139001225D01*
X63048419Y-138855361D01*
X62674581Y-138781000D01*
X62293419Y-138781000D01*
X61919581Y-138855361D01*
X61567434Y-139001225D01*
X61250509Y-139212987D01*
X60980987Y-139482509D01*
X60769225Y-139799434D01*
X60623361Y-140151581D01*
X60549000Y-140525419D01*
X41350000Y-140525419D01*
X41350000Y-132143419D01*
X60549000Y-132143419D01*
X60549000Y-132524581D01*
X60623361Y-132898419D01*
X60769225Y-133250566D01*
X60980987Y-133567491D01*
X61250509Y-133837013D01*
X61567434Y-134048775D01*
X61919581Y-134194639D01*
X62293419Y-134269000D01*
X62674581Y-134269000D01*
X63048419Y-134194639D01*
X63400566Y-134048775D01*
X63717491Y-133837013D01*
X63987013Y-133567491D01*
X64198775Y-133250566D01*
X64344639Y-132898419D01*
X64419000Y-132524581D01*
X64419000Y-132143419D01*
X70709000Y-132143419D01*
X70709000Y-132524581D01*
X70783361Y-132898419D01*
X70929225Y-133250566D01*
X71140987Y-133567491D01*
X71410509Y-133837013D01*
X71727434Y-134048775D01*
X72079581Y-134194639D01*
X72453419Y-134269000D01*
X72834581Y-134269000D01*
X73208419Y-134194639D01*
X73560566Y-134048775D01*
X73877491Y-133837013D01*
X74147013Y-133567491D01*
X74358775Y-133250566D01*
X74504639Y-132898419D01*
X74579000Y-132524581D01*
X74579000Y-132143419D01*
X74504639Y-131769581D01*
X74358775Y-131417434D01*
X74147013Y-131100509D01*
X73877491Y-130830987D01*
X73560566Y-130619225D01*
X73208419Y-130473361D01*
X72834581Y-130399000D01*
X72453419Y-130399000D01*
X72079581Y-130473361D01*
X71727434Y-130619225D01*
X71410509Y-130830987D01*
X71140987Y-131100509D01*
X70929225Y-131417434D01*
X70783361Y-131769581D01*
X70709000Y-132143419D01*
X64419000Y-132143419D01*
X64344639Y-131769581D01*
X64198775Y-131417434D01*
X63987013Y-131100509D01*
X63717491Y-130830987D01*
X63400566Y-130619225D01*
X63048419Y-130473361D01*
X62674581Y-130399000D01*
X62293419Y-130399000D01*
X61919581Y-130473361D01*
X61567434Y-130619225D01*
X61250509Y-130830987D01*
X60980987Y-131100509D01*
X60769225Y-131417434D01*
X60623361Y-131769581D01*
X60549000Y-132143419D01*
X41350000Y-132143419D01*
X41350000Y-126203967D01*
X84344000Y-126203967D01*
X84344000Y-126526033D01*
X84406832Y-126841912D01*
X84530082Y-127139463D01*
X84709013Y-127407252D01*
X84936748Y-127634987D01*
X85204537Y-127813918D01*
X85502088Y-127937168D01*
X85817967Y-128000000D01*
X86140033Y-128000000D01*
X86455912Y-127937168D01*
X86753463Y-127813918D01*
X87021252Y-127634987D01*
X87248987Y-127407252D01*
X87427918Y-127139463D01*
X87551168Y-126841912D01*
X87614000Y-126526033D01*
X87614000Y-126203967D01*
X87551168Y-125888088D01*
X87438051Y-125615000D01*
X89670928Y-125615000D01*
X89670928Y-127115000D01*
X89683188Y-127239482D01*
X89719498Y-127359180D01*
X89778463Y-127469494D01*
X89857815Y-127566185D01*
X89954506Y-127645537D01*
X90064820Y-127704502D01*
X90184518Y-127740812D01*
X90309000Y-127753072D01*
X91809000Y-127753072D01*
X91933482Y-127740812D01*
X92053180Y-127704502D01*
X92163494Y-127645537D01*
X92260185Y-127566185D01*
X92339537Y-127469494D01*
X92398502Y-127359180D01*
X92434812Y-127239482D01*
X92447072Y-127115000D01*
X92447072Y-125615000D01*
X92434812Y-125490518D01*
X92398502Y-125370820D01*
X92339537Y-125260506D01*
X92260185Y-125163815D01*
X92163494Y-125084463D01*
X92053180Y-125025498D01*
X91933482Y-124989188D01*
X91809000Y-124976928D01*
X90309000Y-124976928D01*
X90184518Y-124989188D01*
X90064820Y-125025498D01*
X89954506Y-125084463D01*
X89857815Y-125163815D01*
X89778463Y-125260506D01*
X89719498Y-125370820D01*
X89683188Y-125490518D01*
X89670928Y-125615000D01*
X87438051Y-125615000D01*
X87427918Y-125590537D01*
X87248987Y-125322748D01*
X87021252Y-125095013D01*
X86753463Y-124916082D01*
X86455912Y-124792832D01*
X86140033Y-124730000D01*
X85817967Y-124730000D01*
X85502088Y-124792832D01*
X85204537Y-124916082D01*
X84936748Y-125095013D01*
X84709013Y-125322748D01*
X84530082Y-125590537D01*
X84406832Y-125888088D01*
X84344000Y-126203967D01*
X41350000Y-126203967D01*
X41350000Y-121983419D01*
X60549000Y-121983419D01*
X60549000Y-122364581D01*
X60623361Y-122738419D01*
X60769225Y-123090566D01*
X60980987Y-123407491D01*
X61250509Y-123677013D01*
X61567434Y-123888775D01*
X61919581Y-124034639D01*
X62293419Y-124109000D01*
X62674581Y-124109000D01*
X63048419Y-124034639D01*
X63400566Y-123888775D01*
X63717491Y-123677013D01*
X63987013Y-123407491D01*
X64198775Y-123090566D01*
X64344639Y-122738419D01*
X64419000Y-122364581D01*
X64419000Y-121983419D01*
X70709000Y-121983419D01*
X70709000Y-122364581D01*
X70783361Y-122738419D01*
X70929225Y-123090566D01*
X71140987Y-123407491D01*
X71410509Y-123677013D01*
X71727434Y-123888775D01*
X72079581Y-124034639D01*
X72453419Y-124109000D01*
X72834581Y-124109000D01*
X73208419Y-124034639D01*
X73560566Y-123888775D01*
X73877491Y-123677013D01*
X74147013Y-123407491D01*
X74358775Y-123090566D01*
X74504639Y-122738419D01*
X74579000Y-122364581D01*
X74579000Y-121983419D01*
X74504639Y-121609581D01*
X74358775Y-121257434D01*
X74147013Y-120940509D01*
X73877491Y-120670987D01*
X73560566Y-120459225D01*
X73208419Y-120313361D01*
X72834581Y-120239000D01*
X72453419Y-120239000D01*
X72079581Y-120313361D01*
X71727434Y-120459225D01*
X71410509Y-120670987D01*
X71140987Y-120940509D01*
X70929225Y-121257434D01*
X70783361Y-121609581D01*
X70709000Y-121983419D01*
X64419000Y-121983419D01*
X64344639Y-121609581D01*
X64198775Y-121257434D01*
X63987013Y-120940509D01*
X63717491Y-120670987D01*
X63400566Y-120459225D01*
X63048419Y-120313361D01*
X62674581Y-120239000D01*
X62293419Y-120239000D01*
X61919581Y-120313361D01*
X61567434Y-120459225D01*
X61250509Y-120670987D01*
X60980987Y-120940509D01*
X60769225Y-121257434D01*
X60623361Y-121609581D01*
X60549000Y-121983419D01*
X41350000Y-121983419D01*
X41350000Y-106845404D01*
X49597000Y-106845404D01*
X49597000Y-107530597D01*
X49624275Y-107807524D01*
X49732061Y-108162848D01*
X49907097Y-108490317D01*
X50142655Y-108777345D01*
X50429684Y-109012903D01*
X50757153Y-109187939D01*
X51112477Y-109295725D01*
X51482000Y-109332120D01*
X51851524Y-109295725D01*
X52206848Y-109187939D01*
X52534317Y-109012903D01*
X52821345Y-108777345D01*
X53056903Y-108490317D01*
X53231939Y-108162848D01*
X53339725Y-107807523D01*
X53367000Y-107530596D01*
X53367000Y-106963200D01*
X72816328Y-106963200D01*
X72816328Y-108663200D01*
X72828588Y-108787682D01*
X72864898Y-108907380D01*
X72923863Y-109017694D01*
X73003215Y-109114385D01*
X73099906Y-109193737D01*
X73210220Y-109252702D01*
X73282780Y-109274713D01*
X73150925Y-109406568D01*
X72988410Y-109649789D01*
X72876468Y-109920042D01*
X72819400Y-110206940D01*
X72819400Y-110499460D01*
X72876468Y-110786358D01*
X72988410Y-111056611D01*
X73150925Y-111299832D01*
X73357768Y-111506675D01*
X73600989Y-111669190D01*
X73871242Y-111781132D01*
X74158140Y-111838200D01*
X74450660Y-111838200D01*
X74737558Y-111781132D01*
X75007811Y-111669190D01*
X75251032Y-111506675D01*
X75457875Y-111299832D01*
X75620390Y-111056611D01*
X75732332Y-110786358D01*
X75789400Y-110499460D01*
X75789400Y-110206940D01*
X75732332Y-109920042D01*
X75620390Y-109649789D01*
X75457875Y-109406568D01*
X75326020Y-109274713D01*
X75398580Y-109252702D01*
X75508894Y-109193737D01*
X75605585Y-109114385D01*
X75684937Y-109017694D01*
X75743902Y-108907380D01*
X75780212Y-108787682D01*
X75792472Y-108663200D01*
X75792472Y-107797261D01*
X107499200Y-107797261D01*
X107499200Y-108001139D01*
X107538974Y-108201098D01*
X107616995Y-108389456D01*
X107730263Y-108558974D01*
X107874426Y-108703137D01*
X108043944Y-108816405D01*
X108232302Y-108894426D01*
X108432261Y-108934200D01*
X108636139Y-108934200D01*
X108836098Y-108894426D01*
X109024456Y-108816405D01*
X109193974Y-108703137D01*
X109338137Y-108558974D01*
X109451405Y-108389456D01*
X109529426Y-108201098D01*
X109540735Y-108144243D01*
X110170779Y-107514200D01*
X112935731Y-107514200D01*
X112979200Y-107518481D01*
X113022669Y-107514200D01*
X113022677Y-107514200D01*
X113152690Y-107501395D01*
X113319513Y-107450789D01*
X113473259Y-107368611D01*
X113608017Y-107258017D01*
X113635734Y-107224244D01*
X115791813Y-105068166D01*
X115782665Y-105114156D01*
X115051154Y-105845668D01*
X114543156Y-106353666D01*
X114509383Y-106381383D01*
X114398789Y-106516142D01*
X114316611Y-106669888D01*
X114314851Y-106675691D01*
X114266005Y-106836710D01*
X114265433Y-106842514D01*
X114253200Y-106966724D01*
X114253200Y-106966731D01*
X114248919Y-107010200D01*
X114253200Y-107053669D01*
X114253201Y-118835620D01*
X113247622Y-119841200D01*
X111612654Y-119841200D01*
X111564456Y-119808995D01*
X111376098Y-119730974D01*
X111176139Y-119691200D01*
X110972261Y-119691200D01*
X110772302Y-119730974D01*
X110583944Y-119808995D01*
X110414426Y-119922263D01*
X110270263Y-120066426D01*
X110156995Y-120235944D01*
X110078974Y-120424302D01*
X110039200Y-120624261D01*
X110039200Y-120828139D01*
X110078974Y-121028098D01*
X110156995Y-121216456D01*
X110270263Y-121385974D01*
X110414426Y-121530137D01*
X110583944Y-121643405D01*
X110772302Y-121721426D01*
X110972261Y-121761200D01*
X111176139Y-121761200D01*
X111376098Y-121721426D01*
X111564456Y-121643405D01*
X111612654Y-121611200D01*
X113570731Y-121611200D01*
X113614200Y-121615481D01*
X113657669Y-121611200D01*
X113657677Y-121611200D01*
X113787690Y-121598395D01*
X113954513Y-121547789D01*
X114108259Y-121465611D01*
X114243017Y-121355017D01*
X114270734Y-121321244D01*
X115733249Y-119858730D01*
X115767017Y-119831017D01*
X115877611Y-119696259D01*
X115959789Y-119542513D01*
X116010395Y-119375690D01*
X116023200Y-119245677D01*
X116023200Y-119245667D01*
X116027481Y-119202201D01*
X116023200Y-119158735D01*
X116023200Y-107376778D01*
X116302732Y-107097246D01*
X117034244Y-106365735D01*
X117091098Y-106354426D01*
X117279456Y-106276405D01*
X117448974Y-106163137D01*
X117593137Y-106018974D01*
X117706405Y-105849456D01*
X117784426Y-105661098D01*
X117824200Y-105461139D01*
X117824200Y-105257261D01*
X117784426Y-105057302D01*
X117706405Y-104868944D01*
X117593137Y-104699426D01*
X117448974Y-104555263D01*
X117279456Y-104441995D01*
X117091098Y-104363974D01*
X116891139Y-104324200D01*
X116687261Y-104324200D01*
X116487302Y-104363974D01*
X116342472Y-104423965D01*
X116391395Y-104262690D01*
X116404200Y-104132677D01*
X116404200Y-104132667D01*
X116408481Y-104089201D01*
X116404200Y-104045735D01*
X116404200Y-103357654D01*
X116436405Y-103309456D01*
X116514426Y-103121098D01*
X116554200Y-102921139D01*
X116554200Y-102717261D01*
X116514426Y-102517302D01*
X116436405Y-102328944D01*
X116323137Y-102159426D01*
X116178974Y-102015263D01*
X116009456Y-101901995D01*
X115821098Y-101823974D01*
X115621139Y-101784200D01*
X115417261Y-101784200D01*
X115217302Y-101823974D01*
X115028944Y-101901995D01*
X114859426Y-102015263D01*
X114715263Y-102159426D01*
X114601995Y-102328944D01*
X114523974Y-102517302D01*
X114484200Y-102717261D01*
X114484200Y-102921139D01*
X114502753Y-103014411D01*
X114358456Y-102917995D01*
X114170098Y-102839974D01*
X113970139Y-102800200D01*
X113766261Y-102800200D01*
X113566302Y-102839974D01*
X113549105Y-102847097D01*
X113593426Y-102740098D01*
X113633200Y-102540139D01*
X113633200Y-102336261D01*
X113593426Y-102136302D01*
X113515405Y-101947944D01*
X113402137Y-101778426D01*
X113257974Y-101634263D01*
X113088456Y-101520995D01*
X112900098Y-101442974D01*
X112700139Y-101403200D01*
X112496261Y-101403200D01*
X112296302Y-101442974D01*
X112107944Y-101520995D01*
X111938426Y-101634263D01*
X111794263Y-101778426D01*
X111680995Y-101947944D01*
X111602974Y-102136302D01*
X111563200Y-102336261D01*
X111563200Y-102540139D01*
X111600813Y-102729234D01*
X110689200Y-101817622D01*
X110689200Y-99052669D01*
X110693481Y-99009200D01*
X110689200Y-98965731D01*
X110689200Y-98965723D01*
X110676395Y-98835710D01*
X110640688Y-98718000D01*
X131099928Y-98718000D01*
X131099928Y-100418000D01*
X131112188Y-100542482D01*
X131148498Y-100662180D01*
X131207463Y-100772494D01*
X131286815Y-100869185D01*
X131383506Y-100948537D01*
X131493820Y-101007502D01*
X131566380Y-101029513D01*
X131434525Y-101161368D01*
X131272010Y-101404589D01*
X131160068Y-101674842D01*
X131103000Y-101961740D01*
X131103000Y-102254260D01*
X131160068Y-102541158D01*
X131272010Y-102811411D01*
X131434525Y-103054632D01*
X131641368Y-103261475D01*
X131815760Y-103378000D01*
X131641368Y-103494525D01*
X131434525Y-103701368D01*
X131272010Y-103944589D01*
X131160068Y-104214842D01*
X131103000Y-104501740D01*
X131103000Y-104794260D01*
X131160068Y-105081158D01*
X131272010Y-105351411D01*
X131434525Y-105594632D01*
X131641368Y-105801475D01*
X131884589Y-105963990D01*
X132154842Y-106075932D01*
X132441740Y-106133000D01*
X132734260Y-106133000D01*
X133021158Y-106075932D01*
X133291411Y-105963990D01*
X133534632Y-105801475D01*
X133741475Y-105594632D01*
X133903990Y-105351411D01*
X134015932Y-105081158D01*
X134073000Y-104794260D01*
X134073000Y-104501740D01*
X134015932Y-104214842D01*
X133903990Y-103944589D01*
X133741475Y-103701368D01*
X133534632Y-103494525D01*
X133360240Y-103378000D01*
X133534632Y-103261475D01*
X133741475Y-103054632D01*
X133903990Y-102811411D01*
X134015932Y-102541158D01*
X134073000Y-102254260D01*
X134073000Y-101961740D01*
X134015932Y-101674842D01*
X133903990Y-101404589D01*
X133741475Y-101161368D01*
X133609620Y-101029513D01*
X133682180Y-101007502D01*
X133792494Y-100948537D01*
X133889185Y-100869185D01*
X133935901Y-100812261D01*
X142043200Y-100812261D01*
X142043200Y-101016139D01*
X142082974Y-101216098D01*
X142160995Y-101404456D01*
X142193200Y-101452655D01*
X142193200Y-101886730D01*
X142188919Y-101930200D01*
X142193200Y-101973669D01*
X142193200Y-101973676D01*
X142203651Y-102079789D01*
X142205434Y-102097887D01*
X142206005Y-102103689D01*
X142256611Y-102270512D01*
X142338789Y-102424258D01*
X142449383Y-102559017D01*
X142483156Y-102586734D01*
X143369235Y-103472813D01*
X143180139Y-103435200D01*
X142976261Y-103435200D01*
X142776302Y-103474974D01*
X142587944Y-103552995D01*
X142418426Y-103666263D01*
X142274263Y-103810426D01*
X142160995Y-103979944D01*
X142082974Y-104168302D01*
X142043200Y-104368261D01*
X142043200Y-104572139D01*
X142082974Y-104772098D01*
X142160995Y-104960456D01*
X142274263Y-105129974D01*
X142418426Y-105274137D01*
X142587944Y-105387405D01*
X142776302Y-105465426D01*
X142976261Y-105505200D01*
X143180139Y-105505200D01*
X143369235Y-105467587D01*
X143341157Y-105495665D01*
X143284302Y-105506974D01*
X143095944Y-105584995D01*
X142926426Y-105698263D01*
X142782263Y-105842426D01*
X142668995Y-106011944D01*
X142590974Y-106200302D01*
X142551200Y-106400261D01*
X142551200Y-106604139D01*
X142590974Y-106804098D01*
X142668995Y-106992456D01*
X142782263Y-107161974D01*
X142926426Y-107306137D01*
X143095944Y-107419405D01*
X143284302Y-107497426D01*
X143484261Y-107537200D01*
X143688139Y-107537200D01*
X143888098Y-107497426D01*
X144076456Y-107419405D01*
X144245974Y-107306137D01*
X144390137Y-107161974D01*
X144503405Y-106992456D01*
X144550318Y-106879200D01*
X148114731Y-106879200D01*
X148158200Y-106883481D01*
X148201669Y-106879200D01*
X148201677Y-106879200D01*
X148331690Y-106866395D01*
X148498513Y-106815789D01*
X148652259Y-106733611D01*
X148787017Y-106623017D01*
X148814734Y-106589244D01*
X150208813Y-105195166D01*
X150199665Y-105241156D01*
X149087154Y-106353668D01*
X148579156Y-106861666D01*
X148545383Y-106889383D01*
X148434789Y-107024142D01*
X148352611Y-107177888D01*
X148333281Y-107241610D01*
X148302005Y-107344710D01*
X148301433Y-107350514D01*
X148289200Y-107474724D01*
X148289200Y-107474731D01*
X148284919Y-107518200D01*
X148289200Y-107561669D01*
X148289201Y-120359621D01*
X148071159Y-120577663D01*
X148071153Y-120577668D01*
X147283622Y-121365200D01*
X145140654Y-121365200D01*
X145092456Y-121332995D01*
X144904098Y-121254974D01*
X144704139Y-121215200D01*
X144500261Y-121215200D01*
X144300302Y-121254974D01*
X144111944Y-121332995D01*
X143942426Y-121446263D01*
X143798263Y-121590426D01*
X143684995Y-121759944D01*
X143606974Y-121948302D01*
X143567200Y-122148261D01*
X143567200Y-122352139D01*
X143606974Y-122552098D01*
X143684995Y-122740456D01*
X143798263Y-122909974D01*
X143942426Y-123054137D01*
X144111944Y-123167405D01*
X144300302Y-123245426D01*
X144500261Y-123285200D01*
X144704139Y-123285200D01*
X144904098Y-123245426D01*
X145092456Y-123167405D01*
X145140654Y-123135200D01*
X147606731Y-123135200D01*
X147650200Y-123139481D01*
X147693669Y-123135200D01*
X147693677Y-123135200D01*
X147823690Y-123122395D01*
X147990513Y-123071789D01*
X148144259Y-122989611D01*
X148279017Y-122879017D01*
X148306734Y-122845244D01*
X149322732Y-121829247D01*
X149322737Y-121829241D01*
X149769246Y-121382732D01*
X149803017Y-121355017D01*
X149913611Y-121220259D01*
X149995789Y-121066513D01*
X150046395Y-120899690D01*
X150059200Y-120769677D01*
X150059200Y-120769667D01*
X150063481Y-120726201D01*
X150059200Y-120682735D01*
X150059200Y-107884778D01*
X150338732Y-107605246D01*
X151451244Y-106492735D01*
X151508098Y-106481426D01*
X151696456Y-106403405D01*
X151865974Y-106290137D01*
X152010137Y-106145974D01*
X152123405Y-105976456D01*
X152201426Y-105788098D01*
X152241200Y-105588139D01*
X152241200Y-105384261D01*
X152201426Y-105184302D01*
X152123405Y-104995944D01*
X152010137Y-104826426D01*
X151865974Y-104682263D01*
X151696456Y-104568995D01*
X151508098Y-104490974D01*
X151308139Y-104451200D01*
X151104261Y-104451200D01*
X150904302Y-104490974D01*
X150715944Y-104568995D01*
X150546426Y-104682263D01*
X150541069Y-104687620D01*
X150554395Y-104643690D01*
X150567200Y-104513677D01*
X150567200Y-104513667D01*
X150571481Y-104470201D01*
X150567200Y-104426735D01*
X150567200Y-103992654D01*
X150599405Y-103944456D01*
X150677426Y-103756098D01*
X150717200Y-103556139D01*
X150717200Y-103352261D01*
X150677426Y-103152302D01*
X150599405Y-102963944D01*
X150486137Y-102794426D01*
X150341974Y-102650263D01*
X150172456Y-102536995D01*
X149984098Y-102458974D01*
X149784139Y-102419200D01*
X149580261Y-102419200D01*
X149380302Y-102458974D01*
X149191944Y-102536995D01*
X149022426Y-102650263D01*
X148878263Y-102794426D01*
X148764995Y-102963944D01*
X148686974Y-103152302D01*
X148647200Y-103352261D01*
X148647200Y-103556139D01*
X148686974Y-103756098D01*
X148764995Y-103944456D01*
X148797201Y-103992655D01*
X148797201Y-104103621D01*
X148139587Y-104761235D01*
X148177200Y-104572139D01*
X148177200Y-104368261D01*
X148137426Y-104168302D01*
X148059405Y-103979944D01*
X147946137Y-103810426D01*
X147801974Y-103666263D01*
X147632456Y-103552995D01*
X147444098Y-103474974D01*
X147329095Y-103452099D01*
X147424405Y-103309456D01*
X147502426Y-103121098D01*
X147542200Y-102921139D01*
X147542200Y-102717261D01*
X147502426Y-102517302D01*
X147424405Y-102328944D01*
X147311137Y-102159426D01*
X147166974Y-102015263D01*
X146997456Y-101901995D01*
X146809098Y-101823974D01*
X146609139Y-101784200D01*
X146405261Y-101784200D01*
X146205302Y-101823974D01*
X146016944Y-101901995D01*
X145847426Y-102015263D01*
X145703263Y-102159426D01*
X145589995Y-102328944D01*
X145511974Y-102517302D01*
X145500665Y-102574156D01*
X145327822Y-102747000D01*
X145146579Y-102747000D01*
X143963200Y-101563622D01*
X143963200Y-101452654D01*
X143995405Y-101404456D01*
X144073426Y-101216098D01*
X144113200Y-101016139D01*
X144113200Y-100812261D01*
X144073426Y-100612302D01*
X143995405Y-100423944D01*
X143882137Y-100254426D01*
X143737974Y-100110263D01*
X143568456Y-99996995D01*
X143380098Y-99918974D01*
X143180139Y-99879200D01*
X142976261Y-99879200D01*
X142776302Y-99918974D01*
X142587944Y-99996995D01*
X142418426Y-100110263D01*
X142274263Y-100254426D01*
X142160995Y-100423944D01*
X142082974Y-100612302D01*
X142043200Y-100812261D01*
X133935901Y-100812261D01*
X133968537Y-100772494D01*
X134027502Y-100662180D01*
X134063812Y-100542482D01*
X134076072Y-100418000D01*
X134076072Y-98718000D01*
X163103928Y-98718000D01*
X163103928Y-100418000D01*
X163116188Y-100542482D01*
X163152498Y-100662180D01*
X163211463Y-100772494D01*
X163290815Y-100869185D01*
X163387506Y-100948537D01*
X163497820Y-101007502D01*
X163570380Y-101029513D01*
X163438525Y-101161368D01*
X163276010Y-101404589D01*
X163164068Y-101674842D01*
X163107000Y-101961740D01*
X163107000Y-102254260D01*
X163164068Y-102541158D01*
X163276010Y-102811411D01*
X163438525Y-103054632D01*
X163645368Y-103261475D01*
X163819760Y-103378000D01*
X163645368Y-103494525D01*
X163438525Y-103701368D01*
X163276010Y-103944589D01*
X163164068Y-104214842D01*
X163107000Y-104501740D01*
X163107000Y-104794260D01*
X163164068Y-105081158D01*
X163276010Y-105351411D01*
X163438525Y-105594632D01*
X163645368Y-105801475D01*
X163888589Y-105963990D01*
X164158842Y-106075932D01*
X164445740Y-106133000D01*
X164738260Y-106133000D01*
X165025158Y-106075932D01*
X165295411Y-105963990D01*
X165538632Y-105801475D01*
X165745475Y-105594632D01*
X165907990Y-105351411D01*
X166019932Y-105081158D01*
X166077000Y-104794260D01*
X166077000Y-104501740D01*
X166019932Y-104214842D01*
X165907990Y-103944589D01*
X165745475Y-103701368D01*
X165538632Y-103494525D01*
X165364240Y-103378000D01*
X165538632Y-103261475D01*
X165745475Y-103054632D01*
X165907990Y-102811411D01*
X166019932Y-102541158D01*
X166077000Y-102254260D01*
X166077000Y-101961740D01*
X166019932Y-101674842D01*
X165907990Y-101404589D01*
X165745475Y-101161368D01*
X165613620Y-101029513D01*
X165686180Y-101007502D01*
X165796494Y-100948537D01*
X165893185Y-100869185D01*
X165972537Y-100772494D01*
X166031502Y-100662180D01*
X166063025Y-100558261D01*
X175444200Y-100558261D01*
X175444200Y-100762139D01*
X175483974Y-100962098D01*
X175561995Y-101150456D01*
X175675263Y-101319974D01*
X175819426Y-101464137D01*
X175988944Y-101577405D01*
X176177302Y-101655426D01*
X176234157Y-101666735D01*
X177390621Y-102823200D01*
X177017654Y-102823200D01*
X176969456Y-102790995D01*
X176781098Y-102712974D01*
X176581139Y-102673200D01*
X176377261Y-102673200D01*
X176177302Y-102712974D01*
X175988944Y-102790995D01*
X175819426Y-102904263D01*
X175675263Y-103048426D01*
X175561995Y-103217944D01*
X175483974Y-103406302D01*
X175444200Y-103606261D01*
X175444200Y-103810139D01*
X175483974Y-104010098D01*
X175561995Y-104198456D01*
X175675263Y-104367974D01*
X175819426Y-104512137D01*
X175988944Y-104625405D01*
X176177302Y-104703426D01*
X176377261Y-104743200D01*
X176581139Y-104743200D01*
X176781098Y-104703426D01*
X176969456Y-104625405D01*
X177017654Y-104593200D01*
X180438621Y-104593200D01*
X177636622Y-107395200D01*
X177017654Y-107395200D01*
X176969456Y-107362995D01*
X176781098Y-107284974D01*
X176581139Y-107245200D01*
X176377261Y-107245200D01*
X176177302Y-107284974D01*
X175988944Y-107362995D01*
X175819426Y-107476263D01*
X175675263Y-107620426D01*
X175561995Y-107789944D01*
X175483974Y-107978302D01*
X175444200Y-108178261D01*
X175444200Y-108382139D01*
X175483974Y-108582098D01*
X175561995Y-108770456D01*
X175675263Y-108939974D01*
X175819426Y-109084137D01*
X175988944Y-109197405D01*
X176177302Y-109275426D01*
X176377261Y-109315200D01*
X176581139Y-109315200D01*
X176781098Y-109275426D01*
X176969456Y-109197405D01*
X177017654Y-109165200D01*
X177959731Y-109165200D01*
X178003200Y-109169481D01*
X178046669Y-109165200D01*
X178046677Y-109165200D01*
X178176690Y-109152395D01*
X178343513Y-109101789D01*
X178497259Y-109019611D01*
X178632017Y-108909017D01*
X178659734Y-108875244D01*
X182198200Y-105336779D01*
X182198201Y-122127200D01*
X178033654Y-122127200D01*
X177985456Y-122094995D01*
X177797098Y-122016974D01*
X177597139Y-121977200D01*
X177393261Y-121977200D01*
X177193302Y-122016974D01*
X177004944Y-122094995D01*
X176835426Y-122208263D01*
X176691263Y-122352426D01*
X176577995Y-122521944D01*
X176499974Y-122710302D01*
X176460200Y-122910261D01*
X176460200Y-123114139D01*
X176499974Y-123314098D01*
X176577995Y-123502456D01*
X176691263Y-123671974D01*
X176835426Y-123816137D01*
X177004944Y-123929405D01*
X177193302Y-124007426D01*
X177393261Y-124047200D01*
X177597139Y-124047200D01*
X177797098Y-124007426D01*
X177985456Y-123929405D01*
X178033654Y-123897200D01*
X182531731Y-123897200D01*
X182575200Y-123901481D01*
X182618669Y-123897200D01*
X182618677Y-123897200D01*
X182748690Y-123884395D01*
X182915513Y-123833789D01*
X183069259Y-123751611D01*
X183204017Y-123641017D01*
X183231734Y-123607244D01*
X183678244Y-123160734D01*
X183712017Y-123133017D01*
X183822611Y-122998259D01*
X183904789Y-122844513D01*
X183955395Y-122677690D01*
X183968200Y-122547677D01*
X183968200Y-122547667D01*
X183972481Y-122504201D01*
X183968200Y-122460735D01*
X183968200Y-105598778D01*
X184852244Y-104714735D01*
X184909098Y-104703426D01*
X185097456Y-104625405D01*
X185266974Y-104512137D01*
X185411137Y-104367974D01*
X185524405Y-104198456D01*
X185602426Y-104010098D01*
X185642200Y-103810139D01*
X185642200Y-103606261D01*
X185602426Y-103406302D01*
X185524405Y-103217944D01*
X185411137Y-103048426D01*
X185266974Y-102904263D01*
X185097456Y-102790995D01*
X184909098Y-102712974D01*
X184709139Y-102673200D01*
X184505261Y-102673200D01*
X184305302Y-102712974D01*
X184116944Y-102790995D01*
X184051963Y-102834414D01*
X184000405Y-102709944D01*
X183887137Y-102540426D01*
X183742974Y-102396263D01*
X183573456Y-102282995D01*
X183385098Y-102204974D01*
X183185139Y-102165200D01*
X182981261Y-102165200D01*
X182781302Y-102204974D01*
X182592944Y-102282995D01*
X182423426Y-102396263D01*
X182279263Y-102540426D01*
X182265766Y-102560626D01*
X182222405Y-102455944D01*
X182109137Y-102286426D01*
X181964974Y-102142263D01*
X181795456Y-102028995D01*
X181607098Y-101950974D01*
X181407139Y-101911200D01*
X181203261Y-101911200D01*
X181042533Y-101943170D01*
X181030426Y-101882302D01*
X180952405Y-101693944D01*
X180839137Y-101524426D01*
X180694974Y-101380263D01*
X180525456Y-101266995D01*
X180337098Y-101188974D01*
X180137139Y-101149200D01*
X179933261Y-101149200D01*
X179733302Y-101188974D01*
X179544944Y-101266995D01*
X179375426Y-101380263D01*
X179231263Y-101524426D01*
X179117995Y-101693944D01*
X179039974Y-101882302D01*
X179028665Y-101939157D01*
X179019200Y-101948621D01*
X178659736Y-101589158D01*
X178659732Y-101589153D01*
X177485735Y-100415157D01*
X177474426Y-100358302D01*
X177396405Y-100169944D01*
X177283137Y-100000426D01*
X177138974Y-99856263D01*
X176969456Y-99742995D01*
X176781098Y-99664974D01*
X176581139Y-99625200D01*
X176377261Y-99625200D01*
X176177302Y-99664974D01*
X175988944Y-99742995D01*
X175819426Y-99856263D01*
X175675263Y-100000426D01*
X175561995Y-100169944D01*
X175483974Y-100358302D01*
X175444200Y-100558261D01*
X166063025Y-100558261D01*
X166067812Y-100542482D01*
X166080072Y-100418000D01*
X166080072Y-98718000D01*
X166067812Y-98593518D01*
X166031502Y-98473820D01*
X165972537Y-98363506D01*
X165893185Y-98266815D01*
X165796494Y-98187463D01*
X165686180Y-98128498D01*
X165566482Y-98092188D01*
X165442000Y-98079928D01*
X163742000Y-98079928D01*
X163617518Y-98092188D01*
X163497820Y-98128498D01*
X163387506Y-98187463D01*
X163290815Y-98266815D01*
X163211463Y-98363506D01*
X163152498Y-98473820D01*
X163116188Y-98593518D01*
X163103928Y-98718000D01*
X134076072Y-98718000D01*
X134063812Y-98593518D01*
X134027502Y-98473820D01*
X133968537Y-98363506D01*
X133889185Y-98266815D01*
X133792494Y-98187463D01*
X133682180Y-98128498D01*
X133562482Y-98092188D01*
X133438000Y-98079928D01*
X131738000Y-98079928D01*
X131613518Y-98092188D01*
X131493820Y-98128498D01*
X131383506Y-98187463D01*
X131286815Y-98266815D01*
X131207463Y-98363506D01*
X131148498Y-98473820D01*
X131112188Y-98593518D01*
X131099928Y-98718000D01*
X110640688Y-98718000D01*
X110625789Y-98668886D01*
X110543611Y-98515141D01*
X110460732Y-98414153D01*
X110460730Y-98414151D01*
X110433017Y-98380383D01*
X110399249Y-98352670D01*
X110175735Y-98129156D01*
X110164426Y-98072302D01*
X110086405Y-97883944D01*
X109973137Y-97714426D01*
X109828974Y-97570263D01*
X109659456Y-97456995D01*
X109471098Y-97378974D01*
X109271139Y-97339200D01*
X109067261Y-97339200D01*
X108867302Y-97378974D01*
X108678944Y-97456995D01*
X108509426Y-97570263D01*
X108365263Y-97714426D01*
X108251995Y-97883944D01*
X108173974Y-98072302D01*
X108134200Y-98272261D01*
X108134200Y-98476139D01*
X108173974Y-98676098D01*
X108251995Y-98864456D01*
X108365263Y-99033974D01*
X108509426Y-99178137D01*
X108678944Y-99291405D01*
X108867302Y-99369426D01*
X108919201Y-99379749D01*
X108919200Y-102140731D01*
X108914919Y-102184200D01*
X108919200Y-102227669D01*
X108919200Y-102227676D01*
X108932005Y-102357689D01*
X108957300Y-102441073D01*
X108867302Y-102458974D01*
X108678944Y-102536995D01*
X108509426Y-102650263D01*
X108365263Y-102794426D01*
X108251995Y-102963944D01*
X108173974Y-103152302D01*
X108134200Y-103352261D01*
X108134200Y-103556139D01*
X108173974Y-103756098D01*
X108251995Y-103944456D01*
X108365263Y-104113974D01*
X108509426Y-104258137D01*
X108678944Y-104371405D01*
X108867302Y-104449426D01*
X108924157Y-104460735D01*
X109731870Y-105268449D01*
X109759583Y-105302217D01*
X109793351Y-105329930D01*
X109793353Y-105329932D01*
X109859553Y-105384261D01*
X109894341Y-105412811D01*
X110048087Y-105494989D01*
X110214910Y-105545595D01*
X110344923Y-105558400D01*
X110344931Y-105558400D01*
X110388400Y-105562681D01*
X110431869Y-105558400D01*
X112798422Y-105558400D01*
X112612622Y-105744200D01*
X109847665Y-105744200D01*
X109804199Y-105739919D01*
X109760733Y-105744200D01*
X109760723Y-105744200D01*
X109630710Y-105757005D01*
X109463887Y-105807611D01*
X109310141Y-105889789D01*
X109310139Y-105889790D01*
X109310140Y-105889790D01*
X109209153Y-105972668D01*
X109209151Y-105972670D01*
X109175383Y-106000383D01*
X109147670Y-106034151D01*
X108289157Y-106892665D01*
X108232302Y-106903974D01*
X108043944Y-106981995D01*
X107874426Y-107095263D01*
X107730263Y-107239426D01*
X107616995Y-107408944D01*
X107538974Y-107597302D01*
X107499200Y-107797261D01*
X75792472Y-107797261D01*
X75792472Y-106963200D01*
X75780212Y-106838718D01*
X75743902Y-106719020D01*
X75684937Y-106608706D01*
X75605585Y-106512015D01*
X75508894Y-106432663D01*
X75398580Y-106373698D01*
X75278882Y-106337388D01*
X75154400Y-106325128D01*
X73454400Y-106325128D01*
X73329918Y-106337388D01*
X73210220Y-106373698D01*
X73099906Y-106432663D01*
X73003215Y-106512015D01*
X72923863Y-106608706D01*
X72864898Y-106719020D01*
X72828588Y-106838718D01*
X72816328Y-106963200D01*
X53367000Y-106963200D01*
X53367000Y-106845403D01*
X53339725Y-106568476D01*
X53231939Y-106213152D01*
X53056903Y-105885683D01*
X52821345Y-105598655D01*
X52534317Y-105363097D01*
X52206847Y-105188061D01*
X51851523Y-105080275D01*
X51482000Y-105043880D01*
X51112476Y-105080275D01*
X50757152Y-105188061D01*
X50429683Y-105363097D01*
X50142655Y-105598655D01*
X49907097Y-105885683D01*
X49732061Y-106213153D01*
X49624275Y-106568477D01*
X49597000Y-106845404D01*
X41350000Y-106845404D01*
X41350000Y-98972000D01*
X96047928Y-98972000D01*
X96047928Y-100672000D01*
X96060188Y-100796482D01*
X96096498Y-100916180D01*
X96155463Y-101026494D01*
X96234815Y-101123185D01*
X96331506Y-101202537D01*
X96441820Y-101261502D01*
X96514380Y-101283513D01*
X96382525Y-101415368D01*
X96220010Y-101658589D01*
X96108068Y-101928842D01*
X96051000Y-102215740D01*
X96051000Y-102508260D01*
X96108068Y-102795158D01*
X96220010Y-103065411D01*
X96382525Y-103308632D01*
X96589368Y-103515475D01*
X96763760Y-103632000D01*
X96589368Y-103748525D01*
X96382525Y-103955368D01*
X96220010Y-104198589D01*
X96108068Y-104468842D01*
X96051000Y-104755740D01*
X96051000Y-105048260D01*
X96108068Y-105335158D01*
X96220010Y-105605411D01*
X96382525Y-105848632D01*
X96589368Y-106055475D01*
X96832589Y-106217990D01*
X97102842Y-106329932D01*
X97389740Y-106387000D01*
X97682260Y-106387000D01*
X97969158Y-106329932D01*
X98239411Y-106217990D01*
X98482632Y-106055475D01*
X98689475Y-105848632D01*
X98851990Y-105605411D01*
X98963932Y-105335158D01*
X99021000Y-105048260D01*
X99021000Y-104755740D01*
X98963932Y-104468842D01*
X98851990Y-104198589D01*
X98689475Y-103955368D01*
X98482632Y-103748525D01*
X98308240Y-103632000D01*
X98482632Y-103515475D01*
X98689475Y-103308632D01*
X98851990Y-103065411D01*
X98963932Y-102795158D01*
X99021000Y-102508260D01*
X99021000Y-102215740D01*
X98963932Y-101928842D01*
X98851990Y-101658589D01*
X98689475Y-101415368D01*
X98557620Y-101283513D01*
X98630180Y-101261502D01*
X98740494Y-101202537D01*
X98837185Y-101123185D01*
X98916537Y-101026494D01*
X98975502Y-100916180D01*
X99011812Y-100796482D01*
X99024072Y-100672000D01*
X99024072Y-98972000D01*
X99011812Y-98847518D01*
X98975502Y-98727820D01*
X98916537Y-98617506D01*
X98837185Y-98520815D01*
X98740494Y-98441463D01*
X98630180Y-98382498D01*
X98510482Y-98346188D01*
X98386000Y-98333928D01*
X96686000Y-98333928D01*
X96561518Y-98346188D01*
X96441820Y-98382498D01*
X96331506Y-98441463D01*
X96234815Y-98520815D01*
X96155463Y-98617506D01*
X96096498Y-98727820D01*
X96060188Y-98847518D01*
X96047928Y-98972000D01*
X41350000Y-98972000D01*
X41350000Y-94345404D01*
X49597000Y-94345404D01*
X49597000Y-95030597D01*
X49624275Y-95307524D01*
X49732061Y-95662848D01*
X49907097Y-95990317D01*
X50142655Y-96277345D01*
X50429684Y-96512903D01*
X50757153Y-96687939D01*
X51112477Y-96795725D01*
X51482000Y-96832120D01*
X51851524Y-96795725D01*
X52206848Y-96687939D01*
X52534317Y-96512903D01*
X52821345Y-96277345D01*
X53056903Y-95990317D01*
X53231939Y-95662848D01*
X53339725Y-95307523D01*
X53367000Y-95030596D01*
X53367000Y-94345403D01*
X53339725Y-94068476D01*
X53231939Y-93713152D01*
X53056903Y-93385683D01*
X52821345Y-93098655D01*
X52534317Y-92863097D01*
X52206847Y-92688061D01*
X51851523Y-92580275D01*
X51482000Y-92543880D01*
X51112476Y-92580275D01*
X50757152Y-92688061D01*
X50429683Y-92863097D01*
X50142655Y-93098655D01*
X49907097Y-93385683D01*
X49732061Y-93713153D01*
X49624275Y-94068477D01*
X49597000Y-94345404D01*
X41350000Y-94345404D01*
X41350000Y-88298000D01*
X73240128Y-88298000D01*
X73240128Y-90798000D01*
X73252388Y-90922482D01*
X73288698Y-91042180D01*
X73347663Y-91152494D01*
X73427015Y-91249185D01*
X73523706Y-91328537D01*
X73634020Y-91387502D01*
X73753718Y-91423812D01*
X73878200Y-91436072D01*
X76878200Y-91436072D01*
X77002682Y-91423812D01*
X77122380Y-91387502D01*
X77232694Y-91328537D01*
X77329385Y-91249185D01*
X77408737Y-91152494D01*
X77467702Y-91042180D01*
X77504012Y-90922482D01*
X77516272Y-90798000D01*
X77516272Y-88298000D01*
X77504012Y-88173518D01*
X77467702Y-88053820D01*
X77408737Y-87943506D01*
X77329385Y-87846815D01*
X77232694Y-87767463D01*
X77122380Y-87708498D01*
X77002682Y-87672188D01*
X76878200Y-87659928D01*
X73878200Y-87659928D01*
X73753718Y-87672188D01*
X73634020Y-87708498D01*
X73523706Y-87767463D01*
X73427015Y-87846815D01*
X73347663Y-87943506D01*
X73288698Y-88053820D01*
X73252388Y-88173518D01*
X73240128Y-88298000D01*
X41350000Y-88298000D01*
X41350000Y-81868000D01*
X52420128Y-81868000D01*
X52420128Y-83568000D01*
X52432388Y-83692482D01*
X52468698Y-83812180D01*
X52527663Y-83922494D01*
X52607015Y-84019185D01*
X52703706Y-84098537D01*
X52814020Y-84157502D01*
X52886580Y-84179513D01*
X52754725Y-84311368D01*
X52592210Y-84554589D01*
X52480268Y-84824842D01*
X52423200Y-85111740D01*
X52423200Y-85404260D01*
X52480268Y-85691158D01*
X52592210Y-85961411D01*
X52754725Y-86204632D01*
X52961568Y-86411475D01*
X53204789Y-86573990D01*
X53475042Y-86685932D01*
X53761940Y-86743000D01*
X54054460Y-86743000D01*
X54341358Y-86685932D01*
X54611611Y-86573990D01*
X54854832Y-86411475D01*
X54979340Y-86286967D01*
X66243200Y-86286967D01*
X66243200Y-86609033D01*
X66306032Y-86924912D01*
X66429282Y-87222463D01*
X66608213Y-87490252D01*
X66835948Y-87717987D01*
X67103737Y-87896918D01*
X67401288Y-88020168D01*
X67717167Y-88083000D01*
X68039233Y-88083000D01*
X68355112Y-88020168D01*
X68652663Y-87896918D01*
X68920452Y-87717987D01*
X69148187Y-87490252D01*
X69327118Y-87222463D01*
X69450368Y-86924912D01*
X69513200Y-86609033D01*
X69513200Y-86286967D01*
X80743200Y-86286967D01*
X80743200Y-86609033D01*
X80806032Y-86924912D01*
X80929282Y-87222463D01*
X81108213Y-87490252D01*
X81335948Y-87717987D01*
X81603737Y-87896918D01*
X81901288Y-88020168D01*
X82217167Y-88083000D01*
X82539233Y-88083000D01*
X82855112Y-88020168D01*
X83152663Y-87896918D01*
X83420452Y-87717987D01*
X83648187Y-87490252D01*
X83827118Y-87222463D01*
X83950368Y-86924912D01*
X84013200Y-86609033D01*
X84013200Y-86286967D01*
X83950368Y-85971088D01*
X83827118Y-85673537D01*
X83648187Y-85405748D01*
X83420452Y-85178013D01*
X83152663Y-84999082D01*
X82855112Y-84875832D01*
X82539233Y-84813000D01*
X82217167Y-84813000D01*
X81901288Y-84875832D01*
X81603737Y-84999082D01*
X81335948Y-85178013D01*
X81108213Y-85405748D01*
X80929282Y-85673537D01*
X80806032Y-85971088D01*
X80743200Y-86286967D01*
X69513200Y-86286967D01*
X69450368Y-85971088D01*
X69327118Y-85673537D01*
X69148187Y-85405748D01*
X68920452Y-85178013D01*
X68652663Y-84999082D01*
X68355112Y-84875832D01*
X68039233Y-84813000D01*
X67717167Y-84813000D01*
X67401288Y-84875832D01*
X67103737Y-84999082D01*
X66835948Y-85178013D01*
X66608213Y-85405748D01*
X66429282Y-85673537D01*
X66306032Y-85971088D01*
X66243200Y-86286967D01*
X54979340Y-86286967D01*
X55061675Y-86204632D01*
X55224190Y-85961411D01*
X55336132Y-85691158D01*
X55393200Y-85404260D01*
X55393200Y-85111740D01*
X55336132Y-84824842D01*
X55224190Y-84554589D01*
X55061675Y-84311368D01*
X54929820Y-84179513D01*
X55002380Y-84157502D01*
X55112694Y-84098537D01*
X55209385Y-84019185D01*
X55288737Y-83922494D01*
X55347702Y-83812180D01*
X55384012Y-83692482D01*
X55396272Y-83568000D01*
X55396272Y-81868000D01*
X55384012Y-81743518D01*
X55347702Y-81623820D01*
X55288737Y-81513506D01*
X55209385Y-81416815D01*
X55112694Y-81337463D01*
X55018225Y-81286967D01*
X66243200Y-81286967D01*
X66243200Y-81609033D01*
X66306032Y-81924912D01*
X66429282Y-82222463D01*
X66608213Y-82490252D01*
X66835948Y-82717987D01*
X67103737Y-82896918D01*
X67401288Y-83020168D01*
X67717167Y-83083000D01*
X68039233Y-83083000D01*
X68355112Y-83020168D01*
X68652663Y-82896918D01*
X68920452Y-82717987D01*
X69148187Y-82490252D01*
X69327118Y-82222463D01*
X69450368Y-81924912D01*
X69513200Y-81609033D01*
X69513200Y-81286967D01*
X80743200Y-81286967D01*
X80743200Y-81609033D01*
X80806032Y-81924912D01*
X80929282Y-82222463D01*
X81108213Y-82490252D01*
X81335948Y-82717987D01*
X81603737Y-82896918D01*
X81901288Y-83020168D01*
X82217167Y-83083000D01*
X82539233Y-83083000D01*
X82855112Y-83020168D01*
X83152663Y-82896918D01*
X83420452Y-82717987D01*
X83648187Y-82490252D01*
X83827118Y-82222463D01*
X83950368Y-81924912D01*
X84013200Y-81609033D01*
X84013200Y-81286967D01*
X83950368Y-80971088D01*
X83827118Y-80673537D01*
X83648187Y-80405748D01*
X83420452Y-80178013D01*
X83152663Y-79999082D01*
X82855112Y-79875832D01*
X82539233Y-79813000D01*
X82217167Y-79813000D01*
X81901288Y-79875832D01*
X81603737Y-79999082D01*
X81335948Y-80178013D01*
X81108213Y-80405748D01*
X80929282Y-80673537D01*
X80806032Y-80971088D01*
X80743200Y-81286967D01*
X69513200Y-81286967D01*
X69450368Y-80971088D01*
X69327118Y-80673537D01*
X69148187Y-80405748D01*
X68920452Y-80178013D01*
X68652663Y-79999082D01*
X68355112Y-79875832D01*
X68039233Y-79813000D01*
X67717167Y-79813000D01*
X67401288Y-79875832D01*
X67103737Y-79999082D01*
X66835948Y-80178013D01*
X66608213Y-80405748D01*
X66429282Y-80673537D01*
X66306032Y-80971088D01*
X66243200Y-81286967D01*
X55018225Y-81286967D01*
X55002380Y-81278498D01*
X54882682Y-81242188D01*
X54758200Y-81229928D01*
X53058200Y-81229928D01*
X52933718Y-81242188D01*
X52814020Y-81278498D01*
X52703706Y-81337463D01*
X52607015Y-81416815D01*
X52527663Y-81513506D01*
X52468698Y-81623820D01*
X52432388Y-81743518D01*
X52420128Y-81868000D01*
X41350000Y-81868000D01*
X41350000Y-77098000D01*
X73240128Y-77098000D01*
X73240128Y-79598000D01*
X73252388Y-79722482D01*
X73288698Y-79842180D01*
X73347663Y-79952494D01*
X73427015Y-80049185D01*
X73523706Y-80128537D01*
X73634020Y-80187502D01*
X73753718Y-80223812D01*
X73878200Y-80236072D01*
X76878200Y-80236072D01*
X77002682Y-80223812D01*
X77122380Y-80187502D01*
X77232694Y-80128537D01*
X77329385Y-80049185D01*
X77408737Y-79952494D01*
X77467702Y-79842180D01*
X77504012Y-79722482D01*
X77516272Y-79598000D01*
X77516272Y-77098000D01*
X77504012Y-76973518D01*
X77467702Y-76853820D01*
X77408737Y-76743506D01*
X77329385Y-76646815D01*
X77232694Y-76567463D01*
X77122380Y-76508498D01*
X77002682Y-76472188D01*
X76878200Y-76459928D01*
X73878200Y-76459928D01*
X73753718Y-76472188D01*
X73634020Y-76508498D01*
X73523706Y-76567463D01*
X73427015Y-76646815D01*
X73347663Y-76743506D01*
X73288698Y-76853820D01*
X73252388Y-76973518D01*
X73240128Y-77098000D01*
X41350000Y-77098000D01*
X41350000Y-66509819D01*
X82785400Y-66509819D01*
X82785400Y-66890981D01*
X82859761Y-67264819D01*
X83005625Y-67616966D01*
X83217387Y-67933891D01*
X83486909Y-68203413D01*
X83803834Y-68415175D01*
X84155981Y-68561039D01*
X84529819Y-68635400D01*
X84910981Y-68635400D01*
X85284819Y-68561039D01*
X85636966Y-68415175D01*
X85953891Y-68203413D01*
X86223413Y-67933891D01*
X86435175Y-67616966D01*
X86581039Y-67264819D01*
X86655400Y-66890981D01*
X86655400Y-66509819D01*
X87785400Y-66509819D01*
X87785400Y-66890981D01*
X87859761Y-67264819D01*
X88005625Y-67616966D01*
X88217387Y-67933891D01*
X88486909Y-68203413D01*
X88803834Y-68415175D01*
X89155981Y-68561039D01*
X89529819Y-68635400D01*
X89910981Y-68635400D01*
X90284819Y-68561039D01*
X90636966Y-68415175D01*
X90953891Y-68203413D01*
X91223413Y-67933891D01*
X91435175Y-67616966D01*
X91581039Y-67264819D01*
X91655400Y-66890981D01*
X91655400Y-66509819D01*
X92785400Y-66509819D01*
X92785400Y-66890981D01*
X92859761Y-67264819D01*
X93005625Y-67616966D01*
X93217387Y-67933891D01*
X93486909Y-68203413D01*
X93803834Y-68415175D01*
X94155981Y-68561039D01*
X94529819Y-68635400D01*
X94910981Y-68635400D01*
X95284819Y-68561039D01*
X95636966Y-68415175D01*
X95953891Y-68203413D01*
X96223413Y-67933891D01*
X96435175Y-67616966D01*
X96581039Y-67264819D01*
X96655400Y-66890981D01*
X96655400Y-66509819D01*
X97785400Y-66509819D01*
X97785400Y-66890981D01*
X97859761Y-67264819D01*
X98005625Y-67616966D01*
X98217387Y-67933891D01*
X98486909Y-68203413D01*
X98803834Y-68415175D01*
X99155981Y-68561039D01*
X99529819Y-68635400D01*
X99910981Y-68635400D01*
X100284819Y-68561039D01*
X100636966Y-68415175D01*
X100953891Y-68203413D01*
X101223413Y-67933891D01*
X101435175Y-67616966D01*
X101581039Y-67264819D01*
X101655400Y-66890981D01*
X101655400Y-66509819D01*
X101581039Y-66135981D01*
X101435175Y-65783834D01*
X101223413Y-65466909D01*
X101200504Y-65444000D01*
X115097928Y-65444000D01*
X115097928Y-67144000D01*
X115110188Y-67268482D01*
X115146498Y-67388180D01*
X115205463Y-67498494D01*
X115284815Y-67595185D01*
X115381506Y-67674537D01*
X115491820Y-67733502D01*
X115564380Y-67755513D01*
X115432525Y-67887368D01*
X115270010Y-68130589D01*
X115158068Y-68400842D01*
X115101000Y-68687740D01*
X115101000Y-68980260D01*
X115158068Y-69267158D01*
X115270010Y-69537411D01*
X115432525Y-69780632D01*
X115639368Y-69987475D01*
X115813760Y-70104000D01*
X115639368Y-70220525D01*
X115432525Y-70427368D01*
X115270010Y-70670589D01*
X115158068Y-70940842D01*
X115101000Y-71227740D01*
X115101000Y-71520260D01*
X115158068Y-71807158D01*
X115270010Y-72077411D01*
X115432525Y-72320632D01*
X115639368Y-72527475D01*
X115882589Y-72689990D01*
X116152842Y-72801932D01*
X116439740Y-72859000D01*
X116732260Y-72859000D01*
X117019158Y-72801932D01*
X117289411Y-72689990D01*
X117532632Y-72527475D01*
X117739475Y-72320632D01*
X117901990Y-72077411D01*
X118013932Y-71807158D01*
X118071000Y-71520260D01*
X118071000Y-71227740D01*
X118013932Y-70940842D01*
X117901990Y-70670589D01*
X117739475Y-70427368D01*
X117532632Y-70220525D01*
X117358240Y-70104000D01*
X117532632Y-69987475D01*
X117739475Y-69780632D01*
X117901990Y-69537411D01*
X118013932Y-69267158D01*
X118071000Y-68980260D01*
X118071000Y-68687740D01*
X118013932Y-68400842D01*
X117901990Y-68130589D01*
X117739475Y-67887368D01*
X117607620Y-67755513D01*
X117680180Y-67733502D01*
X117790494Y-67674537D01*
X117887185Y-67595185D01*
X117966537Y-67498494D01*
X118025502Y-67388180D01*
X118029979Y-67373419D01*
X141481000Y-67373419D01*
X141481000Y-67754581D01*
X141555361Y-68128419D01*
X141701225Y-68480566D01*
X141912987Y-68797491D01*
X142182509Y-69067013D01*
X142499434Y-69278775D01*
X142851581Y-69424639D01*
X143225419Y-69499000D01*
X143606581Y-69499000D01*
X143980419Y-69424639D01*
X144332566Y-69278775D01*
X144649491Y-69067013D01*
X144919013Y-68797491D01*
X145130775Y-68480566D01*
X145276639Y-68128419D01*
X145351000Y-67754581D01*
X145351000Y-67373419D01*
X146481000Y-67373419D01*
X146481000Y-67754581D01*
X146555361Y-68128419D01*
X146701225Y-68480566D01*
X146912987Y-68797491D01*
X147182509Y-69067013D01*
X147499434Y-69278775D01*
X147851581Y-69424639D01*
X148225419Y-69499000D01*
X148606581Y-69499000D01*
X148980419Y-69424639D01*
X149332566Y-69278775D01*
X149649491Y-69067013D01*
X149919013Y-68797491D01*
X150130775Y-68480566D01*
X150276639Y-68128419D01*
X150351000Y-67754581D01*
X150351000Y-67373419D01*
X150276639Y-66999581D01*
X150130775Y-66647434D01*
X149919013Y-66330509D01*
X149852504Y-66264000D01*
X151477928Y-66264000D01*
X151477928Y-68864000D01*
X151490188Y-68988482D01*
X151526498Y-69108180D01*
X151585463Y-69218494D01*
X151664815Y-69315185D01*
X151761506Y-69394537D01*
X151871820Y-69453502D01*
X151991518Y-69489812D01*
X152116000Y-69502072D01*
X154716000Y-69502072D01*
X154840482Y-69489812D01*
X154960180Y-69453502D01*
X155070494Y-69394537D01*
X155167185Y-69315185D01*
X155246537Y-69218494D01*
X155305502Y-69108180D01*
X155341812Y-68988482D01*
X155354072Y-68864000D01*
X155354072Y-66264000D01*
X155341812Y-66139518D01*
X155305502Y-66019820D01*
X155246537Y-65909506D01*
X155167185Y-65812815D01*
X155070494Y-65733463D01*
X154960180Y-65674498D01*
X154840482Y-65638188D01*
X154716000Y-65625928D01*
X152116000Y-65625928D01*
X151991518Y-65638188D01*
X151871820Y-65674498D01*
X151761506Y-65733463D01*
X151664815Y-65812815D01*
X151585463Y-65909506D01*
X151526498Y-66019820D01*
X151490188Y-66139518D01*
X151477928Y-66264000D01*
X149852504Y-66264000D01*
X149649491Y-66060987D01*
X149332566Y-65849225D01*
X148980419Y-65703361D01*
X148606581Y-65629000D01*
X148225419Y-65629000D01*
X147851581Y-65703361D01*
X147499434Y-65849225D01*
X147182509Y-66060987D01*
X146912987Y-66330509D01*
X146701225Y-66647434D01*
X146555361Y-66999581D01*
X146481000Y-67373419D01*
X145351000Y-67373419D01*
X145276639Y-66999581D01*
X145130775Y-66647434D01*
X144919013Y-66330509D01*
X144649491Y-66060987D01*
X144332566Y-65849225D01*
X143980419Y-65703361D01*
X143606581Y-65629000D01*
X143225419Y-65629000D01*
X142851581Y-65703361D01*
X142499434Y-65849225D01*
X142182509Y-66060987D01*
X141912987Y-66330509D01*
X141701225Y-66647434D01*
X141555361Y-66999581D01*
X141481000Y-67373419D01*
X118029979Y-67373419D01*
X118061812Y-67268482D01*
X118074072Y-67144000D01*
X118074072Y-65444000D01*
X118061812Y-65319518D01*
X118025502Y-65199820D01*
X117966537Y-65089506D01*
X117887185Y-64992815D01*
X117790494Y-64913463D01*
X117680180Y-64854498D01*
X117560482Y-64818188D01*
X117436000Y-64805928D01*
X115736000Y-64805928D01*
X115611518Y-64818188D01*
X115491820Y-64854498D01*
X115381506Y-64913463D01*
X115284815Y-64992815D01*
X115205463Y-65089506D01*
X115146498Y-65199820D01*
X115110188Y-65319518D01*
X115097928Y-65444000D01*
X101200504Y-65444000D01*
X100953891Y-65197387D01*
X100636966Y-64985625D01*
X100284819Y-64839761D01*
X99910981Y-64765400D01*
X99529819Y-64765400D01*
X99155981Y-64839761D01*
X98803834Y-64985625D01*
X98486909Y-65197387D01*
X98217387Y-65466909D01*
X98005625Y-65783834D01*
X97859761Y-66135981D01*
X97785400Y-66509819D01*
X96655400Y-66509819D01*
X96581039Y-66135981D01*
X96435175Y-65783834D01*
X96223413Y-65466909D01*
X95953891Y-65197387D01*
X95636966Y-64985625D01*
X95284819Y-64839761D01*
X94910981Y-64765400D01*
X94529819Y-64765400D01*
X94155981Y-64839761D01*
X93803834Y-64985625D01*
X93486909Y-65197387D01*
X93217387Y-65466909D01*
X93005625Y-65783834D01*
X92859761Y-66135981D01*
X92785400Y-66509819D01*
X91655400Y-66509819D01*
X91581039Y-66135981D01*
X91435175Y-65783834D01*
X91223413Y-65466909D01*
X90953891Y-65197387D01*
X90636966Y-64985625D01*
X90284819Y-64839761D01*
X89910981Y-64765400D01*
X89529819Y-64765400D01*
X89155981Y-64839761D01*
X88803834Y-64985625D01*
X88486909Y-65197387D01*
X88217387Y-65466909D01*
X88005625Y-65783834D01*
X87859761Y-66135981D01*
X87785400Y-66509819D01*
X86655400Y-66509819D01*
X86581039Y-66135981D01*
X86435175Y-65783834D01*
X86223413Y-65466909D01*
X85953891Y-65197387D01*
X85636966Y-64985625D01*
X85284819Y-64839761D01*
X84910981Y-64765400D01*
X84529819Y-64765400D01*
X84155981Y-64839761D01*
X83803834Y-64985625D01*
X83486909Y-65197387D01*
X83217387Y-65466909D01*
X83005625Y-65783834D01*
X82859761Y-66135981D01*
X82785400Y-66509819D01*
X41350000Y-66509819D01*
X41350000Y-61670000D01*
X198680000Y-61670000D01*
X198680001Y-152960000D01*
%TA.AperFunction,Conductor*%
D25*
G36*
X198680001Y-152960000D02*
G01*
X41350000Y-152960000D01*
X41350000Y-150685419D01*
X60549000Y-150685419D01*
X60549000Y-151066581D01*
X60623361Y-151440419D01*
X60769225Y-151792566D01*
X60980987Y-152109491D01*
X61250509Y-152379013D01*
X61567434Y-152590775D01*
X61919581Y-152736639D01*
X62293419Y-152811000D01*
X62674581Y-152811000D01*
X63048419Y-152736639D01*
X63400566Y-152590775D01*
X63717491Y-152379013D01*
X63987013Y-152109491D01*
X64198775Y-151792566D01*
X64344639Y-151440419D01*
X64419000Y-151066581D01*
X64419000Y-150685419D01*
X70709000Y-150685419D01*
X70709000Y-151066581D01*
X70783361Y-151440419D01*
X70929225Y-151792566D01*
X71140987Y-152109491D01*
X71410509Y-152379013D01*
X71727434Y-152590775D01*
X72079581Y-152736639D01*
X72453419Y-152811000D01*
X72834581Y-152811000D01*
X73208419Y-152736639D01*
X73560566Y-152590775D01*
X73877491Y-152379013D01*
X74147013Y-152109491D01*
X74358775Y-151792566D01*
X74504639Y-151440419D01*
X74579000Y-151066581D01*
X74579000Y-150685419D01*
X74504639Y-150311581D01*
X74358775Y-149959434D01*
X74147013Y-149642509D01*
X73877491Y-149372987D01*
X73560566Y-149161225D01*
X73208419Y-149015361D01*
X72834581Y-148941000D01*
X72453419Y-148941000D01*
X72079581Y-149015361D01*
X71727434Y-149161225D01*
X71410509Y-149372987D01*
X71140987Y-149642509D01*
X70929225Y-149959434D01*
X70783361Y-150311581D01*
X70709000Y-150685419D01*
X64419000Y-150685419D01*
X64344639Y-150311581D01*
X64198775Y-149959434D01*
X63987013Y-149642509D01*
X63717491Y-149372987D01*
X63400566Y-149161225D01*
X63048419Y-149015361D01*
X62674581Y-148941000D01*
X62293419Y-148941000D01*
X61919581Y-149015361D01*
X61567434Y-149161225D01*
X61250509Y-149372987D01*
X60980987Y-149642509D01*
X60769225Y-149959434D01*
X60623361Y-150311581D01*
X60549000Y-150685419D01*
X41350000Y-150685419D01*
X41350000Y-145536475D01*
X66199000Y-145536475D01*
X66199000Y-146055525D01*
X66300261Y-146564601D01*
X66498893Y-147044141D01*
X66787262Y-147475715D01*
X67154285Y-147842738D01*
X67585859Y-148131107D01*
X68065399Y-148329739D01*
X68574475Y-148431000D01*
X69093525Y-148431000D01*
X69602601Y-148329739D01*
X70082141Y-148131107D01*
X70513715Y-147842738D01*
X70880738Y-147475715D01*
X71169107Y-147044141D01*
X71367739Y-146564601D01*
X71469000Y-146055525D01*
X71469000Y-145536475D01*
X71367739Y-145027399D01*
X71169107Y-144547859D01*
X70880738Y-144116285D01*
X70513715Y-143749262D01*
X70082141Y-143460893D01*
X69602601Y-143262261D01*
X69093525Y-143161000D01*
X68574475Y-143161000D01*
X68065399Y-143262261D01*
X67585859Y-143460893D01*
X67154285Y-143749262D01*
X66787262Y-144116285D01*
X66498893Y-144547859D01*
X66300261Y-145027399D01*
X66199000Y-145536475D01*
X41350000Y-145536475D01*
X41350000Y-140525419D01*
X60549000Y-140525419D01*
X60549000Y-140906581D01*
X60623361Y-141280419D01*
X60769225Y-141632566D01*
X60980987Y-141949491D01*
X61250509Y-142219013D01*
X61567434Y-142430775D01*
X61919581Y-142576639D01*
X62293419Y-142651000D01*
X62674581Y-142651000D01*
X63048419Y-142576639D01*
X63400566Y-142430775D01*
X63717491Y-142219013D01*
X63987013Y-141949491D01*
X64198775Y-141632566D01*
X64344639Y-141280419D01*
X64419000Y-140906581D01*
X64419000Y-140525419D01*
X70709000Y-140525419D01*
X70709000Y-140906581D01*
X70783361Y-141280419D01*
X70929225Y-141632566D01*
X71140987Y-141949491D01*
X71410509Y-142219013D01*
X71727434Y-142430775D01*
X72079581Y-142576639D01*
X72453419Y-142651000D01*
X72834581Y-142651000D01*
X73208419Y-142576639D01*
X73560566Y-142430775D01*
X73877491Y-142219013D01*
X74147013Y-141949491D01*
X74358775Y-141632566D01*
X74504639Y-141280419D01*
X74579000Y-140906581D01*
X74579000Y-140525419D01*
X74504639Y-140151581D01*
X74358775Y-139799434D01*
X74147013Y-139482509D01*
X73877491Y-139212987D01*
X73560566Y-139001225D01*
X73208419Y-138855361D01*
X72834581Y-138781000D01*
X72453419Y-138781000D01*
X72079581Y-138855361D01*
X71727434Y-139001225D01*
X71410509Y-139212987D01*
X71140987Y-139482509D01*
X70929225Y-139799434D01*
X70783361Y-140151581D01*
X70709000Y-140525419D01*
X64419000Y-140525419D01*
X64344639Y-140151581D01*
X64198775Y-139799434D01*
X63987013Y-139482509D01*
X63717491Y-139212987D01*
X63400566Y-139001225D01*
X63048419Y-138855361D01*
X62674581Y-138781000D01*
X62293419Y-138781000D01*
X61919581Y-138855361D01*
X61567434Y-139001225D01*
X61250509Y-139212987D01*
X60980987Y-139482509D01*
X60769225Y-139799434D01*
X60623361Y-140151581D01*
X60549000Y-140525419D01*
X41350000Y-140525419D01*
X41350000Y-132143419D01*
X60549000Y-132143419D01*
X60549000Y-132524581D01*
X60623361Y-132898419D01*
X60769225Y-133250566D01*
X60980987Y-133567491D01*
X61250509Y-133837013D01*
X61567434Y-134048775D01*
X61919581Y-134194639D01*
X62293419Y-134269000D01*
X62674581Y-134269000D01*
X63048419Y-134194639D01*
X63400566Y-134048775D01*
X63717491Y-133837013D01*
X63987013Y-133567491D01*
X64198775Y-133250566D01*
X64344639Y-132898419D01*
X64419000Y-132524581D01*
X64419000Y-132143419D01*
X70709000Y-132143419D01*
X70709000Y-132524581D01*
X70783361Y-132898419D01*
X70929225Y-133250566D01*
X71140987Y-133567491D01*
X71410509Y-133837013D01*
X71727434Y-134048775D01*
X72079581Y-134194639D01*
X72453419Y-134269000D01*
X72834581Y-134269000D01*
X73208419Y-134194639D01*
X73560566Y-134048775D01*
X73877491Y-133837013D01*
X74147013Y-133567491D01*
X74358775Y-133250566D01*
X74504639Y-132898419D01*
X74579000Y-132524581D01*
X74579000Y-132143419D01*
X74504639Y-131769581D01*
X74358775Y-131417434D01*
X74147013Y-131100509D01*
X73877491Y-130830987D01*
X73560566Y-130619225D01*
X73208419Y-130473361D01*
X72834581Y-130399000D01*
X72453419Y-130399000D01*
X72079581Y-130473361D01*
X71727434Y-130619225D01*
X71410509Y-130830987D01*
X71140987Y-131100509D01*
X70929225Y-131417434D01*
X70783361Y-131769581D01*
X70709000Y-132143419D01*
X64419000Y-132143419D01*
X64344639Y-131769581D01*
X64198775Y-131417434D01*
X63987013Y-131100509D01*
X63717491Y-130830987D01*
X63400566Y-130619225D01*
X63048419Y-130473361D01*
X62674581Y-130399000D01*
X62293419Y-130399000D01*
X61919581Y-130473361D01*
X61567434Y-130619225D01*
X61250509Y-130830987D01*
X60980987Y-131100509D01*
X60769225Y-131417434D01*
X60623361Y-131769581D01*
X60549000Y-132143419D01*
X41350000Y-132143419D01*
X41350000Y-126203967D01*
X84344000Y-126203967D01*
X84344000Y-126526033D01*
X84406832Y-126841912D01*
X84530082Y-127139463D01*
X84709013Y-127407252D01*
X84936748Y-127634987D01*
X85204537Y-127813918D01*
X85502088Y-127937168D01*
X85817967Y-128000000D01*
X86140033Y-128000000D01*
X86455912Y-127937168D01*
X86753463Y-127813918D01*
X87021252Y-127634987D01*
X87248987Y-127407252D01*
X87427918Y-127139463D01*
X87551168Y-126841912D01*
X87614000Y-126526033D01*
X87614000Y-126203967D01*
X87551168Y-125888088D01*
X87438051Y-125615000D01*
X89670928Y-125615000D01*
X89670928Y-127115000D01*
X89683188Y-127239482D01*
X89719498Y-127359180D01*
X89778463Y-127469494D01*
X89857815Y-127566185D01*
X89954506Y-127645537D01*
X90064820Y-127704502D01*
X90184518Y-127740812D01*
X90309000Y-127753072D01*
X91809000Y-127753072D01*
X91933482Y-127740812D01*
X92053180Y-127704502D01*
X92163494Y-127645537D01*
X92260185Y-127566185D01*
X92339537Y-127469494D01*
X92398502Y-127359180D01*
X92434812Y-127239482D01*
X92447072Y-127115000D01*
X92447072Y-125615000D01*
X92434812Y-125490518D01*
X92398502Y-125370820D01*
X92339537Y-125260506D01*
X92260185Y-125163815D01*
X92163494Y-125084463D01*
X92053180Y-125025498D01*
X91933482Y-124989188D01*
X91809000Y-124976928D01*
X90309000Y-124976928D01*
X90184518Y-124989188D01*
X90064820Y-125025498D01*
X89954506Y-125084463D01*
X89857815Y-125163815D01*
X89778463Y-125260506D01*
X89719498Y-125370820D01*
X89683188Y-125490518D01*
X89670928Y-125615000D01*
X87438051Y-125615000D01*
X87427918Y-125590537D01*
X87248987Y-125322748D01*
X87021252Y-125095013D01*
X86753463Y-124916082D01*
X86455912Y-124792832D01*
X86140033Y-124730000D01*
X85817967Y-124730000D01*
X85502088Y-124792832D01*
X85204537Y-124916082D01*
X84936748Y-125095013D01*
X84709013Y-125322748D01*
X84530082Y-125590537D01*
X84406832Y-125888088D01*
X84344000Y-126203967D01*
X41350000Y-126203967D01*
X41350000Y-121983419D01*
X60549000Y-121983419D01*
X60549000Y-122364581D01*
X60623361Y-122738419D01*
X60769225Y-123090566D01*
X60980987Y-123407491D01*
X61250509Y-123677013D01*
X61567434Y-123888775D01*
X61919581Y-124034639D01*
X62293419Y-124109000D01*
X62674581Y-124109000D01*
X63048419Y-124034639D01*
X63400566Y-123888775D01*
X63717491Y-123677013D01*
X63987013Y-123407491D01*
X64198775Y-123090566D01*
X64344639Y-122738419D01*
X64419000Y-122364581D01*
X64419000Y-121983419D01*
X70709000Y-121983419D01*
X70709000Y-122364581D01*
X70783361Y-122738419D01*
X70929225Y-123090566D01*
X71140987Y-123407491D01*
X71410509Y-123677013D01*
X71727434Y-123888775D01*
X72079581Y-124034639D01*
X72453419Y-124109000D01*
X72834581Y-124109000D01*
X73208419Y-124034639D01*
X73560566Y-123888775D01*
X73877491Y-123677013D01*
X74147013Y-123407491D01*
X74358775Y-123090566D01*
X74504639Y-122738419D01*
X74579000Y-122364581D01*
X74579000Y-121983419D01*
X74504639Y-121609581D01*
X74358775Y-121257434D01*
X74147013Y-120940509D01*
X73877491Y-120670987D01*
X73560566Y-120459225D01*
X73208419Y-120313361D01*
X72834581Y-120239000D01*
X72453419Y-120239000D01*
X72079581Y-120313361D01*
X71727434Y-120459225D01*
X71410509Y-120670987D01*
X71140987Y-120940509D01*
X70929225Y-121257434D01*
X70783361Y-121609581D01*
X70709000Y-121983419D01*
X64419000Y-121983419D01*
X64344639Y-121609581D01*
X64198775Y-121257434D01*
X63987013Y-120940509D01*
X63717491Y-120670987D01*
X63400566Y-120459225D01*
X63048419Y-120313361D01*
X62674581Y-120239000D01*
X62293419Y-120239000D01*
X61919581Y-120313361D01*
X61567434Y-120459225D01*
X61250509Y-120670987D01*
X60980987Y-120940509D01*
X60769225Y-121257434D01*
X60623361Y-121609581D01*
X60549000Y-121983419D01*
X41350000Y-121983419D01*
X41350000Y-106845404D01*
X49597000Y-106845404D01*
X49597000Y-107530597D01*
X49624275Y-107807524D01*
X49732061Y-108162848D01*
X49907097Y-108490317D01*
X50142655Y-108777345D01*
X50429684Y-109012903D01*
X50757153Y-109187939D01*
X51112477Y-109295725D01*
X51482000Y-109332120D01*
X51851524Y-109295725D01*
X52206848Y-109187939D01*
X52534317Y-109012903D01*
X52821345Y-108777345D01*
X53056903Y-108490317D01*
X53231939Y-108162848D01*
X53339725Y-107807523D01*
X53367000Y-107530596D01*
X53367000Y-106963200D01*
X72816328Y-106963200D01*
X72816328Y-108663200D01*
X72828588Y-108787682D01*
X72864898Y-108907380D01*
X72923863Y-109017694D01*
X73003215Y-109114385D01*
X73099906Y-109193737D01*
X73210220Y-109252702D01*
X73282780Y-109274713D01*
X73150925Y-109406568D01*
X72988410Y-109649789D01*
X72876468Y-109920042D01*
X72819400Y-110206940D01*
X72819400Y-110499460D01*
X72876468Y-110786358D01*
X72988410Y-111056611D01*
X73150925Y-111299832D01*
X73357768Y-111506675D01*
X73600989Y-111669190D01*
X73871242Y-111781132D01*
X74158140Y-111838200D01*
X74450660Y-111838200D01*
X74737558Y-111781132D01*
X75007811Y-111669190D01*
X75251032Y-111506675D01*
X75457875Y-111299832D01*
X75620390Y-111056611D01*
X75732332Y-110786358D01*
X75789400Y-110499460D01*
X75789400Y-110206940D01*
X75732332Y-109920042D01*
X75620390Y-109649789D01*
X75457875Y-109406568D01*
X75326020Y-109274713D01*
X75398580Y-109252702D01*
X75508894Y-109193737D01*
X75605585Y-109114385D01*
X75684937Y-109017694D01*
X75743902Y-108907380D01*
X75780212Y-108787682D01*
X75792472Y-108663200D01*
X75792472Y-107797261D01*
X107499200Y-107797261D01*
X107499200Y-108001139D01*
X107538974Y-108201098D01*
X107616995Y-108389456D01*
X107730263Y-108558974D01*
X107874426Y-108703137D01*
X108043944Y-108816405D01*
X108232302Y-108894426D01*
X108432261Y-108934200D01*
X108636139Y-108934200D01*
X108836098Y-108894426D01*
X109024456Y-108816405D01*
X109193974Y-108703137D01*
X109338137Y-108558974D01*
X109451405Y-108389456D01*
X109529426Y-108201098D01*
X109540735Y-108144243D01*
X110170779Y-107514200D01*
X112935731Y-107514200D01*
X112979200Y-107518481D01*
X113022669Y-107514200D01*
X113022677Y-107514200D01*
X113152690Y-107501395D01*
X113319513Y-107450789D01*
X113473259Y-107368611D01*
X113608017Y-107258017D01*
X113635734Y-107224244D01*
X115791813Y-105068166D01*
X115782665Y-105114156D01*
X115051154Y-105845668D01*
X114543156Y-106353666D01*
X114509383Y-106381383D01*
X114398789Y-106516142D01*
X114316611Y-106669888D01*
X114314851Y-106675691D01*
X114266005Y-106836710D01*
X114265433Y-106842514D01*
X114253200Y-106966724D01*
X114253200Y-106966731D01*
X114248919Y-107010200D01*
X114253200Y-107053669D01*
X114253201Y-118835620D01*
X113247622Y-119841200D01*
X111612654Y-119841200D01*
X111564456Y-119808995D01*
X111376098Y-119730974D01*
X111176139Y-119691200D01*
X110972261Y-119691200D01*
X110772302Y-119730974D01*
X110583944Y-119808995D01*
X110414426Y-119922263D01*
X110270263Y-120066426D01*
X110156995Y-120235944D01*
X110078974Y-120424302D01*
X110039200Y-120624261D01*
X110039200Y-120828139D01*
X110078974Y-121028098D01*
X110156995Y-121216456D01*
X110270263Y-121385974D01*
X110414426Y-121530137D01*
X110583944Y-121643405D01*
X110772302Y-121721426D01*
X110972261Y-121761200D01*
X111176139Y-121761200D01*
X111376098Y-121721426D01*
X111564456Y-121643405D01*
X111612654Y-121611200D01*
X113570731Y-121611200D01*
X113614200Y-121615481D01*
X113657669Y-121611200D01*
X113657677Y-121611200D01*
X113787690Y-121598395D01*
X113954513Y-121547789D01*
X114108259Y-121465611D01*
X114243017Y-121355017D01*
X114270734Y-121321244D01*
X115733249Y-119858730D01*
X115767017Y-119831017D01*
X115877611Y-119696259D01*
X115959789Y-119542513D01*
X116010395Y-119375690D01*
X116023200Y-119245677D01*
X116023200Y-119245667D01*
X116027481Y-119202201D01*
X116023200Y-119158735D01*
X116023200Y-107376778D01*
X116302732Y-107097246D01*
X117034244Y-106365735D01*
X117091098Y-106354426D01*
X117279456Y-106276405D01*
X117448974Y-106163137D01*
X117593137Y-106018974D01*
X117706405Y-105849456D01*
X117784426Y-105661098D01*
X117824200Y-105461139D01*
X117824200Y-105257261D01*
X117784426Y-105057302D01*
X117706405Y-104868944D01*
X117593137Y-104699426D01*
X117448974Y-104555263D01*
X117279456Y-104441995D01*
X117091098Y-104363974D01*
X116891139Y-104324200D01*
X116687261Y-104324200D01*
X116487302Y-104363974D01*
X116342472Y-104423965D01*
X116391395Y-104262690D01*
X116404200Y-104132677D01*
X116404200Y-104132667D01*
X116408481Y-104089201D01*
X116404200Y-104045735D01*
X116404200Y-103357654D01*
X116436405Y-103309456D01*
X116514426Y-103121098D01*
X116554200Y-102921139D01*
X116554200Y-102717261D01*
X116514426Y-102517302D01*
X116436405Y-102328944D01*
X116323137Y-102159426D01*
X116178974Y-102015263D01*
X116009456Y-101901995D01*
X115821098Y-101823974D01*
X115621139Y-101784200D01*
X115417261Y-101784200D01*
X115217302Y-101823974D01*
X115028944Y-101901995D01*
X114859426Y-102015263D01*
X114715263Y-102159426D01*
X114601995Y-102328944D01*
X114523974Y-102517302D01*
X114484200Y-102717261D01*
X114484200Y-102921139D01*
X114502753Y-103014411D01*
X114358456Y-102917995D01*
X114170098Y-102839974D01*
X113970139Y-102800200D01*
X113766261Y-102800200D01*
X113566302Y-102839974D01*
X113549105Y-102847097D01*
X113593426Y-102740098D01*
X113633200Y-102540139D01*
X113633200Y-102336261D01*
X113593426Y-102136302D01*
X113515405Y-101947944D01*
X113402137Y-101778426D01*
X113257974Y-101634263D01*
X113088456Y-101520995D01*
X112900098Y-101442974D01*
X112700139Y-101403200D01*
X112496261Y-101403200D01*
X112296302Y-101442974D01*
X112107944Y-101520995D01*
X111938426Y-101634263D01*
X111794263Y-101778426D01*
X111680995Y-101947944D01*
X111602974Y-102136302D01*
X111563200Y-102336261D01*
X111563200Y-102540139D01*
X111600813Y-102729234D01*
X110689200Y-101817622D01*
X110689200Y-99052669D01*
X110693481Y-99009200D01*
X110689200Y-98965731D01*
X110689200Y-98965723D01*
X110676395Y-98835710D01*
X110640688Y-98718000D01*
X131099928Y-98718000D01*
X131099928Y-100418000D01*
X131112188Y-100542482D01*
X131148498Y-100662180D01*
X131207463Y-100772494D01*
X131286815Y-100869185D01*
X131383506Y-100948537D01*
X131493820Y-101007502D01*
X131566380Y-101029513D01*
X131434525Y-101161368D01*
X131272010Y-101404589D01*
X131160068Y-101674842D01*
X131103000Y-101961740D01*
X131103000Y-102254260D01*
X131160068Y-102541158D01*
X131272010Y-102811411D01*
X131434525Y-103054632D01*
X131641368Y-103261475D01*
X131815760Y-103378000D01*
X131641368Y-103494525D01*
X131434525Y-103701368D01*
X131272010Y-103944589D01*
X131160068Y-104214842D01*
X131103000Y-104501740D01*
X131103000Y-104794260D01*
X131160068Y-105081158D01*
X131272010Y-105351411D01*
X131434525Y-105594632D01*
X131641368Y-105801475D01*
X131884589Y-105963990D01*
X132154842Y-106075932D01*
X132441740Y-106133000D01*
X132734260Y-106133000D01*
X133021158Y-106075932D01*
X133291411Y-105963990D01*
X133534632Y-105801475D01*
X133741475Y-105594632D01*
X133903990Y-105351411D01*
X134015932Y-105081158D01*
X134073000Y-104794260D01*
X134073000Y-104501740D01*
X134015932Y-104214842D01*
X133903990Y-103944589D01*
X133741475Y-103701368D01*
X133534632Y-103494525D01*
X133360240Y-103378000D01*
X133534632Y-103261475D01*
X133741475Y-103054632D01*
X133903990Y-102811411D01*
X134015932Y-102541158D01*
X134073000Y-102254260D01*
X134073000Y-101961740D01*
X134015932Y-101674842D01*
X133903990Y-101404589D01*
X133741475Y-101161368D01*
X133609620Y-101029513D01*
X133682180Y-101007502D01*
X133792494Y-100948537D01*
X133889185Y-100869185D01*
X133935901Y-100812261D01*
X142043200Y-100812261D01*
X142043200Y-101016139D01*
X142082974Y-101216098D01*
X142160995Y-101404456D01*
X142193200Y-101452655D01*
X142193200Y-101886730D01*
X142188919Y-101930200D01*
X142193200Y-101973669D01*
X142193200Y-101973676D01*
X142203651Y-102079789D01*
X142205434Y-102097887D01*
X142206005Y-102103689D01*
X142256611Y-102270512D01*
X142338789Y-102424258D01*
X142449383Y-102559017D01*
X142483156Y-102586734D01*
X143369235Y-103472813D01*
X143180139Y-103435200D01*
X142976261Y-103435200D01*
X142776302Y-103474974D01*
X142587944Y-103552995D01*
X142418426Y-103666263D01*
X142274263Y-103810426D01*
X142160995Y-103979944D01*
X142082974Y-104168302D01*
X142043200Y-104368261D01*
X142043200Y-104572139D01*
X142082974Y-104772098D01*
X142160995Y-104960456D01*
X142274263Y-105129974D01*
X142418426Y-105274137D01*
X142587944Y-105387405D01*
X142776302Y-105465426D01*
X142976261Y-105505200D01*
X143180139Y-105505200D01*
X143369235Y-105467587D01*
X143341157Y-105495665D01*
X143284302Y-105506974D01*
X143095944Y-105584995D01*
X142926426Y-105698263D01*
X142782263Y-105842426D01*
X142668995Y-106011944D01*
X142590974Y-106200302D01*
X142551200Y-106400261D01*
X142551200Y-106604139D01*
X142590974Y-106804098D01*
X142668995Y-106992456D01*
X142782263Y-107161974D01*
X142926426Y-107306137D01*
X143095944Y-107419405D01*
X143284302Y-107497426D01*
X143484261Y-107537200D01*
X143688139Y-107537200D01*
X143888098Y-107497426D01*
X144076456Y-107419405D01*
X144245974Y-107306137D01*
X144390137Y-107161974D01*
X144503405Y-106992456D01*
X144550318Y-106879200D01*
X148114731Y-106879200D01*
X148158200Y-106883481D01*
X148201669Y-106879200D01*
X148201677Y-106879200D01*
X148331690Y-106866395D01*
X148498513Y-106815789D01*
X148652259Y-106733611D01*
X148787017Y-106623017D01*
X148814734Y-106589244D01*
X150208813Y-105195166D01*
X150199665Y-105241156D01*
X149087154Y-106353668D01*
X148579156Y-106861666D01*
X148545383Y-106889383D01*
X148434789Y-107024142D01*
X148352611Y-107177888D01*
X148333281Y-107241610D01*
X148302005Y-107344710D01*
X148301433Y-107350514D01*
X148289200Y-107474724D01*
X148289200Y-107474731D01*
X148284919Y-107518200D01*
X148289200Y-107561669D01*
X148289201Y-120359621D01*
X148071159Y-120577663D01*
X148071153Y-120577668D01*
X147283622Y-121365200D01*
X145140654Y-121365200D01*
X145092456Y-121332995D01*
X144904098Y-121254974D01*
X144704139Y-121215200D01*
X144500261Y-121215200D01*
X144300302Y-121254974D01*
X144111944Y-121332995D01*
X143942426Y-121446263D01*
X143798263Y-121590426D01*
X143684995Y-121759944D01*
X143606974Y-121948302D01*
X143567200Y-122148261D01*
X143567200Y-122352139D01*
X143606974Y-122552098D01*
X143684995Y-122740456D01*
X143798263Y-122909974D01*
X143942426Y-123054137D01*
X144111944Y-123167405D01*
X144300302Y-123245426D01*
X144500261Y-123285200D01*
X144704139Y-123285200D01*
X144904098Y-123245426D01*
X145092456Y-123167405D01*
X145140654Y-123135200D01*
X147606731Y-123135200D01*
X147650200Y-123139481D01*
X147693669Y-123135200D01*
X147693677Y-123135200D01*
X147823690Y-123122395D01*
X147990513Y-123071789D01*
X148144259Y-122989611D01*
X148279017Y-122879017D01*
X148306734Y-122845244D01*
X149322732Y-121829247D01*
X149322737Y-121829241D01*
X149769246Y-121382732D01*
X149803017Y-121355017D01*
X149913611Y-121220259D01*
X149995789Y-121066513D01*
X150046395Y-120899690D01*
X150059200Y-120769677D01*
X150059200Y-120769667D01*
X150063481Y-120726201D01*
X150059200Y-120682735D01*
X150059200Y-107884778D01*
X150338732Y-107605246D01*
X151451244Y-106492735D01*
X151508098Y-106481426D01*
X151696456Y-106403405D01*
X151865974Y-106290137D01*
X152010137Y-106145974D01*
X152123405Y-105976456D01*
X152201426Y-105788098D01*
X152241200Y-105588139D01*
X152241200Y-105384261D01*
X152201426Y-105184302D01*
X152123405Y-104995944D01*
X152010137Y-104826426D01*
X151865974Y-104682263D01*
X151696456Y-104568995D01*
X151508098Y-104490974D01*
X151308139Y-104451200D01*
X151104261Y-104451200D01*
X150904302Y-104490974D01*
X150715944Y-104568995D01*
X150546426Y-104682263D01*
X150541069Y-104687620D01*
X150554395Y-104643690D01*
X150567200Y-104513677D01*
X150567200Y-104513667D01*
X150571481Y-104470201D01*
X150567200Y-104426735D01*
X150567200Y-103992654D01*
X150599405Y-103944456D01*
X150677426Y-103756098D01*
X150717200Y-103556139D01*
X150717200Y-103352261D01*
X150677426Y-103152302D01*
X150599405Y-102963944D01*
X150486137Y-102794426D01*
X150341974Y-102650263D01*
X150172456Y-102536995D01*
X149984098Y-102458974D01*
X149784139Y-102419200D01*
X149580261Y-102419200D01*
X149380302Y-102458974D01*
X149191944Y-102536995D01*
X149022426Y-102650263D01*
X148878263Y-102794426D01*
X148764995Y-102963944D01*
X148686974Y-103152302D01*
X148647200Y-103352261D01*
X148647200Y-103556139D01*
X148686974Y-103756098D01*
X148764995Y-103944456D01*
X148797201Y-103992655D01*
X148797201Y-104103621D01*
X148139587Y-104761235D01*
X148177200Y-104572139D01*
X148177200Y-104368261D01*
X148137426Y-104168302D01*
X148059405Y-103979944D01*
X147946137Y-103810426D01*
X147801974Y-103666263D01*
X147632456Y-103552995D01*
X147444098Y-103474974D01*
X147329095Y-103452099D01*
X147424405Y-103309456D01*
X147502426Y-103121098D01*
X147542200Y-102921139D01*
X147542200Y-102717261D01*
X147502426Y-102517302D01*
X147424405Y-102328944D01*
X147311137Y-102159426D01*
X147166974Y-102015263D01*
X146997456Y-101901995D01*
X146809098Y-101823974D01*
X146609139Y-101784200D01*
X146405261Y-101784200D01*
X146205302Y-101823974D01*
X146016944Y-101901995D01*
X145847426Y-102015263D01*
X145703263Y-102159426D01*
X145589995Y-102328944D01*
X145511974Y-102517302D01*
X145500665Y-102574156D01*
X145327822Y-102747000D01*
X145146579Y-102747000D01*
X143963200Y-101563622D01*
X143963200Y-101452654D01*
X143995405Y-101404456D01*
X144073426Y-101216098D01*
X144113200Y-101016139D01*
X144113200Y-100812261D01*
X144073426Y-100612302D01*
X143995405Y-100423944D01*
X143882137Y-100254426D01*
X143737974Y-100110263D01*
X143568456Y-99996995D01*
X143380098Y-99918974D01*
X143180139Y-99879200D01*
X142976261Y-99879200D01*
X142776302Y-99918974D01*
X142587944Y-99996995D01*
X142418426Y-100110263D01*
X142274263Y-100254426D01*
X142160995Y-100423944D01*
X142082974Y-100612302D01*
X142043200Y-100812261D01*
X133935901Y-100812261D01*
X133968537Y-100772494D01*
X134027502Y-100662180D01*
X134063812Y-100542482D01*
X134076072Y-100418000D01*
X134076072Y-98718000D01*
X163103928Y-98718000D01*
X163103928Y-100418000D01*
X163116188Y-100542482D01*
X163152498Y-100662180D01*
X163211463Y-100772494D01*
X163290815Y-100869185D01*
X163387506Y-100948537D01*
X163497820Y-101007502D01*
X163570380Y-101029513D01*
X163438525Y-101161368D01*
X163276010Y-101404589D01*
X163164068Y-101674842D01*
X163107000Y-101961740D01*
X163107000Y-102254260D01*
X163164068Y-102541158D01*
X163276010Y-102811411D01*
X163438525Y-103054632D01*
X163645368Y-103261475D01*
X163819760Y-103378000D01*
X163645368Y-103494525D01*
X163438525Y-103701368D01*
X163276010Y-103944589D01*
X163164068Y-104214842D01*
X163107000Y-104501740D01*
X163107000Y-104794260D01*
X163164068Y-105081158D01*
X163276010Y-105351411D01*
X163438525Y-105594632D01*
X163645368Y-105801475D01*
X163888589Y-105963990D01*
X164158842Y-106075932D01*
X164445740Y-106133000D01*
X164738260Y-106133000D01*
X165025158Y-106075932D01*
X165295411Y-105963990D01*
X165538632Y-105801475D01*
X165745475Y-105594632D01*
X165907990Y-105351411D01*
X166019932Y-105081158D01*
X166077000Y-104794260D01*
X166077000Y-104501740D01*
X166019932Y-104214842D01*
X165907990Y-103944589D01*
X165745475Y-103701368D01*
X165538632Y-103494525D01*
X165364240Y-103378000D01*
X165538632Y-103261475D01*
X165745475Y-103054632D01*
X165907990Y-102811411D01*
X166019932Y-102541158D01*
X166077000Y-102254260D01*
X166077000Y-101961740D01*
X166019932Y-101674842D01*
X165907990Y-101404589D01*
X165745475Y-101161368D01*
X165613620Y-101029513D01*
X165686180Y-101007502D01*
X165796494Y-100948537D01*
X165893185Y-100869185D01*
X165972537Y-100772494D01*
X166031502Y-100662180D01*
X166063025Y-100558261D01*
X175444200Y-100558261D01*
X175444200Y-100762139D01*
X175483974Y-100962098D01*
X175561995Y-101150456D01*
X175675263Y-101319974D01*
X175819426Y-101464137D01*
X175988944Y-101577405D01*
X176177302Y-101655426D01*
X176234157Y-101666735D01*
X177390621Y-102823200D01*
X177017654Y-102823200D01*
X176969456Y-102790995D01*
X176781098Y-102712974D01*
X176581139Y-102673200D01*
X176377261Y-102673200D01*
X176177302Y-102712974D01*
X175988944Y-102790995D01*
X175819426Y-102904263D01*
X175675263Y-103048426D01*
X175561995Y-103217944D01*
X175483974Y-103406302D01*
X175444200Y-103606261D01*
X175444200Y-103810139D01*
X175483974Y-104010098D01*
X175561995Y-104198456D01*
X175675263Y-104367974D01*
X175819426Y-104512137D01*
X175988944Y-104625405D01*
X176177302Y-104703426D01*
X176377261Y-104743200D01*
X176581139Y-104743200D01*
X176781098Y-104703426D01*
X176969456Y-104625405D01*
X177017654Y-104593200D01*
X180438621Y-104593200D01*
X177636622Y-107395200D01*
X177017654Y-107395200D01*
X176969456Y-107362995D01*
X176781098Y-107284974D01*
X176581139Y-107245200D01*
X176377261Y-107245200D01*
X176177302Y-107284974D01*
X175988944Y-107362995D01*
X175819426Y-107476263D01*
X175675263Y-107620426D01*
X175561995Y-107789944D01*
X175483974Y-107978302D01*
X175444200Y-108178261D01*
X175444200Y-108382139D01*
X175483974Y-108582098D01*
X175561995Y-108770456D01*
X175675263Y-108939974D01*
X175819426Y-109084137D01*
X175988944Y-109197405D01*
X176177302Y-109275426D01*
X176377261Y-109315200D01*
X176581139Y-109315200D01*
X176781098Y-109275426D01*
X176969456Y-109197405D01*
X177017654Y-109165200D01*
X177959731Y-109165200D01*
X178003200Y-109169481D01*
X178046669Y-109165200D01*
X178046677Y-109165200D01*
X178176690Y-109152395D01*
X178343513Y-109101789D01*
X178497259Y-109019611D01*
X178632017Y-108909017D01*
X178659734Y-108875244D01*
X182198200Y-105336779D01*
X182198201Y-122127200D01*
X178033654Y-122127200D01*
X177985456Y-122094995D01*
X177797098Y-122016974D01*
X177597139Y-121977200D01*
X177393261Y-121977200D01*
X177193302Y-122016974D01*
X177004944Y-122094995D01*
X176835426Y-122208263D01*
X176691263Y-122352426D01*
X176577995Y-122521944D01*
X176499974Y-122710302D01*
X176460200Y-122910261D01*
X176460200Y-123114139D01*
X176499974Y-123314098D01*
X176577995Y-123502456D01*
X176691263Y-123671974D01*
X176835426Y-123816137D01*
X177004944Y-123929405D01*
X177193302Y-124007426D01*
X177393261Y-124047200D01*
X177597139Y-124047200D01*
X177797098Y-124007426D01*
X177985456Y-123929405D01*
X178033654Y-123897200D01*
X182531731Y-123897200D01*
X182575200Y-123901481D01*
X182618669Y-123897200D01*
X182618677Y-123897200D01*
X182748690Y-123884395D01*
X182915513Y-123833789D01*
X183069259Y-123751611D01*
X183204017Y-123641017D01*
X183231734Y-123607244D01*
X183678244Y-123160734D01*
X183712017Y-123133017D01*
X183822611Y-122998259D01*
X183904789Y-122844513D01*
X183955395Y-122677690D01*
X183968200Y-122547677D01*
X183968200Y-122547667D01*
X183972481Y-122504201D01*
X183968200Y-122460735D01*
X183968200Y-105598778D01*
X184852244Y-104714735D01*
X184909098Y-104703426D01*
X185097456Y-104625405D01*
X185266974Y-104512137D01*
X185411137Y-104367974D01*
X185524405Y-104198456D01*
X185602426Y-104010098D01*
X185642200Y-103810139D01*
X185642200Y-103606261D01*
X185602426Y-103406302D01*
X185524405Y-103217944D01*
X185411137Y-103048426D01*
X185266974Y-102904263D01*
X185097456Y-102790995D01*
X184909098Y-102712974D01*
X184709139Y-102673200D01*
X184505261Y-102673200D01*
X184305302Y-102712974D01*
X184116944Y-102790995D01*
X184051963Y-102834414D01*
X184000405Y-102709944D01*
X183887137Y-102540426D01*
X183742974Y-102396263D01*
X183573456Y-102282995D01*
X183385098Y-102204974D01*
X183185139Y-102165200D01*
X182981261Y-102165200D01*
X182781302Y-102204974D01*
X182592944Y-102282995D01*
X182423426Y-102396263D01*
X182279263Y-102540426D01*
X182265766Y-102560626D01*
X182222405Y-102455944D01*
X182109137Y-102286426D01*
X181964974Y-102142263D01*
X181795456Y-102028995D01*
X181607098Y-101950974D01*
X181407139Y-101911200D01*
X181203261Y-101911200D01*
X181042533Y-101943170D01*
X181030426Y-101882302D01*
X180952405Y-101693944D01*
X180839137Y-101524426D01*
X180694974Y-101380263D01*
X180525456Y-101266995D01*
X180337098Y-101188974D01*
X180137139Y-101149200D01*
X179933261Y-101149200D01*
X179733302Y-101188974D01*
X179544944Y-101266995D01*
X179375426Y-101380263D01*
X179231263Y-101524426D01*
X179117995Y-101693944D01*
X179039974Y-101882302D01*
X179028665Y-101939157D01*
X179019200Y-101948621D01*
X178659736Y-101589158D01*
X178659732Y-101589153D01*
X177485735Y-100415157D01*
X177474426Y-100358302D01*
X177396405Y-100169944D01*
X177283137Y-100000426D01*
X177138974Y-99856263D01*
X176969456Y-99742995D01*
X176781098Y-99664974D01*
X176581139Y-99625200D01*
X176377261Y-99625200D01*
X176177302Y-99664974D01*
X175988944Y-99742995D01*
X175819426Y-99856263D01*
X175675263Y-100000426D01*
X175561995Y-100169944D01*
X175483974Y-100358302D01*
X175444200Y-100558261D01*
X166063025Y-100558261D01*
X166067812Y-100542482D01*
X166080072Y-100418000D01*
X166080072Y-98718000D01*
X166067812Y-98593518D01*
X166031502Y-98473820D01*
X165972537Y-98363506D01*
X165893185Y-98266815D01*
X165796494Y-98187463D01*
X165686180Y-98128498D01*
X165566482Y-98092188D01*
X165442000Y-98079928D01*
X163742000Y-98079928D01*
X163617518Y-98092188D01*
X163497820Y-98128498D01*
X163387506Y-98187463D01*
X163290815Y-98266815D01*
X163211463Y-98363506D01*
X163152498Y-98473820D01*
X163116188Y-98593518D01*
X163103928Y-98718000D01*
X134076072Y-98718000D01*
X134063812Y-98593518D01*
X134027502Y-98473820D01*
X133968537Y-98363506D01*
X133889185Y-98266815D01*
X133792494Y-98187463D01*
X133682180Y-98128498D01*
X133562482Y-98092188D01*
X133438000Y-98079928D01*
X131738000Y-98079928D01*
X131613518Y-98092188D01*
X131493820Y-98128498D01*
X131383506Y-98187463D01*
X131286815Y-98266815D01*
X131207463Y-98363506D01*
X131148498Y-98473820D01*
X131112188Y-98593518D01*
X131099928Y-98718000D01*
X110640688Y-98718000D01*
X110625789Y-98668886D01*
X110543611Y-98515141D01*
X110460732Y-98414153D01*
X110460730Y-98414151D01*
X110433017Y-98380383D01*
X110399249Y-98352670D01*
X110175735Y-98129156D01*
X110164426Y-98072302D01*
X110086405Y-97883944D01*
X109973137Y-97714426D01*
X109828974Y-97570263D01*
X109659456Y-97456995D01*
X109471098Y-97378974D01*
X109271139Y-97339200D01*
X109067261Y-97339200D01*
X108867302Y-97378974D01*
X108678944Y-97456995D01*
X108509426Y-97570263D01*
X108365263Y-97714426D01*
X108251995Y-97883944D01*
X108173974Y-98072302D01*
X108134200Y-98272261D01*
X108134200Y-98476139D01*
X108173974Y-98676098D01*
X108251995Y-98864456D01*
X108365263Y-99033974D01*
X108509426Y-99178137D01*
X108678944Y-99291405D01*
X108867302Y-99369426D01*
X108919201Y-99379749D01*
X108919200Y-102140731D01*
X108914919Y-102184200D01*
X108919200Y-102227669D01*
X108919200Y-102227676D01*
X108932005Y-102357689D01*
X108957300Y-102441073D01*
X108867302Y-102458974D01*
X108678944Y-102536995D01*
X108509426Y-102650263D01*
X108365263Y-102794426D01*
X108251995Y-102963944D01*
X108173974Y-103152302D01*
X108134200Y-103352261D01*
X108134200Y-103556139D01*
X108173974Y-103756098D01*
X108251995Y-103944456D01*
X108365263Y-104113974D01*
X108509426Y-104258137D01*
X108678944Y-104371405D01*
X108867302Y-104449426D01*
X108924157Y-104460735D01*
X109731870Y-105268449D01*
X109759583Y-105302217D01*
X109793351Y-105329930D01*
X109793353Y-105329932D01*
X109859553Y-105384261D01*
X109894341Y-105412811D01*
X110048087Y-105494989D01*
X110214910Y-105545595D01*
X110344923Y-105558400D01*
X110344931Y-105558400D01*
X110388400Y-105562681D01*
X110431869Y-105558400D01*
X112798422Y-105558400D01*
X112612622Y-105744200D01*
X109847665Y-105744200D01*
X109804199Y-105739919D01*
X109760733Y-105744200D01*
X109760723Y-105744200D01*
X109630710Y-105757005D01*
X109463887Y-105807611D01*
X109310141Y-105889789D01*
X109310139Y-105889790D01*
X109310140Y-105889790D01*
X109209153Y-105972668D01*
X109209151Y-105972670D01*
X109175383Y-106000383D01*
X109147670Y-106034151D01*
X108289157Y-106892665D01*
X108232302Y-106903974D01*
X108043944Y-106981995D01*
X107874426Y-107095263D01*
X107730263Y-107239426D01*
X107616995Y-107408944D01*
X107538974Y-107597302D01*
X107499200Y-107797261D01*
X75792472Y-107797261D01*
X75792472Y-106963200D01*
X75780212Y-106838718D01*
X75743902Y-106719020D01*
X75684937Y-106608706D01*
X75605585Y-106512015D01*
X75508894Y-106432663D01*
X75398580Y-106373698D01*
X75278882Y-106337388D01*
X75154400Y-106325128D01*
X73454400Y-106325128D01*
X73329918Y-106337388D01*
X73210220Y-106373698D01*
X73099906Y-106432663D01*
X73003215Y-106512015D01*
X72923863Y-106608706D01*
X72864898Y-106719020D01*
X72828588Y-106838718D01*
X72816328Y-106963200D01*
X53367000Y-106963200D01*
X53367000Y-106845403D01*
X53339725Y-106568476D01*
X53231939Y-106213152D01*
X53056903Y-105885683D01*
X52821345Y-105598655D01*
X52534317Y-105363097D01*
X52206847Y-105188061D01*
X51851523Y-105080275D01*
X51482000Y-105043880D01*
X51112476Y-105080275D01*
X50757152Y-105188061D01*
X50429683Y-105363097D01*
X50142655Y-105598655D01*
X49907097Y-105885683D01*
X49732061Y-106213153D01*
X49624275Y-106568477D01*
X49597000Y-106845404D01*
X41350000Y-106845404D01*
X41350000Y-98972000D01*
X96047928Y-98972000D01*
X96047928Y-100672000D01*
X96060188Y-100796482D01*
X96096498Y-100916180D01*
X96155463Y-101026494D01*
X96234815Y-101123185D01*
X96331506Y-101202537D01*
X96441820Y-101261502D01*
X96514380Y-101283513D01*
X96382525Y-101415368D01*
X96220010Y-101658589D01*
X96108068Y-101928842D01*
X96051000Y-102215740D01*
X96051000Y-102508260D01*
X96108068Y-102795158D01*
X96220010Y-103065411D01*
X96382525Y-103308632D01*
X96589368Y-103515475D01*
X96763760Y-103632000D01*
X96589368Y-103748525D01*
X96382525Y-103955368D01*
X96220010Y-104198589D01*
X96108068Y-104468842D01*
X96051000Y-104755740D01*
X96051000Y-105048260D01*
X96108068Y-105335158D01*
X96220010Y-105605411D01*
X96382525Y-105848632D01*
X96589368Y-106055475D01*
X96832589Y-106217990D01*
X97102842Y-106329932D01*
X97389740Y-106387000D01*
X97682260Y-106387000D01*
X97969158Y-106329932D01*
X98239411Y-106217990D01*
X98482632Y-106055475D01*
X98689475Y-105848632D01*
X98851990Y-105605411D01*
X98963932Y-105335158D01*
X99021000Y-105048260D01*
X99021000Y-104755740D01*
X98963932Y-104468842D01*
X98851990Y-104198589D01*
X98689475Y-103955368D01*
X98482632Y-103748525D01*
X98308240Y-103632000D01*
X98482632Y-103515475D01*
X98689475Y-103308632D01*
X98851990Y-103065411D01*
X98963932Y-102795158D01*
X99021000Y-102508260D01*
X99021000Y-102215740D01*
X98963932Y-101928842D01*
X98851990Y-101658589D01*
X98689475Y-101415368D01*
X98557620Y-101283513D01*
X98630180Y-101261502D01*
X98740494Y-101202537D01*
X98837185Y-101123185D01*
X98916537Y-101026494D01*
X98975502Y-100916180D01*
X99011812Y-100796482D01*
X99024072Y-100672000D01*
X99024072Y-98972000D01*
X99011812Y-98847518D01*
X98975502Y-98727820D01*
X98916537Y-98617506D01*
X98837185Y-98520815D01*
X98740494Y-98441463D01*
X98630180Y-98382498D01*
X98510482Y-98346188D01*
X98386000Y-98333928D01*
X96686000Y-98333928D01*
X96561518Y-98346188D01*
X96441820Y-98382498D01*
X96331506Y-98441463D01*
X96234815Y-98520815D01*
X96155463Y-98617506D01*
X96096498Y-98727820D01*
X96060188Y-98847518D01*
X96047928Y-98972000D01*
X41350000Y-98972000D01*
X41350000Y-94345404D01*
X49597000Y-94345404D01*
X49597000Y-95030597D01*
X49624275Y-95307524D01*
X49732061Y-95662848D01*
X49907097Y-95990317D01*
X50142655Y-96277345D01*
X50429684Y-96512903D01*
X50757153Y-96687939D01*
X51112477Y-96795725D01*
X51482000Y-96832120D01*
X51851524Y-96795725D01*
X52206848Y-96687939D01*
X52534317Y-96512903D01*
X52821345Y-96277345D01*
X53056903Y-95990317D01*
X53231939Y-95662848D01*
X53339725Y-95307523D01*
X53367000Y-95030596D01*
X53367000Y-94345403D01*
X53339725Y-94068476D01*
X53231939Y-93713152D01*
X53056903Y-93385683D01*
X52821345Y-93098655D01*
X52534317Y-92863097D01*
X52206847Y-92688061D01*
X51851523Y-92580275D01*
X51482000Y-92543880D01*
X51112476Y-92580275D01*
X50757152Y-92688061D01*
X50429683Y-92863097D01*
X50142655Y-93098655D01*
X49907097Y-93385683D01*
X49732061Y-93713153D01*
X49624275Y-94068477D01*
X49597000Y-94345404D01*
X41350000Y-94345404D01*
X41350000Y-88298000D01*
X73240128Y-88298000D01*
X73240128Y-90798000D01*
X73252388Y-90922482D01*
X73288698Y-91042180D01*
X73347663Y-91152494D01*
X73427015Y-91249185D01*
X73523706Y-91328537D01*
X73634020Y-91387502D01*
X73753718Y-91423812D01*
X73878200Y-91436072D01*
X76878200Y-91436072D01*
X77002682Y-91423812D01*
X77122380Y-91387502D01*
X77232694Y-91328537D01*
X77329385Y-91249185D01*
X77408737Y-91152494D01*
X77467702Y-91042180D01*
X77504012Y-90922482D01*
X77516272Y-90798000D01*
X77516272Y-88298000D01*
X77504012Y-88173518D01*
X77467702Y-88053820D01*
X77408737Y-87943506D01*
X77329385Y-87846815D01*
X77232694Y-87767463D01*
X77122380Y-87708498D01*
X77002682Y-87672188D01*
X76878200Y-87659928D01*
X73878200Y-87659928D01*
X73753718Y-87672188D01*
X73634020Y-87708498D01*
X73523706Y-87767463D01*
X73427015Y-87846815D01*
X73347663Y-87943506D01*
X73288698Y-88053820D01*
X73252388Y-88173518D01*
X73240128Y-88298000D01*
X41350000Y-88298000D01*
X41350000Y-81868000D01*
X52420128Y-81868000D01*
X52420128Y-83568000D01*
X52432388Y-83692482D01*
X52468698Y-83812180D01*
X52527663Y-83922494D01*
X52607015Y-84019185D01*
X52703706Y-84098537D01*
X52814020Y-84157502D01*
X52886580Y-84179513D01*
X52754725Y-84311368D01*
X52592210Y-84554589D01*
X52480268Y-84824842D01*
X52423200Y-85111740D01*
X52423200Y-85404260D01*
X52480268Y-85691158D01*
X52592210Y-85961411D01*
X52754725Y-86204632D01*
X52961568Y-86411475D01*
X53204789Y-86573990D01*
X53475042Y-86685932D01*
X53761940Y-86743000D01*
X54054460Y-86743000D01*
X54341358Y-86685932D01*
X54611611Y-86573990D01*
X54854832Y-86411475D01*
X54979340Y-86286967D01*
X66243200Y-86286967D01*
X66243200Y-86609033D01*
X66306032Y-86924912D01*
X66429282Y-87222463D01*
X66608213Y-87490252D01*
X66835948Y-87717987D01*
X67103737Y-87896918D01*
X67401288Y-88020168D01*
X67717167Y-88083000D01*
X68039233Y-88083000D01*
X68355112Y-88020168D01*
X68652663Y-87896918D01*
X68920452Y-87717987D01*
X69148187Y-87490252D01*
X69327118Y-87222463D01*
X69450368Y-86924912D01*
X69513200Y-86609033D01*
X69513200Y-86286967D01*
X80743200Y-86286967D01*
X80743200Y-86609033D01*
X80806032Y-86924912D01*
X80929282Y-87222463D01*
X81108213Y-87490252D01*
X81335948Y-87717987D01*
X81603737Y-87896918D01*
X81901288Y-88020168D01*
X82217167Y-88083000D01*
X82539233Y-88083000D01*
X82855112Y-88020168D01*
X83152663Y-87896918D01*
X83420452Y-87717987D01*
X83648187Y-87490252D01*
X83827118Y-87222463D01*
X83950368Y-86924912D01*
X84013200Y-86609033D01*
X84013200Y-86286967D01*
X83950368Y-85971088D01*
X83827118Y-85673537D01*
X83648187Y-85405748D01*
X83420452Y-85178013D01*
X83152663Y-84999082D01*
X82855112Y-84875832D01*
X82539233Y-84813000D01*
X82217167Y-84813000D01*
X81901288Y-84875832D01*
X81603737Y-84999082D01*
X81335948Y-85178013D01*
X81108213Y-85405748D01*
X80929282Y-85673537D01*
X80806032Y-85971088D01*
X80743200Y-86286967D01*
X69513200Y-86286967D01*
X69450368Y-85971088D01*
X69327118Y-85673537D01*
X69148187Y-85405748D01*
X68920452Y-85178013D01*
X68652663Y-84999082D01*
X68355112Y-84875832D01*
X68039233Y-84813000D01*
X67717167Y-84813000D01*
X67401288Y-84875832D01*
X67103737Y-84999082D01*
X66835948Y-85178013D01*
X66608213Y-85405748D01*
X66429282Y-85673537D01*
X66306032Y-85971088D01*
X66243200Y-86286967D01*
X54979340Y-86286967D01*
X55061675Y-86204632D01*
X55224190Y-85961411D01*
X55336132Y-85691158D01*
X55393200Y-85404260D01*
X55393200Y-85111740D01*
X55336132Y-84824842D01*
X55224190Y-84554589D01*
X55061675Y-84311368D01*
X54929820Y-84179513D01*
X55002380Y-84157502D01*
X55112694Y-84098537D01*
X55209385Y-84019185D01*
X55288737Y-83922494D01*
X55347702Y-83812180D01*
X55384012Y-83692482D01*
X55396272Y-83568000D01*
X55396272Y-81868000D01*
X55384012Y-81743518D01*
X55347702Y-81623820D01*
X55288737Y-81513506D01*
X55209385Y-81416815D01*
X55112694Y-81337463D01*
X55018225Y-81286967D01*
X66243200Y-81286967D01*
X66243200Y-81609033D01*
X66306032Y-81924912D01*
X66429282Y-82222463D01*
X66608213Y-82490252D01*
X66835948Y-82717987D01*
X67103737Y-82896918D01*
X67401288Y-83020168D01*
X67717167Y-83083000D01*
X68039233Y-83083000D01*
X68355112Y-83020168D01*
X68652663Y-82896918D01*
X68920452Y-82717987D01*
X69148187Y-82490252D01*
X69327118Y-82222463D01*
X69450368Y-81924912D01*
X69513200Y-81609033D01*
X69513200Y-81286967D01*
X80743200Y-81286967D01*
X80743200Y-81609033D01*
X80806032Y-81924912D01*
X80929282Y-82222463D01*
X81108213Y-82490252D01*
X81335948Y-82717987D01*
X81603737Y-82896918D01*
X81901288Y-83020168D01*
X82217167Y-83083000D01*
X82539233Y-83083000D01*
X82855112Y-83020168D01*
X83152663Y-82896918D01*
X83420452Y-82717987D01*
X83648187Y-82490252D01*
X83827118Y-82222463D01*
X83950368Y-81924912D01*
X84013200Y-81609033D01*
X84013200Y-81286967D01*
X83950368Y-80971088D01*
X83827118Y-80673537D01*
X83648187Y-80405748D01*
X83420452Y-80178013D01*
X83152663Y-79999082D01*
X82855112Y-79875832D01*
X82539233Y-79813000D01*
X82217167Y-79813000D01*
X81901288Y-79875832D01*
X81603737Y-79999082D01*
X81335948Y-80178013D01*
X81108213Y-80405748D01*
X80929282Y-80673537D01*
X80806032Y-80971088D01*
X80743200Y-81286967D01*
X69513200Y-81286967D01*
X69450368Y-80971088D01*
X69327118Y-80673537D01*
X69148187Y-80405748D01*
X68920452Y-80178013D01*
X68652663Y-79999082D01*
X68355112Y-79875832D01*
X68039233Y-79813000D01*
X67717167Y-79813000D01*
X67401288Y-79875832D01*
X67103737Y-79999082D01*
X66835948Y-80178013D01*
X66608213Y-80405748D01*
X66429282Y-80673537D01*
X66306032Y-80971088D01*
X66243200Y-81286967D01*
X55018225Y-81286967D01*
X55002380Y-81278498D01*
X54882682Y-81242188D01*
X54758200Y-81229928D01*
X53058200Y-81229928D01*
X52933718Y-81242188D01*
X52814020Y-81278498D01*
X52703706Y-81337463D01*
X52607015Y-81416815D01*
X52527663Y-81513506D01*
X52468698Y-81623820D01*
X52432388Y-81743518D01*
X52420128Y-81868000D01*
X41350000Y-81868000D01*
X41350000Y-77098000D01*
X73240128Y-77098000D01*
X73240128Y-79598000D01*
X73252388Y-79722482D01*
X73288698Y-79842180D01*
X73347663Y-79952494D01*
X73427015Y-80049185D01*
X73523706Y-80128537D01*
X73634020Y-80187502D01*
X73753718Y-80223812D01*
X73878200Y-80236072D01*
X76878200Y-80236072D01*
X77002682Y-80223812D01*
X77122380Y-80187502D01*
X77232694Y-80128537D01*
X77329385Y-80049185D01*
X77408737Y-79952494D01*
X77467702Y-79842180D01*
X77504012Y-79722482D01*
X77516272Y-79598000D01*
X77516272Y-77098000D01*
X77504012Y-76973518D01*
X77467702Y-76853820D01*
X77408737Y-76743506D01*
X77329385Y-76646815D01*
X77232694Y-76567463D01*
X77122380Y-76508498D01*
X77002682Y-76472188D01*
X76878200Y-76459928D01*
X73878200Y-76459928D01*
X73753718Y-76472188D01*
X73634020Y-76508498D01*
X73523706Y-76567463D01*
X73427015Y-76646815D01*
X73347663Y-76743506D01*
X73288698Y-76853820D01*
X73252388Y-76973518D01*
X73240128Y-77098000D01*
X41350000Y-77098000D01*
X41350000Y-66509819D01*
X82785400Y-66509819D01*
X82785400Y-66890981D01*
X82859761Y-67264819D01*
X83005625Y-67616966D01*
X83217387Y-67933891D01*
X83486909Y-68203413D01*
X83803834Y-68415175D01*
X84155981Y-68561039D01*
X84529819Y-68635400D01*
X84910981Y-68635400D01*
X85284819Y-68561039D01*
X85636966Y-68415175D01*
X85953891Y-68203413D01*
X86223413Y-67933891D01*
X86435175Y-67616966D01*
X86581039Y-67264819D01*
X86655400Y-66890981D01*
X86655400Y-66509819D01*
X87785400Y-66509819D01*
X87785400Y-66890981D01*
X87859761Y-67264819D01*
X88005625Y-67616966D01*
X88217387Y-67933891D01*
X88486909Y-68203413D01*
X88803834Y-68415175D01*
X89155981Y-68561039D01*
X89529819Y-68635400D01*
X89910981Y-68635400D01*
X90284819Y-68561039D01*
X90636966Y-68415175D01*
X90953891Y-68203413D01*
X91223413Y-67933891D01*
X91435175Y-67616966D01*
X91581039Y-67264819D01*
X91655400Y-66890981D01*
X91655400Y-66509819D01*
X92785400Y-66509819D01*
X92785400Y-66890981D01*
X92859761Y-67264819D01*
X93005625Y-67616966D01*
X93217387Y-67933891D01*
X93486909Y-68203413D01*
X93803834Y-68415175D01*
X94155981Y-68561039D01*
X94529819Y-68635400D01*
X94910981Y-68635400D01*
X95284819Y-68561039D01*
X95636966Y-68415175D01*
X95953891Y-68203413D01*
X96223413Y-67933891D01*
X96435175Y-67616966D01*
X96581039Y-67264819D01*
X96655400Y-66890981D01*
X96655400Y-66509819D01*
X97785400Y-66509819D01*
X97785400Y-66890981D01*
X97859761Y-67264819D01*
X98005625Y-67616966D01*
X98217387Y-67933891D01*
X98486909Y-68203413D01*
X98803834Y-68415175D01*
X99155981Y-68561039D01*
X99529819Y-68635400D01*
X99910981Y-68635400D01*
X100284819Y-68561039D01*
X100636966Y-68415175D01*
X100953891Y-68203413D01*
X101223413Y-67933891D01*
X101435175Y-67616966D01*
X101581039Y-67264819D01*
X101655400Y-66890981D01*
X101655400Y-66509819D01*
X101581039Y-66135981D01*
X101435175Y-65783834D01*
X101223413Y-65466909D01*
X101200504Y-65444000D01*
X115097928Y-65444000D01*
X115097928Y-67144000D01*
X115110188Y-67268482D01*
X115146498Y-67388180D01*
X115205463Y-67498494D01*
X115284815Y-67595185D01*
X115381506Y-67674537D01*
X115491820Y-67733502D01*
X115564380Y-67755513D01*
X115432525Y-67887368D01*
X115270010Y-68130589D01*
X115158068Y-68400842D01*
X115101000Y-68687740D01*
X115101000Y-68980260D01*
X115158068Y-69267158D01*
X115270010Y-69537411D01*
X115432525Y-69780632D01*
X115639368Y-69987475D01*
X115813760Y-70104000D01*
X115639368Y-70220525D01*
X115432525Y-70427368D01*
X115270010Y-70670589D01*
X115158068Y-70940842D01*
X115101000Y-71227740D01*
X115101000Y-71520260D01*
X115158068Y-71807158D01*
X115270010Y-72077411D01*
X115432525Y-72320632D01*
X115639368Y-72527475D01*
X115882589Y-72689990D01*
X116152842Y-72801932D01*
X116439740Y-72859000D01*
X116732260Y-72859000D01*
X117019158Y-72801932D01*
X117289411Y-72689990D01*
X117532632Y-72527475D01*
X117739475Y-72320632D01*
X117901990Y-72077411D01*
X118013932Y-71807158D01*
X118071000Y-71520260D01*
X118071000Y-71227740D01*
X118013932Y-70940842D01*
X117901990Y-70670589D01*
X117739475Y-70427368D01*
X117532632Y-70220525D01*
X117358240Y-70104000D01*
X117532632Y-69987475D01*
X117739475Y-69780632D01*
X117901990Y-69537411D01*
X118013932Y-69267158D01*
X118071000Y-68980260D01*
X118071000Y-68687740D01*
X118013932Y-68400842D01*
X117901990Y-68130589D01*
X117739475Y-67887368D01*
X117607620Y-67755513D01*
X117680180Y-67733502D01*
X117790494Y-67674537D01*
X117887185Y-67595185D01*
X117966537Y-67498494D01*
X118025502Y-67388180D01*
X118029979Y-67373419D01*
X141481000Y-67373419D01*
X141481000Y-67754581D01*
X141555361Y-68128419D01*
X141701225Y-68480566D01*
X141912987Y-68797491D01*
X142182509Y-69067013D01*
X142499434Y-69278775D01*
X142851581Y-69424639D01*
X143225419Y-69499000D01*
X143606581Y-69499000D01*
X143980419Y-69424639D01*
X144332566Y-69278775D01*
X144649491Y-69067013D01*
X144919013Y-68797491D01*
X145130775Y-68480566D01*
X145276639Y-68128419D01*
X145351000Y-67754581D01*
X145351000Y-67373419D01*
X146481000Y-67373419D01*
X146481000Y-67754581D01*
X146555361Y-68128419D01*
X146701225Y-68480566D01*
X146912987Y-68797491D01*
X147182509Y-69067013D01*
X147499434Y-69278775D01*
X147851581Y-69424639D01*
X148225419Y-69499000D01*
X148606581Y-69499000D01*
X148980419Y-69424639D01*
X149332566Y-69278775D01*
X149649491Y-69067013D01*
X149919013Y-68797491D01*
X150130775Y-68480566D01*
X150276639Y-68128419D01*
X150351000Y-67754581D01*
X150351000Y-67373419D01*
X150276639Y-66999581D01*
X150130775Y-66647434D01*
X149919013Y-66330509D01*
X149852504Y-66264000D01*
X151477928Y-66264000D01*
X151477928Y-68864000D01*
X151490188Y-68988482D01*
X151526498Y-69108180D01*
X151585463Y-69218494D01*
X151664815Y-69315185D01*
X151761506Y-69394537D01*
X151871820Y-69453502D01*
X151991518Y-69489812D01*
X152116000Y-69502072D01*
X154716000Y-69502072D01*
X154840482Y-69489812D01*
X154960180Y-69453502D01*
X155070494Y-69394537D01*
X155167185Y-69315185D01*
X155246537Y-69218494D01*
X155305502Y-69108180D01*
X155341812Y-68988482D01*
X155354072Y-68864000D01*
X155354072Y-66264000D01*
X155341812Y-66139518D01*
X155305502Y-66019820D01*
X155246537Y-65909506D01*
X155167185Y-65812815D01*
X155070494Y-65733463D01*
X154960180Y-65674498D01*
X154840482Y-65638188D01*
X154716000Y-65625928D01*
X152116000Y-65625928D01*
X151991518Y-65638188D01*
X151871820Y-65674498D01*
X151761506Y-65733463D01*
X151664815Y-65812815D01*
X151585463Y-65909506D01*
X151526498Y-66019820D01*
X151490188Y-66139518D01*
X151477928Y-66264000D01*
X149852504Y-66264000D01*
X149649491Y-66060987D01*
X149332566Y-65849225D01*
X148980419Y-65703361D01*
X148606581Y-65629000D01*
X148225419Y-65629000D01*
X147851581Y-65703361D01*
X147499434Y-65849225D01*
X147182509Y-66060987D01*
X146912987Y-66330509D01*
X146701225Y-66647434D01*
X146555361Y-66999581D01*
X146481000Y-67373419D01*
X145351000Y-67373419D01*
X145276639Y-66999581D01*
X145130775Y-66647434D01*
X144919013Y-66330509D01*
X144649491Y-66060987D01*
X144332566Y-65849225D01*
X143980419Y-65703361D01*
X143606581Y-65629000D01*
X143225419Y-65629000D01*
X142851581Y-65703361D01*
X142499434Y-65849225D01*
X142182509Y-66060987D01*
X141912987Y-66330509D01*
X141701225Y-66647434D01*
X141555361Y-66999581D01*
X141481000Y-67373419D01*
X118029979Y-67373419D01*
X118061812Y-67268482D01*
X118074072Y-67144000D01*
X118074072Y-65444000D01*
X118061812Y-65319518D01*
X118025502Y-65199820D01*
X117966537Y-65089506D01*
X117887185Y-64992815D01*
X117790494Y-64913463D01*
X117680180Y-64854498D01*
X117560482Y-64818188D01*
X117436000Y-64805928D01*
X115736000Y-64805928D01*
X115611518Y-64818188D01*
X115491820Y-64854498D01*
X115381506Y-64913463D01*
X115284815Y-64992815D01*
X115205463Y-65089506D01*
X115146498Y-65199820D01*
X115110188Y-65319518D01*
X115097928Y-65444000D01*
X101200504Y-65444000D01*
X100953891Y-65197387D01*
X100636966Y-64985625D01*
X100284819Y-64839761D01*
X99910981Y-64765400D01*
X99529819Y-64765400D01*
X99155981Y-64839761D01*
X98803834Y-64985625D01*
X98486909Y-65197387D01*
X98217387Y-65466909D01*
X98005625Y-65783834D01*
X97859761Y-66135981D01*
X97785400Y-66509819D01*
X96655400Y-66509819D01*
X96581039Y-66135981D01*
X96435175Y-65783834D01*
X96223413Y-65466909D01*
X95953891Y-65197387D01*
X95636966Y-64985625D01*
X95284819Y-64839761D01*
X94910981Y-64765400D01*
X94529819Y-64765400D01*
X94155981Y-64839761D01*
X93803834Y-64985625D01*
X93486909Y-65197387D01*
X93217387Y-65466909D01*
X93005625Y-65783834D01*
X92859761Y-66135981D01*
X92785400Y-66509819D01*
X91655400Y-66509819D01*
X91581039Y-66135981D01*
X91435175Y-65783834D01*
X91223413Y-65466909D01*
X90953891Y-65197387D01*
X90636966Y-64985625D01*
X90284819Y-64839761D01*
X89910981Y-64765400D01*
X89529819Y-64765400D01*
X89155981Y-64839761D01*
X88803834Y-64985625D01*
X88486909Y-65197387D01*
X88217387Y-65466909D01*
X88005625Y-65783834D01*
X87859761Y-66135981D01*
X87785400Y-66509819D01*
X86655400Y-66509819D01*
X86581039Y-66135981D01*
X86435175Y-65783834D01*
X86223413Y-65466909D01*
X85953891Y-65197387D01*
X85636966Y-64985625D01*
X85284819Y-64839761D01*
X84910981Y-64765400D01*
X84529819Y-64765400D01*
X84155981Y-64839761D01*
X83803834Y-64985625D01*
X83486909Y-65197387D01*
X83217387Y-65466909D01*
X83005625Y-65783834D01*
X82859761Y-66135981D01*
X82785400Y-66509819D01*
X41350000Y-66509819D01*
X41350000Y-61670000D01*
X198680000Y-61670000D01*
X198680001Y-152960000D01*
G37*
%TD.AperFunction*%
%TD*%
M02*
