%TF.GenerationSoftware,KiCad,Pcbnew,5.1.10*%
%TF.CreationDate,2021-11-15T11:07:05+01:00*%
%TF.ProjectId,PCB_BLDC,5043425f-424c-4444-932e-6b696361645f,V1*%
%TF.SameCoordinates,Original*%
%TF.FileFunction,Plated,1,2,PTH,Mixed*%
%TF.FilePolarity,Positive*%
%FSLAX46Y46*%
G04 Gerber Fmt 4.6, Leading zero omitted, Abs format (unit mm)*
G04 Created by KiCad (PCBNEW 5.1.10) date 2021-11-15 11:07:05*
%MOMM*%
%LPD*%
G01*
G04 APERTURE LIST*
%TA.AperFunction,ViaDrill*%
%ADD10C,0.400000*%
%TD*%
%TA.AperFunction,ComponentDrill*%
%ADD11C,1.000000*%
%TD*%
%TA.AperFunction,ComponentDrill*%
%ADD12C,1.200000*%
%TD*%
%TA.AperFunction,ComponentDrill*%
%ADD13C,1.300000*%
%TD*%
G04 aperture for slot hole*
%TA.AperFunction,ComponentDrill*%
%ADD14C,2.000000*%
%TD*%
%TA.AperFunction,ComponentDrill*%
%ADD15C,2.100000*%
%TD*%
G04 APERTURE END LIST*
D10*
X42418000Y-77216000D03*
X42418000Y-82296000D03*
X42418000Y-87376000D03*
X42418000Y-92456000D03*
X45720000Y-63500000D03*
X45720000Y-68580000D03*
X45958000Y-84496000D03*
X47498000Y-77216000D03*
X48260000Y-66040000D03*
X50800000Y-63500000D03*
X50800000Y-68580000D03*
X51038000Y-84496000D03*
X52578000Y-77216000D03*
X53340000Y-66040000D03*
X55118000Y-94996000D03*
X55118000Y-100076000D03*
X55880000Y-63500000D03*
X55880000Y-68580000D03*
X57658000Y-77216000D03*
X57658000Y-92456000D03*
X57658000Y-97536000D03*
X57658000Y-102616000D03*
X58420000Y-66040000D03*
X58928000Y-84836000D03*
X60198000Y-94996000D03*
X60198000Y-100076000D03*
X60833000Y-82931000D03*
X60960000Y-63500000D03*
X60960000Y-68580000D03*
X62738000Y-77216000D03*
X62738000Y-84836000D03*
X62738000Y-97536000D03*
X63500000Y-66040000D03*
X66040000Y-63500000D03*
X66040000Y-68580000D03*
X68580000Y-66040000D03*
X71120000Y-63500000D03*
X71120000Y-68580000D03*
X73660000Y-66040000D03*
X81518000Y-94656000D03*
X87579200Y-149148800D03*
X88900000Y-88900000D03*
X88900000Y-93980000D03*
X88900000Y-99060000D03*
X88900000Y-104140000D03*
X88900000Y-109220000D03*
X88900000Y-114300000D03*
X91440000Y-96520000D03*
X91440000Y-101600000D03*
X91440000Y-106680000D03*
X91440000Y-111760000D03*
X92659200Y-149148800D03*
X93980000Y-88900000D03*
X93980000Y-99060000D03*
X93980000Y-104140000D03*
X93980000Y-109220000D03*
X93980000Y-114300000D03*
X97739200Y-149148800D03*
X100330000Y-106680000D03*
X100330000Y-110490000D03*
X100330000Y-114300000D03*
X101600000Y-130810000D03*
X101727000Y-95377000D03*
X102819200Y-149148800D03*
X105410000Y-130810000D03*
X106680000Y-90170000D03*
X106743500Y-94551500D03*
X108534200Y-107899200D03*
X109169200Y-98374200D03*
X109169200Y-103454200D03*
X109220000Y-130810000D03*
X109347000Y-110617000D03*
X109347000Y-115697000D03*
X110490000Y-150495000D03*
X111074200Y-120726200D03*
X112598200Y-102438200D03*
X113030000Y-130810000D03*
X113868200Y-103835200D03*
X115519200Y-102819200D03*
X115570000Y-150495000D03*
X116789200Y-105359200D03*
X116840000Y-130810000D03*
X120650000Y-130810000D03*
X120650000Y-150495000D03*
X121920000Y-99060000D03*
X121920000Y-106680000D03*
X121920000Y-111760000D03*
X123190000Y-130810000D03*
X124460000Y-66040000D03*
X124460000Y-71120000D03*
X124460000Y-76200000D03*
X124460000Y-109220000D03*
X124460000Y-114300000D03*
X124460000Y-119380000D03*
X125730000Y-130810000D03*
X125730000Y-150495000D03*
X127000000Y-63500000D03*
X127000000Y-68580000D03*
X127000000Y-73660000D03*
X127000000Y-78740000D03*
X127000000Y-106680000D03*
X127000000Y-111760000D03*
X127000000Y-116840000D03*
X127000000Y-121920000D03*
X128270000Y-130810000D03*
X129540000Y-66040000D03*
X129540000Y-71120000D03*
X129540000Y-76200000D03*
X129540000Y-93980000D03*
X129540000Y-114300000D03*
X129540000Y-119380000D03*
X130810000Y-150495000D03*
X132080000Y-63500000D03*
X132080000Y-68580000D03*
X132080000Y-73660000D03*
X134620000Y-66040000D03*
X134620000Y-71120000D03*
X134620000Y-109220000D03*
X134620000Y-111760000D03*
X134620000Y-114300000D03*
X134620000Y-145288000D03*
X134620000Y-150368000D03*
X137160000Y-63500000D03*
X137160000Y-68580000D03*
X137160000Y-83820000D03*
X137160000Y-93980000D03*
X137160000Y-147828000D03*
X139700000Y-81280000D03*
X139700000Y-145288000D03*
X139700000Y-150368000D03*
X140970000Y-90170000D03*
X142122200Y-94624200D03*
X143078200Y-100914200D03*
X143078200Y-104470200D03*
X143586200Y-106502200D03*
X143891000Y-109093000D03*
X143891000Y-114173000D03*
X144602200Y-122250200D03*
X146507200Y-102819200D03*
X147142200Y-104470200D03*
X149682200Y-103454200D03*
X150368000Y-151892000D03*
X151206200Y-105486200D03*
X152908000Y-149352000D03*
X155448000Y-146812000D03*
X155448000Y-151892000D03*
X156464000Y-112776000D03*
X156464000Y-117856000D03*
X156972000Y-122936000D03*
X156972000Y-128016000D03*
X157480000Y-104140000D03*
X157480000Y-107950000D03*
X159004000Y-115316000D03*
X159512000Y-125476000D03*
X160020000Y-63500000D03*
X160020000Y-68580000D03*
X161544000Y-112776000D03*
X161544000Y-117856000D03*
X162052000Y-122936000D03*
X162052000Y-128016000D03*
X162560000Y-66040000D03*
X162560000Y-71120000D03*
X165100000Y-63500000D03*
X165100000Y-68580000D03*
X165100000Y-73660000D03*
X165608000Y-125476000D03*
X165608000Y-130556000D03*
X166751000Y-93853000D03*
X167640000Y-66040000D03*
X167640000Y-71120000D03*
X167640000Y-106680000D03*
X167640000Y-111760000D03*
X167640000Y-116840000D03*
X168148000Y-128016000D03*
X170180000Y-63500000D03*
X170180000Y-68580000D03*
X170180000Y-73660000D03*
X170688000Y-125476000D03*
X170688000Y-130556000D03*
X171399200Y-146608800D03*
X171399200Y-151688800D03*
X172720000Y-66040000D03*
X172720000Y-71120000D03*
X172720000Y-116840000D03*
X175260000Y-63500000D03*
X175260000Y-68580000D03*
X175260000Y-73660000D03*
X175260000Y-93980000D03*
X175260000Y-96520000D03*
X175768000Y-125984000D03*
X175768000Y-131064000D03*
X176479200Y-100660200D03*
X176479200Y-103708200D03*
X176479200Y-108280200D03*
X176479200Y-146608800D03*
X176479200Y-151688800D03*
X176911000Y-111633000D03*
X176911000Y-116713000D03*
X177495200Y-123012200D03*
X177800000Y-66040000D03*
X177800000Y-71120000D03*
X178308000Y-128524000D03*
X180035200Y-102184200D03*
X180340000Y-63500000D03*
X180340000Y-68580000D03*
X180340000Y-73660000D03*
X180848000Y-125984000D03*
X180848000Y-131064000D03*
X181305200Y-102946200D03*
X182880000Y-66040000D03*
X182880000Y-71120000D03*
X183083200Y-103200200D03*
X184607200Y-103708200D03*
X185420000Y-63500000D03*
X185420000Y-68580000D03*
X185420000Y-73660000D03*
X187960000Y-66040000D03*
X187960000Y-71120000D03*
X190500000Y-63500000D03*
X190500000Y-68580000D03*
X190500000Y-73660000D03*
X191211200Y-97739200D03*
X191211200Y-102819200D03*
X191211200Y-107899200D03*
X191211200Y-112979200D03*
X191211200Y-118059200D03*
X191211200Y-123139200D03*
X193040000Y-66040000D03*
X193040000Y-71120000D03*
X195580000Y-63500000D03*
X195580000Y-68580000D03*
X195580000Y-73660000D03*
X196291200Y-97739200D03*
X196291200Y-102819200D03*
X196291200Y-107899200D03*
X196291200Y-112979200D03*
X196291200Y-118059200D03*
X196291200Y-123139200D03*
X196799200Y-146608800D03*
X196799200Y-151688800D03*
D11*
%TO.C,J4*%
X53908200Y-82718000D03*
X53908200Y-85258000D03*
%TO.C,J1*%
X62484000Y-122174000D03*
X62484000Y-132334000D03*
%TO.C,J8*%
X62484000Y-140716000D03*
X62484000Y-150876000D03*
%TO.C,SW1*%
X67878200Y-81448000D03*
X67878200Y-83948000D03*
X67878200Y-86448000D03*
%TO.C,J1*%
X72644000Y-122174000D03*
X72644000Y-132334000D03*
%TO.C,J8*%
X72644000Y-140716000D03*
X72644000Y-150876000D03*
%TO.C,J9*%
X74304400Y-107813200D03*
X74304400Y-110353200D03*
X74304400Y-112893200D03*
%TO.C,SW1*%
X82378200Y-81448000D03*
X82378200Y-86448000D03*
%TO.C,U1*%
X85979000Y-126365000D03*
X88519000Y-126365000D03*
X91059000Y-126365000D03*
%TO.C,J5*%
X97536000Y-99822000D03*
X97536000Y-102362000D03*
X97536000Y-104902000D03*
%TO.C,J10*%
X116586000Y-66294000D03*
X116586000Y-68834000D03*
X116586000Y-71374000D03*
%TO.C,J6*%
X132588000Y-99568000D03*
X132588000Y-102108000D03*
X132588000Y-104648000D03*
%TO.C,J7*%
X164592000Y-99568000D03*
X164592000Y-102108000D03*
X164592000Y-104648000D03*
D12*
%TO.C,SW2*%
X46482000Y-94688000D03*
X46482000Y-107188000D03*
X51482000Y-94688000D03*
X51482000Y-107188000D03*
D13*
%TO.C,J3*%
X79720400Y-66700400D03*
X84720400Y-66700400D03*
X89720400Y-66700400D03*
X94720400Y-66700400D03*
X99720400Y-66700400D03*
%TO.C,J2*%
X143416000Y-67564000D03*
X148416000Y-67564000D03*
X153416000Y-67564000D03*
D14*
%TO.C,SW1*%
X75628200Y-78348000D02*
X75128200Y-78348000D01*
X75628200Y-89548000D02*
X75128200Y-89548000D01*
D15*
%TO.C,J1*%
X68834000Y-127254000D03*
%TO.C,J8*%
X68834000Y-145796000D03*
M02*
