%FSLAX45Y45*%
G04 Gerber Fmt 4.5, Leading zero omitted, Abs format (unit mm)*
G04 Created by KiCad (PCBNEW 5.1.10) date 2021-11-15 11:07:09*
%MOMM*%
%LPD*%
G01*
G04 APERTURE LIST*
%TA.AperFunction,Profile*%
%ADD10C,0.150000*%
%TD*%
%ADD11C,0.200000*%
%ADD12C,0.300000*%
G04 APERTURE END LIST*
D10*
X19939000Y-6096000D02*
X19939000Y-15367000D01*
X4064000Y-15367000D02*
X4064000Y-6096000D01*
X19939000Y-15367000D02*
X4064000Y-15367000D01*
X4064000Y-6096000D02*
X19939000Y-6096000D01*
D11*
X4221800Y-7701600D02*
X4261800Y-7741600D01*
X4261800Y-7701600D02*
X4221800Y-7741600D01*
X4221800Y-8209600D02*
X4261800Y-8249600D01*
X4261800Y-8209600D02*
X4221800Y-8249600D01*
X4221800Y-8717600D02*
X4261800Y-8757600D01*
X4261800Y-8717600D02*
X4221800Y-8757600D01*
X4221800Y-9225600D02*
X4261800Y-9265600D01*
X4261800Y-9225600D02*
X4221800Y-9265600D01*
X4552000Y-6330000D02*
X4592000Y-6370000D01*
X4592000Y-6330000D02*
X4552000Y-6370000D01*
X4552000Y-6838000D02*
X4592000Y-6878000D01*
X4592000Y-6838000D02*
X4552000Y-6878000D01*
X4575800Y-8429600D02*
X4615800Y-8469600D01*
X4615800Y-8429600D02*
X4575800Y-8469600D01*
X4729800Y-7701600D02*
X4769800Y-7741600D01*
X4769800Y-7701600D02*
X4729800Y-7741600D01*
X4806000Y-6584000D02*
X4846000Y-6624000D01*
X4846000Y-6584000D02*
X4806000Y-6624000D01*
X5060000Y-6330000D02*
X5100000Y-6370000D01*
X5100000Y-6330000D02*
X5060000Y-6370000D01*
X5060000Y-6838000D02*
X5100000Y-6878000D01*
X5100000Y-6838000D02*
X5060000Y-6878000D01*
X5083800Y-8429600D02*
X5123800Y-8469600D01*
X5123800Y-8429600D02*
X5083800Y-8469600D01*
X5237800Y-7701600D02*
X5277800Y-7741600D01*
X5277800Y-7701600D02*
X5237800Y-7741600D01*
X5314000Y-6584000D02*
X5354000Y-6624000D01*
X5354000Y-6584000D02*
X5314000Y-6624000D01*
X5491800Y-9479600D02*
X5531800Y-9519600D01*
X5531800Y-9479600D02*
X5491800Y-9519600D01*
X5491800Y-9987600D02*
X5531800Y-10027600D01*
X5531800Y-9987600D02*
X5491800Y-10027600D01*
X5568000Y-6330000D02*
X5608000Y-6370000D01*
X5608000Y-6330000D02*
X5568000Y-6370000D01*
X5568000Y-6838000D02*
X5608000Y-6878000D01*
X5608000Y-6838000D02*
X5568000Y-6878000D01*
X5745800Y-7701600D02*
X5785800Y-7741600D01*
X5785800Y-7701600D02*
X5745800Y-7741600D01*
X5745800Y-9225600D02*
X5785800Y-9265600D01*
X5785800Y-9225600D02*
X5745800Y-9265600D01*
X5745800Y-9733600D02*
X5785800Y-9773600D01*
X5785800Y-9733600D02*
X5745800Y-9773600D01*
X5745800Y-10241600D02*
X5785800Y-10281600D01*
X5785800Y-10241600D02*
X5745800Y-10281600D01*
X5822000Y-6584000D02*
X5862000Y-6624000D01*
X5862000Y-6584000D02*
X5822000Y-6624000D01*
X5872800Y-8463600D02*
X5912800Y-8503600D01*
X5912800Y-8463600D02*
X5872800Y-8503600D01*
X5999800Y-9479600D02*
X6039800Y-9519600D01*
X6039800Y-9479600D02*
X5999800Y-9519600D01*
X5999800Y-9987600D02*
X6039800Y-10027600D01*
X6039800Y-9987600D02*
X5999800Y-10027600D01*
X6063300Y-8273100D02*
X6103300Y-8313100D01*
X6103300Y-8273100D02*
X6063300Y-8313100D01*
X6076000Y-6330000D02*
X6116000Y-6370000D01*
X6116000Y-6330000D02*
X6076000Y-6370000D01*
X6076000Y-6838000D02*
X6116000Y-6878000D01*
X6116000Y-6838000D02*
X6076000Y-6878000D01*
X6253800Y-7701600D02*
X6293800Y-7741600D01*
X6293800Y-7701600D02*
X6253800Y-7741600D01*
X6253800Y-8463600D02*
X6293800Y-8503600D01*
X6293800Y-8463600D02*
X6253800Y-8503600D01*
X6253800Y-9733600D02*
X6293800Y-9773600D01*
X6293800Y-9733600D02*
X6253800Y-9773600D01*
X6330000Y-6584000D02*
X6370000Y-6624000D01*
X6370000Y-6584000D02*
X6330000Y-6624000D01*
X6584000Y-6330000D02*
X6624000Y-6370000D01*
X6624000Y-6330000D02*
X6584000Y-6370000D01*
X6584000Y-6838000D02*
X6624000Y-6878000D01*
X6624000Y-6838000D02*
X6584000Y-6878000D01*
X6838000Y-6584000D02*
X6878000Y-6624000D01*
X6878000Y-6584000D02*
X6838000Y-6624000D01*
X7092000Y-6330000D02*
X7132000Y-6370000D01*
X7132000Y-6330000D02*
X7092000Y-6370000D01*
X7092000Y-6838000D02*
X7132000Y-6878000D01*
X7132000Y-6838000D02*
X7092000Y-6878000D01*
X7346000Y-6584000D02*
X7386000Y-6624000D01*
X7386000Y-6584000D02*
X7346000Y-6624000D01*
X8131800Y-9445600D02*
X8171800Y-9485600D01*
X8171800Y-9445600D02*
X8131800Y-9485600D01*
X8737920Y-14894880D02*
X8777920Y-14934880D01*
X8777920Y-14894880D02*
X8737920Y-14934880D01*
X8870000Y-8870000D02*
X8910000Y-8910000D01*
X8910000Y-8870000D02*
X8870000Y-8910000D01*
X8870000Y-9378000D02*
X8910000Y-9418000D01*
X8910000Y-9378000D02*
X8870000Y-9418000D01*
X8870000Y-9886000D02*
X8910000Y-9926000D01*
X8910000Y-9886000D02*
X8870000Y-9926000D01*
X8870000Y-10394000D02*
X8910000Y-10434000D01*
X8910000Y-10394000D02*
X8870000Y-10434000D01*
X8870000Y-10902000D02*
X8910000Y-10942000D01*
X8910000Y-10902000D02*
X8870000Y-10942000D01*
X8870000Y-11410000D02*
X8910000Y-11450000D01*
X8910000Y-11410000D02*
X8870000Y-11450000D01*
X9124000Y-9632000D02*
X9164000Y-9672000D01*
X9164000Y-9632000D02*
X9124000Y-9672000D01*
X9124000Y-10140000D02*
X9164000Y-10180000D01*
X9164000Y-10140000D02*
X9124000Y-10180000D01*
X9124000Y-10648000D02*
X9164000Y-10688000D01*
X9164000Y-10648000D02*
X9124000Y-10688000D01*
X9124000Y-11156000D02*
X9164000Y-11196000D01*
X9164000Y-11156000D02*
X9124000Y-11196000D01*
X9245920Y-14894880D02*
X9285920Y-14934880D01*
X9285920Y-14894880D02*
X9245920Y-14934880D01*
X9378000Y-8870000D02*
X9418000Y-8910000D01*
X9418000Y-8870000D02*
X9378000Y-8910000D01*
X9378000Y-9886000D02*
X9418000Y-9926000D01*
X9418000Y-9886000D02*
X9378000Y-9926000D01*
X9378000Y-10394000D02*
X9418000Y-10434000D01*
X9418000Y-10394000D02*
X9378000Y-10434000D01*
X9378000Y-10902000D02*
X9418000Y-10942000D01*
X9418000Y-10902000D02*
X9378000Y-10942000D01*
X9378000Y-11410000D02*
X9418000Y-11450000D01*
X9418000Y-11410000D02*
X9378000Y-11450000D01*
X9753920Y-14894880D02*
X9793920Y-14934880D01*
X9793920Y-14894880D02*
X9753920Y-14934880D01*
X10013000Y-10648000D02*
X10053000Y-10688000D01*
X10053000Y-10648000D02*
X10013000Y-10688000D01*
X10013000Y-11029000D02*
X10053000Y-11069000D01*
X10053000Y-11029000D02*
X10013000Y-11069000D01*
X10013000Y-11410000D02*
X10053000Y-11450000D01*
X10053000Y-11410000D02*
X10013000Y-11450000D01*
X10140000Y-13061000D02*
X10180000Y-13101000D01*
X10180000Y-13061000D02*
X10140000Y-13101000D01*
X10152700Y-9517700D02*
X10192700Y-9557700D01*
X10192700Y-9517700D02*
X10152700Y-9557700D01*
X10261920Y-14894880D02*
X10301920Y-14934880D01*
X10301920Y-14894880D02*
X10261920Y-14934880D01*
X10521000Y-13061000D02*
X10561000Y-13101000D01*
X10561000Y-13061000D02*
X10521000Y-13101000D01*
X10648000Y-8997000D02*
X10688000Y-9037000D01*
X10688000Y-8997000D02*
X10648000Y-9037000D01*
X10654350Y-9435150D02*
X10694350Y-9475150D01*
X10694350Y-9435150D02*
X10654350Y-9475150D01*
X10833420Y-10769920D02*
X10873420Y-10809920D01*
X10873420Y-10769920D02*
X10833420Y-10809920D01*
X10896920Y-9817420D02*
X10936920Y-9857420D01*
X10936920Y-9817420D02*
X10896920Y-9857420D01*
X10896920Y-10325420D02*
X10936920Y-10365420D01*
X10936920Y-10325420D02*
X10896920Y-10365420D01*
X10902000Y-13061000D02*
X10942000Y-13101000D01*
X10942000Y-13061000D02*
X10902000Y-13101000D01*
X10914700Y-11041700D02*
X10954700Y-11081700D01*
X10954700Y-11041700D02*
X10914700Y-11081700D01*
X10914700Y-11549700D02*
X10954700Y-11589700D01*
X10954700Y-11549700D02*
X10914700Y-11589700D01*
X11029000Y-15029500D02*
X11069000Y-15069500D01*
X11069000Y-15029500D02*
X11029000Y-15069500D01*
X11087420Y-12052620D02*
X11127420Y-12092620D01*
X11127420Y-12052620D02*
X11087420Y-12092620D01*
X11239820Y-10223820D02*
X11279820Y-10263820D01*
X11279820Y-10223820D02*
X11239820Y-10263820D01*
X11283000Y-13061000D02*
X11323000Y-13101000D01*
X11323000Y-13061000D02*
X11283000Y-13101000D01*
X11366820Y-10363520D02*
X11406820Y-10403520D01*
X11406820Y-10363520D02*
X11366820Y-10403520D01*
X11531920Y-10261920D02*
X11571920Y-10301920D01*
X11571920Y-10261920D02*
X11531920Y-10301920D01*
X11537000Y-15029500D02*
X11577000Y-15069500D01*
X11577000Y-15029500D02*
X11537000Y-15069500D01*
X11658920Y-10515920D02*
X11698920Y-10555920D01*
X11698920Y-10515920D02*
X11658920Y-10555920D01*
X11664000Y-13061000D02*
X11704000Y-13101000D01*
X11704000Y-13061000D02*
X11664000Y-13101000D01*
X12045000Y-13061000D02*
X12085000Y-13101000D01*
X12085000Y-13061000D02*
X12045000Y-13101000D01*
X12045000Y-15029500D02*
X12085000Y-15069500D01*
X12085000Y-15029500D02*
X12045000Y-15069500D01*
X12172000Y-9886000D02*
X12212000Y-9926000D01*
X12212000Y-9886000D02*
X12172000Y-9926000D01*
X12172000Y-10648000D02*
X12212000Y-10688000D01*
X12212000Y-10648000D02*
X12172000Y-10688000D01*
X12172000Y-11156000D02*
X12212000Y-11196000D01*
X12212000Y-11156000D02*
X12172000Y-11196000D01*
X12299000Y-13061000D02*
X12339000Y-13101000D01*
X12339000Y-13061000D02*
X12299000Y-13101000D01*
X12426000Y-6584000D02*
X12466000Y-6624000D01*
X12466000Y-6584000D02*
X12426000Y-6624000D01*
X12426000Y-7092000D02*
X12466000Y-7132000D01*
X12466000Y-7092000D02*
X12426000Y-7132000D01*
X12426000Y-7600000D02*
X12466000Y-7640000D01*
X12466000Y-7600000D02*
X12426000Y-7640000D01*
X12426000Y-10902000D02*
X12466000Y-10942000D01*
X12466000Y-10902000D02*
X12426000Y-10942000D01*
X12426000Y-11410000D02*
X12466000Y-11450000D01*
X12466000Y-11410000D02*
X12426000Y-11450000D01*
X12426000Y-11918000D02*
X12466000Y-11958000D01*
X12466000Y-11918000D02*
X12426000Y-11958000D01*
X12553000Y-13061000D02*
X12593000Y-13101000D01*
X12593000Y-13061000D02*
X12553000Y-13101000D01*
X12553000Y-15029500D02*
X12593000Y-15069500D01*
X12593000Y-15029500D02*
X12553000Y-15069500D01*
X12680000Y-6330000D02*
X12720000Y-6370000D01*
X12720000Y-6330000D02*
X12680000Y-6370000D01*
X12680000Y-6838000D02*
X12720000Y-6878000D01*
X12720000Y-6838000D02*
X12680000Y-6878000D01*
X12680000Y-7346000D02*
X12720000Y-7386000D01*
X12720000Y-7346000D02*
X12680000Y-7386000D01*
X12680000Y-7854000D02*
X12720000Y-7894000D01*
X12720000Y-7854000D02*
X12680000Y-7894000D01*
X12680000Y-10648000D02*
X12720000Y-10688000D01*
X12720000Y-10648000D02*
X12680000Y-10688000D01*
X12680000Y-11156000D02*
X12720000Y-11196000D01*
X12720000Y-11156000D02*
X12680000Y-11196000D01*
X12680000Y-11664000D02*
X12720000Y-11704000D01*
X12720000Y-11664000D02*
X12680000Y-11704000D01*
X12680000Y-12172000D02*
X12720000Y-12212000D01*
X12720000Y-12172000D02*
X12680000Y-12212000D01*
X12807000Y-13061000D02*
X12847000Y-13101000D01*
X12847000Y-13061000D02*
X12807000Y-13101000D01*
X12934000Y-6584000D02*
X12974000Y-6624000D01*
X12974000Y-6584000D02*
X12934000Y-6624000D01*
X12934000Y-7092000D02*
X12974000Y-7132000D01*
X12974000Y-7092000D02*
X12934000Y-7132000D01*
X12934000Y-7600000D02*
X12974000Y-7640000D01*
X12974000Y-7600000D02*
X12934000Y-7640000D01*
X12934000Y-9378000D02*
X12974000Y-9418000D01*
X12974000Y-9378000D02*
X12934000Y-9418000D01*
X12934000Y-11410000D02*
X12974000Y-11450000D01*
X12974000Y-11410000D02*
X12934000Y-11450000D01*
X12934000Y-11918000D02*
X12974000Y-11958000D01*
X12974000Y-11918000D02*
X12934000Y-11958000D01*
X13061000Y-15029500D02*
X13101000Y-15069500D01*
X13101000Y-15029500D02*
X13061000Y-15069500D01*
X13188000Y-6330000D02*
X13228000Y-6370000D01*
X13228000Y-6330000D02*
X13188000Y-6370000D01*
X13188000Y-6838000D02*
X13228000Y-6878000D01*
X13228000Y-6838000D02*
X13188000Y-6878000D01*
X13188000Y-7346000D02*
X13228000Y-7386000D01*
X13228000Y-7346000D02*
X13188000Y-7386000D01*
X13442000Y-6584000D02*
X13482000Y-6624000D01*
X13482000Y-6584000D02*
X13442000Y-6624000D01*
X13442000Y-7092000D02*
X13482000Y-7132000D01*
X13482000Y-7092000D02*
X13442000Y-7132000D01*
X13442000Y-10902000D02*
X13482000Y-10942000D01*
X13482000Y-10902000D02*
X13442000Y-10942000D01*
X13442000Y-11156000D02*
X13482000Y-11196000D01*
X13482000Y-11156000D02*
X13442000Y-11196000D01*
X13442000Y-11410000D02*
X13482000Y-11450000D01*
X13482000Y-11410000D02*
X13442000Y-11450000D01*
X13442000Y-14508800D02*
X13482000Y-14548800D01*
X13482000Y-14508800D02*
X13442000Y-14548800D01*
X13442000Y-15016800D02*
X13482000Y-15056800D01*
X13482000Y-15016800D02*
X13442000Y-15056800D01*
X13696000Y-6330000D02*
X13736000Y-6370000D01*
X13736000Y-6330000D02*
X13696000Y-6370000D01*
X13696000Y-6838000D02*
X13736000Y-6878000D01*
X13736000Y-6838000D02*
X13696000Y-6878000D01*
X13696000Y-8362000D02*
X13736000Y-8402000D01*
X13736000Y-8362000D02*
X13696000Y-8402000D01*
X13696000Y-9378000D02*
X13736000Y-9418000D01*
X13736000Y-9378000D02*
X13696000Y-9418000D01*
X13696000Y-14762800D02*
X13736000Y-14802800D01*
X13736000Y-14762800D02*
X13696000Y-14802800D01*
X13950000Y-8108000D02*
X13990000Y-8148000D01*
X13990000Y-8108000D02*
X13950000Y-8148000D01*
X13950000Y-14508800D02*
X13990000Y-14548800D01*
X13990000Y-14508800D02*
X13950000Y-14548800D01*
X13950000Y-15016800D02*
X13990000Y-15056800D01*
X13990000Y-15016800D02*
X13950000Y-15056800D01*
X14077000Y-8997000D02*
X14117000Y-9037000D01*
X14117000Y-8997000D02*
X14077000Y-9037000D01*
X14192220Y-9442420D02*
X14232220Y-9482420D01*
X14232220Y-9442420D02*
X14192220Y-9482420D01*
X14287820Y-10071420D02*
X14327820Y-10111420D01*
X14327820Y-10071420D02*
X14287820Y-10111420D01*
X14287820Y-10427020D02*
X14327820Y-10467020D01*
X14327820Y-10427020D02*
X14287820Y-10467020D01*
X14338620Y-10630220D02*
X14378620Y-10670220D01*
X14378620Y-10630220D02*
X14338620Y-10670220D01*
X14369100Y-10889300D02*
X14409100Y-10929300D01*
X14409100Y-10889300D02*
X14369100Y-10929300D01*
X14369100Y-11397300D02*
X14409100Y-11437300D01*
X14409100Y-11397300D02*
X14369100Y-11437300D01*
X14440220Y-12205020D02*
X14480220Y-12245020D01*
X14480220Y-12205020D02*
X14440220Y-12245020D01*
X14630720Y-10261920D02*
X14670720Y-10301920D01*
X14670720Y-10261920D02*
X14630720Y-10301920D01*
X14694220Y-10427020D02*
X14734220Y-10467020D01*
X14734220Y-10427020D02*
X14694220Y-10467020D01*
X14948220Y-10325420D02*
X14988220Y-10365420D01*
X14988220Y-10325420D02*
X14948220Y-10365420D01*
X15016800Y-15169200D02*
X15056800Y-15209200D01*
X15056800Y-15169200D02*
X15016800Y-15209200D01*
X15100620Y-10528620D02*
X15140620Y-10568620D01*
X15140620Y-10528620D02*
X15100620Y-10568620D01*
X15270800Y-14915200D02*
X15310800Y-14955200D01*
X15310800Y-14915200D02*
X15270800Y-14955200D01*
X15524800Y-14661200D02*
X15564800Y-14701200D01*
X15564800Y-14661200D02*
X15524800Y-14701200D01*
X15524800Y-15169200D02*
X15564800Y-15209200D01*
X15564800Y-15169200D02*
X15524800Y-15209200D01*
X15626400Y-11257600D02*
X15666400Y-11297600D01*
X15666400Y-11257600D02*
X15626400Y-11297600D01*
X15626400Y-11765600D02*
X15666400Y-11805600D01*
X15666400Y-11765600D02*
X15626400Y-11805600D01*
X15677200Y-12273600D02*
X15717200Y-12313600D01*
X15717200Y-12273600D02*
X15677200Y-12313600D01*
X15677200Y-12781600D02*
X15717200Y-12821600D01*
X15717200Y-12781600D02*
X15677200Y-12821600D01*
X15728000Y-10394000D02*
X15768000Y-10434000D01*
X15768000Y-10394000D02*
X15728000Y-10434000D01*
X15728000Y-10775000D02*
X15768000Y-10815000D01*
X15768000Y-10775000D02*
X15728000Y-10815000D01*
X15880400Y-11511600D02*
X15920400Y-11551600D01*
X15920400Y-11511600D02*
X15880400Y-11551600D01*
X15931200Y-12527600D02*
X15971200Y-12567600D01*
X15971200Y-12527600D02*
X15931200Y-12567600D01*
X15982000Y-6330000D02*
X16022000Y-6370000D01*
X16022000Y-6330000D02*
X15982000Y-6370000D01*
X15982000Y-6838000D02*
X16022000Y-6878000D01*
X16022000Y-6838000D02*
X15982000Y-6878000D01*
X16134400Y-11257600D02*
X16174400Y-11297600D01*
X16174400Y-11257600D02*
X16134400Y-11297600D01*
X16134400Y-11765600D02*
X16174400Y-11805600D01*
X16174400Y-11765600D02*
X16134400Y-11805600D01*
X16185200Y-12273600D02*
X16225200Y-12313600D01*
X16225200Y-12273600D02*
X16185200Y-12313600D01*
X16185200Y-12781600D02*
X16225200Y-12821600D01*
X16225200Y-12781600D02*
X16185200Y-12821600D01*
X16236000Y-6584000D02*
X16276000Y-6624000D01*
X16276000Y-6584000D02*
X16236000Y-6624000D01*
X16236000Y-7092000D02*
X16276000Y-7132000D01*
X16276000Y-7092000D02*
X16236000Y-7132000D01*
X16490000Y-6330000D02*
X16530000Y-6370000D01*
X16530000Y-6330000D02*
X16490000Y-6370000D01*
X16490000Y-6838000D02*
X16530000Y-6878000D01*
X16530000Y-6838000D02*
X16490000Y-6878000D01*
X16490000Y-7346000D02*
X16530000Y-7386000D01*
X16530000Y-7346000D02*
X16490000Y-7386000D01*
X16540800Y-12527600D02*
X16580800Y-12567600D01*
X16580800Y-12527600D02*
X16540800Y-12567600D01*
X16540800Y-13035600D02*
X16580800Y-13075600D01*
X16580800Y-13035600D02*
X16540800Y-13075600D01*
X16655100Y-9365300D02*
X16695100Y-9405300D01*
X16695100Y-9365300D02*
X16655100Y-9405300D01*
X16744000Y-6584000D02*
X16784000Y-6624000D01*
X16784000Y-6584000D02*
X16744000Y-6624000D01*
X16744000Y-7092000D02*
X16784000Y-7132000D01*
X16784000Y-7092000D02*
X16744000Y-7132000D01*
X16744000Y-10648000D02*
X16784000Y-10688000D01*
X16784000Y-10648000D02*
X16744000Y-10688000D01*
X16744000Y-11156000D02*
X16784000Y-11196000D01*
X16784000Y-11156000D02*
X16744000Y-11196000D01*
X16744000Y-11664000D02*
X16784000Y-11704000D01*
X16784000Y-11664000D02*
X16744000Y-11704000D01*
X16794800Y-12781600D02*
X16834800Y-12821600D01*
X16834800Y-12781600D02*
X16794800Y-12821600D01*
X16998000Y-6330000D02*
X17038000Y-6370000D01*
X17038000Y-6330000D02*
X16998000Y-6370000D01*
X16998000Y-6838000D02*
X17038000Y-6878000D01*
X17038000Y-6838000D02*
X16998000Y-6878000D01*
X16998000Y-7346000D02*
X17038000Y-7386000D01*
X17038000Y-7346000D02*
X16998000Y-7386000D01*
X17048800Y-12527600D02*
X17088800Y-12567600D01*
X17088800Y-12527600D02*
X17048800Y-12567600D01*
X17048800Y-13035600D02*
X17088800Y-13075600D01*
X17088800Y-13035600D02*
X17048800Y-13075600D01*
X17119920Y-14640880D02*
X17159920Y-14680880D01*
X17159920Y-14640880D02*
X17119920Y-14680880D01*
X17119920Y-15148880D02*
X17159920Y-15188880D01*
X17159920Y-15148880D02*
X17119920Y-15188880D01*
X17252000Y-6584000D02*
X17292000Y-6624000D01*
X17292000Y-6584000D02*
X17252000Y-6624000D01*
X17252000Y-7092000D02*
X17292000Y-7132000D01*
X17292000Y-7092000D02*
X17252000Y-7132000D01*
X17252000Y-11664000D02*
X17292000Y-11704000D01*
X17292000Y-11664000D02*
X17252000Y-11704000D01*
X17506000Y-6330000D02*
X17546000Y-6370000D01*
X17546000Y-6330000D02*
X17506000Y-6370000D01*
X17506000Y-6838000D02*
X17546000Y-6878000D01*
X17546000Y-6838000D02*
X17506000Y-6878000D01*
X17506000Y-7346000D02*
X17546000Y-7386000D01*
X17546000Y-7346000D02*
X17506000Y-7386000D01*
X17506000Y-9378000D02*
X17546000Y-9418000D01*
X17546000Y-9378000D02*
X17506000Y-9418000D01*
X17506000Y-9632000D02*
X17546000Y-9672000D01*
X17546000Y-9632000D02*
X17506000Y-9672000D01*
X17556800Y-12578400D02*
X17596800Y-12618400D01*
X17596800Y-12578400D02*
X17556800Y-12618400D01*
X17556800Y-13086400D02*
X17596800Y-13126400D01*
X17596800Y-13086400D02*
X17556800Y-13126400D01*
X17627920Y-10046020D02*
X17667920Y-10086020D01*
X17667920Y-10046020D02*
X17627920Y-10086020D01*
X17627920Y-10350820D02*
X17667920Y-10390820D01*
X17667920Y-10350820D02*
X17627920Y-10390820D01*
X17627920Y-10808020D02*
X17667920Y-10848020D01*
X17667920Y-10808020D02*
X17627920Y-10848020D01*
X17627920Y-14640880D02*
X17667920Y-14680880D01*
X17667920Y-14640880D02*
X17627920Y-14680880D01*
X17627920Y-15148880D02*
X17667920Y-15188880D01*
X17667920Y-15148880D02*
X17627920Y-15188880D01*
X17671100Y-11143300D02*
X17711100Y-11183300D01*
X17711100Y-11143300D02*
X17671100Y-11183300D01*
X17671100Y-11651300D02*
X17711100Y-11691300D01*
X17711100Y-11651300D02*
X17671100Y-11691300D01*
X17729520Y-12281220D02*
X17769520Y-12321220D01*
X17769520Y-12281220D02*
X17729520Y-12321220D01*
X17760000Y-6584000D02*
X17800000Y-6624000D01*
X17800000Y-6584000D02*
X17760000Y-6624000D01*
X17760000Y-7092000D02*
X17800000Y-7132000D01*
X17800000Y-7092000D02*
X17760000Y-7132000D01*
X17810800Y-12832400D02*
X17850800Y-12872400D01*
X17850800Y-12832400D02*
X17810800Y-12872400D01*
X17983520Y-10198420D02*
X18023520Y-10238420D01*
X18023520Y-10198420D02*
X17983520Y-10238420D01*
X18014000Y-6330000D02*
X18054000Y-6370000D01*
X18054000Y-6330000D02*
X18014000Y-6370000D01*
X18014000Y-6838000D02*
X18054000Y-6878000D01*
X18054000Y-6838000D02*
X18014000Y-6878000D01*
X18014000Y-7346000D02*
X18054000Y-7386000D01*
X18054000Y-7346000D02*
X18014000Y-7386000D01*
X18064800Y-12578400D02*
X18104800Y-12618400D01*
X18104800Y-12578400D02*
X18064800Y-12618400D01*
X18064800Y-13086400D02*
X18104800Y-13126400D01*
X18104800Y-13086400D02*
X18064800Y-13126400D01*
X18110520Y-10274620D02*
X18150520Y-10314620D01*
X18150520Y-10274620D02*
X18110520Y-10314620D01*
X18268000Y-6584000D02*
X18308000Y-6624000D01*
X18308000Y-6584000D02*
X18268000Y-6624000D01*
X18268000Y-7092000D02*
X18308000Y-7132000D01*
X18308000Y-7092000D02*
X18268000Y-7132000D01*
X18288320Y-10300020D02*
X18328320Y-10340020D01*
X18328320Y-10300020D02*
X18288320Y-10340020D01*
X18440720Y-10350820D02*
X18480720Y-10390820D01*
X18480720Y-10350820D02*
X18440720Y-10390820D01*
X18522000Y-6330000D02*
X18562000Y-6370000D01*
X18562000Y-6330000D02*
X18522000Y-6370000D01*
X18522000Y-6838000D02*
X18562000Y-6878000D01*
X18562000Y-6838000D02*
X18522000Y-6878000D01*
X18522000Y-7346000D02*
X18562000Y-7386000D01*
X18562000Y-7346000D02*
X18522000Y-7386000D01*
X18776000Y-6584000D02*
X18816000Y-6624000D01*
X18816000Y-6584000D02*
X18776000Y-6624000D01*
X18776000Y-7092000D02*
X18816000Y-7132000D01*
X18816000Y-7092000D02*
X18776000Y-7132000D01*
X19030000Y-6330000D02*
X19070000Y-6370000D01*
X19070000Y-6330000D02*
X19030000Y-6370000D01*
X19030000Y-6838000D02*
X19070000Y-6878000D01*
X19070000Y-6838000D02*
X19030000Y-6878000D01*
X19030000Y-7346000D02*
X19070000Y-7386000D01*
X19070000Y-7346000D02*
X19030000Y-7386000D01*
X19101120Y-9753920D02*
X19141120Y-9793920D01*
X19141120Y-9753920D02*
X19101120Y-9793920D01*
X19101120Y-10261920D02*
X19141120Y-10301920D01*
X19141120Y-10261920D02*
X19101120Y-10301920D01*
X19101120Y-10769920D02*
X19141120Y-10809920D01*
X19141120Y-10769920D02*
X19101120Y-10809920D01*
X19101120Y-11277920D02*
X19141120Y-11317920D01*
X19141120Y-11277920D02*
X19101120Y-11317920D01*
X19101120Y-11785920D02*
X19141120Y-11825920D01*
X19141120Y-11785920D02*
X19101120Y-11825920D01*
X19101120Y-12293920D02*
X19141120Y-12333920D01*
X19141120Y-12293920D02*
X19101120Y-12333920D01*
X19284000Y-6584000D02*
X19324000Y-6624000D01*
X19324000Y-6584000D02*
X19284000Y-6624000D01*
X19284000Y-7092000D02*
X19324000Y-7132000D01*
X19324000Y-7092000D02*
X19284000Y-7132000D01*
X19538000Y-6330000D02*
X19578000Y-6370000D01*
X19578000Y-6330000D02*
X19538000Y-6370000D01*
X19538000Y-6838000D02*
X19578000Y-6878000D01*
X19578000Y-6838000D02*
X19538000Y-6878000D01*
X19538000Y-7346000D02*
X19578000Y-7386000D01*
X19578000Y-7346000D02*
X19538000Y-7386000D01*
X19609120Y-9753920D02*
X19649120Y-9793920D01*
X19649120Y-9753920D02*
X19609120Y-9793920D01*
X19609120Y-10261920D02*
X19649120Y-10301920D01*
X19649120Y-10261920D02*
X19609120Y-10301920D01*
X19609120Y-10769920D02*
X19649120Y-10809920D01*
X19649120Y-10769920D02*
X19609120Y-10809920D01*
X19609120Y-11277920D02*
X19649120Y-11317920D01*
X19649120Y-11277920D02*
X19609120Y-11317920D01*
X19609120Y-11785920D02*
X19649120Y-11825920D01*
X19649120Y-11785920D02*
X19609120Y-11825920D01*
X19609120Y-12293920D02*
X19649120Y-12333920D01*
X19649120Y-12293920D02*
X19609120Y-12333920D01*
X19659920Y-14640880D02*
X19699920Y-14680880D01*
X19699920Y-14640880D02*
X19659920Y-14680880D01*
X19659920Y-15148880D02*
X19699920Y-15188880D01*
X19699920Y-15148880D02*
X19659920Y-15188880D01*
X5440820Y-8271800D02*
G75*
G03*
X5440820Y-8271800I-50000J0D01*
G01*
X5440820Y-8525800D02*
G75*
G03*
X5440820Y-8525800I-50000J0D01*
G01*
X6298400Y-12217400D02*
G75*
G03*
X6298400Y-12217400I-50000J0D01*
G01*
X6298400Y-13233400D02*
G75*
G03*
X6298400Y-13233400I-50000J0D01*
G01*
X6298400Y-14071600D02*
G75*
G03*
X6298400Y-14071600I-50000J0D01*
G01*
X6298400Y-15087600D02*
G75*
G03*
X6298400Y-15087600I-50000J0D01*
G01*
X6837820Y-8144800D02*
G75*
G03*
X6837820Y-8144800I-50000J0D01*
G01*
X6837820Y-8394800D02*
G75*
G03*
X6837820Y-8394800I-50000J0D01*
G01*
X6837820Y-8644800D02*
G75*
G03*
X6837820Y-8644800I-50000J0D01*
G01*
X7314400Y-12217400D02*
G75*
G03*
X7314400Y-12217400I-50000J0D01*
G01*
X7314400Y-13233400D02*
G75*
G03*
X7314400Y-13233400I-50000J0D01*
G01*
X7314400Y-14071600D02*
G75*
G03*
X7314400Y-14071600I-50000J0D01*
G01*
X7314400Y-15087600D02*
G75*
G03*
X7314400Y-15087600I-50000J0D01*
G01*
X7480440Y-10781320D02*
G75*
G03*
X7480440Y-10781320I-50000J0D01*
G01*
X7480440Y-11035320D02*
G75*
G03*
X7480440Y-11035320I-50000J0D01*
G01*
X7480440Y-11289320D02*
G75*
G03*
X7480440Y-11289320I-50000J0D01*
G01*
X8287820Y-8144800D02*
G75*
G03*
X8287820Y-8144800I-50000J0D01*
G01*
X8287820Y-8644800D02*
G75*
G03*
X8287820Y-8644800I-50000J0D01*
G01*
X8647900Y-12636500D02*
G75*
G03*
X8647900Y-12636500I-50000J0D01*
G01*
X8901900Y-12636500D02*
G75*
G03*
X8901900Y-12636500I-50000J0D01*
G01*
X9155900Y-12636500D02*
G75*
G03*
X9155900Y-12636500I-50000J0D01*
G01*
X9803600Y-9982200D02*
G75*
G03*
X9803600Y-9982200I-50000J0D01*
G01*
X9803600Y-10236200D02*
G75*
G03*
X9803600Y-10236200I-50000J0D01*
G01*
X9803600Y-10490200D02*
G75*
G03*
X9803600Y-10490200I-50000J0D01*
G01*
X11708600Y-6629400D02*
G75*
G03*
X11708600Y-6629400I-50000J0D01*
G01*
X11708600Y-6883400D02*
G75*
G03*
X11708600Y-6883400I-50000J0D01*
G01*
X11708600Y-7137400D02*
G75*
G03*
X11708600Y-7137400I-50000J0D01*
G01*
X13308800Y-9956800D02*
G75*
G03*
X13308800Y-9956800I-50000J0D01*
G01*
X13308800Y-10210800D02*
G75*
G03*
X13308800Y-10210800I-50000J0D01*
G01*
X13308800Y-10464800D02*
G75*
G03*
X13308800Y-10464800I-50000J0D01*
G01*
X16509200Y-9956800D02*
G75*
G03*
X16509200Y-9956800I-50000J0D01*
G01*
X16509200Y-10210800D02*
G75*
G03*
X16509200Y-10210800I-50000J0D01*
G01*
X16509200Y-10464800D02*
G75*
G03*
X16509200Y-10464800I-50000J0D01*
G01*
X4648200Y-9408800D02*
X4648200Y-9528800D01*
X4588200Y-9468800D02*
X4708200Y-9468800D01*
X4648200Y-10658800D02*
X4648200Y-10778800D01*
X4588200Y-10718800D02*
X4708200Y-10718800D01*
X5148200Y-9408800D02*
X5148200Y-9528800D01*
X5088200Y-9468800D02*
X5208200Y-9468800D01*
X5148200Y-10658800D02*
X5148200Y-10778800D01*
X5088200Y-10718800D02*
X5208200Y-10718800D01*
X8018002Y-6716002D02*
X8018002Y-6624078D01*
X7926078Y-6624078D01*
X7926078Y-6716002D01*
X8018002Y-6716002D01*
X8518002Y-6716002D02*
X8518002Y-6624078D01*
X8426078Y-6624078D01*
X8426078Y-6716002D01*
X8518002Y-6716002D01*
X9018002Y-6716002D02*
X9018002Y-6624078D01*
X8926078Y-6624078D01*
X8926078Y-6716002D01*
X9018002Y-6716002D01*
X9518002Y-6716002D02*
X9518002Y-6624078D01*
X9426078Y-6624078D01*
X9426078Y-6716002D01*
X9518002Y-6716002D01*
X10018002Y-6716002D02*
X10018002Y-6624078D01*
X9926078Y-6624078D01*
X9926078Y-6716002D01*
X10018002Y-6716002D01*
X14387562Y-6802362D02*
X14387562Y-6710438D01*
X14295638Y-6710438D01*
X14295638Y-6802362D01*
X14387562Y-6802362D01*
X14887562Y-6802362D02*
X14887562Y-6710438D01*
X14795638Y-6710438D01*
X14795638Y-6802362D01*
X14887562Y-6802362D01*
X15387562Y-6802362D02*
X15387562Y-6710438D01*
X15295638Y-6710438D01*
X15295638Y-6802362D01*
X15387562Y-6802362D01*
X7537820Y-7934800D02*
X7637820Y-7834800D01*
X7537820Y-7734800D01*
X7437820Y-7834800D01*
X7537820Y-7934800D01*
X7512820Y-7924800D02*
X7562820Y-7924800D01*
X7512820Y-7744800D02*
X7562820Y-7744800D01*
X7562820Y-7924800D02*
G75*
G03*
X7562820Y-7744800I0J90000D01*
G01*
X7512820Y-7744800D02*
G75*
G03*
X7512820Y-7924800I0J-90000D01*
G01*
X7537820Y-9054800D02*
X7637820Y-8954800D01*
X7537820Y-8854800D01*
X7437820Y-8954800D01*
X7537820Y-9054800D01*
X7512820Y-9044800D02*
X7562820Y-9044800D01*
X7512820Y-8864800D02*
X7562820Y-8864800D01*
X7562820Y-9044800D02*
G75*
G03*
X7562820Y-8864800I0J90000D01*
G01*
X7512820Y-8864800D02*
G75*
G03*
X7512820Y-9044800I0J-90000D01*
G01*
X6778400Y-12620400D02*
X6988400Y-12830400D01*
X6988400Y-12620400D02*
X6778400Y-12830400D01*
X6988400Y-12725400D02*
G75*
G03*
X6988400Y-12725400I-105000J0D01*
G01*
X6778400Y-14474600D02*
X6988400Y-14684600D01*
X6988400Y-14474600D02*
X6778400Y-14684600D01*
X6988400Y-14579600D02*
G75*
G03*
X6988400Y-14579600I-105000J0D01*
G01*
D12*
X4342928Y-15840214D02*
X4342928Y-15540214D01*
X4414357Y-15540214D01*
X4457214Y-15554500D01*
X4485786Y-15583071D01*
X4500071Y-15611643D01*
X4514357Y-15668786D01*
X4514357Y-15711643D01*
X4500071Y-15768786D01*
X4485786Y-15797357D01*
X4457214Y-15825929D01*
X4414357Y-15840214D01*
X4342928Y-15840214D01*
X4642928Y-15840214D02*
X4642928Y-15640214D01*
X4642928Y-15697357D02*
X4657214Y-15668786D01*
X4671500Y-15654500D01*
X4700071Y-15640214D01*
X4728643Y-15640214D01*
X4828643Y-15840214D02*
X4828643Y-15640214D01*
X4828643Y-15540214D02*
X4814357Y-15554500D01*
X4828643Y-15568786D01*
X4842928Y-15554500D01*
X4828643Y-15540214D01*
X4828643Y-15568786D01*
X5014357Y-15840214D02*
X4985786Y-15825929D01*
X4971500Y-15797357D01*
X4971500Y-15540214D01*
X5171500Y-15840214D02*
X5142928Y-15825929D01*
X5128643Y-15797357D01*
X5128643Y-15540214D01*
X5514357Y-15840214D02*
X5514357Y-15540214D01*
X5614357Y-15754500D01*
X5714357Y-15540214D01*
X5714357Y-15840214D01*
X5985786Y-15840214D02*
X5985786Y-15683071D01*
X5971500Y-15654500D01*
X5942928Y-15640214D01*
X5885786Y-15640214D01*
X5857214Y-15654500D01*
X5985786Y-15825929D02*
X5957214Y-15840214D01*
X5885786Y-15840214D01*
X5857214Y-15825929D01*
X5842928Y-15797357D01*
X5842928Y-15768786D01*
X5857214Y-15740214D01*
X5885786Y-15725929D01*
X5957214Y-15725929D01*
X5985786Y-15711643D01*
X6128643Y-15640214D02*
X6128643Y-15940214D01*
X6128643Y-15654500D02*
X6157214Y-15640214D01*
X6214357Y-15640214D01*
X6242928Y-15654500D01*
X6257214Y-15668786D01*
X6271500Y-15697357D01*
X6271500Y-15783071D01*
X6257214Y-15811643D01*
X6242928Y-15825929D01*
X6214357Y-15840214D01*
X6157214Y-15840214D01*
X6128643Y-15825929D01*
X6400071Y-15811643D02*
X6414357Y-15825929D01*
X6400071Y-15840214D01*
X6385786Y-15825929D01*
X6400071Y-15811643D01*
X6400071Y-15840214D01*
X6400071Y-15654500D02*
X6414357Y-15668786D01*
X6400071Y-15683071D01*
X6385786Y-15668786D01*
X6400071Y-15654500D01*
X6400071Y-15683071D01*
X4016500Y-16314500D02*
X4056500Y-16354500D01*
X4056500Y-16314500D02*
X4016500Y-16354500D01*
X4400071Y-16170214D02*
X4428643Y-16170214D01*
X4457214Y-16184500D01*
X4471500Y-16198786D01*
X4485786Y-16227357D01*
X4500071Y-16284500D01*
X4500071Y-16355929D01*
X4485786Y-16413071D01*
X4471500Y-16441643D01*
X4457214Y-16455929D01*
X4428643Y-16470214D01*
X4400071Y-16470214D01*
X4371500Y-16455929D01*
X4357214Y-16441643D01*
X4342928Y-16413071D01*
X4328643Y-16355929D01*
X4328643Y-16284500D01*
X4342928Y-16227357D01*
X4357214Y-16198786D01*
X4371500Y-16184500D01*
X4400071Y-16170214D01*
X4628643Y-16441643D02*
X4642928Y-16455929D01*
X4628643Y-16470214D01*
X4614357Y-16455929D01*
X4628643Y-16441643D01*
X4628643Y-16470214D01*
X4900071Y-16270214D02*
X4900071Y-16470214D01*
X4828643Y-16155929D02*
X4757214Y-16370214D01*
X4942928Y-16370214D01*
X5114357Y-16170214D02*
X5142928Y-16170214D01*
X5171500Y-16184500D01*
X5185786Y-16198786D01*
X5200071Y-16227357D01*
X5214357Y-16284500D01*
X5214357Y-16355929D01*
X5200071Y-16413071D01*
X5185786Y-16441643D01*
X5171500Y-16455929D01*
X5142928Y-16470214D01*
X5114357Y-16470214D01*
X5085786Y-16455929D01*
X5071500Y-16441643D01*
X5057214Y-16413071D01*
X5042928Y-16355929D01*
X5042928Y-16284500D01*
X5057214Y-16227357D01*
X5071500Y-16198786D01*
X5085786Y-16184500D01*
X5114357Y-16170214D01*
X5400071Y-16170214D02*
X5428643Y-16170214D01*
X5457214Y-16184500D01*
X5471500Y-16198786D01*
X5485786Y-16227357D01*
X5500071Y-16284500D01*
X5500071Y-16355929D01*
X5485786Y-16413071D01*
X5471500Y-16441643D01*
X5457214Y-16455929D01*
X5428643Y-16470214D01*
X5400071Y-16470214D01*
X5371500Y-16455929D01*
X5357214Y-16441643D01*
X5342928Y-16413071D01*
X5328643Y-16355929D01*
X5328643Y-16284500D01*
X5342928Y-16227357D01*
X5357214Y-16198786D01*
X5371500Y-16184500D01*
X5400071Y-16170214D01*
X5628643Y-16470214D02*
X5628643Y-16270214D01*
X5628643Y-16298786D02*
X5642928Y-16284500D01*
X5671500Y-16270214D01*
X5714357Y-16270214D01*
X5742928Y-16284500D01*
X5757214Y-16313071D01*
X5757214Y-16470214D01*
X5757214Y-16313071D02*
X5771500Y-16284500D01*
X5800071Y-16270214D01*
X5842928Y-16270214D01*
X5871500Y-16284500D01*
X5885786Y-16313071D01*
X5885786Y-16470214D01*
X6028643Y-16470214D02*
X6028643Y-16270214D01*
X6028643Y-16298786D02*
X6042928Y-16284500D01*
X6071500Y-16270214D01*
X6114357Y-16270214D01*
X6142928Y-16284500D01*
X6157214Y-16313071D01*
X6157214Y-16470214D01*
X6157214Y-16313071D02*
X6171500Y-16284500D01*
X6200071Y-16270214D01*
X6242928Y-16270214D01*
X6271500Y-16284500D01*
X6285786Y-16313071D01*
X6285786Y-16470214D01*
X6871500Y-16155929D02*
X6614357Y-16541643D01*
X7257214Y-16170214D02*
X7285786Y-16170214D01*
X7314357Y-16184500D01*
X7328643Y-16198786D01*
X7342928Y-16227357D01*
X7357214Y-16284500D01*
X7357214Y-16355929D01*
X7342928Y-16413071D01*
X7328643Y-16441643D01*
X7314357Y-16455929D01*
X7285786Y-16470214D01*
X7257214Y-16470214D01*
X7228643Y-16455929D01*
X7214357Y-16441643D01*
X7200071Y-16413071D01*
X7185786Y-16355929D01*
X7185786Y-16284500D01*
X7200071Y-16227357D01*
X7214357Y-16198786D01*
X7228643Y-16184500D01*
X7257214Y-16170214D01*
X7485786Y-16441643D02*
X7500071Y-16455929D01*
X7485786Y-16470214D01*
X7471500Y-16455929D01*
X7485786Y-16441643D01*
X7485786Y-16470214D01*
X7685786Y-16170214D02*
X7714357Y-16170214D01*
X7742928Y-16184500D01*
X7757214Y-16198786D01*
X7771500Y-16227357D01*
X7785786Y-16284500D01*
X7785786Y-16355929D01*
X7771500Y-16413071D01*
X7757214Y-16441643D01*
X7742928Y-16455929D01*
X7714357Y-16470214D01*
X7685786Y-16470214D01*
X7657214Y-16455929D01*
X7642928Y-16441643D01*
X7628643Y-16413071D01*
X7614357Y-16355929D01*
X7614357Y-16284500D01*
X7628643Y-16227357D01*
X7642928Y-16198786D01*
X7657214Y-16184500D01*
X7685786Y-16170214D01*
X8071500Y-16470214D02*
X7900071Y-16470214D01*
X7985786Y-16470214D02*
X7985786Y-16170214D01*
X7957214Y-16213071D01*
X7928643Y-16241643D01*
X7900071Y-16255929D01*
X8342928Y-16170214D02*
X8200071Y-16170214D01*
X8185786Y-16313071D01*
X8200071Y-16298786D01*
X8228643Y-16284500D01*
X8300071Y-16284500D01*
X8328643Y-16298786D01*
X8342928Y-16313071D01*
X8357214Y-16341643D01*
X8357214Y-16413071D01*
X8342928Y-16441643D01*
X8328643Y-16455929D01*
X8300071Y-16470214D01*
X8228643Y-16470214D01*
X8200071Y-16455929D01*
X8185786Y-16441643D01*
X8457214Y-16170214D02*
X8657214Y-16170214D01*
X8528643Y-16470214D01*
X8757214Y-16170214D02*
X8757214Y-16227357D01*
X8871500Y-16170214D02*
X8871500Y-16227357D01*
X9314357Y-16584500D02*
X9300071Y-16570214D01*
X9271500Y-16527357D01*
X9257214Y-16498786D01*
X9242928Y-16455929D01*
X9228643Y-16384500D01*
X9228643Y-16327357D01*
X9242928Y-16255929D01*
X9257214Y-16213071D01*
X9271500Y-16184500D01*
X9300071Y-16141643D01*
X9314357Y-16127357D01*
X9414357Y-16198786D02*
X9428643Y-16184500D01*
X9457214Y-16170214D01*
X9528643Y-16170214D01*
X9557214Y-16184500D01*
X9571500Y-16198786D01*
X9585786Y-16227357D01*
X9585786Y-16255929D01*
X9571500Y-16298786D01*
X9400071Y-16470214D01*
X9585786Y-16470214D01*
X9842928Y-16270214D02*
X9842928Y-16470214D01*
X9771500Y-16155929D02*
X9700071Y-16370214D01*
X9885786Y-16370214D01*
X10057214Y-16170214D02*
X10085786Y-16170214D01*
X10114357Y-16184500D01*
X10128643Y-16198786D01*
X10142928Y-16227357D01*
X10157214Y-16284500D01*
X10157214Y-16355929D01*
X10142928Y-16413071D01*
X10128643Y-16441643D01*
X10114357Y-16455929D01*
X10085786Y-16470214D01*
X10057214Y-16470214D01*
X10028643Y-16455929D01*
X10014357Y-16441643D01*
X10000071Y-16413071D01*
X9985786Y-16355929D01*
X9985786Y-16284500D01*
X10000071Y-16227357D01*
X10014357Y-16198786D01*
X10028643Y-16184500D01*
X10057214Y-16170214D01*
X10514357Y-16470214D02*
X10514357Y-16170214D01*
X10642928Y-16470214D02*
X10642928Y-16313071D01*
X10628643Y-16284500D01*
X10600071Y-16270214D01*
X10557214Y-16270214D01*
X10528643Y-16284500D01*
X10514357Y-16298786D01*
X10828643Y-16470214D02*
X10800071Y-16455929D01*
X10785786Y-16441643D01*
X10771500Y-16413071D01*
X10771500Y-16327357D01*
X10785786Y-16298786D01*
X10800071Y-16284500D01*
X10828643Y-16270214D01*
X10871500Y-16270214D01*
X10900071Y-16284500D01*
X10914357Y-16298786D01*
X10928643Y-16327357D01*
X10928643Y-16413071D01*
X10914357Y-16441643D01*
X10900071Y-16455929D01*
X10871500Y-16470214D01*
X10828643Y-16470214D01*
X11100071Y-16470214D02*
X11071500Y-16455929D01*
X11057214Y-16427357D01*
X11057214Y-16170214D01*
X11328643Y-16455929D02*
X11300071Y-16470214D01*
X11242928Y-16470214D01*
X11214357Y-16455929D01*
X11200071Y-16427357D01*
X11200071Y-16313071D01*
X11214357Y-16284500D01*
X11242928Y-16270214D01*
X11300071Y-16270214D01*
X11328643Y-16284500D01*
X11342928Y-16313071D01*
X11342928Y-16341643D01*
X11200071Y-16370214D01*
X11457214Y-16455929D02*
X11485786Y-16470214D01*
X11542928Y-16470214D01*
X11571500Y-16455929D01*
X11585786Y-16427357D01*
X11585786Y-16413071D01*
X11571500Y-16384500D01*
X11542928Y-16370214D01*
X11500071Y-16370214D01*
X11471500Y-16355929D01*
X11457214Y-16327357D01*
X11457214Y-16313071D01*
X11471500Y-16284500D01*
X11500071Y-16270214D01*
X11542928Y-16270214D01*
X11571500Y-16284500D01*
X11685786Y-16584500D02*
X11700071Y-16570214D01*
X11728643Y-16527357D01*
X11742928Y-16498786D01*
X11757214Y-16455929D01*
X11771500Y-16384500D01*
X11771500Y-16327357D01*
X11757214Y-16255929D01*
X11742928Y-16213071D01*
X11728643Y-16184500D01*
X11700071Y-16141643D01*
X11685786Y-16127357D01*
X4056500Y-16730500D02*
G75*
G03*
X4056500Y-16730500I-50000J0D01*
G01*
X4500071Y-16866214D02*
X4328643Y-16866214D01*
X4414357Y-16866214D02*
X4414357Y-16566214D01*
X4385786Y-16609071D01*
X4357214Y-16637643D01*
X4328643Y-16651929D01*
X4628643Y-16837643D02*
X4642928Y-16851929D01*
X4628643Y-16866214D01*
X4614357Y-16851929D01*
X4628643Y-16837643D01*
X4628643Y-16866214D01*
X4828643Y-16566214D02*
X4857214Y-16566214D01*
X4885786Y-16580500D01*
X4900071Y-16594786D01*
X4914357Y-16623357D01*
X4928643Y-16680500D01*
X4928643Y-16751929D01*
X4914357Y-16809072D01*
X4900071Y-16837643D01*
X4885786Y-16851929D01*
X4857214Y-16866214D01*
X4828643Y-16866214D01*
X4800071Y-16851929D01*
X4785786Y-16837643D01*
X4771500Y-16809072D01*
X4757214Y-16751929D01*
X4757214Y-16680500D01*
X4771500Y-16623357D01*
X4785786Y-16594786D01*
X4800071Y-16580500D01*
X4828643Y-16566214D01*
X5114357Y-16566214D02*
X5142928Y-16566214D01*
X5171500Y-16580500D01*
X5185786Y-16594786D01*
X5200071Y-16623357D01*
X5214357Y-16680500D01*
X5214357Y-16751929D01*
X5200071Y-16809072D01*
X5185786Y-16837643D01*
X5171500Y-16851929D01*
X5142928Y-16866214D01*
X5114357Y-16866214D01*
X5085786Y-16851929D01*
X5071500Y-16837643D01*
X5057214Y-16809072D01*
X5042928Y-16751929D01*
X5042928Y-16680500D01*
X5057214Y-16623357D01*
X5071500Y-16594786D01*
X5085786Y-16580500D01*
X5114357Y-16566214D01*
X5400071Y-16566214D02*
X5428643Y-16566214D01*
X5457214Y-16580500D01*
X5471500Y-16594786D01*
X5485786Y-16623357D01*
X5500071Y-16680500D01*
X5500071Y-16751929D01*
X5485786Y-16809072D01*
X5471500Y-16837643D01*
X5457214Y-16851929D01*
X5428643Y-16866214D01*
X5400071Y-16866214D01*
X5371500Y-16851929D01*
X5357214Y-16837643D01*
X5342928Y-16809072D01*
X5328643Y-16751929D01*
X5328643Y-16680500D01*
X5342928Y-16623357D01*
X5357214Y-16594786D01*
X5371500Y-16580500D01*
X5400071Y-16566214D01*
X5628643Y-16866214D02*
X5628643Y-16666214D01*
X5628643Y-16694786D02*
X5642928Y-16680500D01*
X5671500Y-16666214D01*
X5714357Y-16666214D01*
X5742928Y-16680500D01*
X5757214Y-16709071D01*
X5757214Y-16866214D01*
X5757214Y-16709071D02*
X5771500Y-16680500D01*
X5800071Y-16666214D01*
X5842928Y-16666214D01*
X5871500Y-16680500D01*
X5885786Y-16709071D01*
X5885786Y-16866214D01*
X6028643Y-16866214D02*
X6028643Y-16666214D01*
X6028643Y-16694786D02*
X6042928Y-16680500D01*
X6071500Y-16666214D01*
X6114357Y-16666214D01*
X6142928Y-16680500D01*
X6157214Y-16709071D01*
X6157214Y-16866214D01*
X6157214Y-16709071D02*
X6171500Y-16680500D01*
X6200071Y-16666214D01*
X6242928Y-16666214D01*
X6271500Y-16680500D01*
X6285786Y-16709071D01*
X6285786Y-16866214D01*
X6871500Y-16551929D02*
X6614357Y-16937643D01*
X7257214Y-16566214D02*
X7285786Y-16566214D01*
X7314357Y-16580500D01*
X7328643Y-16594786D01*
X7342928Y-16623357D01*
X7357214Y-16680500D01*
X7357214Y-16751929D01*
X7342928Y-16809072D01*
X7328643Y-16837643D01*
X7314357Y-16851929D01*
X7285786Y-16866214D01*
X7257214Y-16866214D01*
X7228643Y-16851929D01*
X7214357Y-16837643D01*
X7200071Y-16809072D01*
X7185786Y-16751929D01*
X7185786Y-16680500D01*
X7200071Y-16623357D01*
X7214357Y-16594786D01*
X7228643Y-16580500D01*
X7257214Y-16566214D01*
X7485786Y-16837643D02*
X7500071Y-16851929D01*
X7485786Y-16866214D01*
X7471500Y-16851929D01*
X7485786Y-16837643D01*
X7485786Y-16866214D01*
X7685786Y-16566214D02*
X7714357Y-16566214D01*
X7742928Y-16580500D01*
X7757214Y-16594786D01*
X7771500Y-16623357D01*
X7785786Y-16680500D01*
X7785786Y-16751929D01*
X7771500Y-16809072D01*
X7757214Y-16837643D01*
X7742928Y-16851929D01*
X7714357Y-16866214D01*
X7685786Y-16866214D01*
X7657214Y-16851929D01*
X7642928Y-16837643D01*
X7628643Y-16809072D01*
X7614357Y-16751929D01*
X7614357Y-16680500D01*
X7628643Y-16623357D01*
X7642928Y-16594786D01*
X7657214Y-16580500D01*
X7685786Y-16566214D01*
X7885786Y-16566214D02*
X8071500Y-16566214D01*
X7971500Y-16680500D01*
X8014357Y-16680500D01*
X8042928Y-16694786D01*
X8057214Y-16709071D01*
X8071500Y-16737643D01*
X8071500Y-16809072D01*
X8057214Y-16837643D01*
X8042928Y-16851929D01*
X8014357Y-16866214D01*
X7928643Y-16866214D01*
X7900071Y-16851929D01*
X7885786Y-16837643D01*
X8214357Y-16866214D02*
X8271500Y-16866214D01*
X8300071Y-16851929D01*
X8314357Y-16837643D01*
X8342928Y-16794786D01*
X8357214Y-16737643D01*
X8357214Y-16623357D01*
X8342928Y-16594786D01*
X8328643Y-16580500D01*
X8300071Y-16566214D01*
X8242928Y-16566214D01*
X8214357Y-16580500D01*
X8200071Y-16594786D01*
X8185786Y-16623357D01*
X8185786Y-16694786D01*
X8200071Y-16723357D01*
X8214357Y-16737643D01*
X8242928Y-16751929D01*
X8300071Y-16751929D01*
X8328643Y-16737643D01*
X8342928Y-16723357D01*
X8357214Y-16694786D01*
X8614357Y-16666214D02*
X8614357Y-16866214D01*
X8542928Y-16551929D02*
X8471500Y-16766214D01*
X8657214Y-16766214D01*
X8757214Y-16566214D02*
X8757214Y-16623357D01*
X8871500Y-16566214D02*
X8871500Y-16623357D01*
X9314357Y-16980500D02*
X9300071Y-16966214D01*
X9271500Y-16923357D01*
X9257214Y-16894786D01*
X9242928Y-16851929D01*
X9228643Y-16780500D01*
X9228643Y-16723357D01*
X9242928Y-16651929D01*
X9257214Y-16609071D01*
X9271500Y-16580500D01*
X9300071Y-16537643D01*
X9314357Y-16523357D01*
X9400071Y-16566214D02*
X9585786Y-16566214D01*
X9485786Y-16680500D01*
X9528643Y-16680500D01*
X9557214Y-16694786D01*
X9571500Y-16709071D01*
X9585786Y-16737643D01*
X9585786Y-16809072D01*
X9571500Y-16837643D01*
X9557214Y-16851929D01*
X9528643Y-16866214D01*
X9442928Y-16866214D01*
X9414357Y-16851929D01*
X9400071Y-16837643D01*
X9685786Y-16566214D02*
X9871500Y-16566214D01*
X9771500Y-16680500D01*
X9814357Y-16680500D01*
X9842928Y-16694786D01*
X9857214Y-16709071D01*
X9871500Y-16737643D01*
X9871500Y-16809072D01*
X9857214Y-16837643D01*
X9842928Y-16851929D01*
X9814357Y-16866214D01*
X9728643Y-16866214D01*
X9700071Y-16851929D01*
X9685786Y-16837643D01*
X10228643Y-16866214D02*
X10228643Y-16566214D01*
X10357214Y-16866214D02*
X10357214Y-16709071D01*
X10342928Y-16680500D01*
X10314357Y-16666214D01*
X10271500Y-16666214D01*
X10242928Y-16680500D01*
X10228643Y-16694786D01*
X10542928Y-16866214D02*
X10514357Y-16851929D01*
X10500071Y-16837643D01*
X10485786Y-16809072D01*
X10485786Y-16723357D01*
X10500071Y-16694786D01*
X10514357Y-16680500D01*
X10542928Y-16666214D01*
X10585786Y-16666214D01*
X10614357Y-16680500D01*
X10628643Y-16694786D01*
X10642928Y-16723357D01*
X10642928Y-16809072D01*
X10628643Y-16837643D01*
X10614357Y-16851929D01*
X10585786Y-16866214D01*
X10542928Y-16866214D01*
X10814357Y-16866214D02*
X10785786Y-16851929D01*
X10771500Y-16823357D01*
X10771500Y-16566214D01*
X11042928Y-16851929D02*
X11014357Y-16866214D01*
X10957214Y-16866214D01*
X10928643Y-16851929D01*
X10914357Y-16823357D01*
X10914357Y-16709071D01*
X10928643Y-16680500D01*
X10957214Y-16666214D01*
X11014357Y-16666214D01*
X11042928Y-16680500D01*
X11057214Y-16709071D01*
X11057214Y-16737643D01*
X10914357Y-16766214D01*
X11171500Y-16851929D02*
X11200071Y-16866214D01*
X11257214Y-16866214D01*
X11285786Y-16851929D01*
X11300071Y-16823357D01*
X11300071Y-16809072D01*
X11285786Y-16780500D01*
X11257214Y-16766214D01*
X11214357Y-16766214D01*
X11185786Y-16751929D01*
X11171500Y-16723357D01*
X11171500Y-16709071D01*
X11185786Y-16680500D01*
X11214357Y-16666214D01*
X11257214Y-16666214D01*
X11285786Y-16680500D01*
X11400071Y-16980500D02*
X11414357Y-16966214D01*
X11442928Y-16923357D01*
X11457214Y-16894786D01*
X11471500Y-16851929D01*
X11485786Y-16780500D01*
X11485786Y-16723357D01*
X11471500Y-16651929D01*
X11457214Y-16609071D01*
X11442928Y-16580500D01*
X11414357Y-16537643D01*
X11400071Y-16523357D01*
X3996500Y-17066500D02*
X3996500Y-17186500D01*
X3936500Y-17126500D02*
X4056500Y-17126500D01*
X4500071Y-17262214D02*
X4328643Y-17262214D01*
X4414357Y-17262214D02*
X4414357Y-16962214D01*
X4385786Y-17005072D01*
X4357214Y-17033643D01*
X4328643Y-17047929D01*
X4628643Y-17233643D02*
X4642928Y-17247929D01*
X4628643Y-17262214D01*
X4614357Y-17247929D01*
X4628643Y-17233643D01*
X4628643Y-17262214D01*
X4757214Y-16990786D02*
X4771500Y-16976500D01*
X4800071Y-16962214D01*
X4871500Y-16962214D01*
X4900071Y-16976500D01*
X4914357Y-16990786D01*
X4928643Y-17019357D01*
X4928643Y-17047929D01*
X4914357Y-17090786D01*
X4742928Y-17262214D01*
X4928643Y-17262214D01*
X5114357Y-16962214D02*
X5142928Y-16962214D01*
X5171500Y-16976500D01*
X5185786Y-16990786D01*
X5200071Y-17019357D01*
X5214357Y-17076500D01*
X5214357Y-17147929D01*
X5200071Y-17205072D01*
X5185786Y-17233643D01*
X5171500Y-17247929D01*
X5142928Y-17262214D01*
X5114357Y-17262214D01*
X5085786Y-17247929D01*
X5071500Y-17233643D01*
X5057214Y-17205072D01*
X5042928Y-17147929D01*
X5042928Y-17076500D01*
X5057214Y-17019357D01*
X5071500Y-16990786D01*
X5085786Y-16976500D01*
X5114357Y-16962214D01*
X5400071Y-16962214D02*
X5428643Y-16962214D01*
X5457214Y-16976500D01*
X5471500Y-16990786D01*
X5485786Y-17019357D01*
X5500071Y-17076500D01*
X5500071Y-17147929D01*
X5485786Y-17205072D01*
X5471500Y-17233643D01*
X5457214Y-17247929D01*
X5428643Y-17262214D01*
X5400071Y-17262214D01*
X5371500Y-17247929D01*
X5357214Y-17233643D01*
X5342928Y-17205072D01*
X5328643Y-17147929D01*
X5328643Y-17076500D01*
X5342928Y-17019357D01*
X5357214Y-16990786D01*
X5371500Y-16976500D01*
X5400071Y-16962214D01*
X5628643Y-17262214D02*
X5628643Y-17062214D01*
X5628643Y-17090786D02*
X5642928Y-17076500D01*
X5671500Y-17062214D01*
X5714357Y-17062214D01*
X5742928Y-17076500D01*
X5757214Y-17105072D01*
X5757214Y-17262214D01*
X5757214Y-17105072D02*
X5771500Y-17076500D01*
X5800071Y-17062214D01*
X5842928Y-17062214D01*
X5871500Y-17076500D01*
X5885786Y-17105072D01*
X5885786Y-17262214D01*
X6028643Y-17262214D02*
X6028643Y-17062214D01*
X6028643Y-17090786D02*
X6042928Y-17076500D01*
X6071500Y-17062214D01*
X6114357Y-17062214D01*
X6142928Y-17076500D01*
X6157214Y-17105072D01*
X6157214Y-17262214D01*
X6157214Y-17105072D02*
X6171500Y-17076500D01*
X6200071Y-17062214D01*
X6242928Y-17062214D01*
X6271500Y-17076500D01*
X6285786Y-17105072D01*
X6285786Y-17262214D01*
X6871500Y-16947929D02*
X6614357Y-17333643D01*
X7257214Y-16962214D02*
X7285786Y-16962214D01*
X7314357Y-16976500D01*
X7328643Y-16990786D01*
X7342928Y-17019357D01*
X7357214Y-17076500D01*
X7357214Y-17147929D01*
X7342928Y-17205072D01*
X7328643Y-17233643D01*
X7314357Y-17247929D01*
X7285786Y-17262214D01*
X7257214Y-17262214D01*
X7228643Y-17247929D01*
X7214357Y-17233643D01*
X7200071Y-17205072D01*
X7185786Y-17147929D01*
X7185786Y-17076500D01*
X7200071Y-17019357D01*
X7214357Y-16990786D01*
X7228643Y-16976500D01*
X7257214Y-16962214D01*
X7485786Y-17233643D02*
X7500071Y-17247929D01*
X7485786Y-17262214D01*
X7471500Y-17247929D01*
X7485786Y-17233643D01*
X7485786Y-17262214D01*
X7685786Y-16962214D02*
X7714357Y-16962214D01*
X7742928Y-16976500D01*
X7757214Y-16990786D01*
X7771500Y-17019357D01*
X7785786Y-17076500D01*
X7785786Y-17147929D01*
X7771500Y-17205072D01*
X7757214Y-17233643D01*
X7742928Y-17247929D01*
X7714357Y-17262214D01*
X7685786Y-17262214D01*
X7657214Y-17247929D01*
X7642928Y-17233643D01*
X7628643Y-17205072D01*
X7614357Y-17147929D01*
X7614357Y-17076500D01*
X7628643Y-17019357D01*
X7642928Y-16990786D01*
X7657214Y-16976500D01*
X7685786Y-16962214D01*
X8042928Y-17062214D02*
X8042928Y-17262214D01*
X7971500Y-16947929D02*
X7900071Y-17162214D01*
X8085786Y-17162214D01*
X8171500Y-16962214D02*
X8371500Y-16962214D01*
X8242928Y-17262214D01*
X8471500Y-16990786D02*
X8485786Y-16976500D01*
X8514357Y-16962214D01*
X8585786Y-16962214D01*
X8614357Y-16976500D01*
X8628643Y-16990786D01*
X8642928Y-17019357D01*
X8642928Y-17047929D01*
X8628643Y-17090786D01*
X8457214Y-17262214D01*
X8642928Y-17262214D01*
X8757214Y-16962214D02*
X8757214Y-17019357D01*
X8871500Y-16962214D02*
X8871500Y-17019357D01*
X9314357Y-17376500D02*
X9300071Y-17362214D01*
X9271500Y-17319357D01*
X9257214Y-17290786D01*
X9242928Y-17247929D01*
X9228643Y-17176500D01*
X9228643Y-17119357D01*
X9242928Y-17047929D01*
X9257214Y-17005072D01*
X9271500Y-16976500D01*
X9300071Y-16933643D01*
X9314357Y-16919357D01*
X9557214Y-17062214D02*
X9557214Y-17262214D01*
X9485786Y-16947929D02*
X9414357Y-17162214D01*
X9600071Y-17162214D01*
X9942928Y-17262214D02*
X9942928Y-16962214D01*
X10071500Y-17262214D02*
X10071500Y-17105072D01*
X10057214Y-17076500D01*
X10028643Y-17062214D01*
X9985786Y-17062214D01*
X9957214Y-17076500D01*
X9942928Y-17090786D01*
X10257214Y-17262214D02*
X10228643Y-17247929D01*
X10214357Y-17233643D01*
X10200071Y-17205072D01*
X10200071Y-17119357D01*
X10214357Y-17090786D01*
X10228643Y-17076500D01*
X10257214Y-17062214D01*
X10300071Y-17062214D01*
X10328643Y-17076500D01*
X10342928Y-17090786D01*
X10357214Y-17119357D01*
X10357214Y-17205072D01*
X10342928Y-17233643D01*
X10328643Y-17247929D01*
X10300071Y-17262214D01*
X10257214Y-17262214D01*
X10528643Y-17262214D02*
X10500071Y-17247929D01*
X10485786Y-17219357D01*
X10485786Y-16962214D01*
X10757214Y-17247929D02*
X10728643Y-17262214D01*
X10671500Y-17262214D01*
X10642928Y-17247929D01*
X10628643Y-17219357D01*
X10628643Y-17105072D01*
X10642928Y-17076500D01*
X10671500Y-17062214D01*
X10728643Y-17062214D01*
X10757214Y-17076500D01*
X10771500Y-17105072D01*
X10771500Y-17133643D01*
X10628643Y-17162214D01*
X10885786Y-17247929D02*
X10914357Y-17262214D01*
X10971500Y-17262214D01*
X11000071Y-17247929D01*
X11014357Y-17219357D01*
X11014357Y-17205072D01*
X11000071Y-17176500D01*
X10971500Y-17162214D01*
X10928643Y-17162214D01*
X10900071Y-17147929D01*
X10885786Y-17119357D01*
X10885786Y-17105072D01*
X10900071Y-17076500D01*
X10928643Y-17062214D01*
X10971500Y-17062214D01*
X11000071Y-17076500D01*
X11114357Y-17376500D02*
X11128643Y-17362214D01*
X11157214Y-17319357D01*
X11171500Y-17290786D01*
X11185786Y-17247929D01*
X11200071Y-17176500D01*
X11200071Y-17119357D01*
X11185786Y-17047929D01*
X11171500Y-17005072D01*
X11157214Y-16976500D01*
X11128643Y-16933643D01*
X11114357Y-16919357D01*
X4037462Y-17568463D02*
X4037462Y-17476538D01*
X3945537Y-17476538D01*
X3945537Y-17568463D01*
X4037462Y-17568463D01*
X4500071Y-17658214D02*
X4328643Y-17658214D01*
X4414357Y-17658214D02*
X4414357Y-17358214D01*
X4385786Y-17401072D01*
X4357214Y-17429643D01*
X4328643Y-17443929D01*
X4628643Y-17629643D02*
X4642928Y-17643929D01*
X4628643Y-17658214D01*
X4614357Y-17643929D01*
X4628643Y-17629643D01*
X4628643Y-17658214D01*
X4742928Y-17358214D02*
X4928643Y-17358214D01*
X4828643Y-17472500D01*
X4871500Y-17472500D01*
X4900071Y-17486786D01*
X4914357Y-17501072D01*
X4928643Y-17529643D01*
X4928643Y-17601072D01*
X4914357Y-17629643D01*
X4900071Y-17643929D01*
X4871500Y-17658214D01*
X4785786Y-17658214D01*
X4757214Y-17643929D01*
X4742928Y-17629643D01*
X5114357Y-17358214D02*
X5142928Y-17358214D01*
X5171500Y-17372500D01*
X5185786Y-17386786D01*
X5200071Y-17415357D01*
X5214357Y-17472500D01*
X5214357Y-17543929D01*
X5200071Y-17601072D01*
X5185786Y-17629643D01*
X5171500Y-17643929D01*
X5142928Y-17658214D01*
X5114357Y-17658214D01*
X5085786Y-17643929D01*
X5071500Y-17629643D01*
X5057214Y-17601072D01*
X5042928Y-17543929D01*
X5042928Y-17472500D01*
X5057214Y-17415357D01*
X5071500Y-17386786D01*
X5085786Y-17372500D01*
X5114357Y-17358214D01*
X5400071Y-17358214D02*
X5428643Y-17358214D01*
X5457214Y-17372500D01*
X5471500Y-17386786D01*
X5485786Y-17415357D01*
X5500071Y-17472500D01*
X5500071Y-17543929D01*
X5485786Y-17601072D01*
X5471500Y-17629643D01*
X5457214Y-17643929D01*
X5428643Y-17658214D01*
X5400071Y-17658214D01*
X5371500Y-17643929D01*
X5357214Y-17629643D01*
X5342928Y-17601072D01*
X5328643Y-17543929D01*
X5328643Y-17472500D01*
X5342928Y-17415357D01*
X5357214Y-17386786D01*
X5371500Y-17372500D01*
X5400071Y-17358214D01*
X5628643Y-17658214D02*
X5628643Y-17458214D01*
X5628643Y-17486786D02*
X5642928Y-17472500D01*
X5671500Y-17458214D01*
X5714357Y-17458214D01*
X5742928Y-17472500D01*
X5757214Y-17501072D01*
X5757214Y-17658214D01*
X5757214Y-17501072D02*
X5771500Y-17472500D01*
X5800071Y-17458214D01*
X5842928Y-17458214D01*
X5871500Y-17472500D01*
X5885786Y-17501072D01*
X5885786Y-17658214D01*
X6028643Y-17658214D02*
X6028643Y-17458214D01*
X6028643Y-17486786D02*
X6042928Y-17472500D01*
X6071500Y-17458214D01*
X6114357Y-17458214D01*
X6142928Y-17472500D01*
X6157214Y-17501072D01*
X6157214Y-17658214D01*
X6157214Y-17501072D02*
X6171500Y-17472500D01*
X6200071Y-17458214D01*
X6242928Y-17458214D01*
X6271500Y-17472500D01*
X6285786Y-17501072D01*
X6285786Y-17658214D01*
X6871500Y-17343929D02*
X6614357Y-17729643D01*
X7257214Y-17358214D02*
X7285786Y-17358214D01*
X7314357Y-17372500D01*
X7328643Y-17386786D01*
X7342928Y-17415357D01*
X7357214Y-17472500D01*
X7357214Y-17543929D01*
X7342928Y-17601072D01*
X7328643Y-17629643D01*
X7314357Y-17643929D01*
X7285786Y-17658214D01*
X7257214Y-17658214D01*
X7228643Y-17643929D01*
X7214357Y-17629643D01*
X7200071Y-17601072D01*
X7185786Y-17543929D01*
X7185786Y-17472500D01*
X7200071Y-17415357D01*
X7214357Y-17386786D01*
X7228643Y-17372500D01*
X7257214Y-17358214D01*
X7485786Y-17629643D02*
X7500071Y-17643929D01*
X7485786Y-17658214D01*
X7471500Y-17643929D01*
X7485786Y-17629643D01*
X7485786Y-17658214D01*
X7685786Y-17358214D02*
X7714357Y-17358214D01*
X7742928Y-17372500D01*
X7757214Y-17386786D01*
X7771500Y-17415357D01*
X7785786Y-17472500D01*
X7785786Y-17543929D01*
X7771500Y-17601072D01*
X7757214Y-17629643D01*
X7742928Y-17643929D01*
X7714357Y-17658214D01*
X7685786Y-17658214D01*
X7657214Y-17643929D01*
X7642928Y-17629643D01*
X7628643Y-17601072D01*
X7614357Y-17543929D01*
X7614357Y-17472500D01*
X7628643Y-17415357D01*
X7642928Y-17386786D01*
X7657214Y-17372500D01*
X7685786Y-17358214D01*
X8057214Y-17358214D02*
X7914357Y-17358214D01*
X7900071Y-17501072D01*
X7914357Y-17486786D01*
X7942928Y-17472500D01*
X8014357Y-17472500D01*
X8042928Y-17486786D01*
X8057214Y-17501072D01*
X8071500Y-17529643D01*
X8071500Y-17601072D01*
X8057214Y-17629643D01*
X8042928Y-17643929D01*
X8014357Y-17658214D01*
X7942928Y-17658214D01*
X7914357Y-17643929D01*
X7900071Y-17629643D01*
X8357214Y-17658214D02*
X8185786Y-17658214D01*
X8271500Y-17658214D02*
X8271500Y-17358214D01*
X8242928Y-17401072D01*
X8214357Y-17429643D01*
X8185786Y-17443929D01*
X8471500Y-17386786D02*
X8485786Y-17372500D01*
X8514357Y-17358214D01*
X8585786Y-17358214D01*
X8614357Y-17372500D01*
X8628643Y-17386786D01*
X8642928Y-17415357D01*
X8642928Y-17443929D01*
X8628643Y-17486786D01*
X8457214Y-17658214D01*
X8642928Y-17658214D01*
X8757214Y-17358214D02*
X8757214Y-17415357D01*
X8871500Y-17358214D02*
X8871500Y-17415357D01*
X9314357Y-17772500D02*
X9300071Y-17758214D01*
X9271500Y-17715357D01*
X9257214Y-17686786D01*
X9242928Y-17643929D01*
X9228643Y-17572500D01*
X9228643Y-17515357D01*
X9242928Y-17443929D01*
X9257214Y-17401072D01*
X9271500Y-17372500D01*
X9300071Y-17329643D01*
X9314357Y-17315357D01*
X9471500Y-17486786D02*
X9442928Y-17472500D01*
X9428643Y-17458214D01*
X9414357Y-17429643D01*
X9414357Y-17415357D01*
X9428643Y-17386786D01*
X9442928Y-17372500D01*
X9471500Y-17358214D01*
X9528643Y-17358214D01*
X9557214Y-17372500D01*
X9571500Y-17386786D01*
X9585786Y-17415357D01*
X9585786Y-17429643D01*
X9571500Y-17458214D01*
X9557214Y-17472500D01*
X9528643Y-17486786D01*
X9471500Y-17486786D01*
X9442928Y-17501072D01*
X9428643Y-17515357D01*
X9414357Y-17543929D01*
X9414357Y-17601072D01*
X9428643Y-17629643D01*
X9442928Y-17643929D01*
X9471500Y-17658214D01*
X9528643Y-17658214D01*
X9557214Y-17643929D01*
X9571500Y-17629643D01*
X9585786Y-17601072D01*
X9585786Y-17543929D01*
X9571500Y-17515357D01*
X9557214Y-17501072D01*
X9528643Y-17486786D01*
X9942928Y-17658214D02*
X9942928Y-17358214D01*
X10071500Y-17658214D02*
X10071500Y-17501072D01*
X10057214Y-17472500D01*
X10028643Y-17458214D01*
X9985786Y-17458214D01*
X9957214Y-17472500D01*
X9942928Y-17486786D01*
X10257214Y-17658214D02*
X10228643Y-17643929D01*
X10214357Y-17629643D01*
X10200071Y-17601072D01*
X10200071Y-17515357D01*
X10214357Y-17486786D01*
X10228643Y-17472500D01*
X10257214Y-17458214D01*
X10300071Y-17458214D01*
X10328643Y-17472500D01*
X10342928Y-17486786D01*
X10357214Y-17515357D01*
X10357214Y-17601072D01*
X10342928Y-17629643D01*
X10328643Y-17643929D01*
X10300071Y-17658214D01*
X10257214Y-17658214D01*
X10528643Y-17658214D02*
X10500071Y-17643929D01*
X10485786Y-17615357D01*
X10485786Y-17358214D01*
X10757214Y-17643929D02*
X10728643Y-17658214D01*
X10671500Y-17658214D01*
X10642928Y-17643929D01*
X10628643Y-17615357D01*
X10628643Y-17501072D01*
X10642928Y-17472500D01*
X10671500Y-17458214D01*
X10728643Y-17458214D01*
X10757214Y-17472500D01*
X10771500Y-17501072D01*
X10771500Y-17529643D01*
X10628643Y-17558214D01*
X10885786Y-17643929D02*
X10914357Y-17658214D01*
X10971500Y-17658214D01*
X11000071Y-17643929D01*
X11014357Y-17615357D01*
X11014357Y-17601072D01*
X11000071Y-17572500D01*
X10971500Y-17558214D01*
X10928643Y-17558214D01*
X10900071Y-17543929D01*
X10885786Y-17515357D01*
X10885786Y-17501072D01*
X10900071Y-17472500D01*
X10928643Y-17458214D01*
X10971500Y-17458214D01*
X11000071Y-17472500D01*
X11114357Y-17772500D02*
X11128643Y-17758214D01*
X11157214Y-17715357D01*
X11171500Y-17686786D01*
X11185786Y-17643929D01*
X11200071Y-17572500D01*
X11200071Y-17515357D01*
X11185786Y-17443929D01*
X11171500Y-17401072D01*
X11157214Y-17372500D01*
X11128643Y-17329643D01*
X11114357Y-17315357D01*
X3956500Y-18018500D02*
X4056500Y-17918500D01*
X3956500Y-17818500D01*
X3856500Y-17918500D01*
X3956500Y-18018500D01*
X4328643Y-17782786D02*
X4342928Y-17768500D01*
X4371500Y-17754214D01*
X4442928Y-17754214D01*
X4471500Y-17768500D01*
X4485786Y-17782786D01*
X4500071Y-17811357D01*
X4500071Y-17839929D01*
X4485786Y-17882786D01*
X4314357Y-18054214D01*
X4500071Y-18054214D01*
X4628643Y-18025643D02*
X4642928Y-18039929D01*
X4628643Y-18054214D01*
X4614357Y-18039929D01*
X4628643Y-18025643D01*
X4628643Y-18054214D01*
X4828643Y-17754214D02*
X4857214Y-17754214D01*
X4885786Y-17768500D01*
X4900071Y-17782786D01*
X4914357Y-17811357D01*
X4928643Y-17868500D01*
X4928643Y-17939929D01*
X4914357Y-17997072D01*
X4900071Y-18025643D01*
X4885786Y-18039929D01*
X4857214Y-18054214D01*
X4828643Y-18054214D01*
X4800071Y-18039929D01*
X4785786Y-18025643D01*
X4771500Y-17997072D01*
X4757214Y-17939929D01*
X4757214Y-17868500D01*
X4771500Y-17811357D01*
X4785786Y-17782786D01*
X4800071Y-17768500D01*
X4828643Y-17754214D01*
X5114357Y-17754214D02*
X5142928Y-17754214D01*
X5171500Y-17768500D01*
X5185786Y-17782786D01*
X5200071Y-17811357D01*
X5214357Y-17868500D01*
X5214357Y-17939929D01*
X5200071Y-17997072D01*
X5185786Y-18025643D01*
X5171500Y-18039929D01*
X5142928Y-18054214D01*
X5114357Y-18054214D01*
X5085786Y-18039929D01*
X5071500Y-18025643D01*
X5057214Y-17997072D01*
X5042928Y-17939929D01*
X5042928Y-17868500D01*
X5057214Y-17811357D01*
X5071500Y-17782786D01*
X5085786Y-17768500D01*
X5114357Y-17754214D01*
X5400071Y-17754214D02*
X5428643Y-17754214D01*
X5457214Y-17768500D01*
X5471500Y-17782786D01*
X5485786Y-17811357D01*
X5500071Y-17868500D01*
X5500071Y-17939929D01*
X5485786Y-17997072D01*
X5471500Y-18025643D01*
X5457214Y-18039929D01*
X5428643Y-18054214D01*
X5400071Y-18054214D01*
X5371500Y-18039929D01*
X5357214Y-18025643D01*
X5342928Y-17997072D01*
X5328643Y-17939929D01*
X5328643Y-17868500D01*
X5342928Y-17811357D01*
X5357214Y-17782786D01*
X5371500Y-17768500D01*
X5400071Y-17754214D01*
X5628643Y-18054214D02*
X5628643Y-17854214D01*
X5628643Y-17882786D02*
X5642928Y-17868500D01*
X5671500Y-17854214D01*
X5714357Y-17854214D01*
X5742928Y-17868500D01*
X5757214Y-17897072D01*
X5757214Y-18054214D01*
X5757214Y-17897072D02*
X5771500Y-17868500D01*
X5800071Y-17854214D01*
X5842928Y-17854214D01*
X5871500Y-17868500D01*
X5885786Y-17897072D01*
X5885786Y-18054214D01*
X6028643Y-18054214D02*
X6028643Y-17854214D01*
X6028643Y-17882786D02*
X6042928Y-17868500D01*
X6071500Y-17854214D01*
X6114357Y-17854214D01*
X6142928Y-17868500D01*
X6157214Y-17897072D01*
X6157214Y-18054214D01*
X6157214Y-17897072D02*
X6171500Y-17868500D01*
X6200071Y-17854214D01*
X6242928Y-17854214D01*
X6271500Y-17868500D01*
X6285786Y-17897072D01*
X6285786Y-18054214D01*
X6871500Y-17739929D02*
X6614357Y-18125643D01*
X7257214Y-17754214D02*
X7285786Y-17754214D01*
X7314357Y-17768500D01*
X7328643Y-17782786D01*
X7342928Y-17811357D01*
X7357214Y-17868500D01*
X7357214Y-17939929D01*
X7342928Y-17997072D01*
X7328643Y-18025643D01*
X7314357Y-18039929D01*
X7285786Y-18054214D01*
X7257214Y-18054214D01*
X7228643Y-18039929D01*
X7214357Y-18025643D01*
X7200071Y-17997072D01*
X7185786Y-17939929D01*
X7185786Y-17868500D01*
X7200071Y-17811357D01*
X7214357Y-17782786D01*
X7228643Y-17768500D01*
X7257214Y-17754214D01*
X7485786Y-18025643D02*
X7500071Y-18039929D01*
X7485786Y-18054214D01*
X7471500Y-18039929D01*
X7485786Y-18025643D01*
X7485786Y-18054214D01*
X7685786Y-17754214D02*
X7714357Y-17754214D01*
X7742928Y-17768500D01*
X7757214Y-17782786D01*
X7771500Y-17811357D01*
X7785786Y-17868500D01*
X7785786Y-17939929D01*
X7771500Y-17997072D01*
X7757214Y-18025643D01*
X7742928Y-18039929D01*
X7714357Y-18054214D01*
X7685786Y-18054214D01*
X7657214Y-18039929D01*
X7642928Y-18025643D01*
X7628643Y-17997072D01*
X7614357Y-17939929D01*
X7614357Y-17868500D01*
X7628643Y-17811357D01*
X7642928Y-17782786D01*
X7657214Y-17768500D01*
X7685786Y-17754214D01*
X7885786Y-17754214D02*
X8085786Y-17754214D01*
X7957214Y-18054214D01*
X8242928Y-17882786D02*
X8214357Y-17868500D01*
X8200071Y-17854214D01*
X8185786Y-17825643D01*
X8185786Y-17811357D01*
X8200071Y-17782786D01*
X8214357Y-17768500D01*
X8242928Y-17754214D01*
X8300071Y-17754214D01*
X8328643Y-17768500D01*
X8342928Y-17782786D01*
X8357214Y-17811357D01*
X8357214Y-17825643D01*
X8342928Y-17854214D01*
X8328643Y-17868500D01*
X8300071Y-17882786D01*
X8242928Y-17882786D01*
X8214357Y-17897072D01*
X8200071Y-17911357D01*
X8185786Y-17939929D01*
X8185786Y-17997072D01*
X8200071Y-18025643D01*
X8214357Y-18039929D01*
X8242928Y-18054214D01*
X8300071Y-18054214D01*
X8328643Y-18039929D01*
X8342928Y-18025643D01*
X8357214Y-17997072D01*
X8357214Y-17939929D01*
X8342928Y-17911357D01*
X8328643Y-17897072D01*
X8300071Y-17882786D01*
X8457214Y-17754214D02*
X8657214Y-17754214D01*
X8528643Y-18054214D01*
X8757214Y-17754214D02*
X8757214Y-17811357D01*
X8871500Y-17754214D02*
X8871500Y-17811357D01*
X9314357Y-18168500D02*
X9300071Y-18154214D01*
X9271500Y-18111357D01*
X9257214Y-18082786D01*
X9242928Y-18039929D01*
X9228643Y-17968500D01*
X9228643Y-17911357D01*
X9242928Y-17839929D01*
X9257214Y-17797072D01*
X9271500Y-17768500D01*
X9300071Y-17725643D01*
X9314357Y-17711357D01*
X9485786Y-17754214D02*
X9514357Y-17754214D01*
X9542928Y-17768500D01*
X9557214Y-17782786D01*
X9571500Y-17811357D01*
X9585786Y-17868500D01*
X9585786Y-17939929D01*
X9571500Y-17997072D01*
X9557214Y-18025643D01*
X9542928Y-18039929D01*
X9514357Y-18054214D01*
X9485786Y-18054214D01*
X9457214Y-18039929D01*
X9442928Y-18025643D01*
X9428643Y-17997072D01*
X9414357Y-17939929D01*
X9414357Y-17868500D01*
X9428643Y-17811357D01*
X9442928Y-17782786D01*
X9457214Y-17768500D01*
X9485786Y-17754214D01*
X9942928Y-18054214D02*
X9942928Y-17754214D01*
X10071500Y-18054214D02*
X10071500Y-17897072D01*
X10057214Y-17868500D01*
X10028643Y-17854214D01*
X9985786Y-17854214D01*
X9957214Y-17868500D01*
X9942928Y-17882786D01*
X10257214Y-18054214D02*
X10228643Y-18039929D01*
X10214357Y-18025643D01*
X10200071Y-17997072D01*
X10200071Y-17911357D01*
X10214357Y-17882786D01*
X10228643Y-17868500D01*
X10257214Y-17854214D01*
X10300071Y-17854214D01*
X10328643Y-17868500D01*
X10342928Y-17882786D01*
X10357214Y-17911357D01*
X10357214Y-17997072D01*
X10342928Y-18025643D01*
X10328643Y-18039929D01*
X10300071Y-18054214D01*
X10257214Y-18054214D01*
X10528643Y-18054214D02*
X10500071Y-18039929D01*
X10485786Y-18011357D01*
X10485786Y-17754214D01*
X10757214Y-18039929D02*
X10728643Y-18054214D01*
X10671500Y-18054214D01*
X10642928Y-18039929D01*
X10628643Y-18011357D01*
X10628643Y-17897072D01*
X10642928Y-17868500D01*
X10671500Y-17854214D01*
X10728643Y-17854214D01*
X10757214Y-17868500D01*
X10771500Y-17897072D01*
X10771500Y-17925643D01*
X10628643Y-17954214D01*
X10885786Y-18039929D02*
X10914357Y-18054214D01*
X10971500Y-18054214D01*
X11000071Y-18039929D01*
X11014357Y-18011357D01*
X11014357Y-17997072D01*
X11000071Y-17968500D01*
X10971500Y-17954214D01*
X10928643Y-17954214D01*
X10900071Y-17939929D01*
X10885786Y-17911357D01*
X10885786Y-17897072D01*
X10900071Y-17868500D01*
X10928643Y-17854214D01*
X10971500Y-17854214D01*
X11000071Y-17868500D01*
X11371500Y-17939929D02*
X11600071Y-17939929D01*
X11485786Y-18054214D02*
X11485786Y-17825643D01*
X11957214Y-17782786D02*
X11971500Y-17768500D01*
X12000071Y-17754214D01*
X12071500Y-17754214D01*
X12100071Y-17768500D01*
X12114357Y-17782786D01*
X12128643Y-17811357D01*
X12128643Y-17839929D01*
X12114357Y-17882786D01*
X11942928Y-18054214D01*
X12128643Y-18054214D01*
X12471500Y-18039929D02*
X12500071Y-18054214D01*
X12557214Y-18054214D01*
X12585786Y-18039929D01*
X12600071Y-18011357D01*
X12600071Y-17997072D01*
X12585786Y-17968500D01*
X12557214Y-17954214D01*
X12514357Y-17954214D01*
X12485786Y-17939929D01*
X12471500Y-17911357D01*
X12471500Y-17897072D01*
X12485786Y-17868500D01*
X12514357Y-17854214D01*
X12557214Y-17854214D01*
X12585786Y-17868500D01*
X12771500Y-18054214D02*
X12742928Y-18039929D01*
X12728643Y-18011357D01*
X12728643Y-17754214D01*
X12928643Y-18054214D02*
X12900071Y-18039929D01*
X12885786Y-18025643D01*
X12871500Y-17997072D01*
X12871500Y-17911357D01*
X12885786Y-17882786D01*
X12900071Y-17868500D01*
X12928643Y-17854214D01*
X12971500Y-17854214D01*
X13000071Y-17868500D01*
X13014357Y-17882786D01*
X13028643Y-17911357D01*
X13028643Y-17997072D01*
X13014357Y-18025643D01*
X13000071Y-18039929D01*
X12971500Y-18054214D01*
X12928643Y-18054214D01*
X13114357Y-17854214D02*
X13228643Y-17854214D01*
X13157214Y-17754214D02*
X13157214Y-18011357D01*
X13171500Y-18039929D01*
X13200071Y-18054214D01*
X13228643Y-18054214D01*
X13314357Y-18039929D02*
X13342928Y-18054214D01*
X13400071Y-18054214D01*
X13428643Y-18039929D01*
X13442928Y-18011357D01*
X13442928Y-17997072D01*
X13428643Y-17968500D01*
X13400071Y-17954214D01*
X13357214Y-17954214D01*
X13328643Y-17939929D01*
X13314357Y-17911357D01*
X13314357Y-17897072D01*
X13328643Y-17868500D01*
X13357214Y-17854214D01*
X13400071Y-17854214D01*
X13428643Y-17868500D01*
X13542928Y-18168500D02*
X13557214Y-18154214D01*
X13585786Y-18111357D01*
X13600071Y-18082786D01*
X13614357Y-18039929D01*
X13628643Y-17968500D01*
X13628643Y-17911357D01*
X13614357Y-17839929D01*
X13600071Y-17797072D01*
X13585786Y-17768500D01*
X13557214Y-17725643D01*
X13542928Y-17711357D01*
X3846500Y-18209500D02*
X4056500Y-18419500D01*
X4056500Y-18209500D02*
X3846500Y-18419500D01*
X4056500Y-18314500D02*
G75*
G03*
X4056500Y-18314500I-105000J0D01*
G01*
X4328643Y-18178786D02*
X4342928Y-18164500D01*
X4371500Y-18150214D01*
X4442928Y-18150214D01*
X4471500Y-18164500D01*
X4485786Y-18178786D01*
X4500071Y-18207357D01*
X4500071Y-18235929D01*
X4485786Y-18278786D01*
X4314357Y-18450214D01*
X4500071Y-18450214D01*
X4628643Y-18421643D02*
X4642928Y-18435929D01*
X4628643Y-18450214D01*
X4614357Y-18435929D01*
X4628643Y-18421643D01*
X4628643Y-18450214D01*
X4928643Y-18450214D02*
X4757214Y-18450214D01*
X4842928Y-18450214D02*
X4842928Y-18150214D01*
X4814357Y-18193072D01*
X4785786Y-18221643D01*
X4757214Y-18235929D01*
X5114357Y-18150214D02*
X5142928Y-18150214D01*
X5171500Y-18164500D01*
X5185786Y-18178786D01*
X5200071Y-18207357D01*
X5214357Y-18264500D01*
X5214357Y-18335929D01*
X5200071Y-18393072D01*
X5185786Y-18421643D01*
X5171500Y-18435929D01*
X5142928Y-18450214D01*
X5114357Y-18450214D01*
X5085786Y-18435929D01*
X5071500Y-18421643D01*
X5057214Y-18393072D01*
X5042928Y-18335929D01*
X5042928Y-18264500D01*
X5057214Y-18207357D01*
X5071500Y-18178786D01*
X5085786Y-18164500D01*
X5114357Y-18150214D01*
X5400071Y-18150214D02*
X5428643Y-18150214D01*
X5457214Y-18164500D01*
X5471500Y-18178786D01*
X5485786Y-18207357D01*
X5500071Y-18264500D01*
X5500071Y-18335929D01*
X5485786Y-18393072D01*
X5471500Y-18421643D01*
X5457214Y-18435929D01*
X5428643Y-18450214D01*
X5400071Y-18450214D01*
X5371500Y-18435929D01*
X5357214Y-18421643D01*
X5342928Y-18393072D01*
X5328643Y-18335929D01*
X5328643Y-18264500D01*
X5342928Y-18207357D01*
X5357214Y-18178786D01*
X5371500Y-18164500D01*
X5400071Y-18150214D01*
X5628643Y-18450214D02*
X5628643Y-18250214D01*
X5628643Y-18278786D02*
X5642928Y-18264500D01*
X5671500Y-18250214D01*
X5714357Y-18250214D01*
X5742928Y-18264500D01*
X5757214Y-18293072D01*
X5757214Y-18450214D01*
X5757214Y-18293072D02*
X5771500Y-18264500D01*
X5800071Y-18250214D01*
X5842928Y-18250214D01*
X5871500Y-18264500D01*
X5885786Y-18293072D01*
X5885786Y-18450214D01*
X6028643Y-18450214D02*
X6028643Y-18250214D01*
X6028643Y-18278786D02*
X6042928Y-18264500D01*
X6071500Y-18250214D01*
X6114357Y-18250214D01*
X6142928Y-18264500D01*
X6157214Y-18293072D01*
X6157214Y-18450214D01*
X6157214Y-18293072D02*
X6171500Y-18264500D01*
X6200071Y-18250214D01*
X6242928Y-18250214D01*
X6271500Y-18264500D01*
X6285786Y-18293072D01*
X6285786Y-18450214D01*
X6871500Y-18135929D02*
X6614357Y-18521643D01*
X7257214Y-18150214D02*
X7285786Y-18150214D01*
X7314357Y-18164500D01*
X7328643Y-18178786D01*
X7342928Y-18207357D01*
X7357214Y-18264500D01*
X7357214Y-18335929D01*
X7342928Y-18393072D01*
X7328643Y-18421643D01*
X7314357Y-18435929D01*
X7285786Y-18450214D01*
X7257214Y-18450214D01*
X7228643Y-18435929D01*
X7214357Y-18421643D01*
X7200071Y-18393072D01*
X7185786Y-18335929D01*
X7185786Y-18264500D01*
X7200071Y-18207357D01*
X7214357Y-18178786D01*
X7228643Y-18164500D01*
X7257214Y-18150214D01*
X7485786Y-18421643D02*
X7500071Y-18435929D01*
X7485786Y-18450214D01*
X7471500Y-18435929D01*
X7485786Y-18421643D01*
X7485786Y-18450214D01*
X7685786Y-18150214D02*
X7714357Y-18150214D01*
X7742928Y-18164500D01*
X7757214Y-18178786D01*
X7771500Y-18207357D01*
X7785786Y-18264500D01*
X7785786Y-18335929D01*
X7771500Y-18393072D01*
X7757214Y-18421643D01*
X7742928Y-18435929D01*
X7714357Y-18450214D01*
X7685786Y-18450214D01*
X7657214Y-18435929D01*
X7642928Y-18421643D01*
X7628643Y-18393072D01*
X7614357Y-18335929D01*
X7614357Y-18264500D01*
X7628643Y-18207357D01*
X7642928Y-18178786D01*
X7657214Y-18164500D01*
X7685786Y-18150214D01*
X7957214Y-18278786D02*
X7928643Y-18264500D01*
X7914357Y-18250214D01*
X7900071Y-18221643D01*
X7900071Y-18207357D01*
X7914357Y-18178786D01*
X7928643Y-18164500D01*
X7957214Y-18150214D01*
X8014357Y-18150214D01*
X8042928Y-18164500D01*
X8057214Y-18178786D01*
X8071500Y-18207357D01*
X8071500Y-18221643D01*
X8057214Y-18250214D01*
X8042928Y-18264500D01*
X8014357Y-18278786D01*
X7957214Y-18278786D01*
X7928643Y-18293072D01*
X7914357Y-18307357D01*
X7900071Y-18335929D01*
X7900071Y-18393072D01*
X7914357Y-18421643D01*
X7928643Y-18435929D01*
X7957214Y-18450214D01*
X8014357Y-18450214D01*
X8042928Y-18435929D01*
X8057214Y-18421643D01*
X8071500Y-18393072D01*
X8071500Y-18335929D01*
X8057214Y-18307357D01*
X8042928Y-18293072D01*
X8014357Y-18278786D01*
X8185786Y-18178786D02*
X8200071Y-18164500D01*
X8228643Y-18150214D01*
X8300071Y-18150214D01*
X8328643Y-18164500D01*
X8342928Y-18178786D01*
X8357214Y-18207357D01*
X8357214Y-18235929D01*
X8342928Y-18278786D01*
X8171500Y-18450214D01*
X8357214Y-18450214D01*
X8457214Y-18150214D02*
X8657214Y-18150214D01*
X8528643Y-18450214D01*
X8757214Y-18150214D02*
X8757214Y-18207357D01*
X8871500Y-18150214D02*
X8871500Y-18207357D01*
X9314357Y-18564500D02*
X9300071Y-18550214D01*
X9271500Y-18507357D01*
X9257214Y-18478786D01*
X9242928Y-18435929D01*
X9228643Y-18364500D01*
X9228643Y-18307357D01*
X9242928Y-18235929D01*
X9257214Y-18193072D01*
X9271500Y-18164500D01*
X9300071Y-18121643D01*
X9314357Y-18107357D01*
X9414357Y-18178786D02*
X9428643Y-18164500D01*
X9457214Y-18150214D01*
X9528643Y-18150214D01*
X9557214Y-18164500D01*
X9571500Y-18178786D01*
X9585786Y-18207357D01*
X9585786Y-18235929D01*
X9571500Y-18278786D01*
X9400071Y-18450214D01*
X9585786Y-18450214D01*
X9942928Y-18450214D02*
X9942928Y-18150214D01*
X10071500Y-18450214D02*
X10071500Y-18293072D01*
X10057214Y-18264500D01*
X10028643Y-18250214D01*
X9985786Y-18250214D01*
X9957214Y-18264500D01*
X9942928Y-18278786D01*
X10257214Y-18450214D02*
X10228643Y-18435929D01*
X10214357Y-18421643D01*
X10200071Y-18393072D01*
X10200071Y-18307357D01*
X10214357Y-18278786D01*
X10228643Y-18264500D01*
X10257214Y-18250214D01*
X10300071Y-18250214D01*
X10328643Y-18264500D01*
X10342928Y-18278786D01*
X10357214Y-18307357D01*
X10357214Y-18393072D01*
X10342928Y-18421643D01*
X10328643Y-18435929D01*
X10300071Y-18450214D01*
X10257214Y-18450214D01*
X10528643Y-18450214D02*
X10500071Y-18435929D01*
X10485786Y-18407357D01*
X10485786Y-18150214D01*
X10757214Y-18435929D02*
X10728643Y-18450214D01*
X10671500Y-18450214D01*
X10642928Y-18435929D01*
X10628643Y-18407357D01*
X10628643Y-18293072D01*
X10642928Y-18264500D01*
X10671500Y-18250214D01*
X10728643Y-18250214D01*
X10757214Y-18264500D01*
X10771500Y-18293072D01*
X10771500Y-18321643D01*
X10628643Y-18350214D01*
X10885786Y-18435929D02*
X10914357Y-18450214D01*
X10971500Y-18450214D01*
X11000071Y-18435929D01*
X11014357Y-18407357D01*
X11014357Y-18393072D01*
X11000071Y-18364500D01*
X10971500Y-18350214D01*
X10928643Y-18350214D01*
X10900071Y-18335929D01*
X10885786Y-18307357D01*
X10885786Y-18293072D01*
X10900071Y-18264500D01*
X10928643Y-18250214D01*
X10971500Y-18250214D01*
X11000071Y-18264500D01*
X11114357Y-18564500D02*
X11128643Y-18550214D01*
X11157214Y-18507357D01*
X11171500Y-18478786D01*
X11185786Y-18435929D01*
X11200071Y-18364500D01*
X11200071Y-18307357D01*
X11185786Y-18235929D01*
X11171500Y-18193072D01*
X11157214Y-18164500D01*
X11128643Y-18121643D01*
X11114357Y-18107357D01*
M02*
