%TF.GenerationSoftware,KiCad,Pcbnew,5.1.10*%
%TF.CreationDate,2021-11-08T18:50:54+01:00*%
%TF.ProjectId,PCB_BLDC,5043425f-424c-4444-932e-6b696361645f,V1*%
%TF.SameCoordinates,Original*%
%TF.FileFunction,Plated,1,2,PTH,Mixed*%
%TF.FilePolarity,Positive*%
%FSLAX46Y46*%
G04 Gerber Fmt 4.6, Leading zero omitted, Abs format (unit mm)*
G04 Created by KiCad (PCBNEW 5.1.10) date 2021-11-08 18:50:54*
%MOMM*%
%LPD*%
G01*
G04 APERTURE LIST*
%TA.AperFunction,ViaDrill*%
%ADD10C,0.400000*%
%TD*%
%TA.AperFunction,ComponentDrill*%
%ADD11C,0.700000*%
%TD*%
%TA.AperFunction,ComponentDrill*%
%ADD12C,1.000000*%
%TD*%
%TA.AperFunction,ComponentDrill*%
%ADD13C,1.300000*%
%TD*%
G04 aperture for slot hole*
%TA.AperFunction,ComponentDrill*%
%ADD14C,2.000000*%
%TD*%
%TA.AperFunction,ComponentDrill*%
%ADD15C,6.100000*%
%TD*%
G04 APERTURE END LIST*
D10*
X34290000Y-160655000D03*
X36068000Y-116332000D03*
X36068000Y-136652000D03*
X36068000Y-141732000D03*
X39370000Y-160655000D03*
X41148000Y-136652000D03*
X41148000Y-141732000D03*
X44450000Y-160655000D03*
X46228000Y-121412000D03*
X46228000Y-126492000D03*
X46228000Y-131572000D03*
X46228000Y-136652000D03*
X46228000Y-141732000D03*
X47650400Y-124409200D03*
X49530000Y-160655000D03*
X54610000Y-160655000D03*
X58420000Y-160655000D03*
X60960000Y-99060000D03*
X60960000Y-104140000D03*
X60960000Y-109220000D03*
X60960000Y-114300000D03*
X60960000Y-119380000D03*
X60960000Y-124460000D03*
X63500000Y-96520000D03*
X63500000Y-106680000D03*
X63500000Y-111760000D03*
X63500000Y-116840000D03*
X63500000Y-121920000D03*
X63500000Y-160655000D03*
X66040000Y-93980000D03*
X66040000Y-99060000D03*
X66040000Y-109220000D03*
X66040000Y-114300000D03*
X66040000Y-119380000D03*
X66040000Y-124460000D03*
X68580000Y-160655000D03*
X73660000Y-91440000D03*
X73660000Y-140970000D03*
X73660000Y-160655000D03*
X73787000Y-105537000D03*
X76200000Y-88900000D03*
X76200000Y-93980000D03*
X77470000Y-140970000D03*
X78740000Y-91440000D03*
X78740000Y-160655000D03*
X80594200Y-118059200D03*
X81229200Y-108534200D03*
X81229200Y-113614200D03*
X81280000Y-140970000D03*
X81407000Y-120777000D03*
X81407000Y-125857000D03*
X82550000Y-160655000D03*
X83134200Y-130886200D03*
X84658200Y-112598200D03*
X85090000Y-140970000D03*
X85928200Y-113995200D03*
X87579200Y-112979200D03*
X87630000Y-160655000D03*
X88849200Y-115519200D03*
X88900000Y-140970000D03*
X92710000Y-140970000D03*
X92710000Y-160655000D03*
X93980000Y-109220000D03*
X93980000Y-116840000D03*
X93980000Y-121920000D03*
X93980000Y-127000000D03*
X95250000Y-140970000D03*
X96520000Y-91440000D03*
X96520000Y-119380000D03*
X96520000Y-124460000D03*
X96520000Y-129540000D03*
X97790000Y-140970000D03*
X97790000Y-160655000D03*
X99060000Y-88900000D03*
X99060000Y-116840000D03*
X99060000Y-121920000D03*
X99060000Y-127000000D03*
X99060000Y-132080000D03*
X100330000Y-140970000D03*
X101600000Y-91440000D03*
X101600000Y-104140000D03*
X101600000Y-124460000D03*
X101600000Y-129540000D03*
X101854000Y-86868000D03*
X102870000Y-160655000D03*
X109220000Y-93980000D03*
X109220000Y-104140000D03*
X110744000Y-78740000D03*
X111760000Y-91440000D03*
X114182200Y-104784200D03*
X115138200Y-111074200D03*
X115138200Y-114630200D03*
X115646200Y-116662200D03*
X115951000Y-119253000D03*
X115951000Y-124333000D03*
X116662200Y-132410200D03*
X116840000Y-86360000D03*
X117967750Y-119776250D03*
X118567200Y-112979200D03*
X119202200Y-114630200D03*
X121742200Y-113614200D03*
X121920000Y-86360000D03*
X123266200Y-115646200D03*
X124460000Y-83820000D03*
X127000000Y-86360000D03*
X129540000Y-83820000D03*
X129540000Y-121920000D03*
X129540000Y-127000000D03*
X129540000Y-132080000D03*
X132080000Y-86360000D03*
X132080000Y-119380000D03*
X132080000Y-124460000D03*
X132080000Y-129540000D03*
X132080000Y-134620000D03*
X138811000Y-104013000D03*
X143891000Y-91313000D03*
X147320000Y-104140000D03*
X148539200Y-110820200D03*
X148539200Y-113868200D03*
X148539200Y-118440200D03*
X148971000Y-121793000D03*
X148971000Y-126873000D03*
X149352000Y-137668000D03*
X149555200Y-133172200D03*
X152095200Y-112344200D03*
X153365200Y-113106200D03*
X155143200Y-113360200D03*
X156667200Y-113868200D03*
X157581600Y-75082400D03*
X157581600Y-80162400D03*
X162661600Y-75082400D03*
X162661600Y-80162400D03*
X163271200Y-110439200D03*
X163271200Y-115519200D03*
X163271200Y-120599200D03*
X163271200Y-125679200D03*
X163271200Y-130759200D03*
X163271200Y-135839200D03*
X167741600Y-75082400D03*
X167741600Y-80162400D03*
X168351200Y-110439200D03*
X168351200Y-115519200D03*
X168351200Y-120599200D03*
X168351200Y-125679200D03*
X168351200Y-130759200D03*
X168351200Y-135839200D03*
D11*
%TO.C,U1*%
X58039000Y-136525000D03*
X60579000Y-136525000D03*
X63119000Y-136525000D03*
D12*
%TO.C,SW1*%
X42164000Y-76863800D03*
X42164000Y-91363800D03*
%TO.C,J4*%
X43434000Y-105333800D03*
%TO.C,SW1*%
X44664000Y-91363800D03*
%TO.C,J4*%
X45974000Y-105333800D03*
%TO.C,SW1*%
X47164000Y-76863800D03*
X47164000Y-91363800D03*
%TO.C,J9*%
X51714400Y-119329200D03*
X51714400Y-121869200D03*
%TO.C,J5*%
X69596000Y-107442000D03*
X69596000Y-109982000D03*
X69596000Y-112522000D03*
X69596000Y-115062000D03*
%TO.C,J6*%
X104648000Y-107188000D03*
X104648000Y-109728000D03*
X104648000Y-112268000D03*
X104648000Y-114808000D03*
%TO.C,J7*%
X136652000Y-107188000D03*
X136652000Y-109728000D03*
X136652000Y-112268000D03*
X136652000Y-114808000D03*
D13*
%TO.C,J3*%
X65344000Y-78740000D03*
X70344000Y-78740000D03*
X75344000Y-78740000D03*
X80344000Y-78740000D03*
X85344000Y-78740000D03*
%TO.C,J2*%
X132715000Y-78740000D03*
X137715000Y-78740000D03*
X142715000Y-78740000D03*
D14*
%TO.C,SW1*%
X39064000Y-83613800D02*
X39064000Y-84113800D01*
X50264000Y-83613800D02*
X50264000Y-84113800D01*
D15*
%TO.C,J8*%
X36576000Y-149352000D03*
%TO.C,J1*%
X37973000Y-128397000D03*
M02*
