%TF.GenerationSoftware,KiCad,Pcbnew,5.1.10*%
%TF.CreationDate,2021-11-06T16:29:50+01:00*%
%TF.ProjectId,PCB_BLDC,5043425f-424c-4444-932e-6b696361645f,V1*%
%TF.SameCoordinates,Original*%
%TF.FileFunction,Legend,Top*%
%TF.FilePolarity,Positive*%
%FSLAX46Y46*%
G04 Gerber Fmt 4.6, Leading zero omitted, Abs format (unit mm)*
G04 Created by KiCad (PCBNEW 5.1.10) date 2021-11-06 16:29:50*
%MOMM*%
%LPD*%
G01*
G04 APERTURE LIST*
%ADD10C,0.150000*%
%ADD11C,0.120000*%
G04 APERTURE END LIST*
D10*
X35052095Y-116594000D02*
X34956857Y-116546380D01*
X34814000Y-116546380D01*
X34671142Y-116594000D01*
X34575904Y-116689238D01*
X34528285Y-116784476D01*
X34480666Y-116974952D01*
X34480666Y-117117809D01*
X34528285Y-117308285D01*
X34575904Y-117403523D01*
X34671142Y-117498761D01*
X34814000Y-117546380D01*
X34909238Y-117546380D01*
X35052095Y-117498761D01*
X35099714Y-117451142D01*
X35099714Y-117117809D01*
X34909238Y-117117809D01*
X35528285Y-117546380D02*
X35528285Y-116546380D01*
X36099714Y-117546380D01*
X36099714Y-116546380D01*
X36575904Y-117546380D02*
X36575904Y-116546380D01*
X36814000Y-116546380D01*
X36956857Y-116594000D01*
X37052095Y-116689238D01*
X37099714Y-116784476D01*
X37147333Y-116974952D01*
X37147333Y-117117809D01*
X37099714Y-117308285D01*
X37052095Y-117403523D01*
X36956857Y-117498761D01*
X36814000Y-117546380D01*
X36575904Y-117546380D01*
X39814666Y-140422380D02*
X40148000Y-141422380D01*
X40481333Y-140422380D01*
X41386095Y-141327142D02*
X41338476Y-141374761D01*
X41195619Y-141422380D01*
X41100380Y-141422380D01*
X40957523Y-141374761D01*
X40862285Y-141279523D01*
X40814666Y-141184285D01*
X40767047Y-140993809D01*
X40767047Y-140850952D01*
X40814666Y-140660476D01*
X40862285Y-140565238D01*
X40957523Y-140470000D01*
X41100380Y-140422380D01*
X41195619Y-140422380D01*
X41338476Y-140470000D01*
X41386095Y-140517619D01*
X42386095Y-141327142D02*
X42338476Y-141374761D01*
X42195619Y-141422380D01*
X42100380Y-141422380D01*
X41957523Y-141374761D01*
X41862285Y-141279523D01*
X41814666Y-141184285D01*
X41767047Y-140993809D01*
X41767047Y-140850952D01*
X41814666Y-140660476D01*
X41862285Y-140565238D01*
X41957523Y-140470000D01*
X42100380Y-140422380D01*
X42195619Y-140422380D01*
X42338476Y-140470000D01*
X42386095Y-140517619D01*
X91757523Y-121626380D02*
X91281333Y-121626380D01*
X91233714Y-122102571D01*
X91281333Y-122054952D01*
X91376571Y-122007333D01*
X91614666Y-122007333D01*
X91709904Y-122054952D01*
X91757523Y-122102571D01*
X91805142Y-122197809D01*
X91805142Y-122435904D01*
X91757523Y-122531142D01*
X91709904Y-122578761D01*
X91614666Y-122626380D01*
X91376571Y-122626380D01*
X91281333Y-122578761D01*
X91233714Y-122531142D01*
X92090857Y-121626380D02*
X92424190Y-122626380D01*
X92757523Y-121626380D01*
X193889333Y-91130380D02*
X193413142Y-91130380D01*
X193413142Y-90130380D01*
X194127428Y-90130380D02*
X194746476Y-90130380D01*
X194413142Y-90511333D01*
X194556000Y-90511333D01*
X194651238Y-90558952D01*
X194698857Y-90606571D01*
X194746476Y-90701809D01*
X194746476Y-90939904D01*
X194698857Y-91035142D01*
X194651238Y-91082761D01*
X194556000Y-91130380D01*
X194270285Y-91130380D01*
X194175047Y-91082761D01*
X194127428Y-91035142D01*
X193889333Y-86304380D02*
X193413142Y-86304380D01*
X193413142Y-85304380D01*
X194175047Y-85399619D02*
X194222666Y-85352000D01*
X194317904Y-85304380D01*
X194556000Y-85304380D01*
X194651238Y-85352000D01*
X194698857Y-85399619D01*
X194746476Y-85494857D01*
X194746476Y-85590095D01*
X194698857Y-85732952D01*
X194127428Y-86304380D01*
X194746476Y-86304380D01*
X193635333Y-81224380D02*
X193159142Y-81224380D01*
X193159142Y-80224380D01*
X194492476Y-81224380D02*
X193921047Y-81224380D01*
X194206761Y-81224380D02*
X194206761Y-80224380D01*
X194111523Y-80367238D01*
X194016285Y-80462476D01*
X193921047Y-80510095D01*
X193865523Y-95464380D02*
X193389333Y-95464380D01*
X193341714Y-95940571D01*
X193389333Y-95892952D01*
X193484571Y-95845333D01*
X193722666Y-95845333D01*
X193817904Y-95892952D01*
X193865523Y-95940571D01*
X193913142Y-96035809D01*
X193913142Y-96273904D01*
X193865523Y-96369142D01*
X193817904Y-96416761D01*
X193722666Y-96464380D01*
X193484571Y-96464380D01*
X193389333Y-96416761D01*
X193341714Y-96369142D01*
X194198857Y-95464380D02*
X194532190Y-96464380D01*
X194865523Y-95464380D01*
X191206380Y-89939333D02*
X190206380Y-89939333D01*
X190682571Y-89939333D02*
X190682571Y-89367904D01*
X191206380Y-89367904D02*
X190206380Y-89367904D01*
X191206380Y-88463142D02*
X190682571Y-88463142D01*
X190587333Y-88510761D01*
X190539714Y-88606000D01*
X190539714Y-88796476D01*
X190587333Y-88891714D01*
X191158761Y-88463142D02*
X191206380Y-88558380D01*
X191206380Y-88796476D01*
X191158761Y-88891714D01*
X191063523Y-88939333D01*
X190968285Y-88939333D01*
X190873047Y-88891714D01*
X190825428Y-88796476D01*
X190825428Y-88558380D01*
X190777809Y-88463142D01*
X191206380Y-87844095D02*
X191158761Y-87939333D01*
X191063523Y-87986952D01*
X190206380Y-87986952D01*
X191206380Y-87320285D02*
X191158761Y-87415523D01*
X191063523Y-87463142D01*
X190206380Y-87463142D01*
X191158761Y-86225047D02*
X191206380Y-86082190D01*
X191206380Y-85844095D01*
X191158761Y-85748857D01*
X191111142Y-85701238D01*
X191015904Y-85653619D01*
X190920666Y-85653619D01*
X190825428Y-85701238D01*
X190777809Y-85748857D01*
X190730190Y-85844095D01*
X190682571Y-86034571D01*
X190634952Y-86129809D01*
X190587333Y-86177428D01*
X190492095Y-86225047D01*
X190396857Y-86225047D01*
X190301619Y-86177428D01*
X190254000Y-86129809D01*
X190206380Y-86034571D01*
X190206380Y-85796476D01*
X190254000Y-85653619D01*
X191158761Y-84844095D02*
X191206380Y-84939333D01*
X191206380Y-85129809D01*
X191158761Y-85225047D01*
X191063523Y-85272666D01*
X190682571Y-85272666D01*
X190587333Y-85225047D01*
X190539714Y-85129809D01*
X190539714Y-84939333D01*
X190587333Y-84844095D01*
X190682571Y-84796476D01*
X190777809Y-84796476D01*
X190873047Y-85272666D01*
X190539714Y-84367904D02*
X191206380Y-84367904D01*
X190634952Y-84367904D02*
X190587333Y-84320285D01*
X190539714Y-84225047D01*
X190539714Y-84082190D01*
X190587333Y-83986952D01*
X190682571Y-83939333D01*
X191206380Y-83939333D01*
X191158761Y-83510761D02*
X191206380Y-83415523D01*
X191206380Y-83225047D01*
X191158761Y-83129809D01*
X191063523Y-83082190D01*
X191015904Y-83082190D01*
X190920666Y-83129809D01*
X190873047Y-83225047D01*
X190873047Y-83367904D01*
X190825428Y-83463142D01*
X190730190Y-83510761D01*
X190682571Y-83510761D01*
X190587333Y-83463142D01*
X190539714Y-83367904D01*
X190539714Y-83225047D01*
X190587333Y-83129809D01*
X191158761Y-82272666D02*
X191206380Y-82367904D01*
X191206380Y-82558380D01*
X191158761Y-82653619D01*
X191063523Y-82701238D01*
X190682571Y-82701238D01*
X190587333Y-82653619D01*
X190539714Y-82558380D01*
X190539714Y-82367904D01*
X190587333Y-82272666D01*
X190682571Y-82225047D01*
X190777809Y-82225047D01*
X190873047Y-82701238D01*
X193635333Y-76398380D02*
X193159142Y-76398380D01*
X193159142Y-75398380D01*
X193873428Y-75398380D02*
X194492476Y-75398380D01*
X194159142Y-75779333D01*
X194302000Y-75779333D01*
X194397238Y-75826952D01*
X194444857Y-75874571D01*
X194492476Y-75969809D01*
X194492476Y-76207904D01*
X194444857Y-76303142D01*
X194397238Y-76350761D01*
X194302000Y-76398380D01*
X194016285Y-76398380D01*
X193921047Y-76350761D01*
X193873428Y-76303142D01*
X193381333Y-71318380D02*
X192905142Y-71318380D01*
X192905142Y-70318380D01*
X193667047Y-70413619D02*
X193714666Y-70366000D01*
X193809904Y-70318380D01*
X194048000Y-70318380D01*
X194143238Y-70366000D01*
X194190857Y-70413619D01*
X194238476Y-70508857D01*
X194238476Y-70604095D01*
X194190857Y-70746952D01*
X193619428Y-71318380D01*
X194238476Y-71318380D01*
X193381333Y-66238380D02*
X192905142Y-66238380D01*
X192905142Y-65238380D01*
X194238476Y-66238380D02*
X193667047Y-66238380D01*
X193952761Y-66238380D02*
X193952761Y-65238380D01*
X193857523Y-65381238D01*
X193762285Y-65476476D01*
X193667047Y-65524095D01*
X173315333Y-108910380D02*
X172839142Y-108910380D01*
X172839142Y-107910380D01*
X173553428Y-107910380D02*
X174172476Y-107910380D01*
X173839142Y-108291333D01*
X173982000Y-108291333D01*
X174077238Y-108338952D01*
X174124857Y-108386571D01*
X174172476Y-108481809D01*
X174172476Y-108719904D01*
X174124857Y-108815142D01*
X174077238Y-108862761D01*
X173982000Y-108910380D01*
X173696285Y-108910380D01*
X173601047Y-108862761D01*
X173553428Y-108815142D01*
X174585333Y-75636380D02*
X174109142Y-75636380D01*
X174109142Y-74636380D01*
X174871047Y-74731619D02*
X174918666Y-74684000D01*
X175013904Y-74636380D01*
X175252000Y-74636380D01*
X175347238Y-74684000D01*
X175394857Y-74731619D01*
X175442476Y-74826857D01*
X175442476Y-74922095D01*
X175394857Y-75064952D01*
X174823428Y-75636380D01*
X175442476Y-75636380D01*
X177887333Y-43632380D02*
X177411142Y-43632380D01*
X177411142Y-42632380D01*
X178744476Y-43632380D02*
X178173047Y-43632380D01*
X178458761Y-43632380D02*
X178458761Y-42632380D01*
X178363523Y-42775238D01*
X178268285Y-42870476D01*
X178173047Y-42918095D01*
X107410285Y-103687619D02*
X107457904Y-103640000D01*
X107553142Y-103592380D01*
X107791238Y-103592380D01*
X107886476Y-103640000D01*
X107934095Y-103687619D01*
X107981714Y-103782857D01*
X107981714Y-103878095D01*
X107934095Y-104020952D01*
X107362666Y-104592380D01*
X107981714Y-104592380D01*
X105314761Y-104592380D02*
X104743333Y-104592380D01*
X105029047Y-104592380D02*
X105029047Y-103592380D01*
X104933809Y-103735238D01*
X104838571Y-103830476D01*
X104743333Y-103878095D01*
X109902666Y-103592380D02*
X110521714Y-103592380D01*
X110188380Y-103973333D01*
X110331238Y-103973333D01*
X110426476Y-104020952D01*
X110474095Y-104068571D01*
X110521714Y-104163809D01*
X110521714Y-104401904D01*
X110474095Y-104497142D01*
X110426476Y-104544761D01*
X110331238Y-104592380D01*
X110045523Y-104592380D01*
X109950285Y-104544761D01*
X109902666Y-104497142D01*
X103354666Y-102052380D02*
X103354666Y-101052380D01*
X103354666Y-101528571D02*
X103926095Y-101528571D01*
X103926095Y-102052380D02*
X103926095Y-101052380D01*
X104830857Y-102052380D02*
X104830857Y-101528571D01*
X104783238Y-101433333D01*
X104688000Y-101385714D01*
X104497523Y-101385714D01*
X104402285Y-101433333D01*
X104830857Y-102004761D02*
X104735619Y-102052380D01*
X104497523Y-102052380D01*
X104402285Y-102004761D01*
X104354666Y-101909523D01*
X104354666Y-101814285D01*
X104402285Y-101719047D01*
X104497523Y-101671428D01*
X104735619Y-101671428D01*
X104830857Y-101623809D01*
X105449904Y-102052380D02*
X105354666Y-102004761D01*
X105307047Y-101909523D01*
X105307047Y-101052380D01*
X105973714Y-102052380D02*
X105878476Y-102004761D01*
X105830857Y-101909523D01*
X105830857Y-101052380D01*
X107068952Y-102004761D02*
X107211809Y-102052380D01*
X107449904Y-102052380D01*
X107545142Y-102004761D01*
X107592761Y-101957142D01*
X107640380Y-101861904D01*
X107640380Y-101766666D01*
X107592761Y-101671428D01*
X107545142Y-101623809D01*
X107449904Y-101576190D01*
X107259428Y-101528571D01*
X107164190Y-101480952D01*
X107116571Y-101433333D01*
X107068952Y-101338095D01*
X107068952Y-101242857D01*
X107116571Y-101147619D01*
X107164190Y-101100000D01*
X107259428Y-101052380D01*
X107497523Y-101052380D01*
X107640380Y-101100000D01*
X108449904Y-102004761D02*
X108354666Y-102052380D01*
X108164190Y-102052380D01*
X108068952Y-102004761D01*
X108021333Y-101909523D01*
X108021333Y-101528571D01*
X108068952Y-101433333D01*
X108164190Y-101385714D01*
X108354666Y-101385714D01*
X108449904Y-101433333D01*
X108497523Y-101528571D01*
X108497523Y-101623809D01*
X108021333Y-101719047D01*
X108926095Y-101385714D02*
X108926095Y-102052380D01*
X108926095Y-101480952D02*
X108973714Y-101433333D01*
X109068952Y-101385714D01*
X109211809Y-101385714D01*
X109307047Y-101433333D01*
X109354666Y-101528571D01*
X109354666Y-102052380D01*
X109783238Y-102004761D02*
X109878476Y-102052380D01*
X110068952Y-102052380D01*
X110164190Y-102004761D01*
X110211809Y-101909523D01*
X110211809Y-101861904D01*
X110164190Y-101766666D01*
X110068952Y-101719047D01*
X109926095Y-101719047D01*
X109830857Y-101671428D01*
X109783238Y-101576190D01*
X109783238Y-101528571D01*
X109830857Y-101433333D01*
X109926095Y-101385714D01*
X110068952Y-101385714D01*
X110164190Y-101433333D01*
X111021333Y-102004761D02*
X110926095Y-102052380D01*
X110735619Y-102052380D01*
X110640380Y-102004761D01*
X110592761Y-101909523D01*
X110592761Y-101528571D01*
X110640380Y-101433333D01*
X110735619Y-101385714D01*
X110926095Y-101385714D01*
X111021333Y-101433333D01*
X111068952Y-101528571D01*
X111068952Y-101623809D01*
X110592761Y-101719047D01*
X102028666Y-103592380D02*
X102647714Y-103592380D01*
X102314380Y-103973333D01*
X102457238Y-103973333D01*
X102552476Y-104020952D01*
X102600095Y-104068571D01*
X102647714Y-104163809D01*
X102647714Y-104401904D01*
X102600095Y-104497142D01*
X102552476Y-104544761D01*
X102457238Y-104592380D01*
X102171523Y-104592380D01*
X102076285Y-104544761D01*
X102028666Y-104497142D01*
X99790285Y-103687619D02*
X99837904Y-103640000D01*
X99933142Y-103592380D01*
X100171238Y-103592380D01*
X100266476Y-103640000D01*
X100314095Y-103687619D01*
X100361714Y-103782857D01*
X100361714Y-103878095D01*
X100314095Y-104020952D01*
X99742666Y-104592380D01*
X100361714Y-104592380D01*
X97694761Y-104592380D02*
X97123333Y-104592380D01*
X97409047Y-104592380D02*
X97409047Y-103592380D01*
X97313809Y-103735238D01*
X97218571Y-103830476D01*
X97123333Y-103878095D01*
X95766285Y-101831142D02*
X95718666Y-101878761D01*
X95575809Y-101926380D01*
X95480571Y-101926380D01*
X95337714Y-101878761D01*
X95242476Y-101783523D01*
X95194857Y-101688285D01*
X95147238Y-101497809D01*
X95147238Y-101354952D01*
X95194857Y-101164476D01*
X95242476Y-101069238D01*
X95337714Y-100974000D01*
X95480571Y-100926380D01*
X95575809Y-100926380D01*
X95718666Y-100974000D01*
X95766285Y-101021619D01*
X96623428Y-101259714D02*
X96623428Y-101926380D01*
X96194857Y-101259714D02*
X96194857Y-101783523D01*
X96242476Y-101878761D01*
X96337714Y-101926380D01*
X96480571Y-101926380D01*
X96575809Y-101878761D01*
X96623428Y-101831142D01*
X97099619Y-101926380D02*
X97099619Y-101259714D01*
X97099619Y-101450190D02*
X97147238Y-101354952D01*
X97194857Y-101307333D01*
X97290095Y-101259714D01*
X97385333Y-101259714D01*
X97718666Y-101926380D02*
X97718666Y-101259714D01*
X97718666Y-101450190D02*
X97766285Y-101354952D01*
X97813904Y-101307333D01*
X97909142Y-101259714D01*
X98004380Y-101259714D01*
X98718666Y-101878761D02*
X98623428Y-101926380D01*
X98432952Y-101926380D01*
X98337714Y-101878761D01*
X98290095Y-101783523D01*
X98290095Y-101402571D01*
X98337714Y-101307333D01*
X98432952Y-101259714D01*
X98623428Y-101259714D01*
X98718666Y-101307333D01*
X98766285Y-101402571D01*
X98766285Y-101497809D01*
X98290095Y-101593047D01*
X99194857Y-101259714D02*
X99194857Y-101926380D01*
X99194857Y-101354952D02*
X99242476Y-101307333D01*
X99337714Y-101259714D01*
X99480571Y-101259714D01*
X99575809Y-101307333D01*
X99623428Y-101402571D01*
X99623428Y-101926380D01*
X99956761Y-101259714D02*
X100337714Y-101259714D01*
X100099619Y-100926380D02*
X100099619Y-101783523D01*
X100147238Y-101878761D01*
X100242476Y-101926380D01*
X100337714Y-101926380D01*
X101671047Y-102259714D02*
X101671047Y-100831142D01*
D11*
%TO.C,J8*%
X42076000Y-148336000D02*
G75*
G03*
X42076000Y-148336000I-5500000J0D01*
G01*
%TO.C,J11*%
X203610000Y-90678000D02*
G75*
G03*
X203610000Y-90678000I-1680000J0D01*
G01*
X203610000Y-85678000D02*
G75*
G03*
X203610000Y-85678000I-1680000J0D01*
G01*
X203610000Y-80678000D02*
G75*
G03*
X203610000Y-80678000I-1680000J0D01*
G01*
X203610000Y-75678000D02*
G75*
G03*
X203610000Y-75678000I-1680000J0D01*
G01*
X203610000Y-70678000D02*
G75*
G03*
X203610000Y-70678000I-1680000J0D01*
G01*
X203610000Y-65678000D02*
G75*
G03*
X203610000Y-65678000I-1680000J0D01*
G01*
X206030000Y-98238000D02*
X206030000Y-63118000D01*
X204530000Y-98238000D02*
X204530000Y-63118000D01*
X199629000Y-98238000D02*
X199629000Y-63118000D01*
X196669000Y-98238000D02*
X196669000Y-63118000D01*
X206590000Y-98238000D02*
X206590000Y-63118000D01*
X196669000Y-98238000D02*
X206590000Y-98238000D01*
X196669000Y-63118000D02*
X206590000Y-63118000D01*
X200861000Y-89403000D02*
X200907000Y-89450000D01*
X203169000Y-91712000D02*
X203204000Y-91747000D01*
X200655000Y-89608000D02*
X200691000Y-89643000D01*
X202953000Y-91905000D02*
X202999000Y-91952000D01*
X200861000Y-84403000D02*
X200907000Y-84450000D01*
X203169000Y-86712000D02*
X203204000Y-86747000D01*
X200655000Y-84608000D02*
X200691000Y-84643000D01*
X202953000Y-86905000D02*
X202999000Y-86952000D01*
X200861000Y-79403000D02*
X200907000Y-79450000D01*
X203169000Y-81712000D02*
X203204000Y-81747000D01*
X200655000Y-79608000D02*
X200691000Y-79643000D01*
X202953000Y-81905000D02*
X202999000Y-81952000D01*
X200861000Y-74403000D02*
X200907000Y-74450000D01*
X203169000Y-76712000D02*
X203204000Y-76747000D01*
X200655000Y-74608000D02*
X200691000Y-74643000D01*
X202953000Y-76905000D02*
X202999000Y-76952000D01*
X200861000Y-69403000D02*
X200907000Y-69450000D01*
X203169000Y-71712000D02*
X203204000Y-71747000D01*
X200655000Y-69608000D02*
X200691000Y-69643000D01*
X202953000Y-71905000D02*
X202999000Y-71952000D01*
X200861000Y-64403000D02*
X200907000Y-64450000D01*
X203169000Y-66712000D02*
X203204000Y-66747000D01*
X200655000Y-64608000D02*
X200691000Y-64643000D01*
X202953000Y-66905000D02*
X202999000Y-66952000D01*
X206090000Y-98478000D02*
X206830000Y-98478000D01*
X206830000Y-98478000D02*
X206830000Y-97978000D01*
X203610253Y-95649195D02*
G75*
G02*
X203465000Y-96362000I-1680253J-28805D01*
G01*
X202613042Y-97213426D02*
G75*
G02*
X201246000Y-97213000I-683042J1535426D01*
G01*
X200394574Y-96361042D02*
G75*
G02*
X200395000Y-94994000I1535426J683042D01*
G01*
X201246958Y-94142574D02*
G75*
G02*
X202614000Y-94143000I683042J-1535426D01*
G01*
X203464756Y-94994682D02*
G75*
G02*
X203610000Y-95678000I-1534756J-683318D01*
G01*
%TO.C,J10*%
X98679000Y-109144100D02*
X98679000Y-106484100D01*
X98679000Y-109144100D02*
X111439000Y-109144100D01*
X111439000Y-109144100D02*
X111439000Y-106484100D01*
X98679000Y-106484100D02*
X111439000Y-106484100D01*
X96079000Y-106484100D02*
X97409000Y-106484100D01*
X96079000Y-107814100D02*
X96079000Y-106484100D01*
%TO.C,U4*%
X164298800Y-121934200D02*
X163198800Y-121934200D01*
X164298800Y-122624200D02*
X164298800Y-121934200D01*
X165798800Y-122624200D02*
X164298800Y-122624200D01*
X164298800Y-112914200D02*
X159173800Y-112914200D01*
X164298800Y-112224200D02*
X164298800Y-112914200D01*
X165798800Y-112224200D02*
X164298800Y-112224200D01*
%TO.C,C21*%
X148479800Y-81136200D02*
X146779800Y-81136200D01*
X142959800Y-81136200D02*
X144659800Y-81136200D01*
X142959800Y-85591763D02*
X142959800Y-81136200D01*
X148479800Y-85591763D02*
X148479800Y-81136200D01*
X147415363Y-86656200D02*
X146779800Y-86656200D01*
X144024237Y-86656200D02*
X144659800Y-86656200D01*
X144024237Y-86656200D02*
X142959800Y-85591763D01*
X147415363Y-86656200D02*
X148479800Y-85591763D01*
%TO.C,C16*%
X169815800Y-98340200D02*
X169815800Y-96640200D01*
X169815800Y-92820200D02*
X169815800Y-94520200D01*
X165360237Y-92820200D02*
X169815800Y-92820200D01*
X165360237Y-98340200D02*
X169815800Y-98340200D01*
X164295800Y-97275763D02*
X164295800Y-96640200D01*
X164295800Y-93884637D02*
X164295800Y-94520200D01*
X164295800Y-93884637D02*
X165360237Y-92820200D01*
X164295800Y-97275763D02*
X165360237Y-98340200D01*
%TO.C,C17*%
X169815800Y-74464200D02*
X169815800Y-72764200D01*
X169815800Y-68944200D02*
X169815800Y-70644200D01*
X165360237Y-68944200D02*
X169815800Y-68944200D01*
X165360237Y-74464200D02*
X169815800Y-74464200D01*
X164295800Y-73399763D02*
X164295800Y-72764200D01*
X164295800Y-70008637D02*
X164295800Y-70644200D01*
X164295800Y-70008637D02*
X165360237Y-68944200D01*
X164295800Y-73399763D02*
X165360237Y-74464200D01*
%TO.C,U2*%
X166191800Y-56021200D02*
X165091800Y-56021200D01*
X166191800Y-56711200D02*
X166191800Y-56021200D01*
X167691800Y-56711200D02*
X166191800Y-56711200D01*
X166191800Y-47001200D02*
X161066800Y-47001200D01*
X166191800Y-46311200D02*
X166191800Y-47001200D01*
X167691800Y-46311200D02*
X166191800Y-46311200D01*
%TO.C,U3*%
X164613800Y-88406200D02*
X163513800Y-88406200D01*
X164613800Y-89096200D02*
X164613800Y-88406200D01*
X166113800Y-89096200D02*
X164613800Y-89096200D01*
X164613800Y-79386200D02*
X159488800Y-79386200D01*
X164613800Y-78696200D02*
X164613800Y-79386200D01*
X166113800Y-78696200D02*
X164613800Y-78696200D01*
%TO.C,Q1*%
X62665400Y-144742800D02*
X63765400Y-144742800D01*
X62665400Y-142932800D02*
X62665400Y-144742800D01*
X61165400Y-142932800D02*
X62665400Y-142932800D01*
X62665400Y-151522800D02*
X67790400Y-151522800D01*
X62665400Y-153332800D02*
X62665400Y-151522800D01*
X61165400Y-153332800D02*
X62665400Y-153332800D01*
%TO.C,R17*%
X58885500Y-90090036D02*
X58885500Y-91544164D01*
X57065500Y-90090036D02*
X57065500Y-91544164D01*
%TO.C,R16*%
X51265500Y-90090036D02*
X51265500Y-91544164D01*
X49445500Y-90090036D02*
X49445500Y-91544164D01*
%TO.C,J9*%
X42076000Y-121920000D02*
G75*
G03*
X42076000Y-121920000I-5500000J0D01*
G01*
%TO.C,D3*%
X80490800Y-124366400D02*
X76430800Y-124366400D01*
X76430800Y-124366400D02*
X76430800Y-126636400D01*
X76430800Y-126636400D02*
X80490800Y-126636400D01*
%TO.C,D2*%
X103858000Y-123580000D02*
X103858000Y-127880000D01*
X103858000Y-127880000D02*
X111158000Y-127880000D01*
X103858000Y-123580000D02*
X111158000Y-123580000D01*
%TO.C,D1*%
X75676000Y-148752000D02*
X73676000Y-148752000D01*
X73676000Y-148752000D02*
X73676000Y-152652000D01*
X75676000Y-148752000D02*
X75676000Y-152652000D01*
%TO.C,C25*%
X137938800Y-115395700D02*
X136238800Y-115395700D01*
X132418800Y-115395700D02*
X134118800Y-115395700D01*
X132418800Y-119851263D02*
X132418800Y-115395700D01*
X137938800Y-119851263D02*
X137938800Y-115395700D01*
X136874363Y-120915700D02*
X136238800Y-120915700D01*
X133483237Y-120915700D02*
X134118800Y-120915700D01*
X133483237Y-120915700D02*
X132418800Y-119851263D01*
X136874363Y-120915700D02*
X137938800Y-119851263D01*
%TO.C,C24*%
X139843800Y-81136200D02*
X138143800Y-81136200D01*
X134323800Y-81136200D02*
X136023800Y-81136200D01*
X134323800Y-85591763D02*
X134323800Y-81136200D01*
X139843800Y-85591763D02*
X139843800Y-81136200D01*
X138779363Y-86656200D02*
X138143800Y-86656200D01*
X135388237Y-86656200D02*
X136023800Y-86656200D01*
X135388237Y-86656200D02*
X134323800Y-85591763D01*
X138779363Y-86656200D02*
X139843800Y-85591763D01*
%TO.C,C23*%
X142510800Y-48751200D02*
X140810800Y-48751200D01*
X136990800Y-48751200D02*
X138690800Y-48751200D01*
X136990800Y-53206763D02*
X136990800Y-48751200D01*
X142510800Y-53206763D02*
X142510800Y-48751200D01*
X141446363Y-54271200D02*
X140810800Y-54271200D01*
X138055237Y-54271200D02*
X138690800Y-54271200D01*
X138055237Y-54271200D02*
X136990800Y-53206763D01*
X141446363Y-54271200D02*
X142510800Y-53206763D01*
%TO.C,C22*%
X148098800Y-115395700D02*
X146398800Y-115395700D01*
X142578800Y-115395700D02*
X144278800Y-115395700D01*
X142578800Y-119851263D02*
X142578800Y-115395700D01*
X148098800Y-119851263D02*
X148098800Y-115395700D01*
X147034363Y-120915700D02*
X146398800Y-120915700D01*
X143643237Y-120915700D02*
X144278800Y-120915700D01*
X143643237Y-120915700D02*
X142578800Y-119851263D01*
X147034363Y-120915700D02*
X148098800Y-119851263D01*
%TO.C,C20*%
X151400800Y-48751200D02*
X149700800Y-48751200D01*
X145880800Y-48751200D02*
X147580800Y-48751200D01*
X145880800Y-53206763D02*
X145880800Y-48751200D01*
X151400800Y-53206763D02*
X151400800Y-48751200D01*
X150336363Y-54271200D02*
X149700800Y-54271200D01*
X146945237Y-54271200D02*
X147580800Y-54271200D01*
X146945237Y-54271200D02*
X145880800Y-53206763D01*
X150336363Y-54271200D02*
X151400800Y-53206763D01*
%TO.C,C19*%
X169688800Y-107484200D02*
X169688800Y-105784200D01*
X169688800Y-101964200D02*
X169688800Y-103664200D01*
X165233237Y-101964200D02*
X169688800Y-101964200D01*
X165233237Y-107484200D02*
X169688800Y-107484200D01*
X164168800Y-106419763D02*
X164168800Y-105784200D01*
X164168800Y-103028637D02*
X164168800Y-103664200D01*
X164168800Y-103028637D02*
X165233237Y-101964200D01*
X164168800Y-106419763D02*
X165233237Y-107484200D01*
%TO.C,C18*%
X170146000Y-131792000D02*
X170146000Y-130092000D01*
X170146000Y-126272000D02*
X170146000Y-127972000D01*
X165690437Y-126272000D02*
X170146000Y-126272000D01*
X165690437Y-131792000D02*
X170146000Y-131792000D01*
X164626000Y-130727563D02*
X164626000Y-130092000D01*
X164626000Y-127336437D02*
X164626000Y-127972000D01*
X164626000Y-127336437D02*
X165690437Y-126272000D01*
X164626000Y-130727563D02*
X165690437Y-131792000D01*
%TO.C,C15*%
X170196800Y-42333200D02*
X170196800Y-40633200D01*
X170196800Y-36813200D02*
X170196800Y-38513200D01*
X165741237Y-36813200D02*
X170196800Y-36813200D01*
X165741237Y-42333200D02*
X170196800Y-42333200D01*
X164676800Y-41268763D02*
X164676800Y-40633200D01*
X164676800Y-37877637D02*
X164676800Y-38513200D01*
X164676800Y-37877637D02*
X165741237Y-36813200D01*
X164676800Y-41268763D02*
X165741237Y-42333200D01*
%TO.C,C14*%
X170196800Y-65193200D02*
X170196800Y-63493200D01*
X170196800Y-59673200D02*
X170196800Y-61373200D01*
X165741237Y-59673200D02*
X170196800Y-59673200D01*
X165741237Y-65193200D02*
X170196800Y-65193200D01*
X164676800Y-64128763D02*
X164676800Y-63493200D01*
X164676800Y-60737637D02*
X164676800Y-61373200D01*
X164676800Y-60737637D02*
X165741237Y-59673200D01*
X164676800Y-64128763D02*
X165741237Y-65193200D01*
%TO.C,C13*%
X146968800Y-106920952D02*
X146968800Y-105498448D01*
X148788800Y-106920952D02*
X148788800Y-105498448D01*
%TO.C,C12*%
X141761800Y-74993952D02*
X141761800Y-73571448D01*
X143581800Y-74993952D02*
X143581800Y-73571448D01*
%TO.C,C11*%
X143285800Y-42189452D02*
X143285800Y-40766948D01*
X145105800Y-42189452D02*
X145105800Y-40766948D01*
%TO.C,C10*%
X135191848Y-102315600D02*
X136614352Y-102315600D01*
X135191848Y-104135600D02*
X136614352Y-104135600D01*
%TO.C,C9*%
X136524548Y-75023300D02*
X137947052Y-75023300D01*
X136524548Y-76843300D02*
X137947052Y-76843300D01*
%TO.C,C8*%
X138443048Y-38256800D02*
X139865552Y-38256800D01*
X138443048Y-40076800D02*
X139865552Y-40076800D01*
%TO.C,C7*%
X51265500Y-97713348D02*
X51265500Y-99135852D01*
X49445500Y-97713348D02*
X49445500Y-99135852D01*
%TO.C,C6*%
X58885500Y-97713348D02*
X58885500Y-99135852D01*
X57065500Y-97713348D02*
X57065500Y-99135852D01*
%TO.C,C5*%
X150111400Y-160252800D02*
X153461400Y-160252800D01*
X166931400Y-160252800D02*
X163581400Y-160252800D01*
X166931400Y-144497237D02*
X166931400Y-160252800D01*
X150111400Y-144497237D02*
X150111400Y-160252800D01*
X151175837Y-143432800D02*
X153461400Y-143432800D01*
X165866963Y-143432800D02*
X163581400Y-143432800D01*
X165866963Y-143432800D02*
X166931400Y-144497237D01*
X151175837Y-143432800D02*
X150111400Y-144497237D01*
X165581400Y-141192800D02*
X165581400Y-143192800D01*
X166581400Y-142192800D02*
X164581400Y-142192800D01*
%TO.C,C4*%
X94788400Y-151574048D02*
X94788400Y-152996552D01*
X92968400Y-151574048D02*
X92968400Y-152996552D01*
%TO.C,C3*%
X127886400Y-160252800D02*
X131236400Y-160252800D01*
X144706400Y-160252800D02*
X141356400Y-160252800D01*
X144706400Y-144497237D02*
X144706400Y-160252800D01*
X127886400Y-144497237D02*
X127886400Y-160252800D01*
X128950837Y-143432800D02*
X131236400Y-143432800D01*
X143641963Y-143432800D02*
X141356400Y-143432800D01*
X143641963Y-143432800D02*
X144706400Y-144497237D01*
X128950837Y-143432800D02*
X127886400Y-144497237D01*
X143356400Y-141192800D02*
X143356400Y-143192800D01*
X144356400Y-142192800D02*
X142356400Y-142192800D01*
%TO.C,C2*%
X122830000Y-151688748D02*
X122830000Y-153111252D01*
X121010000Y-151688748D02*
X121010000Y-153111252D01*
%TO.C,C1*%
X89708400Y-151574048D02*
X89708400Y-152996552D01*
X87888400Y-151574048D02*
X87888400Y-152996552D01*
%TO.C,R1*%
X79142000Y-153424936D02*
X79142000Y-154879064D01*
X77322000Y-153424936D02*
X77322000Y-154879064D01*
%TO.C,R2*%
X80878000Y-150376936D02*
X80878000Y-151831064D01*
X82698000Y-150376936D02*
X82698000Y-151831064D01*
%TO.C,R3*%
X85905364Y-124591400D02*
X84451236Y-124591400D01*
X85905364Y-126411400D02*
X84451236Y-126411400D01*
%TO.C,R4*%
X139868864Y-43336800D02*
X138414736Y-43336800D01*
X139868864Y-45156800D02*
X138414736Y-45156800D01*
%TO.C,R5*%
X137913064Y-71966500D02*
X136458936Y-71966500D01*
X137913064Y-70146500D02*
X136458936Y-70146500D01*
%TO.C,R6*%
X136617664Y-109469600D02*
X135163536Y-109469600D01*
X136617664Y-107649600D02*
X135163536Y-107649600D01*
%TO.C,R7*%
X150693800Y-40725136D02*
X150693800Y-42179264D01*
X148873800Y-40725136D02*
X148873800Y-42179264D01*
%TO.C,R8*%
X155773800Y-42179264D02*
X155773800Y-40725136D01*
X153953800Y-42179264D02*
X153953800Y-40725136D01*
%TO.C,R9*%
X159033800Y-42179264D02*
X159033800Y-40725136D01*
X160853800Y-42179264D02*
X160853800Y-40725136D01*
%TO.C,R10*%
X147349800Y-73491136D02*
X147349800Y-74945264D01*
X149169800Y-73491136D02*
X149169800Y-74945264D01*
%TO.C,R11*%
X152175800Y-74945264D02*
X152175800Y-73491136D01*
X153995800Y-74945264D02*
X153995800Y-73491136D01*
%TO.C,R12*%
X157255800Y-74997264D02*
X157255800Y-73543136D01*
X159075800Y-74997264D02*
X159075800Y-73543136D01*
%TO.C,R13*%
X141380800Y-105495136D02*
X141380800Y-106949264D01*
X143200800Y-105495136D02*
X143200800Y-106949264D01*
%TO.C,R14*%
X152556800Y-106949264D02*
X152556800Y-105495136D01*
X154376800Y-106949264D02*
X154376800Y-105495136D01*
%TO.C,R15*%
X159456800Y-106949264D02*
X159456800Y-105495136D01*
X157636800Y-106949264D02*
X157636800Y-105495136D01*
%TO.C,SW1*%
X74190500Y-85342100D02*
G75*
G03*
X74190500Y-85342100I-3000000J0D01*
G01*
X72990500Y-79042100D02*
X77890500Y-79042100D01*
X77890500Y-91642100D02*
X72990500Y-91642100D01*
X69390500Y-91642100D02*
X64490500Y-91642100D01*
X64490500Y-91642100D02*
X64490500Y-88842100D01*
X69290500Y-79042100D02*
X64490500Y-79042100D01*
X64490500Y-79042100D02*
X64490500Y-81542100D01*
X63690500Y-81542100D02*
X63390500Y-81242100D01*
X63390500Y-81242100D02*
X63990500Y-81242100D01*
X63990500Y-81242100D02*
X63690500Y-81542100D01*
X77890500Y-79042100D02*
X77890500Y-81642100D01*
X77890500Y-84042100D02*
X77890500Y-86642100D01*
X77890500Y-89042100D02*
X77890500Y-91642100D01*
X71190500Y-84842100D02*
X71190500Y-85842100D01*
X70690500Y-85342100D02*
X71690500Y-85342100D01*
D10*
%TO.C,U1*%
X98996000Y-123630000D02*
X89096000Y-123630000D01*
X100896000Y-125630000D02*
X100896000Y-132330000D01*
X100896000Y-132330000D02*
X89096000Y-132330000D01*
X89096000Y-132330000D02*
X89096000Y-123630000D01*
D11*
%TO.C,L1*%
X102818400Y-151892800D02*
X102818400Y-148892800D01*
X115418400Y-151892800D02*
X102818400Y-151892800D01*
X115418400Y-148892800D02*
X115418400Y-151892800D01*
X115418400Y-139292800D02*
X115418400Y-142292800D01*
X102818400Y-139292800D02*
X115418400Y-139292800D01*
X102818400Y-142292800D02*
X102818400Y-139292800D01*
%TO.C,J12*%
X98679000Y-119144100D02*
X98679000Y-116484100D01*
X98679000Y-119144100D02*
X111439000Y-119144100D01*
X111439000Y-119144100D02*
X111439000Y-116484100D01*
X98679000Y-116484100D02*
X111439000Y-116484100D01*
X96079000Y-116484100D02*
X97409000Y-116484100D01*
X96079000Y-117814100D02*
X96079000Y-116484100D01*
%TO.C,J13*%
X75819000Y-119144100D02*
X75819000Y-116484100D01*
X75819000Y-119144100D02*
X93659000Y-119144100D01*
X93659000Y-119144100D02*
X93659000Y-116484100D01*
X75819000Y-116484100D02*
X93659000Y-116484100D01*
X73219000Y-116484100D02*
X74549000Y-116484100D01*
X73219000Y-117814100D02*
X73219000Y-116484100D01*
%TO.C,J16*%
X90999000Y-69554100D02*
X90999000Y-68224100D01*
X90999000Y-68224100D02*
X92329000Y-68224100D01*
X93599000Y-68224100D02*
X111439000Y-68224100D01*
X111439000Y-70884100D02*
X111439000Y-68224100D01*
X93599000Y-70884100D02*
X111439000Y-70884100D01*
X93599000Y-70884100D02*
X93599000Y-68224100D01*
%TO.C,J17*%
X66675000Y-70884100D02*
X66675000Y-68224100D01*
X66675000Y-70884100D02*
X89595000Y-70884100D01*
X89595000Y-70884100D02*
X89595000Y-68224100D01*
X66675000Y-68224100D02*
X89595000Y-68224100D01*
X64075000Y-68224100D02*
X65405000Y-68224100D01*
X64075000Y-69554100D02*
X64075000Y-68224100D01*
%TO.C,J8*%
D10*
X36242666Y-141288380D02*
X36242666Y-142002666D01*
X36195047Y-142145523D01*
X36099809Y-142240761D01*
X35956952Y-142288380D01*
X35861714Y-142288380D01*
X36861714Y-141716952D02*
X36766476Y-141669333D01*
X36718857Y-141621714D01*
X36671238Y-141526476D01*
X36671238Y-141478857D01*
X36718857Y-141383619D01*
X36766476Y-141336000D01*
X36861714Y-141288380D01*
X37052190Y-141288380D01*
X37147428Y-141336000D01*
X37195047Y-141383619D01*
X37242666Y-141478857D01*
X37242666Y-141526476D01*
X37195047Y-141621714D01*
X37147428Y-141669333D01*
X37052190Y-141716952D01*
X36861714Y-141716952D01*
X36766476Y-141764571D01*
X36718857Y-141812190D01*
X36671238Y-141907428D01*
X36671238Y-142097904D01*
X36718857Y-142193142D01*
X36766476Y-142240761D01*
X36861714Y-142288380D01*
X37052190Y-142288380D01*
X37147428Y-142240761D01*
X37195047Y-142193142D01*
X37242666Y-142097904D01*
X37242666Y-141907428D01*
X37195047Y-141812190D01*
X37147428Y-141764571D01*
X37052190Y-141716952D01*
%TO.C,A1*%
X75104714Y-116790766D02*
X75580904Y-116790766D01*
X75009476Y-117076480D02*
X75342809Y-116076480D01*
X75676142Y-117076480D01*
X76533285Y-117076480D02*
X75961857Y-117076480D01*
X76247571Y-117076480D02*
X76247571Y-116076480D01*
X76152333Y-116219338D01*
X76057095Y-116314576D01*
X75961857Y-116362195D01*
%TO.C,J11*%
X195122380Y-81487523D02*
X195836666Y-81487523D01*
X195979523Y-81535142D01*
X196074761Y-81630380D01*
X196122380Y-81773238D01*
X196122380Y-81868476D01*
X196122380Y-80487523D02*
X196122380Y-81058952D01*
X196122380Y-80773238D02*
X195122380Y-80773238D01*
X195265238Y-80868476D01*
X195360476Y-80963714D01*
X195408095Y-81058952D01*
X196122380Y-79535142D02*
X196122380Y-80106571D01*
X196122380Y-79820857D02*
X195122380Y-79820857D01*
X195265238Y-79916095D01*
X195360476Y-80011333D01*
X195408095Y-80106571D01*
%TO.C,J10*%
X94091380Y-108623623D02*
X94805666Y-108623623D01*
X94948523Y-108671242D01*
X95043761Y-108766480D01*
X95091380Y-108909338D01*
X95091380Y-109004576D01*
X95091380Y-107623623D02*
X95091380Y-108195052D01*
X95091380Y-107909338D02*
X94091380Y-107909338D01*
X94234238Y-108004576D01*
X94329476Y-108099814D01*
X94377095Y-108195052D01*
X94091380Y-107004576D02*
X94091380Y-106909338D01*
X94139000Y-106814100D01*
X94186619Y-106766480D01*
X94281857Y-106718861D01*
X94472333Y-106671242D01*
X94710428Y-106671242D01*
X94900904Y-106718861D01*
X94996142Y-106766480D01*
X95043761Y-106814100D01*
X95091380Y-106909338D01*
X95091380Y-107004576D01*
X95043761Y-107099814D01*
X94996142Y-107147433D01*
X94900904Y-107195052D01*
X94710428Y-107242671D01*
X94472333Y-107242671D01*
X94281857Y-107195052D01*
X94186619Y-107147433D01*
X94139000Y-107099814D01*
X94091380Y-107004576D01*
%TO.C,U4*%
X166486895Y-110226580D02*
X166486895Y-111036104D01*
X166534514Y-111131342D01*
X166582133Y-111178961D01*
X166677371Y-111226580D01*
X166867847Y-111226580D01*
X166963085Y-111178961D01*
X167010704Y-111131342D01*
X167058323Y-111036104D01*
X167058323Y-110226580D01*
X167963085Y-110559914D02*
X167963085Y-111226580D01*
X167724990Y-110178961D02*
X167486895Y-110893247D01*
X168105942Y-110893247D01*
%TO.C,C21*%
X142376942Y-84539057D02*
X142424561Y-84586676D01*
X142472180Y-84729533D01*
X142472180Y-84824771D01*
X142424561Y-84967628D01*
X142329323Y-85062866D01*
X142234085Y-85110485D01*
X142043609Y-85158104D01*
X141900752Y-85158104D01*
X141710276Y-85110485D01*
X141615038Y-85062866D01*
X141519800Y-84967628D01*
X141472180Y-84824771D01*
X141472180Y-84729533D01*
X141519800Y-84586676D01*
X141567419Y-84539057D01*
X141567419Y-84158104D02*
X141519800Y-84110485D01*
X141472180Y-84015247D01*
X141472180Y-83777152D01*
X141519800Y-83681914D01*
X141567419Y-83634295D01*
X141662657Y-83586676D01*
X141757895Y-83586676D01*
X141900752Y-83634295D01*
X142472180Y-84205723D01*
X142472180Y-83586676D01*
X142472180Y-82634295D02*
X142472180Y-83205723D01*
X142472180Y-82920009D02*
X141472180Y-82920009D01*
X141615038Y-83015247D01*
X141710276Y-83110485D01*
X141757895Y-83205723D01*
%TO.C,C16*%
X166412942Y-92237342D02*
X166365323Y-92284961D01*
X166222466Y-92332580D01*
X166127228Y-92332580D01*
X165984371Y-92284961D01*
X165889133Y-92189723D01*
X165841514Y-92094485D01*
X165793895Y-91904009D01*
X165793895Y-91761152D01*
X165841514Y-91570676D01*
X165889133Y-91475438D01*
X165984371Y-91380200D01*
X166127228Y-91332580D01*
X166222466Y-91332580D01*
X166365323Y-91380200D01*
X166412942Y-91427819D01*
X167365323Y-92332580D02*
X166793895Y-92332580D01*
X167079609Y-92332580D02*
X167079609Y-91332580D01*
X166984371Y-91475438D01*
X166889133Y-91570676D01*
X166793895Y-91618295D01*
X168222466Y-91332580D02*
X168031990Y-91332580D01*
X167936752Y-91380200D01*
X167889133Y-91427819D01*
X167793895Y-91570676D01*
X167746276Y-91761152D01*
X167746276Y-92142104D01*
X167793895Y-92237342D01*
X167841514Y-92284961D01*
X167936752Y-92332580D01*
X168127228Y-92332580D01*
X168222466Y-92284961D01*
X168270085Y-92237342D01*
X168317704Y-92142104D01*
X168317704Y-91904009D01*
X168270085Y-91808771D01*
X168222466Y-91761152D01*
X168127228Y-91713533D01*
X167936752Y-91713533D01*
X167841514Y-91761152D01*
X167793895Y-91808771D01*
X167746276Y-91904009D01*
%TO.C,C17*%
X166412942Y-68361342D02*
X166365323Y-68408961D01*
X166222466Y-68456580D01*
X166127228Y-68456580D01*
X165984371Y-68408961D01*
X165889133Y-68313723D01*
X165841514Y-68218485D01*
X165793895Y-68028009D01*
X165793895Y-67885152D01*
X165841514Y-67694676D01*
X165889133Y-67599438D01*
X165984371Y-67504200D01*
X166127228Y-67456580D01*
X166222466Y-67456580D01*
X166365323Y-67504200D01*
X166412942Y-67551819D01*
X167365323Y-68456580D02*
X166793895Y-68456580D01*
X167079609Y-68456580D02*
X167079609Y-67456580D01*
X166984371Y-67599438D01*
X166889133Y-67694676D01*
X166793895Y-67742295D01*
X167698657Y-67456580D02*
X168365323Y-67456580D01*
X167936752Y-68456580D01*
%TO.C,U2*%
X168379895Y-44313580D02*
X168379895Y-45123104D01*
X168427514Y-45218342D01*
X168475133Y-45265961D01*
X168570371Y-45313580D01*
X168760847Y-45313580D01*
X168856085Y-45265961D01*
X168903704Y-45218342D01*
X168951323Y-45123104D01*
X168951323Y-44313580D01*
X169379895Y-44408819D02*
X169427514Y-44361200D01*
X169522752Y-44313580D01*
X169760847Y-44313580D01*
X169856085Y-44361200D01*
X169903704Y-44408819D01*
X169951323Y-44504057D01*
X169951323Y-44599295D01*
X169903704Y-44742152D01*
X169332276Y-45313580D01*
X169951323Y-45313580D01*
%TO.C,U3*%
X166801895Y-76698580D02*
X166801895Y-77508104D01*
X166849514Y-77603342D01*
X166897133Y-77650961D01*
X166992371Y-77698580D01*
X167182847Y-77698580D01*
X167278085Y-77650961D01*
X167325704Y-77603342D01*
X167373323Y-77508104D01*
X167373323Y-76698580D01*
X167754276Y-76698580D02*
X168373323Y-76698580D01*
X168039990Y-77079533D01*
X168182847Y-77079533D01*
X168278085Y-77127152D01*
X168325704Y-77174771D01*
X168373323Y-77270009D01*
X168373323Y-77508104D01*
X168325704Y-77603342D01*
X168278085Y-77650961D01*
X168182847Y-77698580D01*
X167897133Y-77698580D01*
X167801895Y-77650961D01*
X167754276Y-77603342D01*
%TO.C,Q1*%
X59620161Y-155330419D02*
X59524923Y-155282800D01*
X59429685Y-155187561D01*
X59286828Y-155044704D01*
X59191590Y-154997085D01*
X59096352Y-154997085D01*
X59143971Y-155235180D02*
X59048733Y-155187561D01*
X58953495Y-155092323D01*
X58905876Y-154901847D01*
X58905876Y-154568514D01*
X58953495Y-154378038D01*
X59048733Y-154282800D01*
X59143971Y-154235180D01*
X59334447Y-154235180D01*
X59429685Y-154282800D01*
X59524923Y-154378038D01*
X59572542Y-154568514D01*
X59572542Y-154901847D01*
X59524923Y-155092323D01*
X59429685Y-155187561D01*
X59334447Y-155235180D01*
X59143971Y-155235180D01*
X60524923Y-155235180D02*
X59953495Y-155235180D01*
X60239209Y-155235180D02*
X60239209Y-154235180D01*
X60143971Y-154378038D01*
X60048733Y-154473276D01*
X59953495Y-154520895D01*
%TO.C,R17*%
X60247880Y-91459957D02*
X59771690Y-91793290D01*
X60247880Y-92031385D02*
X59247880Y-92031385D01*
X59247880Y-91650433D01*
X59295500Y-91555195D01*
X59343119Y-91507576D01*
X59438357Y-91459957D01*
X59581214Y-91459957D01*
X59676452Y-91507576D01*
X59724071Y-91555195D01*
X59771690Y-91650433D01*
X59771690Y-92031385D01*
X60247880Y-90507576D02*
X60247880Y-91079004D01*
X60247880Y-90793290D02*
X59247880Y-90793290D01*
X59390738Y-90888528D01*
X59485976Y-90983766D01*
X59533595Y-91079004D01*
X59247880Y-90174242D02*
X59247880Y-89507576D01*
X60247880Y-89936147D01*
%TO.C,R16*%
X52627880Y-91459957D02*
X52151690Y-91793290D01*
X52627880Y-92031385D02*
X51627880Y-92031385D01*
X51627880Y-91650433D01*
X51675500Y-91555195D01*
X51723119Y-91507576D01*
X51818357Y-91459957D01*
X51961214Y-91459957D01*
X52056452Y-91507576D01*
X52104071Y-91555195D01*
X52151690Y-91650433D01*
X52151690Y-92031385D01*
X52627880Y-90507576D02*
X52627880Y-91079004D01*
X52627880Y-90793290D02*
X51627880Y-90793290D01*
X51770738Y-90888528D01*
X51865976Y-90983766D01*
X51913595Y-91079004D01*
X51627880Y-89650433D02*
X51627880Y-89840909D01*
X51675500Y-89936147D01*
X51723119Y-89983766D01*
X51865976Y-90079004D01*
X52056452Y-90126623D01*
X52437404Y-90126623D01*
X52532642Y-90079004D01*
X52580261Y-90031385D01*
X52627880Y-89936147D01*
X52627880Y-89745671D01*
X52580261Y-89650433D01*
X52532642Y-89602814D01*
X52437404Y-89555195D01*
X52199309Y-89555195D01*
X52104071Y-89602814D01*
X52056452Y-89650433D01*
X52008833Y-89745671D01*
X52008833Y-89936147D01*
X52056452Y-90031385D01*
X52104071Y-90079004D01*
X52199309Y-90126623D01*
%TO.C,J9*%
X36242666Y-114872380D02*
X36242666Y-115586666D01*
X36195047Y-115729523D01*
X36099809Y-115824761D01*
X35956952Y-115872380D01*
X35861714Y-115872380D01*
X36766476Y-115872380D02*
X36956952Y-115872380D01*
X37052190Y-115824761D01*
X37099809Y-115777142D01*
X37195047Y-115634285D01*
X37242666Y-115443809D01*
X37242666Y-115062857D01*
X37195047Y-114967619D01*
X37147428Y-114920000D01*
X37052190Y-114872380D01*
X36861714Y-114872380D01*
X36766476Y-114920000D01*
X36718857Y-114967619D01*
X36671238Y-115062857D01*
X36671238Y-115300952D01*
X36718857Y-115396190D01*
X36766476Y-115443809D01*
X36861714Y-115491428D01*
X37052190Y-115491428D01*
X37147428Y-115443809D01*
X37195047Y-115396190D01*
X37242666Y-115300952D01*
%TO.C,D3*%
X78152704Y-124133780D02*
X78152704Y-123133780D01*
X78390800Y-123133780D01*
X78533657Y-123181400D01*
X78628895Y-123276638D01*
X78676514Y-123371876D01*
X78724133Y-123562352D01*
X78724133Y-123705209D01*
X78676514Y-123895685D01*
X78628895Y-123990923D01*
X78533657Y-124086161D01*
X78390800Y-124133780D01*
X78152704Y-124133780D01*
X79057466Y-123133780D02*
X79676514Y-123133780D01*
X79343180Y-123514733D01*
X79486038Y-123514733D01*
X79581276Y-123562352D01*
X79628895Y-123609971D01*
X79676514Y-123705209D01*
X79676514Y-123943304D01*
X79628895Y-124038542D01*
X79581276Y-124086161D01*
X79486038Y-124133780D01*
X79200323Y-124133780D01*
X79105085Y-124086161D01*
X79057466Y-124038542D01*
%TO.C,D2*%
X107719904Y-123182380D02*
X107719904Y-122182380D01*
X107958000Y-122182380D01*
X108100857Y-122230000D01*
X108196095Y-122325238D01*
X108243714Y-122420476D01*
X108291333Y-122610952D01*
X108291333Y-122753809D01*
X108243714Y-122944285D01*
X108196095Y-123039523D01*
X108100857Y-123134761D01*
X107958000Y-123182380D01*
X107719904Y-123182380D01*
X108672285Y-122277619D02*
X108719904Y-122230000D01*
X108815142Y-122182380D01*
X109053238Y-122182380D01*
X109148476Y-122230000D01*
X109196095Y-122277619D01*
X109243714Y-122372857D01*
X109243714Y-122468095D01*
X109196095Y-122610952D01*
X108624666Y-123182380D01*
X109243714Y-123182380D01*
%TO.C,D1*%
X77128380Y-151740095D02*
X76128380Y-151740095D01*
X76128380Y-151502000D01*
X76176000Y-151359142D01*
X76271238Y-151263904D01*
X76366476Y-151216285D01*
X76556952Y-151168666D01*
X76699809Y-151168666D01*
X76890285Y-151216285D01*
X76985523Y-151263904D01*
X77080761Y-151359142D01*
X77128380Y-151502000D01*
X77128380Y-151740095D01*
X77128380Y-150216285D02*
X77128380Y-150787714D01*
X77128380Y-150502000D02*
X76128380Y-150502000D01*
X76271238Y-150597238D01*
X76366476Y-150692476D01*
X76414095Y-150787714D01*
%TO.C,C25*%
X131835942Y-118798557D02*
X131883561Y-118846176D01*
X131931180Y-118989033D01*
X131931180Y-119084271D01*
X131883561Y-119227128D01*
X131788323Y-119322366D01*
X131693085Y-119369985D01*
X131502609Y-119417604D01*
X131359752Y-119417604D01*
X131169276Y-119369985D01*
X131074038Y-119322366D01*
X130978800Y-119227128D01*
X130931180Y-119084271D01*
X130931180Y-118989033D01*
X130978800Y-118846176D01*
X131026419Y-118798557D01*
X131026419Y-118417604D02*
X130978800Y-118369985D01*
X130931180Y-118274747D01*
X130931180Y-118036652D01*
X130978800Y-117941414D01*
X131026419Y-117893795D01*
X131121657Y-117846176D01*
X131216895Y-117846176D01*
X131359752Y-117893795D01*
X131931180Y-118465223D01*
X131931180Y-117846176D01*
X130931180Y-116941414D02*
X130931180Y-117417604D01*
X131407371Y-117465223D01*
X131359752Y-117417604D01*
X131312133Y-117322366D01*
X131312133Y-117084271D01*
X131359752Y-116989033D01*
X131407371Y-116941414D01*
X131502609Y-116893795D01*
X131740704Y-116893795D01*
X131835942Y-116941414D01*
X131883561Y-116989033D01*
X131931180Y-117084271D01*
X131931180Y-117322366D01*
X131883561Y-117417604D01*
X131835942Y-117465223D01*
%TO.C,C24*%
X133740942Y-84539057D02*
X133788561Y-84586676D01*
X133836180Y-84729533D01*
X133836180Y-84824771D01*
X133788561Y-84967628D01*
X133693323Y-85062866D01*
X133598085Y-85110485D01*
X133407609Y-85158104D01*
X133264752Y-85158104D01*
X133074276Y-85110485D01*
X132979038Y-85062866D01*
X132883800Y-84967628D01*
X132836180Y-84824771D01*
X132836180Y-84729533D01*
X132883800Y-84586676D01*
X132931419Y-84539057D01*
X132931419Y-84158104D02*
X132883800Y-84110485D01*
X132836180Y-84015247D01*
X132836180Y-83777152D01*
X132883800Y-83681914D01*
X132931419Y-83634295D01*
X133026657Y-83586676D01*
X133121895Y-83586676D01*
X133264752Y-83634295D01*
X133836180Y-84205723D01*
X133836180Y-83586676D01*
X133169514Y-82729533D02*
X133836180Y-82729533D01*
X132788561Y-82967628D02*
X133502847Y-83205723D01*
X133502847Y-82586676D01*
%TO.C,C23*%
X136407942Y-52154057D02*
X136455561Y-52201676D01*
X136503180Y-52344533D01*
X136503180Y-52439771D01*
X136455561Y-52582628D01*
X136360323Y-52677866D01*
X136265085Y-52725485D01*
X136074609Y-52773104D01*
X135931752Y-52773104D01*
X135741276Y-52725485D01*
X135646038Y-52677866D01*
X135550800Y-52582628D01*
X135503180Y-52439771D01*
X135503180Y-52344533D01*
X135550800Y-52201676D01*
X135598419Y-52154057D01*
X135598419Y-51773104D02*
X135550800Y-51725485D01*
X135503180Y-51630247D01*
X135503180Y-51392152D01*
X135550800Y-51296914D01*
X135598419Y-51249295D01*
X135693657Y-51201676D01*
X135788895Y-51201676D01*
X135931752Y-51249295D01*
X136503180Y-51820723D01*
X136503180Y-51201676D01*
X135503180Y-50868342D02*
X135503180Y-50249295D01*
X135884133Y-50582628D01*
X135884133Y-50439771D01*
X135931752Y-50344533D01*
X135979371Y-50296914D01*
X136074609Y-50249295D01*
X136312704Y-50249295D01*
X136407942Y-50296914D01*
X136455561Y-50344533D01*
X136503180Y-50439771D01*
X136503180Y-50725485D01*
X136455561Y-50820723D01*
X136407942Y-50868342D01*
%TO.C,C22*%
X141995942Y-118798557D02*
X142043561Y-118846176D01*
X142091180Y-118989033D01*
X142091180Y-119084271D01*
X142043561Y-119227128D01*
X141948323Y-119322366D01*
X141853085Y-119369985D01*
X141662609Y-119417604D01*
X141519752Y-119417604D01*
X141329276Y-119369985D01*
X141234038Y-119322366D01*
X141138800Y-119227128D01*
X141091180Y-119084271D01*
X141091180Y-118989033D01*
X141138800Y-118846176D01*
X141186419Y-118798557D01*
X141186419Y-118417604D02*
X141138800Y-118369985D01*
X141091180Y-118274747D01*
X141091180Y-118036652D01*
X141138800Y-117941414D01*
X141186419Y-117893795D01*
X141281657Y-117846176D01*
X141376895Y-117846176D01*
X141519752Y-117893795D01*
X142091180Y-118465223D01*
X142091180Y-117846176D01*
X141186419Y-117465223D02*
X141138800Y-117417604D01*
X141091180Y-117322366D01*
X141091180Y-117084271D01*
X141138800Y-116989033D01*
X141186419Y-116941414D01*
X141281657Y-116893795D01*
X141376895Y-116893795D01*
X141519752Y-116941414D01*
X142091180Y-117512842D01*
X142091180Y-116893795D01*
%TO.C,C20*%
X145297942Y-52154057D02*
X145345561Y-52201676D01*
X145393180Y-52344533D01*
X145393180Y-52439771D01*
X145345561Y-52582628D01*
X145250323Y-52677866D01*
X145155085Y-52725485D01*
X144964609Y-52773104D01*
X144821752Y-52773104D01*
X144631276Y-52725485D01*
X144536038Y-52677866D01*
X144440800Y-52582628D01*
X144393180Y-52439771D01*
X144393180Y-52344533D01*
X144440800Y-52201676D01*
X144488419Y-52154057D01*
X144488419Y-51773104D02*
X144440800Y-51725485D01*
X144393180Y-51630247D01*
X144393180Y-51392152D01*
X144440800Y-51296914D01*
X144488419Y-51249295D01*
X144583657Y-51201676D01*
X144678895Y-51201676D01*
X144821752Y-51249295D01*
X145393180Y-51820723D01*
X145393180Y-51201676D01*
X144393180Y-50582628D02*
X144393180Y-50487390D01*
X144440800Y-50392152D01*
X144488419Y-50344533D01*
X144583657Y-50296914D01*
X144774133Y-50249295D01*
X145012228Y-50249295D01*
X145202704Y-50296914D01*
X145297942Y-50344533D01*
X145345561Y-50392152D01*
X145393180Y-50487390D01*
X145393180Y-50582628D01*
X145345561Y-50677866D01*
X145297942Y-50725485D01*
X145202704Y-50773104D01*
X145012228Y-50820723D01*
X144774133Y-50820723D01*
X144583657Y-50773104D01*
X144488419Y-50725485D01*
X144440800Y-50677866D01*
X144393180Y-50582628D01*
%TO.C,C19*%
X166285942Y-101381342D02*
X166238323Y-101428961D01*
X166095466Y-101476580D01*
X166000228Y-101476580D01*
X165857371Y-101428961D01*
X165762133Y-101333723D01*
X165714514Y-101238485D01*
X165666895Y-101048009D01*
X165666895Y-100905152D01*
X165714514Y-100714676D01*
X165762133Y-100619438D01*
X165857371Y-100524200D01*
X166000228Y-100476580D01*
X166095466Y-100476580D01*
X166238323Y-100524200D01*
X166285942Y-100571819D01*
X167238323Y-101476580D02*
X166666895Y-101476580D01*
X166952609Y-101476580D02*
X166952609Y-100476580D01*
X166857371Y-100619438D01*
X166762133Y-100714676D01*
X166666895Y-100762295D01*
X167714514Y-101476580D02*
X167904990Y-101476580D01*
X168000228Y-101428961D01*
X168047847Y-101381342D01*
X168143085Y-101238485D01*
X168190704Y-101048009D01*
X168190704Y-100667057D01*
X168143085Y-100571819D01*
X168095466Y-100524200D01*
X168000228Y-100476580D01*
X167809752Y-100476580D01*
X167714514Y-100524200D01*
X167666895Y-100571819D01*
X167619276Y-100667057D01*
X167619276Y-100905152D01*
X167666895Y-101000390D01*
X167714514Y-101048009D01*
X167809752Y-101095628D01*
X168000228Y-101095628D01*
X168095466Y-101048009D01*
X168143085Y-101000390D01*
X168190704Y-100905152D01*
%TO.C,C18*%
X166743142Y-125689142D02*
X166695523Y-125736761D01*
X166552666Y-125784380D01*
X166457428Y-125784380D01*
X166314571Y-125736761D01*
X166219333Y-125641523D01*
X166171714Y-125546285D01*
X166124095Y-125355809D01*
X166124095Y-125212952D01*
X166171714Y-125022476D01*
X166219333Y-124927238D01*
X166314571Y-124832000D01*
X166457428Y-124784380D01*
X166552666Y-124784380D01*
X166695523Y-124832000D01*
X166743142Y-124879619D01*
X167695523Y-125784380D02*
X167124095Y-125784380D01*
X167409809Y-125784380D02*
X167409809Y-124784380D01*
X167314571Y-124927238D01*
X167219333Y-125022476D01*
X167124095Y-125070095D01*
X168266952Y-125212952D02*
X168171714Y-125165333D01*
X168124095Y-125117714D01*
X168076476Y-125022476D01*
X168076476Y-124974857D01*
X168124095Y-124879619D01*
X168171714Y-124832000D01*
X168266952Y-124784380D01*
X168457428Y-124784380D01*
X168552666Y-124832000D01*
X168600285Y-124879619D01*
X168647904Y-124974857D01*
X168647904Y-125022476D01*
X168600285Y-125117714D01*
X168552666Y-125165333D01*
X168457428Y-125212952D01*
X168266952Y-125212952D01*
X168171714Y-125260571D01*
X168124095Y-125308190D01*
X168076476Y-125403428D01*
X168076476Y-125593904D01*
X168124095Y-125689142D01*
X168171714Y-125736761D01*
X168266952Y-125784380D01*
X168457428Y-125784380D01*
X168552666Y-125736761D01*
X168600285Y-125689142D01*
X168647904Y-125593904D01*
X168647904Y-125403428D01*
X168600285Y-125308190D01*
X168552666Y-125260571D01*
X168457428Y-125212952D01*
%TO.C,C15*%
X166793942Y-36230342D02*
X166746323Y-36277961D01*
X166603466Y-36325580D01*
X166508228Y-36325580D01*
X166365371Y-36277961D01*
X166270133Y-36182723D01*
X166222514Y-36087485D01*
X166174895Y-35897009D01*
X166174895Y-35754152D01*
X166222514Y-35563676D01*
X166270133Y-35468438D01*
X166365371Y-35373200D01*
X166508228Y-35325580D01*
X166603466Y-35325580D01*
X166746323Y-35373200D01*
X166793942Y-35420819D01*
X167746323Y-36325580D02*
X167174895Y-36325580D01*
X167460609Y-36325580D02*
X167460609Y-35325580D01*
X167365371Y-35468438D01*
X167270133Y-35563676D01*
X167174895Y-35611295D01*
X168651085Y-35325580D02*
X168174895Y-35325580D01*
X168127276Y-35801771D01*
X168174895Y-35754152D01*
X168270133Y-35706533D01*
X168508228Y-35706533D01*
X168603466Y-35754152D01*
X168651085Y-35801771D01*
X168698704Y-35897009D01*
X168698704Y-36135104D01*
X168651085Y-36230342D01*
X168603466Y-36277961D01*
X168508228Y-36325580D01*
X168270133Y-36325580D01*
X168174895Y-36277961D01*
X168127276Y-36230342D01*
%TO.C,C14*%
X166793942Y-59090342D02*
X166746323Y-59137961D01*
X166603466Y-59185580D01*
X166508228Y-59185580D01*
X166365371Y-59137961D01*
X166270133Y-59042723D01*
X166222514Y-58947485D01*
X166174895Y-58757009D01*
X166174895Y-58614152D01*
X166222514Y-58423676D01*
X166270133Y-58328438D01*
X166365371Y-58233200D01*
X166508228Y-58185580D01*
X166603466Y-58185580D01*
X166746323Y-58233200D01*
X166793942Y-58280819D01*
X167746323Y-59185580D02*
X167174895Y-59185580D01*
X167460609Y-59185580D02*
X167460609Y-58185580D01*
X167365371Y-58328438D01*
X167270133Y-58423676D01*
X167174895Y-58471295D01*
X168603466Y-58518914D02*
X168603466Y-59185580D01*
X168365371Y-58137961D02*
X168127276Y-58852247D01*
X168746323Y-58852247D01*
%TO.C,C13*%
X146385942Y-106852557D02*
X146433561Y-106900176D01*
X146481180Y-107043033D01*
X146481180Y-107138271D01*
X146433561Y-107281128D01*
X146338323Y-107376366D01*
X146243085Y-107423985D01*
X146052609Y-107471604D01*
X145909752Y-107471604D01*
X145719276Y-107423985D01*
X145624038Y-107376366D01*
X145528800Y-107281128D01*
X145481180Y-107138271D01*
X145481180Y-107043033D01*
X145528800Y-106900176D01*
X145576419Y-106852557D01*
X146481180Y-105900176D02*
X146481180Y-106471604D01*
X146481180Y-106185890D02*
X145481180Y-106185890D01*
X145624038Y-106281128D01*
X145719276Y-106376366D01*
X145766895Y-106471604D01*
X145481180Y-105566842D02*
X145481180Y-104947795D01*
X145862133Y-105281128D01*
X145862133Y-105138271D01*
X145909752Y-105043033D01*
X145957371Y-104995414D01*
X146052609Y-104947795D01*
X146290704Y-104947795D01*
X146385942Y-104995414D01*
X146433561Y-105043033D01*
X146481180Y-105138271D01*
X146481180Y-105423985D01*
X146433561Y-105519223D01*
X146385942Y-105566842D01*
%TO.C,C12*%
X141178942Y-74925557D02*
X141226561Y-74973176D01*
X141274180Y-75116033D01*
X141274180Y-75211271D01*
X141226561Y-75354128D01*
X141131323Y-75449366D01*
X141036085Y-75496985D01*
X140845609Y-75544604D01*
X140702752Y-75544604D01*
X140512276Y-75496985D01*
X140417038Y-75449366D01*
X140321800Y-75354128D01*
X140274180Y-75211271D01*
X140274180Y-75116033D01*
X140321800Y-74973176D01*
X140369419Y-74925557D01*
X141274180Y-73973176D02*
X141274180Y-74544604D01*
X141274180Y-74258890D02*
X140274180Y-74258890D01*
X140417038Y-74354128D01*
X140512276Y-74449366D01*
X140559895Y-74544604D01*
X140369419Y-73592223D02*
X140321800Y-73544604D01*
X140274180Y-73449366D01*
X140274180Y-73211271D01*
X140321800Y-73116033D01*
X140369419Y-73068414D01*
X140464657Y-73020795D01*
X140559895Y-73020795D01*
X140702752Y-73068414D01*
X141274180Y-73639842D01*
X141274180Y-73020795D01*
%TO.C,C11*%
X142702942Y-42121057D02*
X142750561Y-42168676D01*
X142798180Y-42311533D01*
X142798180Y-42406771D01*
X142750561Y-42549628D01*
X142655323Y-42644866D01*
X142560085Y-42692485D01*
X142369609Y-42740104D01*
X142226752Y-42740104D01*
X142036276Y-42692485D01*
X141941038Y-42644866D01*
X141845800Y-42549628D01*
X141798180Y-42406771D01*
X141798180Y-42311533D01*
X141845800Y-42168676D01*
X141893419Y-42121057D01*
X142798180Y-41168676D02*
X142798180Y-41740104D01*
X142798180Y-41454390D02*
X141798180Y-41454390D01*
X141941038Y-41549628D01*
X142036276Y-41644866D01*
X142083895Y-41740104D01*
X142798180Y-40216295D02*
X142798180Y-40787723D01*
X142798180Y-40502009D02*
X141798180Y-40502009D01*
X141941038Y-40597247D01*
X142036276Y-40692485D01*
X142083895Y-40787723D01*
%TO.C,C10*%
X135260242Y-101732742D02*
X135212623Y-101780361D01*
X135069766Y-101827980D01*
X134974528Y-101827980D01*
X134831671Y-101780361D01*
X134736433Y-101685123D01*
X134688814Y-101589885D01*
X134641195Y-101399409D01*
X134641195Y-101256552D01*
X134688814Y-101066076D01*
X134736433Y-100970838D01*
X134831671Y-100875600D01*
X134974528Y-100827980D01*
X135069766Y-100827980D01*
X135212623Y-100875600D01*
X135260242Y-100923219D01*
X136212623Y-101827980D02*
X135641195Y-101827980D01*
X135926909Y-101827980D02*
X135926909Y-100827980D01*
X135831671Y-100970838D01*
X135736433Y-101066076D01*
X135641195Y-101113695D01*
X136831671Y-100827980D02*
X136926909Y-100827980D01*
X137022147Y-100875600D01*
X137069766Y-100923219D01*
X137117385Y-101018457D01*
X137165004Y-101208933D01*
X137165004Y-101447028D01*
X137117385Y-101637504D01*
X137069766Y-101732742D01*
X137022147Y-101780361D01*
X136926909Y-101827980D01*
X136831671Y-101827980D01*
X136736433Y-101780361D01*
X136688814Y-101732742D01*
X136641195Y-101637504D01*
X136593576Y-101447028D01*
X136593576Y-101208933D01*
X136641195Y-101018457D01*
X136688814Y-100923219D01*
X136736433Y-100875600D01*
X136831671Y-100827980D01*
%TO.C,C9*%
X137069133Y-74440442D02*
X137021514Y-74488061D01*
X136878657Y-74535680D01*
X136783419Y-74535680D01*
X136640561Y-74488061D01*
X136545323Y-74392823D01*
X136497704Y-74297585D01*
X136450085Y-74107109D01*
X136450085Y-73964252D01*
X136497704Y-73773776D01*
X136545323Y-73678538D01*
X136640561Y-73583300D01*
X136783419Y-73535680D01*
X136878657Y-73535680D01*
X137021514Y-73583300D01*
X137069133Y-73630919D01*
X137545323Y-74535680D02*
X137735800Y-74535680D01*
X137831038Y-74488061D01*
X137878657Y-74440442D01*
X137973895Y-74297585D01*
X138021514Y-74107109D01*
X138021514Y-73726157D01*
X137973895Y-73630919D01*
X137926276Y-73583300D01*
X137831038Y-73535680D01*
X137640561Y-73535680D01*
X137545323Y-73583300D01*
X137497704Y-73630919D01*
X137450085Y-73726157D01*
X137450085Y-73964252D01*
X137497704Y-74059490D01*
X137545323Y-74107109D01*
X137640561Y-74154728D01*
X137831038Y-74154728D01*
X137926276Y-74107109D01*
X137973895Y-74059490D01*
X138021514Y-73964252D01*
%TO.C,C8*%
X138987633Y-37673942D02*
X138940014Y-37721561D01*
X138797157Y-37769180D01*
X138701919Y-37769180D01*
X138559061Y-37721561D01*
X138463823Y-37626323D01*
X138416204Y-37531085D01*
X138368585Y-37340609D01*
X138368585Y-37197752D01*
X138416204Y-37007276D01*
X138463823Y-36912038D01*
X138559061Y-36816800D01*
X138701919Y-36769180D01*
X138797157Y-36769180D01*
X138940014Y-36816800D01*
X138987633Y-36864419D01*
X139559061Y-37197752D02*
X139463823Y-37150133D01*
X139416204Y-37102514D01*
X139368585Y-37007276D01*
X139368585Y-36959657D01*
X139416204Y-36864419D01*
X139463823Y-36816800D01*
X139559061Y-36769180D01*
X139749538Y-36769180D01*
X139844776Y-36816800D01*
X139892395Y-36864419D01*
X139940014Y-36959657D01*
X139940014Y-37007276D01*
X139892395Y-37102514D01*
X139844776Y-37150133D01*
X139749538Y-37197752D01*
X139559061Y-37197752D01*
X139463823Y-37245371D01*
X139416204Y-37292990D01*
X139368585Y-37388228D01*
X139368585Y-37578704D01*
X139416204Y-37673942D01*
X139463823Y-37721561D01*
X139559061Y-37769180D01*
X139749538Y-37769180D01*
X139844776Y-37721561D01*
X139892395Y-37673942D01*
X139940014Y-37578704D01*
X139940014Y-37388228D01*
X139892395Y-37292990D01*
X139844776Y-37245371D01*
X139749538Y-37197752D01*
%TO.C,C7*%
X52562642Y-98591266D02*
X52610261Y-98638885D01*
X52657880Y-98781742D01*
X52657880Y-98876980D01*
X52610261Y-99019838D01*
X52515023Y-99115076D01*
X52419785Y-99162695D01*
X52229309Y-99210314D01*
X52086452Y-99210314D01*
X51895976Y-99162695D01*
X51800738Y-99115076D01*
X51705500Y-99019838D01*
X51657880Y-98876980D01*
X51657880Y-98781742D01*
X51705500Y-98638885D01*
X51753119Y-98591266D01*
X51657880Y-98257933D02*
X51657880Y-97591266D01*
X52657880Y-98019838D01*
%TO.C,C6*%
X60182642Y-98591266D02*
X60230261Y-98638885D01*
X60277880Y-98781742D01*
X60277880Y-98876980D01*
X60230261Y-99019838D01*
X60135023Y-99115076D01*
X60039785Y-99162695D01*
X59849309Y-99210314D01*
X59706452Y-99210314D01*
X59515976Y-99162695D01*
X59420738Y-99115076D01*
X59325500Y-99019838D01*
X59277880Y-98876980D01*
X59277880Y-98781742D01*
X59325500Y-98638885D01*
X59373119Y-98591266D01*
X59277880Y-97734123D02*
X59277880Y-97924600D01*
X59325500Y-98019838D01*
X59373119Y-98067457D01*
X59515976Y-98162695D01*
X59706452Y-98210314D01*
X60087404Y-98210314D01*
X60182642Y-98162695D01*
X60230261Y-98115076D01*
X60277880Y-98019838D01*
X60277880Y-97829361D01*
X60230261Y-97734123D01*
X60182642Y-97686504D01*
X60087404Y-97638885D01*
X59849309Y-97638885D01*
X59754071Y-97686504D01*
X59706452Y-97734123D01*
X59658833Y-97829361D01*
X59658833Y-98019838D01*
X59706452Y-98115076D01*
X59754071Y-98162695D01*
X59849309Y-98210314D01*
%TO.C,C5*%
X168228542Y-152009466D02*
X168276161Y-152057085D01*
X168323780Y-152199942D01*
X168323780Y-152295180D01*
X168276161Y-152438038D01*
X168180923Y-152533276D01*
X168085685Y-152580895D01*
X167895209Y-152628514D01*
X167752352Y-152628514D01*
X167561876Y-152580895D01*
X167466638Y-152533276D01*
X167371400Y-152438038D01*
X167323780Y-152295180D01*
X167323780Y-152199942D01*
X167371400Y-152057085D01*
X167419019Y-152009466D01*
X167323780Y-151104704D02*
X167323780Y-151580895D01*
X167799971Y-151628514D01*
X167752352Y-151580895D01*
X167704733Y-151485657D01*
X167704733Y-151247561D01*
X167752352Y-151152323D01*
X167799971Y-151104704D01*
X167895209Y-151057085D01*
X168133304Y-151057085D01*
X168228542Y-151104704D01*
X168276161Y-151152323D01*
X168323780Y-151247561D01*
X168323780Y-151485657D01*
X168276161Y-151580895D01*
X168228542Y-151628514D01*
%TO.C,C4*%
X96085542Y-152451966D02*
X96133161Y-152499585D01*
X96180780Y-152642442D01*
X96180780Y-152737680D01*
X96133161Y-152880538D01*
X96037923Y-152975776D01*
X95942685Y-153023395D01*
X95752209Y-153071014D01*
X95609352Y-153071014D01*
X95418876Y-153023395D01*
X95323638Y-152975776D01*
X95228400Y-152880538D01*
X95180780Y-152737680D01*
X95180780Y-152642442D01*
X95228400Y-152499585D01*
X95276019Y-152451966D01*
X95514114Y-151594823D02*
X96180780Y-151594823D01*
X95133161Y-151832919D02*
X95847447Y-152071014D01*
X95847447Y-151451966D01*
%TO.C,C3*%
X146003542Y-152009466D02*
X146051161Y-152057085D01*
X146098780Y-152199942D01*
X146098780Y-152295180D01*
X146051161Y-152438038D01*
X145955923Y-152533276D01*
X145860685Y-152580895D01*
X145670209Y-152628514D01*
X145527352Y-152628514D01*
X145336876Y-152580895D01*
X145241638Y-152533276D01*
X145146400Y-152438038D01*
X145098780Y-152295180D01*
X145098780Y-152199942D01*
X145146400Y-152057085D01*
X145194019Y-152009466D01*
X145098780Y-151676133D02*
X145098780Y-151057085D01*
X145479733Y-151390419D01*
X145479733Y-151247561D01*
X145527352Y-151152323D01*
X145574971Y-151104704D01*
X145670209Y-151057085D01*
X145908304Y-151057085D01*
X146003542Y-151104704D01*
X146051161Y-151152323D01*
X146098780Y-151247561D01*
X146098780Y-151533276D01*
X146051161Y-151628514D01*
X146003542Y-151676133D01*
%TO.C,C2*%
X124127142Y-152566666D02*
X124174761Y-152614285D01*
X124222380Y-152757142D01*
X124222380Y-152852380D01*
X124174761Y-152995238D01*
X124079523Y-153090476D01*
X123984285Y-153138095D01*
X123793809Y-153185714D01*
X123650952Y-153185714D01*
X123460476Y-153138095D01*
X123365238Y-153090476D01*
X123270000Y-152995238D01*
X123222380Y-152852380D01*
X123222380Y-152757142D01*
X123270000Y-152614285D01*
X123317619Y-152566666D01*
X123317619Y-152185714D02*
X123270000Y-152138095D01*
X123222380Y-152042857D01*
X123222380Y-151804761D01*
X123270000Y-151709523D01*
X123317619Y-151661904D01*
X123412857Y-151614285D01*
X123508095Y-151614285D01*
X123650952Y-151661904D01*
X124222380Y-152233333D01*
X124222380Y-151614285D01*
%TO.C,C1*%
X91005542Y-152451966D02*
X91053161Y-152499585D01*
X91100780Y-152642442D01*
X91100780Y-152737680D01*
X91053161Y-152880538D01*
X90957923Y-152975776D01*
X90862685Y-153023395D01*
X90672209Y-153071014D01*
X90529352Y-153071014D01*
X90338876Y-153023395D01*
X90243638Y-152975776D01*
X90148400Y-152880538D01*
X90100780Y-152737680D01*
X90100780Y-152642442D01*
X90148400Y-152499585D01*
X90196019Y-152451966D01*
X91100780Y-151499585D02*
X91100780Y-152071014D01*
X91100780Y-151785300D02*
X90100780Y-151785300D01*
X90243638Y-151880538D01*
X90338876Y-151975776D01*
X90386495Y-152071014D01*
%TO.C,R1*%
X80504380Y-154318666D02*
X80028190Y-154652000D01*
X80504380Y-154890095D02*
X79504380Y-154890095D01*
X79504380Y-154509142D01*
X79552000Y-154413904D01*
X79599619Y-154366285D01*
X79694857Y-154318666D01*
X79837714Y-154318666D01*
X79932952Y-154366285D01*
X79980571Y-154413904D01*
X80028190Y-154509142D01*
X80028190Y-154890095D01*
X80504380Y-153366285D02*
X80504380Y-153937714D01*
X80504380Y-153652000D02*
X79504380Y-153652000D01*
X79647238Y-153747238D01*
X79742476Y-153842476D01*
X79790095Y-153937714D01*
%TO.C,R2*%
X84060380Y-151270666D02*
X83584190Y-151604000D01*
X84060380Y-151842095D02*
X83060380Y-151842095D01*
X83060380Y-151461142D01*
X83108000Y-151365904D01*
X83155619Y-151318285D01*
X83250857Y-151270666D01*
X83393714Y-151270666D01*
X83488952Y-151318285D01*
X83536571Y-151365904D01*
X83584190Y-151461142D01*
X83584190Y-151842095D01*
X83155619Y-150889714D02*
X83108000Y-150842095D01*
X83060380Y-150746857D01*
X83060380Y-150508761D01*
X83108000Y-150413523D01*
X83155619Y-150365904D01*
X83250857Y-150318285D01*
X83346095Y-150318285D01*
X83488952Y-150365904D01*
X84060380Y-150937333D01*
X84060380Y-150318285D01*
%TO.C,R3*%
X85011633Y-127773780D02*
X84678300Y-127297590D01*
X84440204Y-127773780D02*
X84440204Y-126773780D01*
X84821157Y-126773780D01*
X84916395Y-126821400D01*
X84964014Y-126869019D01*
X85011633Y-126964257D01*
X85011633Y-127107114D01*
X84964014Y-127202352D01*
X84916395Y-127249971D01*
X84821157Y-127297590D01*
X84440204Y-127297590D01*
X85344966Y-126773780D02*
X85964014Y-126773780D01*
X85630680Y-127154733D01*
X85773538Y-127154733D01*
X85868776Y-127202352D01*
X85916395Y-127249971D01*
X85964014Y-127345209D01*
X85964014Y-127583304D01*
X85916395Y-127678542D01*
X85868776Y-127726161D01*
X85773538Y-127773780D01*
X85487823Y-127773780D01*
X85392585Y-127726161D01*
X85344966Y-127678542D01*
%TO.C,R4*%
X138975133Y-46519180D02*
X138641800Y-46042990D01*
X138403704Y-46519180D02*
X138403704Y-45519180D01*
X138784657Y-45519180D01*
X138879895Y-45566800D01*
X138927514Y-45614419D01*
X138975133Y-45709657D01*
X138975133Y-45852514D01*
X138927514Y-45947752D01*
X138879895Y-45995371D01*
X138784657Y-46042990D01*
X138403704Y-46042990D01*
X139832276Y-45852514D02*
X139832276Y-46519180D01*
X139594180Y-45471561D02*
X139356085Y-46185847D01*
X139975133Y-46185847D01*
%TO.C,R5*%
X137019333Y-73328880D02*
X136686000Y-72852690D01*
X136447904Y-73328880D02*
X136447904Y-72328880D01*
X136828857Y-72328880D01*
X136924095Y-72376500D01*
X136971714Y-72424119D01*
X137019333Y-72519357D01*
X137019333Y-72662214D01*
X136971714Y-72757452D01*
X136924095Y-72805071D01*
X136828857Y-72852690D01*
X136447904Y-72852690D01*
X137924095Y-72328880D02*
X137447904Y-72328880D01*
X137400285Y-72805071D01*
X137447904Y-72757452D01*
X137543142Y-72709833D01*
X137781238Y-72709833D01*
X137876476Y-72757452D01*
X137924095Y-72805071D01*
X137971714Y-72900309D01*
X137971714Y-73138404D01*
X137924095Y-73233642D01*
X137876476Y-73281261D01*
X137781238Y-73328880D01*
X137543142Y-73328880D01*
X137447904Y-73281261D01*
X137400285Y-73233642D01*
%TO.C,R6*%
X135723933Y-110831980D02*
X135390600Y-110355790D01*
X135152504Y-110831980D02*
X135152504Y-109831980D01*
X135533457Y-109831980D01*
X135628695Y-109879600D01*
X135676314Y-109927219D01*
X135723933Y-110022457D01*
X135723933Y-110165314D01*
X135676314Y-110260552D01*
X135628695Y-110308171D01*
X135533457Y-110355790D01*
X135152504Y-110355790D01*
X136581076Y-109831980D02*
X136390600Y-109831980D01*
X136295361Y-109879600D01*
X136247742Y-109927219D01*
X136152504Y-110070076D01*
X136104885Y-110260552D01*
X136104885Y-110641504D01*
X136152504Y-110736742D01*
X136200123Y-110784361D01*
X136295361Y-110831980D01*
X136485838Y-110831980D01*
X136581076Y-110784361D01*
X136628695Y-110736742D01*
X136676314Y-110641504D01*
X136676314Y-110403409D01*
X136628695Y-110308171D01*
X136581076Y-110260552D01*
X136485838Y-110212933D01*
X136295361Y-110212933D01*
X136200123Y-110260552D01*
X136152504Y-110308171D01*
X136104885Y-110403409D01*
%TO.C,R7*%
X152056180Y-41618866D02*
X151579990Y-41952200D01*
X152056180Y-42190295D02*
X151056180Y-42190295D01*
X151056180Y-41809342D01*
X151103800Y-41714104D01*
X151151419Y-41666485D01*
X151246657Y-41618866D01*
X151389514Y-41618866D01*
X151484752Y-41666485D01*
X151532371Y-41714104D01*
X151579990Y-41809342D01*
X151579990Y-42190295D01*
X151056180Y-41285533D02*
X151056180Y-40618866D01*
X152056180Y-41047438D01*
%TO.C,R8*%
X153496180Y-41618866D02*
X153019990Y-41952200D01*
X153496180Y-42190295D02*
X152496180Y-42190295D01*
X152496180Y-41809342D01*
X152543800Y-41714104D01*
X152591419Y-41666485D01*
X152686657Y-41618866D01*
X152829514Y-41618866D01*
X152924752Y-41666485D01*
X152972371Y-41714104D01*
X153019990Y-41809342D01*
X153019990Y-42190295D01*
X152924752Y-41047438D02*
X152877133Y-41142676D01*
X152829514Y-41190295D01*
X152734276Y-41237914D01*
X152686657Y-41237914D01*
X152591419Y-41190295D01*
X152543800Y-41142676D01*
X152496180Y-41047438D01*
X152496180Y-40856961D01*
X152543800Y-40761723D01*
X152591419Y-40714104D01*
X152686657Y-40666485D01*
X152734276Y-40666485D01*
X152829514Y-40714104D01*
X152877133Y-40761723D01*
X152924752Y-40856961D01*
X152924752Y-41047438D01*
X152972371Y-41142676D01*
X153019990Y-41190295D01*
X153115228Y-41237914D01*
X153305704Y-41237914D01*
X153400942Y-41190295D01*
X153448561Y-41142676D01*
X153496180Y-41047438D01*
X153496180Y-40856961D01*
X153448561Y-40761723D01*
X153400942Y-40714104D01*
X153305704Y-40666485D01*
X153115228Y-40666485D01*
X153019990Y-40714104D01*
X152972371Y-40761723D01*
X152924752Y-40856961D01*
%TO.C,R9*%
X158576180Y-41618866D02*
X158099990Y-41952200D01*
X158576180Y-42190295D02*
X157576180Y-42190295D01*
X157576180Y-41809342D01*
X157623800Y-41714104D01*
X157671419Y-41666485D01*
X157766657Y-41618866D01*
X157909514Y-41618866D01*
X158004752Y-41666485D01*
X158052371Y-41714104D01*
X158099990Y-41809342D01*
X158099990Y-42190295D01*
X158576180Y-41142676D02*
X158576180Y-40952200D01*
X158528561Y-40856961D01*
X158480942Y-40809342D01*
X158338085Y-40714104D01*
X158147609Y-40666485D01*
X157766657Y-40666485D01*
X157671419Y-40714104D01*
X157623800Y-40761723D01*
X157576180Y-40856961D01*
X157576180Y-41047438D01*
X157623800Y-41142676D01*
X157671419Y-41190295D01*
X157766657Y-41237914D01*
X158004752Y-41237914D01*
X158099990Y-41190295D01*
X158147609Y-41142676D01*
X158195228Y-41047438D01*
X158195228Y-40856961D01*
X158147609Y-40761723D01*
X158099990Y-40714104D01*
X158004752Y-40666485D01*
%TO.C,R10*%
X150532180Y-74861057D02*
X150055990Y-75194390D01*
X150532180Y-75432485D02*
X149532180Y-75432485D01*
X149532180Y-75051533D01*
X149579800Y-74956295D01*
X149627419Y-74908676D01*
X149722657Y-74861057D01*
X149865514Y-74861057D01*
X149960752Y-74908676D01*
X150008371Y-74956295D01*
X150055990Y-75051533D01*
X150055990Y-75432485D01*
X150532180Y-73908676D02*
X150532180Y-74480104D01*
X150532180Y-74194390D02*
X149532180Y-74194390D01*
X149675038Y-74289628D01*
X149770276Y-74384866D01*
X149817895Y-74480104D01*
X149532180Y-73289628D02*
X149532180Y-73194390D01*
X149579800Y-73099152D01*
X149627419Y-73051533D01*
X149722657Y-73003914D01*
X149913133Y-72956295D01*
X150151228Y-72956295D01*
X150341704Y-73003914D01*
X150436942Y-73051533D01*
X150484561Y-73099152D01*
X150532180Y-73194390D01*
X150532180Y-73289628D01*
X150484561Y-73384866D01*
X150436942Y-73432485D01*
X150341704Y-73480104D01*
X150151228Y-73527723D01*
X149913133Y-73527723D01*
X149722657Y-73480104D01*
X149627419Y-73432485D01*
X149579800Y-73384866D01*
X149532180Y-73289628D01*
%TO.C,R11*%
X151718180Y-74861057D02*
X151241990Y-75194390D01*
X151718180Y-75432485D02*
X150718180Y-75432485D01*
X150718180Y-75051533D01*
X150765800Y-74956295D01*
X150813419Y-74908676D01*
X150908657Y-74861057D01*
X151051514Y-74861057D01*
X151146752Y-74908676D01*
X151194371Y-74956295D01*
X151241990Y-75051533D01*
X151241990Y-75432485D01*
X151718180Y-73908676D02*
X151718180Y-74480104D01*
X151718180Y-74194390D02*
X150718180Y-74194390D01*
X150861038Y-74289628D01*
X150956276Y-74384866D01*
X151003895Y-74480104D01*
X151718180Y-72956295D02*
X151718180Y-73527723D01*
X151718180Y-73242009D02*
X150718180Y-73242009D01*
X150861038Y-73337247D01*
X150956276Y-73432485D01*
X151003895Y-73527723D01*
%TO.C,R12*%
X156798180Y-74913057D02*
X156321990Y-75246390D01*
X156798180Y-75484485D02*
X155798180Y-75484485D01*
X155798180Y-75103533D01*
X155845800Y-75008295D01*
X155893419Y-74960676D01*
X155988657Y-74913057D01*
X156131514Y-74913057D01*
X156226752Y-74960676D01*
X156274371Y-75008295D01*
X156321990Y-75103533D01*
X156321990Y-75484485D01*
X156798180Y-73960676D02*
X156798180Y-74532104D01*
X156798180Y-74246390D02*
X155798180Y-74246390D01*
X155941038Y-74341628D01*
X156036276Y-74436866D01*
X156083895Y-74532104D01*
X155893419Y-73579723D02*
X155845800Y-73532104D01*
X155798180Y-73436866D01*
X155798180Y-73198771D01*
X155845800Y-73103533D01*
X155893419Y-73055914D01*
X155988657Y-73008295D01*
X156083895Y-73008295D01*
X156226752Y-73055914D01*
X156798180Y-73627342D01*
X156798180Y-73008295D01*
%TO.C,R13*%
X144563180Y-106865057D02*
X144086990Y-107198390D01*
X144563180Y-107436485D02*
X143563180Y-107436485D01*
X143563180Y-107055533D01*
X143610800Y-106960295D01*
X143658419Y-106912676D01*
X143753657Y-106865057D01*
X143896514Y-106865057D01*
X143991752Y-106912676D01*
X144039371Y-106960295D01*
X144086990Y-107055533D01*
X144086990Y-107436485D01*
X144563180Y-105912676D02*
X144563180Y-106484104D01*
X144563180Y-106198390D02*
X143563180Y-106198390D01*
X143706038Y-106293628D01*
X143801276Y-106388866D01*
X143848895Y-106484104D01*
X143563180Y-105579342D02*
X143563180Y-104960295D01*
X143944133Y-105293628D01*
X143944133Y-105150771D01*
X143991752Y-105055533D01*
X144039371Y-105007914D01*
X144134609Y-104960295D01*
X144372704Y-104960295D01*
X144467942Y-105007914D01*
X144515561Y-105055533D01*
X144563180Y-105150771D01*
X144563180Y-105436485D01*
X144515561Y-105531723D01*
X144467942Y-105579342D01*
%TO.C,R14*%
X152099180Y-106865057D02*
X151622990Y-107198390D01*
X152099180Y-107436485D02*
X151099180Y-107436485D01*
X151099180Y-107055533D01*
X151146800Y-106960295D01*
X151194419Y-106912676D01*
X151289657Y-106865057D01*
X151432514Y-106865057D01*
X151527752Y-106912676D01*
X151575371Y-106960295D01*
X151622990Y-107055533D01*
X151622990Y-107436485D01*
X152099180Y-105912676D02*
X152099180Y-106484104D01*
X152099180Y-106198390D02*
X151099180Y-106198390D01*
X151242038Y-106293628D01*
X151337276Y-106388866D01*
X151384895Y-106484104D01*
X151432514Y-105055533D02*
X152099180Y-105055533D01*
X151051561Y-105293628D02*
X151765847Y-105531723D01*
X151765847Y-104912676D01*
%TO.C,R15*%
X157179180Y-106865057D02*
X156702990Y-107198390D01*
X157179180Y-107436485D02*
X156179180Y-107436485D01*
X156179180Y-107055533D01*
X156226800Y-106960295D01*
X156274419Y-106912676D01*
X156369657Y-106865057D01*
X156512514Y-106865057D01*
X156607752Y-106912676D01*
X156655371Y-106960295D01*
X156702990Y-107055533D01*
X156702990Y-107436485D01*
X157179180Y-105912676D02*
X157179180Y-106484104D01*
X157179180Y-106198390D02*
X156179180Y-106198390D01*
X156322038Y-106293628D01*
X156417276Y-106388866D01*
X156464895Y-106484104D01*
X156179180Y-105007914D02*
X156179180Y-105484104D01*
X156655371Y-105531723D01*
X156607752Y-105484104D01*
X156560133Y-105388866D01*
X156560133Y-105150771D01*
X156607752Y-105055533D01*
X156655371Y-105007914D01*
X156750609Y-104960295D01*
X156988704Y-104960295D01*
X157083942Y-105007914D01*
X157131561Y-105055533D01*
X157179180Y-105150771D01*
X157179180Y-105388866D01*
X157131561Y-105484104D01*
X157083942Y-105531723D01*
%TO.C,SW1*%
X65157166Y-78546861D02*
X65300023Y-78594480D01*
X65538119Y-78594480D01*
X65633357Y-78546861D01*
X65680976Y-78499242D01*
X65728595Y-78404004D01*
X65728595Y-78308766D01*
X65680976Y-78213528D01*
X65633357Y-78165909D01*
X65538119Y-78118290D01*
X65347642Y-78070671D01*
X65252404Y-78023052D01*
X65204785Y-77975433D01*
X65157166Y-77880195D01*
X65157166Y-77784957D01*
X65204785Y-77689719D01*
X65252404Y-77642100D01*
X65347642Y-77594480D01*
X65585738Y-77594480D01*
X65728595Y-77642100D01*
X66061928Y-77594480D02*
X66300023Y-78594480D01*
X66490500Y-77880195D01*
X66680976Y-78594480D01*
X66919071Y-77594480D01*
X67823833Y-78594480D02*
X67252404Y-78594480D01*
X67538119Y-78594480D02*
X67538119Y-77594480D01*
X67442880Y-77737338D01*
X67347642Y-77832576D01*
X67252404Y-77880195D01*
%TO.C,U1*%
X94234095Y-121882380D02*
X94234095Y-122691904D01*
X94281714Y-122787142D01*
X94329333Y-122834761D01*
X94424571Y-122882380D01*
X94615047Y-122882380D01*
X94710285Y-122834761D01*
X94757904Y-122787142D01*
X94805523Y-122691904D01*
X94805523Y-121882380D01*
X95805523Y-122882380D02*
X95234095Y-122882380D01*
X95519809Y-122882380D02*
X95519809Y-121882380D01*
X95424571Y-122025238D01*
X95329333Y-122120476D01*
X95234095Y-122168095D01*
%TO.C,L1*%
X108951733Y-138845180D02*
X108475542Y-138845180D01*
X108475542Y-137845180D01*
X109808876Y-138845180D02*
X109237447Y-138845180D01*
X109523161Y-138845180D02*
X109523161Y-137845180D01*
X109427923Y-137988038D01*
X109332685Y-138083276D01*
X109237447Y-138130895D01*
%TO.C,J12*%
X94091380Y-118623623D02*
X94805666Y-118623623D01*
X94948523Y-118671242D01*
X95043761Y-118766480D01*
X95091380Y-118909338D01*
X95091380Y-119004576D01*
X95091380Y-117623623D02*
X95091380Y-118195052D01*
X95091380Y-117909338D02*
X94091380Y-117909338D01*
X94234238Y-118004576D01*
X94329476Y-118099814D01*
X94377095Y-118195052D01*
X94186619Y-117242671D02*
X94139000Y-117195052D01*
X94091380Y-117099814D01*
X94091380Y-116861719D01*
X94139000Y-116766480D01*
X94186619Y-116718861D01*
X94281857Y-116671242D01*
X94377095Y-116671242D01*
X94519952Y-116718861D01*
X95091380Y-117290290D01*
X95091380Y-116671242D01*
%TO.C,J13*%
X71231380Y-118623623D02*
X71945666Y-118623623D01*
X72088523Y-118671242D01*
X72183761Y-118766480D01*
X72231380Y-118909338D01*
X72231380Y-119004576D01*
X72231380Y-117623623D02*
X72231380Y-118195052D01*
X72231380Y-117909338D02*
X71231380Y-117909338D01*
X71374238Y-118004576D01*
X71469476Y-118099814D01*
X71517095Y-118195052D01*
X71231380Y-117290290D02*
X71231380Y-116671242D01*
X71612333Y-117004576D01*
X71612333Y-116861719D01*
X71659952Y-116766480D01*
X71707571Y-116718861D01*
X71802809Y-116671242D01*
X72040904Y-116671242D01*
X72136142Y-116718861D01*
X72183761Y-116766480D01*
X72231380Y-116861719D01*
X72231380Y-117147433D01*
X72183761Y-117242671D01*
X72136142Y-117290290D01*
%TO.C,J16*%
X89011380Y-70363623D02*
X89725666Y-70363623D01*
X89868523Y-70411242D01*
X89963761Y-70506480D01*
X90011380Y-70649338D01*
X90011380Y-70744576D01*
X90011380Y-69363623D02*
X90011380Y-69935052D01*
X90011380Y-69649338D02*
X89011380Y-69649338D01*
X89154238Y-69744576D01*
X89249476Y-69839814D01*
X89297095Y-69935052D01*
X89011380Y-68506480D02*
X89011380Y-68696957D01*
X89059000Y-68792195D01*
X89106619Y-68839814D01*
X89249476Y-68935052D01*
X89439952Y-68982671D01*
X89820904Y-68982671D01*
X89916142Y-68935052D01*
X89963761Y-68887433D01*
X90011380Y-68792195D01*
X90011380Y-68601719D01*
X89963761Y-68506480D01*
X89916142Y-68458861D01*
X89820904Y-68411242D01*
X89582809Y-68411242D01*
X89487571Y-68458861D01*
X89439952Y-68506480D01*
X89392333Y-68601719D01*
X89392333Y-68792195D01*
X89439952Y-68887433D01*
X89487571Y-68935052D01*
X89582809Y-68982671D01*
%TO.C,J17*%
X62087380Y-70363623D02*
X62801666Y-70363623D01*
X62944523Y-70411242D01*
X63039761Y-70506480D01*
X63087380Y-70649338D01*
X63087380Y-70744576D01*
X63087380Y-69363623D02*
X63087380Y-69935052D01*
X63087380Y-69649338D02*
X62087380Y-69649338D01*
X62230238Y-69744576D01*
X62325476Y-69839814D01*
X62373095Y-69935052D01*
X62087380Y-69030290D02*
X62087380Y-68363623D01*
X63087380Y-68792195D01*
%TD*%
M02*
