%FSLAX45Y45*%
G04 Gerber Fmt 4.5, Leading zero omitted, Abs format (unit mm)*
G04 Created by KiCad (PCBNEW 5.1.10) date 2021-11-15 11:07:09*
%MOMM*%
%LPD*%
G01*
G04 APERTURE LIST*
%TA.AperFunction,Profile*%
%ADD10C,0.150000*%
%TD*%
%ADD11C,0.200000*%
%ADD12C,0.300000*%
G04 APERTURE END LIST*
D10*
X19939000Y-6096000D02*
X19939000Y-15367000D01*
X4064000Y-15367000D02*
X4064000Y-6096000D01*
X19939000Y-15367000D02*
X4064000Y-15367000D01*
X4064000Y-6096000D02*
X19939000Y-6096000D01*
D11*
D12*
X4342928Y-15840214D02*
X4342928Y-15540214D01*
X4414357Y-15540214D01*
X4457214Y-15554500D01*
X4485786Y-15583071D01*
X4500071Y-15611643D01*
X4514357Y-15668786D01*
X4514357Y-15711643D01*
X4500071Y-15768786D01*
X4485786Y-15797357D01*
X4457214Y-15825929D01*
X4414357Y-15840214D01*
X4342928Y-15840214D01*
X4642928Y-15840214D02*
X4642928Y-15640214D01*
X4642928Y-15697357D02*
X4657214Y-15668786D01*
X4671500Y-15654500D01*
X4700071Y-15640214D01*
X4728643Y-15640214D01*
X4828643Y-15840214D02*
X4828643Y-15640214D01*
X4828643Y-15540214D02*
X4814357Y-15554500D01*
X4828643Y-15568786D01*
X4842928Y-15554500D01*
X4828643Y-15540214D01*
X4828643Y-15568786D01*
X5014357Y-15840214D02*
X4985786Y-15825929D01*
X4971500Y-15797357D01*
X4971500Y-15540214D01*
X5171500Y-15840214D02*
X5142928Y-15825929D01*
X5128643Y-15797357D01*
X5128643Y-15540214D01*
X5514357Y-15840214D02*
X5514357Y-15540214D01*
X5614357Y-15754500D01*
X5714357Y-15540214D01*
X5714357Y-15840214D01*
X5985786Y-15840214D02*
X5985786Y-15683071D01*
X5971500Y-15654500D01*
X5942928Y-15640214D01*
X5885786Y-15640214D01*
X5857214Y-15654500D01*
X5985786Y-15825929D02*
X5957214Y-15840214D01*
X5885786Y-15840214D01*
X5857214Y-15825929D01*
X5842928Y-15797357D01*
X5842928Y-15768786D01*
X5857214Y-15740214D01*
X5885786Y-15725929D01*
X5957214Y-15725929D01*
X5985786Y-15711643D01*
X6128643Y-15640214D02*
X6128643Y-15940214D01*
X6128643Y-15654500D02*
X6157214Y-15640214D01*
X6214357Y-15640214D01*
X6242928Y-15654500D01*
X6257214Y-15668786D01*
X6271500Y-15697357D01*
X6271500Y-15783071D01*
X6257214Y-15811643D01*
X6242928Y-15825929D01*
X6214357Y-15840214D01*
X6157214Y-15840214D01*
X6128643Y-15825929D01*
X6400071Y-15811643D02*
X6414357Y-15825929D01*
X6400071Y-15840214D01*
X6385786Y-15825929D01*
X6400071Y-15811643D01*
X6400071Y-15840214D01*
X6400071Y-15654500D02*
X6414357Y-15668786D01*
X6400071Y-15683071D01*
X6385786Y-15668786D01*
X6400071Y-15654500D01*
X6400071Y-15683071D01*
M02*
